<?xml version="1.0" encoding="utf-8"?>
<!-- Generator: Adobe Illustrator 15.0.2, SVG Export Plug-In . SVG Version: 6.00 Build 0)  -->
<!DOCTYPE svg PUBLIC "-//W3C//DTD SVG 1.1//EN" "http://www.w3.org/Graphics/SVG/1.1/DTD/svg11.dtd">
<svg version="1.1" id="Calque_1" xmlns="http://www.w3.org/2000/svg" xmlns:xlink="http://www.w3.org/1999/xlink" x="0px" y="0px"
	 width="80px" height="24px" viewBox="0 0 80 24" enable-background="new 0 0 80 24" xml:space="preserve">
<path fill="#EEEBE8" d="M78,0H2C0.9,0,0,0.9,0,2v20c0,1.1,0.9,2,2,2h76c1.1,0,2-0.9,2-2V2C80,0.9,79.1,0,78,0z M79,22
	c0,0.55-0.45,1-1,1H2c-0.55,0-1-0.45-1-1V2c0-0.55,0.45-1,1-1h76c0.55,0,1,0.45,1,1V22z"/>
<path fill="#2AEDFF" d="M78,1H2C1.45,1,1,1.45,1,2v20c0,0.55,0.45,1,1,1h76c0.55,0,1-0.45,1-1V2C79,1.45,78.55,1,78,1z M78,21
	c0,0.55-0.45,1-1,1H3c-0.55,0-1-0.45-1-1V3c0-0.55,0.45-1,1-1h74c0.55,0,1,0.45,1,1V21z"/>
<path fill="#EEEBE8" d="M77,2H3C2.45,2,2,2.45,2,3v18c0,0.55,0.45,1,1,1h74c0.55,0,1-0.45,1-1V3C78,2.45,77.55,2,77,2z"/>
</svg>
