<?xml version="1.0" encoding="utf-8"?>
<!-- Generator: Adobe Illustrator 15.0.2, SVG Export Plug-In . SVG Version: 6.00 Build 0)  -->
<!DOCTYPE svg PUBLIC "-//W3C//DTD SVG 1.1//EN" "http://www.w3.org/Graphics/SVG/1.1/DTD/svg11.dtd">
<svg version="1.1" id="Calque_1" xmlns="http://www.w3.org/2000/svg" xmlns:xlink="http://www.w3.org/1999/xlink" x="0px" y="0px"
	 width="160px" height="34px" viewBox="-32 0 160 34" enable-background="new -32 0 160 34" xml:space="preserve">
<g>
	<rect y="1" fill="#2AEDFF" width="32" height="32"/>
	<rect x="1" y="2" fill="#E8C6B0" width="30" height="30"/>
	<g>
		<g>
			<polygon fill="#FFFBFF" points="7.915,14.542 7.915,23 24.085,23 24.085,14.542 16,18.563 			"/>
			<polygon fill="#FFFBFF" points="7.915,11 7.915,13.25 16,17.269 24.085,13.25 24.085,11 			"/>
		</g>
	</g>
</g>
<g>
	<rect x="-32" y="1" fill="#2AEDFF" width="32" height="32"/>
	<rect x="-31" y="2" fill="#E8C6B0" width="30" height="30"/>
	<g>
		<g>
			<polygon fill="#FFFBFF" points="-24.085,14.542 -24.085,23 -7.915,23 -7.915,14.542 -16,18.563 			"/>
			<polygon fill="#FFFBFF" points="-24.085,11 -24.085,13.25 -16,17.269 -7.915,13.25 -7.915,11 			"/>
		</g>
	</g>
</g>
<g>
	<rect x="32" y="1" fill="#2AEDFF" width="32" height="32"/>
	<rect x="33" y="2" fill="#E8C6B0" width="30" height="30"/>
	<g>
		<g>
			<polygon fill="#5F5F77" points="39.915,14.542 39.915,23 56.085,23 56.085,14.542 48,18.563 			"/>
			<polygon fill="#5F5F77" points="39.915,11 39.915,13.25 48,17.27 56.085,13.25 56.085,11 			"/>
		</g>
	</g>
</g>
<g>
	<rect x="64" y="1" fill="#2AEDFF" width="32" height="32"/>
	<rect x="65" y="2" fill="#E8C6B0" width="30" height="30"/>
	<g>
		<g>
			<polygon fill="#5F5F77" points="71.915,14.542 71.915,23 88.085,23 88.085,14.542 80,18.563 			"/>
			<polygon fill="#5F5F77" points="71.915,11 71.915,13.25 80,17.27 88.085,13.25 88.085,11 			"/>
		</g>
	</g>
</g>
<g>
	<rect x="96" y="1" fill="#2AEDFF" width="32" height="32"/>
	<rect x="97" y="2" fill="#E8C6B0" width="30" height="30"/>
	<g>
		<g>
			<polygon fill="#5F5F77" points="103.915,14.542 103.915,23 120.085,23 120.085,14.542 112,18.563 			"/>
			<polygon fill="#5F5F77" points="103.915,11 103.915,13.25 112,17.27 120.085,13.25 120.085,11 			"/>
		</g>
	</g>
</g>
</svg>
