<?xml version="1.0" encoding="utf-8"?>
<!-- Generator: Adobe Illustrator 15.0.2, SVG Export Plug-In . SVG Version: 6.00 Build 0)  -->
<!DOCTYPE svg PUBLIC "-//W3C//DTD SVG 1.1//EN" "http://www.w3.org/Graphics/SVG/1.1/DTD/svg11.dtd">
<svg version="1.1" id="Calque_1" xmlns="http://www.w3.org/2000/svg" xmlns:xlink="http://www.w3.org/1999/xlink" x="0px" y="0px"
	 width="160px" height="34px" viewBox="-32 0 160 34" enable-background="new -32 0 160 34" xml:space="preserve">
<g>
	<rect y="1" fill="#2AEDFF" width="32" height="32"/>
	<rect x="1" y="2" fill="#E8C6B0" width="30" height="30"/>
	<g>
		<path fill="#FFFBFF" d="M15.999,9.978c-2.591,0-4.69,2.1-4.69,4.69c0,2.592,2.101,4.689,4.69,4.689c2.592,0,4.69-2.102,4.69-4.689
			S18.591,9.978,15.999,9.978z M16.229,18.383c-1.398,0-2.629-0.918-3.346-2.308h6.69C18.855,17.464,17.627,18.383,16.229,18.383z"
			/>
		<path fill="#FFFBFF" d="M18.83,19.968c-0.844,0.452-1.809,0.712-2.831,0.712s-1.985-0.259-2.83-0.712
			c-1.821,0.479-3.251,1.613-3.905,4.056h13.472C22.082,21.581,20.654,20.445,18.83,19.968z"/>
	</g>
</g>
<g>
	<rect x="-32" y="1" fill="#2AEDFF" width="32" height="32"/>
	<rect x="-31" y="2" fill="#E8C6B0" width="30" height="30"/>
	<g>
		<path fill="#FFFBFF" d="M-16.001,9.978c-2.591,0-4.69,2.1-4.69,4.69c0,2.592,2.101,4.689,4.69,4.689
			c2.592,0,4.69-2.102,4.69-4.689S-13.409,9.978-16.001,9.978z M-15.771,18.383c-1.398,0-2.629-0.918-3.346-2.308h6.69
			C-13.145,17.464-14.373,18.383-15.771,18.383z"/>
		<path fill="#FFFBFF" d="M-13.17,19.968c-0.844,0.452-1.809,0.712-2.831,0.712s-1.985-0.259-2.83-0.712
			c-1.821,0.479-3.251,1.613-3.905,4.056h13.472C-9.918,21.581-11.346,20.445-13.17,19.968z"/>
	</g>
</g>
<g>
	<rect x="32" y="1" fill="#2AEDFF" width="32" height="32"/>
	<rect x="33" y="2" fill="#E8C6B0" width="30" height="30"/>
	<g>
		<path fill="#5F5F77" d="M47.999,9.978c-2.591,0-4.69,2.1-4.69,4.689c0,2.592,2.102,4.69,4.69,4.69c2.592,0,4.69-2.104,4.69-4.69
			S50.591,9.978,47.999,9.978z M48.229,18.383c-1.397,0-2.629-0.919-3.346-2.308h6.69C50.854,17.464,49.627,18.383,48.229,18.383z"
			/>
		<path fill="#5F5F77" d="M50.83,19.968c-0.846,0.452-1.811,0.712-2.831,0.712c-1.022,0-1.985-0.259-2.83-0.712
			c-1.821,0.479-3.251,1.613-3.905,4.056h13.473C54.082,21.581,52.654,20.445,50.83,19.968z"/>
	</g>
</g>
<g>
	<rect x="64" y="1" fill="#2AEDFF" width="32" height="32"/>
	<rect x="65" y="2" fill="#E8C6B0" width="30" height="30"/>
	<g>
		<path fill="#5F5F77" d="M79.999,9.978c-2.591,0-4.69,2.1-4.69,4.689c0,2.592,2.103,4.69,4.69,4.69c2.592,0,4.69-2.104,4.69-4.69
			S82.591,9.978,79.999,9.978z M80.229,18.383c-1.396,0-2.629-0.919-3.346-2.308h6.689C82.854,17.464,81.627,18.383,80.229,18.383z"
			/>
		<path fill="#5F5F77" d="M82.83,19.968c-0.846,0.452-1.811,0.712-2.831,0.712c-1.022,0-1.985-0.259-2.83-0.712
			c-1.821,0.479-3.251,1.613-3.905,4.056h13.473C86.082,21.581,84.654,20.445,82.83,19.968z"/>
	</g>
</g>
<g>
	<rect x="96" y="1" fill="#2AEDFF" width="32" height="32"/>
	<rect x="97" y="2" fill="#E8C6B0" width="30" height="30"/>
	<g>
		<path fill="#5F5F77" d="M111.999,9.978c-2.591,0-4.69,2.1-4.69,4.689c0,2.592,2.103,4.69,4.69,4.69c2.592,0,4.69-2.104,4.69-4.69
			S114.591,9.978,111.999,9.978z M112.229,18.383c-1.396,0-2.629-0.919-3.346-2.308h6.689
			C114.854,17.464,113.627,18.383,112.229,18.383z"/>
		<path fill="#5F5F77" d="M114.83,19.968c-0.846,0.452-1.811,0.712-2.831,0.712c-1.022,0-1.985-0.259-2.83-0.712
			c-1.821,0.479-3.251,1.613-3.905,4.056h13.473C118.082,21.581,116.654,20.445,114.83,19.968z"/>
	</g>
</g>
</svg>
