<?xml version="1.0" encoding="utf-8"?>
<!-- Generator: Adobe Illustrator 15.0.2, SVG Export Plug-In . SVG Version: 6.00 Build 0)  -->
<!DOCTYPE svg PUBLIC "-//W3C//DTD SVG 1.1//EN" "http://www.w3.org/Graphics/SVG/1.1/DTD/svg11.dtd">
<svg version="1.1" id="Calque_1" xmlns="http://www.w3.org/2000/svg" xmlns:xlink="http://www.w3.org/1999/xlink" x="0px" y="0px"
	 width="160px" height="34px" viewBox="-32 0 160 34" enable-background="new -32 0 160 34" xml:space="preserve">
<g>
	<rect y="1" fill="#2AEDFF" width="32" height="32"/>
	<rect x="1" y="2" fill="#E8C6B0" width="30" height="30"/>
	<g>
		<g>
			<g>
				<polygon fill="#FFFBFF" points="23.094,18.775 23.094,24.021 9.023,24.021 9.023,18.775 16.061,13.407 				"/>
			</g>
			<g>
				<polygon fill="#FFFBFF" points="6.937,18.475 6.07,17.29 16.063,9.979 25.93,17.293 25.059,18.469 16.058,11.796 				"/>
			</g>
		</g>
	</g>
</g>
<g>
	<rect x="-32" y="1" fill="#2AEDFF" width="32" height="32"/>
	<rect x="-31" y="2" fill="#E8C6B0" width="30" height="30"/>
	<g>
		<g>
			<g>
				<polygon fill="#FFFBFF" points="-8.906,18.775 -8.906,24.021 -22.977,24.021 -22.977,18.775 -15.939,13.407 				"/>
			</g>
			<g>
				<polygon fill="#FFFBFF" points="-25.063,18.475 -25.93,17.29 -15.937,9.979 -6.07,17.293 -6.941,18.469 -15.942,11.796 				"/>
			</g>
		</g>
	</g>
</g>
<g>
	<rect x="32" y="1" fill="#2AEDFF" width="32" height="32"/>
	<rect x="33" y="2" fill="#E8C6B0" width="30" height="30"/>
	<g>
		<g>
			<polygon fill="#5F5F77" points="55.094,18.775 55.094,24.021 41.023,24.021 41.023,18.775 48.061,13.407 			"/>
		</g>
		<g>
			<polygon fill="#5F5F77" points="38.937,18.475 38.07,17.29 48.063,9.979 57.93,17.293 57.059,18.469 48.058,11.796 			"/>
		</g>
	</g>
</g>
<g>
	<rect x="64" y="1" fill="#2AEDFF" width="32" height="32"/>
	<rect x="65" y="2" fill="#E8C6B0" width="30" height="30"/>
	<g>
		<g>
			<polygon fill="#5F5F77" points="87.094,18.775 87.094,24.021 73.023,24.021 73.023,18.775 80.061,13.407 			"/>
		</g>
		<g>
			<polygon fill="#5F5F77" points="70.938,18.475 70.07,17.29 80.063,9.979 89.93,17.293 89.059,18.469 80.059,11.796 			"/>
		</g>
	</g>
</g>
<g>
	<rect x="96" y="1" fill="#2AEDFF" width="32" height="32"/>
	<rect x="97" y="2" fill="#E8C6B0" width="30" height="30"/>
	<g>
		<g>
			<polygon fill="#5F5F77" points="119.094,18.775 119.094,24.021 105.023,24.021 105.023,18.775 112.061,13.407 			"/>
		</g>
		<g>
			<polygon fill="#5F5F77" points="102.938,18.475 102.07,17.29 112.063,9.979 121.93,17.293 121.059,18.469 112.059,11.796 			"/>
		</g>
	</g>
</g>
</svg>
