<?xml version="1.0" encoding="utf-8"?>
<!-- Generator: Adobe Illustrator 15.0.2, SVG Export Plug-In . SVG Version: 6.00 Build 0)  -->
<!DOCTYPE svg PUBLIC "-//W3C//DTD SVG 1.1//EN" "http://www.w3.org/Graphics/SVG/1.1/DTD/svg11.dtd">
<svg version="1.1" id="Calque_1" xmlns="http://www.w3.org/2000/svg" xmlns:xlink="http://www.w3.org/1999/xlink" x="0px" y="0px"
	 width="32px" height="32px" viewBox="0 0 32 32" enable-background="new 0 0 32 32" xml:space="preserve">
<rect fill="#2AEDFF" width="32" height="32"/>
<rect x="1" y="1" fill="#E8C6B0" width="30" height="30"/>
<g>
	<path fill="#5F5F77" d="M15.999,8.978c-2.591,0-4.69,2.1-4.69,4.689c0,2.592,2.101,4.691,4.69,4.691c2.592,0,4.69-2.103,4.69-4.691
		S18.591,8.978,15.999,8.978z M16.228,17.383c-1.397,0-2.628-0.919-3.345-2.308h6.69C18.854,16.464,17.627,17.383,16.228,17.383z"/>
	<path fill="#5F5F77" d="M18.83,18.968c-0.845,0.452-1.81,0.712-2.831,0.712c-1.022,0-1.986-0.259-2.83-0.712
		c-1.822,0.479-3.251,1.613-3.905,4.055h13.473C22.082,20.581,20.654,19.446,18.83,18.968z"/>
</g>
</svg>
