<?xml version="1.0" encoding="utf-8"?>
<!-- Generator: Adobe Illustrator 15.0.2, SVG Export Plug-In . SVG Version: 6.00 Build 0)  -->
<!DOCTYPE svg PUBLIC "-//W3C//DTD SVG 1.1//EN" "http://www.w3.org/Graphics/SVG/1.1/DTD/svg11.dtd">
<svg version="1.1" id="Calque_1" xmlns="http://www.w3.org/2000/svg" xmlns:xlink="http://www.w3.org/1999/xlink" x="0px" y="0px"
	 width="32px" height="32px" viewBox="0 0 32 32" enable-background="new 0 0 32 32" xml:space="preserve">
<rect fill="#2AEDFF" width="32" height="32"/>
<rect x="1" y="1" fill="#E8C6B0" width="30" height="30"/>
<g>
	<path fill="#FFFBFF" d="M15.999,8.978c-2.591,0-4.69,2.1-4.69,4.69c0,2.592,2.101,4.69,4.69,4.69c2.592,0,4.69-2.101,4.69-4.69
		S18.591,8.978,15.999,8.978z M16.229,17.383c-1.398,0-2.629-0.918-3.346-2.308h6.69C18.855,16.464,17.627,17.383,16.229,17.383z"/>
	<path fill="#FFFBFF" d="M18.83,18.968c-0.844,0.452-1.809,0.712-2.831,0.712s-1.985-0.259-2.83-0.712
		c-1.821,0.479-3.251,1.613-3.905,4.055h13.473C22.082,20.581,20.654,19.446,18.83,18.968z"/>
</g>
</svg>
