<?xml version="1.0" encoding="utf-8"?>
<!-- Generator: Adobe Illustrator 15.0.2, SVG Export Plug-In . SVG Version: 6.00 Build 0)  -->
<!DOCTYPE svg PUBLIC "-//W3C//DTD SVG 1.1//EN" "http://www.w3.org/Graphics/SVG/1.1/DTD/svg11.dtd">
<svg version="1.1" id="Calque_1" xmlns="http://www.w3.org/2000/svg" xmlns:xlink="http://www.w3.org/1999/xlink" x="0px" y="0px"
	 width="1016px" height="420px" viewBox="0 0 1016 420" enable-background="new 0 0 1016 420" xml:space="preserve">
<g opacity="0.02">
	<circle fill="#9595A4" cx="574.899" cy="374.346" r="567.662"/>
</g>
<g>
	<path fill="#542954" d="M1132.714,296.261c0.574,4.11,1.153,8.13,1.646,11.679C1133.867,303.926,1133.3,300.062,1132.714,296.261z"
		/>
	<path fill="#542954" d="M675.12-152.028c0,0.006-0.014,0.023-0.024,0.03c-0.253,0.164-0.642-0.064-0.82,0.311
		c0.247,0.301,1.446,0.647,4.233,1.346c-1.748-0.576-2.221-0.773-2.289-0.986c0.171-0.215,0.523-0.119,0.681-0.374
		c-0.041-0.129-0.087-0.317-1.821-0.918c-0.241-0.09-0.565-0.197-0.82-0.282c0.343,0.143,0.346,0.159,0.369,0.222
		c-0.14,0.029-0.47-0.014-1.604-0.222c-1.028-0.197-1.042-0.189-1.086-0.155c0,0.005,1.244,0.466,2.22,0.688
		C675.042-152.164,675.084-152.065,675.12-152.028z"/>
	<path fill="#542954" d="M1135.264,316.255l-0.157-1.416c-2.247-19.536-6.547-37.678-12.032-54.634
		c-2.131-10.074-3.797-17.741-5.279-24.115c-2.472-10.65-4.442-17.729-7.243-26.423v-11.625v-15.978h-5.703h-4.098
		c-5.225-13.509-11.178-28.881-16.523-40.803l-0.725-1.556c-4.626-9.862-11.35-22.727-16.299-32.428
		c-26.95-45.366-29.813-50.185-46.699-72.229c1.207,1.589,2.443,3.236,3.729,4.955l15.651,22.162
		c0.057,0.085,0.133,0.209,0.187,0.298c-7.011-8.8-12.792-18.517-20.029-27.152L993.906,7.345c-4.94-5.261-6.689-8.388-6.711-8.412
		c0.112-0.054,0.236-0.105,0.337-0.151c2.384,1.791,7.357,5.988,15.147,14.596c-22.605-26.81-27.464-31.751-49.603-52.516
		c-31.895-27.409-57.072-49.053-104.838-76.559c-22.249-12.636-45.722-23.283-70.224-31.779c-2.697-0.937-5.417-1.833-8.137-2.716
		c-0.59-0.192-1.174-0.399-1.764-0.587l0.026,0.078c0.441,0.993,0.972,2.188,1.479,3.328c0.284,0.65,0.568,1.285,0.816,1.845
		c1.773,0.192,1.773,0.192,33.673,21.503c-2.868-0.934-6.883-1.676-9.894-1.805c3.091,1.973,7.114,4.495,11.383,7.151
		c4.203,2.614,8.638,5.358,12.677,7.845c7.753,4.779,14.005,8.6,14.126,8.679c-0.198,0.07-0.426,0.149-0.641,0.225
		c-1.275,0.45-2.772,0.974-3.946,1.384c2.868,1.792,7.188,3.425,10.503,4.146c-5.023,0.974-5.023,0.974-26.01-8.088
		c1.778-0.579,4.079-1.75,5.52-3.229c0.355-0.366,0.675-0.742,0.897-1.143c-0.57-0.491-1.075-0.922-1.604-1.315
		c-3.776-2.793-8.953-3.479-50.524-8.704c-0.587-0.074-1.152-0.145-1.749-0.221c-0.824,2.654-0.765,6.644,0.284,9.313
		c-0.021,0.038-0.05,0.083-0.064,0.119c0.058,0.082,0.146,0.167,0.204,0.25c0,0,0,0,0,0.002c-0.755,1.308-1.761,3.051-2.521,4.363
		c1.98,2.695,5.295,5.771,7.941,7.798c-0.189,1.612-0.431,3.764-0.616,5.375c8.469,2.741,8.469,2.741,28.667,31.636
		c-6.345,22.218,25.698,42.528,37.381,42.923c0.217-1.44,0.328-3.147,0.344-4.849c0.017-1.85-0.085-3.712-0.32-5.281
		c0.423-0.014,0.675-0.019,2.619,0.839c1.81,0.804,5.115,2.374,11.417,5.411c2.534,1.214,5.549,2.676,9.152,4.407
		c1.421,1.276,2.611,2.328,3.598,3.212c0.992,3.019,2.188,6.495,3.165,9.24c-0.681-0.342-0.752-0.389-15.709-13.771
		c-0.673-0.597-1.323-1.188-2.053-1.833c-3.791,15.538,14.462,19.375,17.196,31.454c0.112,0.494,0.244,0.977,0.3,1.499
		c-1.101,1.238-2.34,2.751-3.531,4.281c-0.984,1.269-1.937,2.543-2.724,3.677c3.44,7.697,7.281,16.357,2.08,34.793
		c-0.432,1.542-0.906,3.129-1.476,4.812c-1.032-0.24-2.303-0.534-3.473-0.805c-0.499-0.114-0.98-0.226-1.418-0.325
		c-0.104,1.519-0.434,3.3-0.919,5.026c-0.465,1.648-1.068,3.251-1.77,4.523c-1.495,0.157-3.212,0.606-4.874,1.21
		c-1.631,0.591-3.203,1.338-4.448,2.125c11.127,14.998,38.52,14.586,40.369,38.304c0.093,1.162,0.143,2.365,0.104,3.653
		c-12.335,5.536-27.221,3.043-38.872,10.704c-1.269,0.829-2.504,1.738-3.682,2.835c14.575,17.025,12.967,42.252,29.511,58.289
		c30.899-4.526,7.609,42.378,11.158,65.249c-2.684,2.988-4.658,5.698-6.827,10.673c-2.021,3.468-3.929,8.154-6.493,16.21
		c-3.876,12.167-8.094,24.229-12.236,36.312c-3.776,11.014-7.489,22.045-10.807,33.208c-6.468,21.681,5,42.845,5.975,64.309
		c0.327,7.089-0.487,14.201-3.465,21.375l38.94,70.905c9.396,3.458,17.452,9.061,25.405,14.838
		c6.601,4.79,13.138,9.702,20.306,13.591c6.924-7.874,31.621-21.932,52.677-32.686c15.617-7.98,29.229-14.138,32.082-14.6
		c5.224,7.398,6.025,10.217,7.407,20.069c13.335-7.007,13.335-7.007,20.181-6.896c0.704,2.366,2.332,5.423,2.332,7.884l-2.26,98.124
		c-0.839,13.535-7.619,33.151-8.98,36.938c-0.714,2.007-9.014,24.988-23.979,55.201c-15.825,31.95-39.108,71.97-68.775,103.851
		c-3.08,3.311-6.232,6.541-9.447,9.658h0.01l0,0v-0.003h0.019v-0.011l0.002-0.013h0.006c20.26-12.663,58.272-53.837,77.585-77.686
		c32.909-44.446,34.885-47.104,51.878-76.924c7.863-15.365,13.44-26.263,17.728-34.881c11.836-23.539,14.571-30.562,23.235-54.155
		c17.636-55.521,18.324-57.691,24.475-90.651c8.185-57.84,8.847-62.563,9.261-101.583
		C1137.42,356.962,1136.817,333.65,1135.264,316.255z M874.258,345.353c1.707-1.065,3.396-2.001,5.153-3.214
		C877.698,343.286,875.929,344.374,874.258,345.353z M983,29.469c0.263-0.3,0.405-0.819,0.394-1.663
		c2.111,2.803,2.714,4.131,2.705,5.92c4.509,1.963,4.991,2.172,8.659,5.844c-0.656-1.976-1.864-5.641-1.441-7.99
		c0.221-1.215,0.887-2.061,2.319-2.121c1.063-0.047,2.528,0.328,4.562,1.34c2.367,1.172,14.224,9.195,17.961,15.262
		c2.224,3.607,3.359,6.191,3.814,8.074c1.275,5.225-2.845,4.813-4.53,4.435c-1.302-0.289-2.705-0.918-3.821-1.484
		c-0.399-0.198-0.773-0.393-1.08-0.56c-1.693,1.646-1.394,4.795-0.722,10.214c0.277,2.254,0.396,3.825,0.383,5.038
		c-0.02,1.745-0.326,2.727-0.896,3.72c-8.638,9.304-33.485-47.668-33.71-48.284C980.084,28.97,982.167,30.419,983,29.469z
		 M911.593,110.357c1.137-0.913,2.392-1.608,3.695-2.222c4.087-1.916,8.688-2.922,11.843-6.507c1.603-1.823,2.347-3.314,2.625-5.019
		c0.287-1.769,0.066-3.771-0.26-6.627c0.899-0.561,1.794-0.689,2.673-0.646c1.946,0.097,3.866,1.13,5.82,0.912
		c9.677,10.438,12.603,13.596,26.428,17.999c9.983,3.169,15.485,4.928,24.949,16.112c0.024,0.035,1.28,2.533,0.993,5.387
		c-0.105,1.042-0.403,2.122-1.057,3.154c-1.331,2.111-3.479,3.052-5.574,4.07c-1.457,0.703-2.885,1.439-3.998,2.637
		c4.104,6.053,11.502,5.398,17.113,8.409c0.154-2.413-0.756-4.381-1.872-6.261c-1.145-1.931-2.505-3.776-3.157-5.914
		c2.155-2.793,0.879-5.876,0.453-8.893c0.505-1.397,0.518-2.808,0.347-4.008c0.103-0.24,0.214-0.467,0.356-0.708
		c0.053-0.025,0.059-0.025,0.059-0.029c-0.241-0.468-0.555-0.906-0.898-1.323c-2.706-3.26-8.189-5.079-8.642-9.357
		c-0.096-0.878,0-1.855,0.408-2.978c0.972,0.034,1.6,0.061,2.596,0.483c1.038,0.437,2.477,1.297,5.126,3.058
		c-1.436-2.734-3.504-4.682-5.826-6.305c-4.735-3.317-10.542-5.288-14.344-9.77c-0.623,0.851-0.854,1.172-1.595,1.613
		c-11.197,1.504-13.918-12.636-24.068-13.076c-5.605-7.632-6.892-9.576-5.979-13.396c1.498,0.742,2.736,1.947,4.129,2.874
		c0.939,0.618,1.939,1.115,3.148,1.258c0.362-0.453,0.69-1.176,0.847-1.735c1.71,1.459,3.877,3.539,5.684,4.858
		c8.746,6.362,20.248,6.476,28.987,12.854c7.759,5.658,10.164,15.826,18.004,21.429c3.286,2.359,3.561,2.554,8.565,5.403
		c1.341,5.785,6.419,9.137,9.147,14.019c0.167-0.566,0.518-1.279,0.844-1.771c0.053,0,0.053,0,3.441,0.434
		c0.173-0.266,0.413-0.632,0.602-0.905c-0.675-1.071-1.5-2.024-2.33-2.982c-1.067-1.229-2.131-2.451-2.921-3.882
		c0.258,0.249,0.593,0.586,0.854,0.84c0.29-0.041,0.674-0.086,0.974-0.123c-0.469-2.977-1.307-3.572-2.84-4.663
		c0.127-0.254,0.277-0.581,0.397-0.835c3.334-0.784,2.915-2.534,2.485-3.36c-0.138-0.256-0.268-0.437-0.295-0.461
		c-0.052-0.064-0.117-0.129-0.169-0.194c-5.112-6.28-12.817-9.657-17.914-15.95c0.045-0.266,0.134-0.623,0.183-0.894
		c1.323-0.177,2.658,0.355,3.976-0.086c-0.069-2.967-2.987-4.015-4.2-6.232c0.318,0.026,0.728,0.097,1.04,0.086
		c1.729-0.053,1.93-1.815,2.726-2.925c0.339-0.473,0.775-0.836,1.507-0.875c1.618-0.076,2.366,1.472,3.295,3.433
		c0.056,0.097,6.388,10.985,6.821,11.271c0.241-0.259,0.551-0.602,0.778-0.871c-0.26-1.171-0.463-1.907-1.132-2.93
		c0.923,1.268,2.411,3.349,4.921,6.831c-0.604-0.064-1.425-0.097-2.034-0.018c-0.164,0.944-0.246,1.531,0.401,2.385
		c0.229,0.228,0.432,0.478,0.65,0.713c0.282,0.273,0.609,0.57,1.036,0.921c0.607-0.079,1.371-0.395,1.878-0.728
		c4.121,1.405,8.708,11.561,8.745,11.659c-0.42-4.049,5.72-0.713,8.47-1.651c0.218-1.274,0.309-1.977-0.683-4.588
		c1.118,0.161,2.197,0.252,2.979-0.027c0.047-0.254,0.08-0.484,0.109-0.713c0.998-0.192,1.499-1.487,1.881-4.596
		c1.49,0.103,2.033-1.484,2.497-6.386c0.672,1.186,1.356,2.379,1.931,3.405c14.256,25.388,18.733,37.075,21.855,45.959
		c0.255,0.722,0.5,1.43,0.739,2.122c-0.903,1.783-2.903,2.292-4.47,3.302c-0.773,0.499-1.446,1.107-1.813,2.074
		c-0.616,1.593-0.615,3.366-0.304,5.449c0.189,1.248,0.488,2.606,0.838,4.094c-6.532,1.436-13.339,0.597-19.813,2.458
		c-3.696-5.56-6.269-5.352-7.966-3.533c-1.937,2.088-2.728,6.29-2.741,6.372c-0.269,1.739-0.331,2.262,2.327,8.32
		c0.19,0.437,0.396,0.896,0.616,1.396c0.778,1.758,1.75,3.912,2.953,6.57c0.312,0.69,0.626,1.389,0.976,2.152
		c-3.937,3.733-11.555,7.884-21.081-1.815c-1.26-1.286-2.546-2.789-3.87-4.59c-5.018-0.363-9.569,2.91-14.66,1.921
		c-4.22-0.815-5.586-2.118-8.541-5.637c-0.258-0.304-0.497-0.585-0.775-0.928c-0.439,0.214-0.703,0.551-0.906,0.928h-1.9v2.132
		c-2.679-4.616-0.767-10.152-2.822-14.902c1.199,0.829,1.199,0.829,2.436,5.05c0.446-1.379,0.866-2.685-0.991-5.278
		c-2.126-2.947-5.74-4.208-7.918-7.093c-2.269-3.007-0.253-6.549-1.19-9.721c-7.978-1.446-7.978-1.446-8.729-2.177
		c-5.083,6.368-6.797,8.516-17.879,13.702c-18.178,8.523-23.816,12.47-28.28,20.432c-0.813,1.45-1.597,3.055-2.399,4.822
		c-0.646,1.424-1.307,2.945-2.028,4.632c-6.223-0.852-10.907,5-17.17,3.918c-4.28-0.74-6.251-4.116-8.755-8.388
		c1.039-0.824,2.238-1.75,3.467-2.681c1.715-1.304,3.492-2.619,5.015-3.689c7.84-5.563,11.732-10.463,13.197-15.046
		c1.931-6.026-0.319-11.502-3.353-17.198c-4.582-8.589-3.04-11.749,5.54-29.324C916.776,117.377,913.503,114.317,911.593,110.357z
		 M830.068-59.901c-4.521-4.66-5.14-11.623-9.619-16.299c-3.466-3.629-9.879-3.903-11.246-9.901
		c-0.559-2.416,1.294-2.572,3.458-2.032l7.873,5.584c2.719,3.956,6.848,10.104,6.695,10.598c-0.288,0.126-0.698,0.233-1.006,0.268
		c0.944,0.673,1.789,1.265,2.653,1.886c21.317,15.142,21.432,15.235,22.74,16.396c-0.004,0.007-0.011,0.013-0.013,0.021
		c-0.479,0.878-1.492,0.815-2.208,1.261c-0.263,1.964,4.888,3.201,8.183,2.488c0.74-0.158,1.386-0.412,1.853-0.778
		c1.31-1.021,1.873-2.742,2.249-4.578c0.613-2.979,0.767-6.264,2.823-7.474c0.669-0.386,1.509-0.579,2.651-0.456
		c0.468,0.924,1.291,2.073,1.557,3.072c0.443,1.709,0.479,2.507-1.812,6.551c-2.039,3.617-0.505,6.544,0.318,8.115
		c2.434,4.676,5.936,6.604,6.577,5.083c0.467-1.118-0.822-2.269,0.082-3.368c0.191-0.224,0.777-0.367,2.505,0.249
		c0.762,0.596,1.505,1.211,2.267,1.811c2.157,1.709,4.313,3.42,6.445,5.164c0.148,0.32,0.281,0.773,0.357,1.12
		c-0.112,0.126-0.268,0.306-0.381,0.429c-0.912-0.104-1.749-0.492-2.569-0.931c-1.832-0.984-3.588-2.24-5.92-1.397
		c-0.295,0.117-0.489,0.698-0.357,0.977c0.605,1.195,1.799,2.573,2.662,3.608c4.14,5.008,10.208,7.966,14.145,13.2
		c0.958,1.266,1.495,2.677,1.91,4.137c0.616,2.163,0.94,4.426,1.855,6.484c-3.087-1.705-5.05-2.325-6.314-2.15
		c-2.019,0.272-2.255,2.579-2.372,5.853c-0.012,0.378-0.029,0.739-0.054,1.086c-0.328,4.911-1.894,6.317-8.337,2.315
		c-0.344-0.213-0.688-0.429-1.06-0.672c-0.354,0.452-0.54,0.955-0.668,1.479c-0.456,1.902,0.078,4.141-1.792,5.544
		c-2.773-4.676-4.433-10.005-7.968-14.248c-0.079-0.212-0.159-0.451-0.241-0.673c2.507,0.727,3.572,3.364,5.767,4.5
		c0.716-0.679,0.384-1.612,0.592-2.425c0.019-0.067,0.016-0.135,0.043-0.201c0.777-0.092,0.91-0.114,2.43,1.06
		c-0.59-2.909-3.234-4.339-4.72-6.599c-0.126-0.189-0.259-0.369-0.365-0.572c0.265-0.11,0.614-0.262,0.863-0.386
		c1.292-0.854,1.968-1.709,2.258-3.037c0.103-0.479,0.153-1.026,0.164-1.656c0.003-0.259,0.003-0.529-0.009-0.822
		c-6.062-4.239-10.933-9.828-16.51-14.62c0.408-10.187-6.416-13.62-12.222-14.72C839.716-50.801,838.702-50.995,830.068-59.901z"/>
	<path fill="#542954" d="M421.854-135.758c2.9,0.093,9.986-1.358,10.292-1.42c1.116-0.231,2.452-1.035,3.551-1.362
		c1.166-0.357,2.397-0.452,3.57-0.799c0.608-0.184,1.413-0.455,2.009-0.644c-0.114-0.551-0.297-0.666-0.807-1.023
		c-2.869-1.271-9.333-0.942-20.351,1.023c0.254,0.587,0.234,0.96-0.109,2.014C419.607-136.785,419.297-135.847,421.854-135.758z"/>
	<path fill="#542954" d="M417.566-125.823c3.931,1.74,7.031,3.106,16.347-0.202c0.93-0.333,2.145-0.828,3.071-1.186
		c-1.354-3-1.354-3,5.426-6.596c-6.564,0.994-6.564,0.994-8.753,1.503c-0.036,0.682-0.049,0.88-1.947,1.818
		c-2.207,1.09-2.32,1.264-2.878,2.097c-0.473-0.155-0.473-0.155-1.134-0.905c0.06-0.568,0.306-1.353,0.662-1.8
		c1.525-1.849,3.465-3.292,5.017-5.11c0.101,0,0.245,0.008,0.336,0.034c0.087,0.142,0.087,0.142,0.051,0.459
		c0.051,0.047,0.098,0.109,0.139,0.156c1.385,0.017,3.992-1.335,4.483-1.76c-0.018-0.045-0.026-0.108-0.047-0.154
		c-0.621-0.112-1.3,0.204-1.878-0.243c-1.871,0.383-3.542,1.411-5.451,1.653c-0.008-0.052-0.021-0.109-0.021-0.159
		c-2.368-0.9-13.305,2.326-14.541,2.694c-0.03,0.004-2.137,1.378-1.701,2.155c0.214,0.362,0.981,0.538,1.599,0.669
		c1.143,0.261,1.51,0.363,1.624,0.847c0.039,0.156-0.745,1.357-1.19,1.06c-0.228-0.158-0.101-0.447-0.222-0.641
		c-0.452-0.089-0.748-0.146-3.968,1.238c0.045,0.107,0.105,0.239,0.144,0.351c-0.363,0.355-0.363,0.355-1.301,0.786
		C413.769-127.049,414.912-126.997,417.566-125.823z"/>
	<path fill="#542954" d="M195.755-29.113c2.409-2.501,4.618-5.193,7.202-7.53c3.922-3.53,7.147-5.711,8.369-6.525
		c-0.694-0.597,0.014-1.295-0.091-1.935c-0.53-0.671-2.988,1.386-3.012,1.406c-8.222,8.208-12.48,12.999-12.68,14.255
		C195.529-29.351,195.508-29.151,195.755-29.113z"/>
	<path fill="#542954" d="M468.451-123.414c2.68-0.495,3.316-0.619,3.757-0.17c0.012,0.019,0.026,0.038,0.042,0.045
		c1.249-0.79,3.846-2.445,2.853-2.735c-0.024-0.002-0.067-0.008-0.101-0.018c-0.896-0.104-2.829,0.384-2.846,0.393
		C472.145-125.895,470.679-125.124,468.451-123.414z"/>
	<path fill="#542954" d="M676.043-136.056c1.061,0.182,1.935-0.623,2.968-0.606c0.565,0.008,1.389,0.113,1.397,0.118
		c3.785,0.821,7.242,2.697,11.019,3.554c1.489,0.335,1.489,0.335,9.401,1.082c-12.922-6.426-14.998-7.992-15.447-8.502
		c-0.06-0.075-0.094-0.125-0.116-0.166c0.896-0.156,3.962,0.727,10.547,3.053c-0.886-1.021,1.805-0.675,2.492-1.43
		c0.003-0.002,0.011-0.005,0.011-0.008c-0.193-0.253-2.495-2.003-4.788-2.485c-0.38-0.08-0.766-0.135-1.136-0.131
		c-4.901,0.062-10.599-1.396-15.604-2.68c1.55-0.273,4.453-0.774,2.241-2.462c-0.4-0.306-1.646-1.055-3.798-1.919
		c-3.093-1.259-5.556-0.784-7.091-0.178c-1.073,0.421-1.704,0.908-1.708,0.92c-0.151,0.4-0.199,0.819-0.231,1.241
		c-0.363,0.368-0.659,0.827-1.103,1.097h-0.006c0.315,0.125,0.652,0.257,0.999,0.391c-0.053,0.428-0.141,0.856-0.354,1.255
		c1.389,1.002,3.104,1.198,4.608,1.895c-5.314-0.573-5.314-0.573-5.534-0.542c-0.989,0.139-1.281,1.165-2.021,1.616l-0.012,0.002
		h-0.003c4.34,1.692,11.779,4.58,11.779,4.58C675-136.257,675.6-136.129,676.043-136.056z"/>
	<path fill="#542954" d="M446.21-130.244c-2.305,0.797-4.453,1.941-6.641,2.996c-0.455,0.217-0.895,0.435-1.35,0.639
		c0.085,0.258,0.206,0.601,0.292,0.851c-0.443,0.83-1.033,1.572-1.484,2.404c0.068,0.233,0.164,0.555,0.25,0.784
		c0.749,0.133,1.118,0.183,2.708-0.095c0.072,0.021,0.14,0.042,0.218,0.058c-4.005,2.515-3.761,3.232-3.343,4.29
		c0.979,0.379,2.539,0.99,6.272-0.588c0.511-0.215,1.059-0.466,1.653-0.771c-0.268,0.236-0.571,0.597-0.757,0.905
		c0.721,0.39,0.721,0.39,2.186-0.084c-0.396,0.208-0.915,0.475-1.328,0.677c-0.014,0.012-0.041,0.021-0.054,0.03
		c-1.478,0.89-1.971,1.203-2.892,2.364c-0.455,0.567-0.996,1.323-1.824,2.479c1.966-1.092,3.931,0.668,5.894,0
		c2.167-0.725,3.841-2.068,5.391-3.567c1.418-1.37,2.736-2.861,4.203-4.163c0.491-0.227,0.988-0.445,1.485-0.671
		c0.239,0.275,0.516,0.452,1.633,1.146c-1.113,2.839-4.296,3.423-6.75,4.808c-1.501,0.849-2.732,2.001-3.024,4.163
		c0.187,0.135,0.41,0.378,0.634,0.435c2.314,0.634,4.655-0.4,6.97,0.152c4.271,1.015,7.857,3.78,12.116,4.826
		c0.677,0.164,2.624,0.459,4.237,0.432c9.157-0.164,8.863-6.371,8.847-6.438c-0.005-0.014-0.018-0.022-0.021-0.037
		c-0.688-2.441-6.57-2.31-10.109-2.227c-7.203,0.171-9.948-0.379-7.156-4.101c6.613,0.047,12.935,2.542,19.569,2.376
		c-0.019,0.156-0.052,0.341-0.095,0.541c-0.09,0.411-0.243,0.895-0.504,1.409c0.049,0.067,0.086,0.14,0.128,0.199
		c2.48,0.045,8.534-0.247,11.069-3.883c-0.463-0.279-0.463-0.279-1.631-0.116c-0.032-0.196-0.055-0.455-0.092-0.651
		c3.149-1.353,3.637-1.559,8.921-2.897c1.334-0.337,4.455-1.124,6.127-1.782c0.654-0.26,1.518-0.618,2.171-0.879
		c0.112-0.046,0.205-0.117,0.306-0.177c0.631-0.362,1.083-0.9,1.475-1.492c0.019-0.033,0.041-0.063,0.057-0.097
		c0.637-0.969,1.188-2.019,2.328-2.493c5.79-2.398,11.949-3.67,17.959-5.38c3.735-1.06,7.409-2.286,10.911-4.056
		c1.086-0.545,2.505-1.318,3.568-1.894c-0.901-0.499-1.743-0.935-2.568-1.34c-0.281-0.14-0.564-0.279-0.835-0.407
		c-3.63-1.708-6.755-2.588-10.956-3.157c-6.517-0.671-6.517-0.671-14.598,1.72c-1.717-1.3-4.915-2.113-16.721,0.742
		c0.098,0.218,0.215,0.528,0.304,0.757c-0.977,1.293-2.412,2.227-3.016,3.828c-0.661-0.168-0.661-0.168-0.194-4.243
		c-1.971-2.202-15.054,2.012-18.007,6.656c0.052,0.193,0.123,0.446,0.168,0.629c0.417,0.008,0.977-0.031,1.383-0.107
		c-0.225,0.104-0.513,0.232-0.731,0.336c-0.89,0.4-1.605,0.782-2.226,1.154c-5.587,3.344-1.205,5.5-1.145,5.517
		c0.25,0.074,0.524,0.111,0.797,0.146c0.019,0.002,0.037,0.007,0.052,0.009c1.099,0.131,2.382-0.009,3.615-0.262
		c0.813-0.038,1.63-0.048,2.449-0.06c-0.178,0.121-0.372,0.253-0.535,0.362c-0.219,0.268-0.504,0.618-0.725,0.884
		c0.435,0.365,1.064,0.815,1.599,1c-0.375,0.969-1.603,1.859-2.486,2.398c2.171-2.304-0.055-2.614-0.319-2.637
		c-1.602-0.17-3.88,0.966-4.732,1.396c0.156,0.079,0.368,0.175,0.524,0.257c-0.455,1.05-2.168,1.594-4.265,1.805
		c-2.257,0.228-4.958,0.064-7.061-0.296c-1.887-0.324-3.281-0.807-3.401-1.305c-0.045-0.199-0.012-0.492,0.071-0.813
		c-0.937,0.258-1.871,0.517-2.795,0.803c0.257-0.336,0.48-0.699,0.654-1.131c-1.496-0.93-1.496-0.93-1.887-1.486
		c-0.779,0.577-1.5,1.236-2.199,1.918c-0.479,0.775-0.911,1.604-1.39,2.374c-0.974,1.581-2.12,2.892-4.186,2.865
		c-0.32-0.005-0.661-0.034-1.032-0.108c-0.068-0.143-0.132-0.322-0.179-0.501c-0.067-0.227-0.117-0.462-0.126-0.657
		c-0.824-0.244-1.019-0.303-4.636,1.318c2.36-1.843,5.045-3.168,7.571-4.738c0.592-0.369,1.189-0.736,1.757-1.142
		c-0.576-0.838-1.154-1.532-1.95-1.977c-1.61-0.899-4.163-0.752-9.646,1.473c1.913-1.45,2.157-1.636,2.521-2.478
		C445.106-129.415,445.253-129.526,446.21-130.244z M498.211-130.14c0.926-0.364,1.062-0.067,1.121,0.051
		c-0.08,0.046-0.189,0.121-0.257,0.18c-1.532,1.052-2.198,1.379-2.126,1.036c0.027-0.151,0.233-0.431,0.342-0.575
		c-0.947,0.68-1.938,1.43-2.453,1.959c-0.17-0.018-0.342-0.033-0.511-0.05C495.387-128.49,497.131-129.714,498.211-130.14z"/>
	<path fill="#542954" d="M468.012-131.811c-1.499-0.604-2.832,2.228-2.602,3.159c0.144,0.575,2.003,1.134,4.356,1.448
		c0.581-0.269,1.296-0.626,2.238-1.107c-0.722-0.391-1.596-0.304-2.318-0.694c0.503-0.672,0.756-0.846,2.285-1.541
		c-0.054,0.16-0.123,0.375-0.171,0.526c0.883-0.249,0.883-0.249,2.522-1.146c-0.185-0.052-0.42-0.112-0.606-0.16
		c-0.138-0.49-0.021-0.93,0.135-1.369C470.329-130.916,470.193-130.935,468.012-131.811z"/>
	<path fill="#542954" d="M456.733-132.617c0.57-0.042,0.681,0.109,0.853,0.387c0.302,0.533,0.775,0.576,2.816-0.203
		c-0.075-0.09-0.075-0.09-0.29-0.157c-0.039-0.012-0.04-0.017-0.04-0.024h-0.013h-0.013c-0.052-0.024-0.102-0.062-0.148-0.102
		c0.102-0.552,1.303-0.904,1.505-0.666c0.209,0.238-0.137,0.706-0.542,1.246c-0.367,0.492-0.737,1.011-0.479,1.241
		c0.209,0.192,0.845,0.189,2.33-0.221c0.104-0.027,0.244-0.079,0.407-0.15c0.648-0.282,1.73-0.877,2.909-1.632
		c2.367-1.519,5.091-3.688,5.44-5.292c0.12-0.539-0.012-1.018-0.54-1.381c-0.179-0.12-0.457-0.237-0.656-0.319
		c-1.353-0.447-2.719-0.455-2.719-0.455c-0.031,0.008-2.261,0.801-4.204,2.19c-1.008,0.72-1.931,1.082-4.673,2.166
		c0.468,0.998,2.86,1.075,2.119,2.365C460.611-134.112,459.04-133.577,456.733-132.617z"/>
	<path fill="#542954" d="M533.513-132.272c-0.538,0.263-1.073,0.543-1.623,0.762c-0.05-0.162-0.097-0.328-0.141-0.467
		c-0.577,0.088-1.419,0.218-2.762,1.431c-0.161,0.147-0.328,0.297-0.505,0.477c0.101,0.216,0.229,0.517,0.333,0.737
		c1.103,0.154,2.245-0.025,3.326,0.361c0.025,0.258,0.048,0.6,0.054,0.849c-5.443,3.069-11.781,3.168-17.649,4.832
		c-0.104,0.03-0.209,0.069-0.317,0.101c-1.602,0.472-3.181,1.04-4.684,1.859c0.605,0.43,1.05,0.76,1.403,1.046
		c0.93,0.764,1.154,1.219,1.604,2.368c-0.128-0.022-0.206-0.014-1.018,0.469c-0.586,0.353-1.558,0.948-3.262,2.005
		c3.344,14.841,29.978,4.021,27.733,19.978c-0.494,3.46,0.028,6.915-0.014,10.376c-0.026,3.194-0.148,3.841-0.594,6.258
		c2.065-0.155,3.67-0.194,4.965-0.072c3.196,0.291,4.499,1.532,5.98,4.242c-0.159,0.098-0.33,0.195-0.466,0.281
		c0.026,0.143,0.057,0.26,0.091,0.375c-6.051-1.417-6.132-1.417-7.736-1.276c-0.295,1.144-0.295,1.144,0.479,3.486
		c-0.373,0.152-0.542,0.208-1.026-0.008c-0.354-0.152-0.865-0.439-1.764-0.947c-2.955,6.099,1.522,9.57,7.01,7.713
		c2.102-0.698,2.981-2.084,3.57-2.986c-1.723,0.078-2.437-0.006-2.81-1.249c0.504-0.083,1.02-0.196,1.55-0.376
		c0.13-0.048,0.213-0.106,0.336-0.155c1.296,0.381,1.521,0.533,2.504,1.227c0,0.029-0.017,1.22-0.066,2.66
		c-0.078,2.07-0.23,4.649-0.522,5.035c-3.706-1.302-6.569,0.23-8.621,3.043c-3.535,4.87-4.596,13.593-3.153,18.253
		c0.69,2.234,3.103,4.615,5.013,5.968c1.606,12.98,5.645,22.964,18.077,30.513c5.874,3.57,13.608,6.595,23.86,9.143
		c0.419-1.448,0.918-3.307,1.397-4.854c0.065-0.22,0.136-0.454,0.198-0.657c2.675-8.388,6.906-16.187,9.626-24.568
		c0.88-2.73,0.066-6.895,1.4-9.445c0.391-0.757,0.959-1.363,1.584-1.9c2.631-2.251,6.847-2.828,9.112-3.119
		c2.729-0.354,4.704-0.601,6.641-1.998c0.802-0.582,1.711-1.554,2.447-2.211c4.325-3.918,6.021-9.809,10.339-13.717
		c1.899-1.717,5.564-2.163,8.018-2.884c16.563-4.897,19.903-7.792,23.508-15.944c-0.055,0.004-0.093,0.006-0.15,0.006
		c0.292-0.437,0.571-0.888,0.833-1.364c0.078-0.135,0.158-0.262,0.232-0.402c-0.502-1.008-1.094-1.929-1.732-2.793
		c-0.34-0.456-0.674-0.896-1.028-1.308c-3.003-3.458-6.569-5.5-7.469-5.98c1.44-3.165-1.529-5.453-1.647-8.319
		c0.462-0.23,1.206-0.244,1.693-0.089c-1.296-5.487-1.318-5.747,1.475-9.474c0.118-0.158,0.21-0.284,0.341-0.457
		c-0.106-0.095-0.185-0.156-0.286-0.242c-3.557-3.062-3.88-2.964-5.868-2.176c0.115,1.179,0.115,1.179,3.776,3.883
		c-3.581,0.018-3.581,0.018-4.188-0.487c-0.041-0.768-0.041-0.768-8.436-9.476c0.131-0.198,0.303-0.467,0.439-0.669
		c2.213,1.208,3.904,3.259,6.466,3.88c-2.848-2.265-3.397-8.511-8.341-7.058c-3.916-2.25-4.591-6.788-7.094-10.025
		c-0.458,1.706,1.124,3.118,0.701,4.818c-1.21-2.149-3.776-3.179-4.679-5.585c-1.21-3.233-0.511-6.694-1.176-9.991
		c-0.052-0.23-0.103-0.545-0.147-0.777c-10.521-2.26-9.167,0.731-8.44,2.336c-1.297-1.161-1.297-1.161-2.161-1.53
		c-0.145,0.472-0.314,1.097-0.442,1.578c-0.622-0.09-1.425-0.448-1.941-0.806c0.197-0.108,0.468-0.257,0.668-0.362
		c-0.322-0.63-0.732-1.41-3.08-1.463c0.407,0.56,1.147,1.16,1.736,1.52c-0.698,0.274-0.698,0.274-5.352-1.646
		c0.232-0.146,0.543-0.34,0.78-0.492c-0.114-0.303-0.265-0.722-0.375-1.032c-9.752-3.457-17-3.428-22.233-3.018
		c-8.379,1.027-15.947,5.782-24.635,5.467h-0.057c-0.254-0.017-0.575-0.031-0.818-0.049c-0.097,0-0.121-0.005-0.147-0.005
		c-8.057-0.373-15.764,3.558-19.649,5.941C534.14-132.671,533.803-132.463,533.513-132.272z"/>
	<path fill="#542954" d="M791.45-24.743c-0.079-0.097-0.183-0.214-0.258-0.311c-1.227-1.416-3.614-3.5-4.803-3.112
		c-0.144,0.057-0.216,0.115-0.312,0.241c1.913,2.084,3.824,4.189,5.722,6.304C793.717-21.413,792.48-23.479,791.45-24.743z"/>
	<path fill="#542954" d="M859.701,42.532c-0.281-0.281-0.515-0.513-0.737-0.747c-1.07-1.125-1.87-2.298-6.529-9.105
		c-3.738-5.479-4.128-6.054-9.566-4.233c-6.574-6.153-6.574-6.153-24.517-15.89c-5.903-3.214-8.385-5.047-8.394-5.062
		c-0.526-0.659-0.59-1.896-0.789-2.726c-1.088-4.368-1.81-5.697-4.191-9.082c-3.287,0.15-6.24,3.239-9.777,1.086
		c-0.141-5.27-0.219-6.783-3.839-10.352c-0.375-0.368-0.754-0.742-1.208-1.164c0.17,0.373,0.404,0.868,0.579,1.234
		c0.034,0.168,0.059,0.317,0.085,0.467c0.261,1.566,0.011,2.42-2.162,4.465c-0.053,0.05-0.09,0.093-0.144,0.142
		c-3.097,2.962-3.388,4.708,0.439,10.039c-1.913-0.982-3.368-1.19-4.35-0.618c-0.229,1.372,1.049,2.584,1.445,2.929
		c0.407,0.349,1.261,0.242,1.693,0.552c3.471,2.491,5.075,7.366,10.074,7.89c-2.449,0.858-3.117,1.55-1.864,3.878
		c0.204,0.38,0.454,0.8,0.771,1.292c1.346-0.138,1.844-1.5,2.936-2.01c0.617,0.621,0.671,0.668,1.331,2.599
		c1.476,0.199,1.184-1.556,1.476-2.741c0.771,0.152,1.495,0.39,2.192,0.675c1.827,1.919,2.172,5.022,4.371,6.662
		c0.509-0.13,1.001-0.266,1.507-0.399c1.389-0.361,2.771-0.723,4.135-1.089c2.021,2.19,4.453,3.965,6.616,6.015
		c1.044,0.987,2.042,2.025,2.868,3.238c-0.747,0.208-1.524,0.403-2.282,0.607c-1.703,0.458-3.401,0.912-5.136,1.358
		c1.895,3.304,5.451,4.956,7.951,7.656c0.511,0.561,0.995,1.142,1.396,1.811c-0.375,0.222-0.699,0.412-1.006,0.597
		c-2.497,1.5-2.95,1.968-3.14,3.881c0.718,0.676,1.698,1.597,2.782,1.774c1.693,0.26,3.236-0.764,4.911-0.569
		c2.479,4.523,0.033,9.275,0.666,13.896C839.626,54.436,852.893,53.5,859.701,42.532z"/>
	<path fill="#542954" d="M783.337,0.115c0.095-1.222,0.199-2.487-0.768-4.412c-0.432-0.849-1.136-1.479-1.487-1.319
		c-0.529,0.505-0.38,1.381-1.008,1.818c-0.531,0.366-1.246,0.107-1.589-0.024c2.181,2.672,5.185,6.323,2.223,6.052
		c-0.201-0.025-0.428-0.058-0.581-0.093c2.325,2.958,3.865,4.388,5.529,5.077C783.306,3.878,783.149,2.424,783.337,0.115z"/>
	<path fill="#542954" d="M713.012-48.233c-3.231-5.055-14.75-5.6-15.893-5.494c-4.499,0.405-4.499,0.405-17.637,8.57
		c-3.35-4.708-4.691-4.815-10.328-5.261c0.008,0.384,0.008,0.898,0.008,1.28c-0.222,0.458-0.541,0.829-0.881,1.184
		c-0.85,0.862-1.902,1.553-2.393,2.72c-0.354,0.854,0.154,2.141,0.397,3.021c2.321,0.288,4.424-1.136,6.731-0.88
		c0.156,0.361,0.344,0.727,0.502,1.011c0.605-0.086,1.144-0.156,1.669-0.229c0.587,0.49,0.673,1.09,0.021,1.57
		c-1.384,1.019-3.174-0.377-4.541,0.741c-0.581,0.486,0.121,1.769,0.543,2.533c5.795-0.822,7.603-0.897,10.838,2.734
		c-1.909,0.378-2.484,0.495-1.062,2.852c18.881,3.367,27.396-2.413,34.366-12.126c-0.233-0.294-0.431-0.606-0.616-0.927
		C714.106-46.01,713.681-47.184,713.012-48.233z"/>
	<path fill="#542954" d="M815.129,41.295c0.167-1.222,0.318-2.274-1.54-4.679c-1.913-2.492-4.696-4.165-6.488-6.775
		c0.312-1.322,1.535-2.409,1.025-3.942c-0.949-2.922-6.612-7.431-12.627-5.758c-0.803,0.271-1.601,0.595-2.391,0.911
		c-1.237,0.5-2.472,1.004-3.729,1.443c0.726,1.549,1.341,2.868,1.732,3.978c0.795,2.233,0.684,3.618-1.227,4.328
		c-0.882,0.327-2.137,0.517-3.88,0.575c1.175,1.861,1.182,4.223,2.604,5.983c0.144,0.156,0.897,1.039,3.016,2.172
		c2.843,1.498,3.312,1.913,5.045,4.364c-1.393,2.507-2.953,5.354,0.427,9.888c0.021,0.022,3.857,1.691,7.294,0.469
		c4.778-1.697,6.725-7.588,12.204-8.25c-0.962-1.5-1.399-2.228-1.524-3.057C815.003,42.479,815.029,41.984,815.129,41.295z"/>
	<path fill="#542954" d="M330.462,369.023c-0.236-2.672,2.024-4.387,2.613-6.734c0.389-1.564-0.554-2.24-1.455-2.758
		c-0.012,0.07-0.029,0.168-0.043,0.232c-0.305,0.833-1.001,0.722-3.058-0.051c-3.981-1.511-5.752-1.525-6.424,2.35
		c1.172,0.652,1.63,1.128,2.66,3.247C325.844,367.55,326.785,369.484,330.462,369.023z"/>
	<path fill="#542954" d="M417.331,429.465c-0.786,0.461-1.712,0.881-3.525,0.648c-0.066,1.293-0.14,2.568-0.189,3.856
		c0.077,0,0.16,0,0.243,0.015h0.048c1.291,0.152,2.044,0.361,3.155,1.219c0.358,0.269,0.638,0.486,0.988,0.517
		c0.676,0.057,1.495-0.628,2.219-1.226c0.055-1.283,0.12-2.56,0.189-3.857c-1.034-1.08-1.575-1.539-2.257-1.528
		C417.893,429.162,417.809,429.193,417.331,429.465z"/>
	<path fill="#542954" d="M549.569,616.299c-7.009-18.837-27.658-28.993-31.671-49.728c-39.45-24.317-39.45-24.317-53.913-19.13
		c-18.378-13.251-30.881-32.394-47.49-47.425c0.995-1.726,2.329-4.035,3.326-5.76c-1.599-0.774-3.724-1.796-5.311-2.56
		c-0.559,1.944-1.295,4.543-1.858,6.486c-5.929-7.257-16.18-7.529-22.598-13.998c-0.582,3.609-3.28,8.088-5.837,10.709
		c-2.296-0.845-4.291-1.574-6.063-2.214c-0.587-0.207-1.131-0.402-1.667-0.596c-10.514-3.729-12.551-3.795-24.278-4.124
		c-1.942-10.072-11.976-13.746-16.957-21.433c-1.047,3.569-3.163,8.215-5.483,11.121c-1.394-3.71-2.705-8.859-3.391-12.757
		c-0.388,0.025-39.499,5.382-41.966,25.348c-3.256,1.926-7.184,5.233-9.661,8.095c-1.373-0.504-2.66-0.984-3.915-1.442
		c-0.972-0.358-1.909-0.701-2.815-1.032c-24.582-9.011-24.911-8.912-28.854-7.504c-20.258-10.749-24.582-42.671-8.743-64.433
		c0.168-1.912,0.351-3.83,0.534-5.747c-5.191-6.284-5.253-6.345-43.702-19.899v-1.961c9.551-16.916,12.877-36.446,22.207-53.443
		c-5.187-2.844-14.381-6.855-22.207-4.816c-1.421,0.365-2.789,0.951-4.085,1.763c-4.264,2.662-7.695,7.934-9.14,17.364
		c-0.978,0.348-1.697,0.603-2.602,0.857c-2.463,0.684-6.327,1.394-20.746,4.01c-1.071-1.2-2.043-2.502-2.966-3.844
		c-16.458-23.95-10.19-69.126,6.687-93.92c3.467-5.104,7.392-9.299,11.646-12.311c1.741-1.23,3.529-2.275,5.379-3.075
		c4.054-1.745,8.342-2.419,12.798-1.706c1.018,0.164,2.024,0.399,3.03,0.673c7.812,2.112,15.08,7.185,20.54,11.015
		c14.66-7.998,29.176,1.771,43.774,0.339c4.162,50.742,4.162,50.742,4.245,51.034c-3.049,2.218-7.022,5.285-9.956,7.656
		c30.407,7.156,25.461-30.463,23.841-42.819c-1.969-14.971-1.969-14.971,29.961-48.058c1.269,0.222,2.539,0.451,3.817,0.672
		c-0.478-0.189-0.965-0.387-1.466-0.561c-1.341-0.453-0.77-2.607,0.59-2.137c1.599,0.544,3.112,1.184,4.59,1.912
		c36.625-43.458,36.751-43.664,46.884-62.423c3.472-0.09,8.096-0.251,11.557-0.388c0.895-1.394,2.082-3.251,2.969-4.644
		c3.283-0.092,7.734,0.558,10.851,1.614c1.558-0.901,3.644-2.123,5.208-3.029c-1.192-1.339-2.784-3.108-3.984-4.442
		c4.426-9.44,9.444-20.134,44.263-23.69l-1.819,0.866c-2.421,2.979-4.628,7.833-5.405,11.602c4.1-0.06,9.639-1.397,13.294-3.269
		c48.05,26.662,46.13-16.536,44.4-30.411c14.485,1.162,14.485,1.162,19.973,2.254c0.435,1.606,1.001,3.725,1.435,5.319
		c-0.209,1.962-0.2,1.962-0.192,1.962c3.553-1.094,8.067-3.447,10.977-5.769c0.446,1.902,1.048,4.447,1.502,6.357
		c1.641,0.582,3.82,1.371,5.456,1.956c2.886-2.761,5.661-7.602,6.877-11.404c-1.483-0.8-3.46-1.855-4.937-2.646
		c3.114-8.659,3.114-8.659-18.793-18.691c1.326-3.271,3.775-7.388,6.01-10.115c-2.499,0.05-5.837,0.106-8.334,0.157
		c-8.266,9.179-13.404,20.896-23.325,28.749c-9.996-19.968-28.352-6.077-38.185,10.163c0.368-4.031,1.746-9.335,3.318-13.054
		c-1.664-0.097-3.88-0.232-5.544-0.324c3.568-1.603,7.965-4.631,10.836-7.292c-1.041-1.464-2.423-3.414-3.457-4.874
		c-9.799-1.659-13.102-2.215-28.514,4.588c2.209-3.05,6.795-6.154,10.497-6.89c2.361,0.142,2.361,0.142,2.361,0.142h0.006h0.012
		l0.011,0.01h0.011h0.014c1.241-1.574,2.894-3.658,4.146-5.229c64.536-6.254,64.536-6.254,77.073-13.987
		c0.639-4.161,1.288-8.289,1.945-12.377c-12.021-7.563-17.695-11.132-22.072-20.015c-3.908-7.932-6.782-20.103-12.224-43.142
		C459.07,8.125,456.169,8.479,448.394,9.43c-4.514-4.965-6.2-6.82-0.985-16.927c-10.554-16.432-10.554-16.432-30.833-19.567
		c-3.759,5.503-6.619,9.685-8.893,12.978c-7.549,10.912-8.36,11.525-11.746,13.969c9.147,26.121-23.392,31.911-23.737,31.938
		c-5.241,17.81-5.241,17.81-15.902,26.518c-1.119-1.652-2.592-3.866-3.714-5.52c2.697-2.228,5.166-6.633,5.872-10.061
		c-1.287-1.472-2.992-3.418-4.275-4.885c1.952-3.285,4.678-7.589,6.879-10.706c-12.163-7.322-17.037-21.94-29.221-29.258
		c-1.137-6.741,1.193-13.27,1.173-19.953c3.979-3.96,4.089-4.048,69.294-34.088c-0.068,0.488-0.138,0.978-0.19,1.472
		c-8.068,6.861-8.314,7.025-14.426,11.155c0.78,1.587,1.821,3.713,2.601,5.306c3.329-0.368,7.709-1.604,10.736-3.047
		c0.195,0.116,0.415,0.23,0.616,0.347c3.082,1.711,7.354,3.275,10.707,3.798c0.629-7.386-2.684-14.612-0.922-22.042
		c0,1.642,0,3.848,0,5.49c5.782-5.948,15.375-6.147,20.257-13.447c1.534,0.663,3.577,1.536,5.104,2.195
		c-0.026,0.15-3.636,15.239-10.43,21.802c20.675,11.014,20.675,11.014,22.408,19.567c6.129,1.459,11.432,4.892,17.187,7.227
		c0.506-1.728,1.19-4.051,1.703-5.78c-0.839-1.51-1.972-3.508-2.823-5.016c3.22,1.403,7.234,4.025,9.759,6.466
		c2.687-2.153,6.239-5.053,8.877-7.259c-6.609-18.003-6.609-18.003-6.591-20.486c3.186,2.136,6.798,6.11,8.536,9.541
		c6.171-0.185,6.171-0.185,16.676-8.375c-3.879-7.474-11.477-11.865-15.715-19.033c1.095-1.292,2.576-3.031,3.67-4.324
		c-0.973-3.995-0.973-3.995-15.194-22.386c0.54-1.859,1.261-4.328,1.794-6.187c-0.416-0.187-41.807-17.707-49.636,12.307
		c1.269,1.151,2.948,2.7,4.213,3.859c-2.598,3.311-6.707,7.232-10.083,9.75c-1.619-0.445-3.775-1.033-5.397-1.479
		c0.899-1.469,2.094-3.423,3.001-4.887c-5.322-13.582-3.481-14.357,27.073-27.377c-3.633-3.079-5.292-4.476-10.485-4.404
		c-4.335,0.06-11.125,1.142-23.608,3.136c-0.881,1.537-2.058,3.577-2.95,5.113c1.347,1.018,3.135,2.38,4.474,3.412
		c-7.121,7.016-7.121,7.016-20.794,9.518c7.757-19.617,7.757-19.617,22.36-24.577c-1.39-1.087-3.228-2.548-4.605-3.639
		c-3.964,1.95-9.134,4.796-12.902,7.082c1.878-1.288,4.385-3.003,6.267-4.292c-0.89-1.476-2.085-3.44-2.964-4.916
		c1.796-3.463,4.458-7.97,6.813-11.093c-0.261-0.553-0.624-1.285-0.885-1.836c-4.229-1.389-9.49-3.115-30.774,7.285
		c1.628,1.215,3.795,2.835,5.426,4.036c2.46-0.528,5.741-1.317,8.243-1.623c-9.96,3.205-9.96,3.205-15.974,7.085
		c0.16,1.673,0.373,3.904,0.537,5.583c-11.593-0.891-12.526,1.325-15.985,9.564c-0.627-3.311-0.513-7.974,0.354-11.228
		c-1.347-0.988-3.145-2.305-4.487-3.292c1.516-0.67,3.543-1.571,5.053-2.243l3.475-1.722c-0.004,0-0.004-0.01-0.004-0.01v-0.001
		h-0.005v-0.012c-1.698,0.409-3.945,0.953-5.643,1.361c1.256-1.27,2.933-2.968,4.189-4.242c-2.81-2.826-7.485-5.7-11.189-7.17
		c10.799-9.202,23.211-16.17,34.315-24.952c-6.87-1.313-6.87-1.313-35.711,9.978c1.351-0.691,2.742-1.374,4.169-2.054
		c1.548-0.598,3.623-1.397,5.174-1.995c-22.86,7.398-58.723,30.092-73.508,38.208l-3.289,2.607c-5.79,3.431-0.003,0.002-5.727,3.54
		c-0.441,0.072-0.885,0.145,0,0.002c-0.822,0.415-0.545,0.273-0.153,0.075c-0.557,0.288-0.238,0.124,0.137-0.067
		c-0.86,0.604-0.73,0.562-0.351,0.333c-15.413,14.22-30.037,29.304-45.966,42.967c3.479-2.468,8.102-5.801,11.531-8.349
		c-24.026,23.554-24.026,23.554-24.389,25.111c-3.409,2.631-6.785,5.3-10.119,8.012c-4.801,6.872-9.372,13.419-13.766,19.712
		c-8.209,7.591-14.944,17.068-19.548,28C93.879,123.757,93.377,124.974,88.933,135.877c-9.593,23.495-1.825,49.428-10.262,73.082
		c-1.53,4.292-2.698,8.504-3.593,12.588c-0.41,1.875-0.754,3.709-1.05,5.532c-1.093,6.751-1.447,13.096-1.338,18.849
		c0.106,5.65,0.655,10.727,1.357,15.049c1.566,9.553,3.907,15.381,3.973,15.481c0.643-7.293,1.228-13.921,1.768-20.053
		c0.325-3.687,0.633-7.181,0.927-10.478c0.742-8.383,1.382-15.548,1.937-21.681c0.08-0.906,0.163-1.827,0.243-2.692
		c2.979-32.737,3.433-34.075,5.055-38.809c1.329,1.322,3.103,3.102,4.429,4.431c-2.606,12.177-4.569,23.61-6.001,34.378
		c-0.081,0.609-0.167,1.227-0.244,1.832c-1.009,7.873-1.727,15.389-2.177,22.541c-0.17,2.742-0.301,5.424-0.397,8.059
		c-2.345,63.879,16.995,98.11,33.521,116.698c0.077,0.088,0.155,0.168,0.233,0.255c6.462,7.225,12.477,12.063,16.567,15.355
		c1.771-0.685,4.138-1.601,5.911-2.271c1.942,1.437,4.143,3.344,6.516,5.572c3.772,3.551,7.999,7.964,12.401,12.837
		c20.171,22.317,43.969,54.042,44.21,54.408c-0.23,4.491-0.418,8.988-0.573,13.491c13.145,6.463,18.604,21.991,32.529,27.521
		c-0.155,1.637-0.376,3.835-0.545,5.485c3.269,1.168,7.456,3.271,10.33,5.217c1.058-1.377,2.474-3.219,3.534-4.602
		c-0.865-1.548-2.003-3.593-2.864-5.139c2.477-2.392,6.526-4.922,9.819-5.917c1.609,2.993,4.141,6.786,6.318,9.394
		c3.452,15.188,5.724,25.195,6.561,32.916v1.319h0.129c1.261,13.998-2.582,20.485-13.272,38.448
		c-1.676,0.335-3.901,0.777-5.583,1.106c-0.96,10.813-4.347,21.342-3.879,32.332h0.008c0,0,0.005,0,0.005,0.006c0,0,0,0,0,0.005
		h0.011h0.011c0,0,0.006,0,0.006,0.004h0.007c3.173,2.084,6.982,5.592,9.339,8.571c-1.854,0.948-4.326,2.212-6.177,3.157
		c-4.474,14.489,0.538,23.671,0.587,23.755c15.328,26.183,43.347,43.185,53.056,73.425c0.213,0.652,0.213,0.652,51.852,42.32
		c13.069,10.547,18.249,24.415,20.463,39.529v39.259h2.212c1.191,26.977,5.739,52.539,38.382,66.275
		c-1.113-1.338-2.599-3.135-3.713-4.476c3.052,1.765,6.691,4.989,8.706,7.914c1.146-0.258,21.039,0.208,9.288-0.218
		c13.331,0.484-2.108-0.093,1.731,1.154c1.134,1.73,13.313,2.399,5.188,6.353c19.857,11.95,31.195,18.032,54.805,19.616
		c-21.616-6.919-21.361-2.764-27.126-13.591c-1.612-0.367-3.757-0.87-5.368-1.242c1.53-3.185,2.526-7.97,2.47-11.495
		c1.669,0.341,3.897,0.792,5.566,1.126c-2.732-1.891-7.02-3.576-10.312-4.033c3.638-1.576,8.968-2.642,12.937-2.771
		c0.244-1.814,0.569-4.223,0.809-6.04c18.092-1.505,18.241-1.61,25.718-7.304c-0.653-2.227-1.513-5.2-2.172-7.429
		c32.047-14.058,32.047-14.058,54.512-41.225c-2.223-18.331-2.223-18.331,59.886-34.958c5.283-9.154,12.554-16.977,17.637-26.253
		c1.907-5.103,3.467-5.155,5.022-5.2c1.298-33.469,28.429-53.604,41.737-80.875c6.73-13.771,3.69-22.785-0.52-35.249
		C626.351,658.409,592.793,623.335,549.569,616.299z M276.503,80.822c12.891-6.458,19.257-8.257,31.301-5.99
		c-1.258,2.629-3.39,7.154,0.589,8.879c0.75,0.326,1.693,0.563,2.918,0.661c-1.435,2.651-1.727,3.202-2.075,6.947
		c-0.009,0.108-0.029,0.182-0.041,0.283c-0.188,1.729-0.626,2.797-1.679,4.004c-0.454,0.518-1.189,1.086-1.7,1.557
		c0.127-2.901-0.896-4.165-3.132-4.502c-2.288-0.342-5.854,0.305-10.786,1.205c0.083-2.175-1.75-3.889-1.473-6.11
		c0.215-1.764,0.338-1.993,2.297-3.811c0.148-0.141,0.281-0.257,0.455-0.422c-0.154,0.014-0.298,0.053-0.451,0.067
		c-5.54,0.727-10.72,3.661-16.534,2.817c-1.812-0.591-2.812-1.357-4.273-3.257C273.554,82.31,275.063,81.545,276.503,80.822z
		 M283.312,119.666c-1.524,2.613-2.849,5.605-4.03,9.208c-0.496,1.513-0.978,3.117-1.427,4.873c-3.903-1.819-4.483,5.144-8.45,3.486
		c-0.196-4.351,2.003-10.379,5.146-16.032c1.43-2.577,3.057-5.07,4.753-7.296c2.321-3.036,4.752-5.579,6.97-7.101
		c-0.415-0.748-0.415-0.748-0.888-1.219c0-0.057,0.006-0.088,0.796-1.409c0.368-0.626,0.95-1.603,1.76-2.949
		c0.203-0.347,0.385-0.655,0.625-1.048c0.614,0.421,1.032,0.61,1.779,0.804c1.75,0.335,2.886,0.229,5.667-0.323
		c0.078-0.02,0.146-0.029,0.229-0.045c1.409-0.281,2.478-0.444,3.295-0.383c0.899,0.07,1.499,0.416,1.874,1.223
		c-0.26,0.212-0.597,0.5-0.865,0.708C292.636,108.533,287.281,112.863,283.312,119.666z M323.336,138.679
		c-7.006,5.443-14.745,6.03-25.471,6.836c0.756-1.156,2.034-3.109,4.164-4.758c1.23-0.956,2.742-1.81,4.613-2.339
		c2.064-0.58,3.784-0.731,5.899-0.767c2.063-0.04,4.119,0.099,6.172,0.234c1.787,0.112,3.568,0.227,5.351,0.215
		C323.853,138.271,323.562,138.512,323.336,138.679z M348.689,131.121c-4.154,7.079-13.62,4.375-19.885,2.586
		c-3.14-0.897-4.83-1.352-6.182-1.218c2.121-1.809,4.407-3.049,6.931-3.83c4.826-1.493,10.635-1.119,18.255,1.063
		c0.472,0.139,0.912,0.235,1.402,0.378C349.056,130.405,348.855,130.819,348.689,131.121z"/>
	<path fill="#542954" d="M287.917,306.368c1.331,3.105,1.948,4.098,3.404,4.694c0.722-1.209,1.416-2.352,1.871-3.98
		c2.228-7.882-5.885-11.7-13.726-15.403c-0.104,0.349-0.253,0.812-0.36,1.164c-1.368,5.279-0.778,8.168,2.161,10.675
		C284.963,300.115,286.202,302.393,287.917,306.368z"/>
	<path fill="#542954" d="M363.404,402.048c-1.017,9.433,14.422,7.967,17.985,5.194c0.262-0.204,0.59-0.52,0.789-0.795
		c0.088-0.116,0.179-0.3,0.257-0.431c-3.043-2.528-4.904-3.633-8.534-3.958C370.413,401.854,366.905,402.18,363.404,402.048z"/>
	<path fill="#542954" d="M314.503,349.654c0.041-0.069,0.101-0.164,0.146-0.233c-1.563-0.815-2.551-2.516-4.463-2.777
		c-0.422-0.042-0.698-0.042-1.183,0c-0.361,2.523-0.724,5.037-1.079,7.548C311.098,354.942,312.303,353.063,314.503,349.654z"/>
	<path fill="#542954" d="M274.018,308.931c-3.933,12.566-2.722,21.81,0.611,28.542c2.742,5.544,6.929,9.39,10.87,11.983
		c5.169,3.402,9.917,4.659,10.426,4.789c1.601-1.817,2.022-2.302,0.94-4.117c-2.182-3.606-1.454-6.939,1.496-6.842
		c6.02,0.2,6.02,0.2,6.221-0.053c0.108-0.134,0.259-0.297,0.344-0.446c0.836-1.438-2.225-5.489-2.268-5.517
		c-0.992-0.732-2.695-0.571-5.615-0.234c-1.305-4.886-3.357-9.517-4.94-14.312c3.688,0.455,4.747,1.938,5.367,2.831
		c1.104-5.799,0.654-6.403-3.681-12.156c-2.394,5.349-4.52,6.273-6.332,2.76c-0.849,6.26-0.849,6.26,3.836,19.933
		c-1.535,2.25-3.016,2.904-6.331,2.793c0.733-5.107,0.767-7.318-0.384-14.299c-1.178-7.161-0.752-9.553,2.536-14.255
		c-4.561,0.161-7.993-2.982-12.11-4.089C274.707,307.04,274.312,308.114,274.018,308.931z"/>
	<path fill="#542954" d="M313.963,399.959c8.824,0.364,12.103,1.488,14.083,7.438c5.188-8.133,6.43-7.913,27.265-4.315
		c0.141-1.649,0.281-3.298,0.426-4.947c0.079-0.905,0.155-1.814,0.239-2.729c-14.092-8.204-23.396-13.614-34.074-14.837
		c-0.986-0.059-1.868-0.086-2.688-0.072c-2.591,0.032-4.56,0.446-7.189,1.406c2.621,0.944,3.981,1.908,4.62,2.787
		c-0.046,0.969-0.004,1.771,0.221,2.26c-0.332,0.579-0.882,0.974-1.187,1.058c-0.367,0.097-0.885,0.035-1.269,0.05
		c-0.048,0.705-0.08,1.375-0.08,1.977c0,0.802,0.07,1.469,0.35,1.799c1.374,1.644,3.584,1.71,5.241,2.819
		c-0.548,0.372-1.061,0.626-1.561,0.822c-0.674-0.046-1.338-0.088-2.099-0.122c-1.073-0.046-2.057-0.102-2.954-0.177
		c-0.82-0.309-1.715-0.706-2.745-1.188c-1.76-0.82-3.326-1.451-4.968-1.799c-1.203-0.254-2.445-0.375-3.876-0.21
		C302.327,398.406,305.31,399.604,313.963,399.959z"/>
	<path fill="#542954" d="M267.349,331.529c0.646-2.86-0.864-5.497-3.369-5.857c-2.452-0.12-3.07,2.221-3.275,2.976
		c1.591,2.211,3.553,3.164,6.571,3.191C267.298,331.743,267.322,331.627,267.349,331.529z"/>
	<path fill="#542954" d="M228.534,338.167c-0.917,1.338-1.788,2.859-2.685,4.602c4.02-0.131,6.655,1.558,10.62,4.314
		c6.882,4.807,10.919,6.354,18.163-0.201c10.294,8.494,15.395,15.354,21.88,29.332c3.651-0.925,6.308-0.883,13.504,0.259
		c0.063,0.013,0.124,0.026,0.188,0.032c5.683,0.942,10.597,1.755,14.628,1.054c0.498-0.084,1.147-0.26,1.638-0.374
		c-0.64-1.45-1.445-2.754-2.345-3.98c-7.302-9.979-21.981-13.614-24.674-27.525c-25.961-13.069-25.961-13.069-34.962-14.437
		C236.042,330.977,231.957,333.187,228.534,338.167z"/>
</g>
<path fill="#542954" d="M909.104,211.281v-1.978h-0.695c-38.814-107.825-141.991-184.93-263.188-184.93
	c-154.442,0-279.647,125.205-279.647,279.649c0,154.447,125.204,279.65,279.647,279.65c154.448,0,279.652-125.203,279.652-279.65
	C924.873,271.514,919.304,240.305,909.104,211.281z"/>
<g opacity="0.1">
	<circle fill="#9595A4" cx="645.221" cy="304.024" r="279.649"/>
</g>
<g>
	<path fill="#542954" d="M920.02,265.557c0.283,2.025,0.568,4.006,0.811,5.754C920.588,269.333,920.309,267.429,920.02,265.557z"/>
	<path fill="#542954" d="M694.593,44.714c0,0.003-0.006,0.011-0.011,0.015c-0.125,0.081-0.317-0.032-0.404,0.153
		c0.121,0.148,0.713,0.319,2.086,0.663c-0.862-0.284-1.095-0.38-1.128-0.486c0.083-0.106,0.258-0.058,0.335-0.184
		c-0.021-0.064-0.043-0.157-0.896-0.453c-0.12-0.044-0.279-0.097-0.405-0.139c0.169,0.07,0.171,0.078,0.182,0.109
		c-0.069,0.014-0.23-0.007-0.789-0.109c-0.507-0.098-0.514-0.094-0.535-0.077c0,0.002,0.612,0.229,1.094,0.339
		C694.555,44.647,694.576,44.696,694.593,44.714z"/>
	<path fill="#542954" d="M921.277,275.407l-0.077-0.699c-1.108-9.622-3.226-18.561-5.929-26.913c-1.05-4.965-1.87-8.74-2.6-11.881
		c-1.218-5.246-2.189-8.733-3.568-13.017v-5.727v-7.872h-2.81h-2.019c-2.574-6.654-5.507-14.227-8.14-20.1l-0.357-0.767
		c-2.279-4.859-5.592-11.196-8.029-15.976c-13.277-22.348-14.688-24.722-23.006-35.582c0.595,0.782,1.203,1.594,1.838,2.441
		l7.709,10.917c0.028,0.042,0.066,0.103,0.093,0.147c-3.453-4.335-6.302-9.123-9.868-13.376l-12.876-13.776
		c-2.433-2.592-3.295-4.132-3.306-4.145c0.055-0.026,0.117-0.051,0.166-0.074c1.174,0.882,3.625,2.95,7.462,7.191
		c-11.136-13.208-13.529-15.642-24.436-25.872c-15.713-13.503-28.116-24.166-51.646-37.715
		c-10.961-6.225-22.524-11.47-34.595-15.656c-1.329-0.461-2.669-0.903-4.008-1.337c-0.291-0.095-0.579-0.197-0.869-0.29l0.012,0.039
		c0.219,0.489,0.479,1.077,0.729,1.64c0.141,0.32,0.28,0.632,0.403,0.909c0.873,0.094,0.873,0.094,16.588,10.592
		c-1.414-0.46-3.391-0.826-4.874-0.889c1.523,0.972,3.505,2.215,5.607,3.523c2.071,1.288,4.256,2.64,6.245,3.865
		c3.819,2.354,6.898,4.236,6.96,4.275c-0.099,0.034-0.211,0.073-0.317,0.111c-0.628,0.221-1.364,0.479-1.942,0.681
		c1.412,0.883,3.541,1.688,5.174,2.042c-2.475,0.479-2.475,0.479-12.814-3.985c0.877-0.285,2.01-0.862,2.72-1.591
		c0.176-0.18,0.332-0.366,0.441-0.563c-0.28-0.243-0.528-0.455-0.79-0.649c-1.859-1.375-4.411-1.713-24.89-4.287
		c-0.289-0.037-0.567-0.072-0.862-0.109c-0.405,1.307-0.376,3.272,0.141,4.587c-0.011,0.019-0.023,0.041-0.032,0.059
		c0.028,0.041,0.072,0.082,0.102,0.124c0,0,0,0,0,0.001c-0.372,0.645-0.868,1.503-1.243,2.149c0.976,1.328,2.608,2.843,3.912,3.842
		c-0.093,0.794-0.211,1.854-0.303,2.647c4.172,1.35,4.172,1.35,14.121,15.585c-3.125,10.946,12.66,20.951,18.417,21.145
		c0.106-0.709,0.161-1.55,0.168-2.388c0.009-0.912-0.042-1.829-0.157-2.602c0.209-0.007,0.333-0.009,1.29,0.413
		c0.892,0.397,2.521,1.169,5.625,2.666c1.248,0.598,2.732,1.318,4.507,2.171c0.701,0.628,1.288,1.146,1.773,1.583
		c0.489,1.487,1.079,3.199,1.559,4.551c-0.334-0.168-0.37-0.191-7.737-6.784c-0.332-0.294-0.652-0.585-1.012-0.903
		c-1.868,7.654,7.124,9.545,8.472,15.495c0.055,0.244,0.12,0.481,0.147,0.738c-0.542,0.61-1.153,1.356-1.74,2.109
		c-0.484,0.626-0.954,1.253-1.341,1.812c1.694,3.792,3.587,8.058,1.024,17.14c-0.214,0.759-0.446,1.542-0.728,2.371
		c-0.509-0.118-1.134-0.263-1.71-0.396c-0.246-0.056-0.483-0.111-0.7-0.16c-0.05,0.748-0.212,1.625-0.452,2.476
		c-0.229,0.813-0.525,1.602-0.872,2.229c-0.735,0.078-1.581,0.298-2.4,0.596c-0.803,0.292-1.578,0.659-2.19,1.047
		c5.48,7.388,18.976,7.185,19.887,18.869c0.045,0.573,0.07,1.166,0.052,1.8c-6.077,2.728-13.41,1.5-19.15,5.273
		c-0.624,0.409-1.233,0.856-1.813,1.397c7.18,8.386,6.387,20.816,14.537,28.714c15.222-2.23,3.749,20.877,5.497,32.145
		c-1.322,1.471-2.295,2.807-3.363,5.258c-0.996,1.709-1.936,4.018-3.199,7.984c-1.908,5.994-3.986,11.937-6.027,17.889
		c-1.86,5.426-3.689,10.861-5.325,16.36c-3.185,10.681,2.465,21.105,2.944,31.682c0.161,3.491-0.24,6.995-1.706,10.529l19.183,34.93
		c4.629,1.703,8.598,4.463,12.516,7.31c3.252,2.359,6.472,4.779,10.003,6.695c3.411-3.879,15.578-10.804,25.95-16.102
		c7.694-3.932,14.4-6.966,15.805-7.192c2.574,3.645,2.968,5.032,3.649,9.887c6.569-3.452,6.569-3.452,9.942-3.397
		c0.346,1.166,1.148,2.672,1.148,3.885l-1.113,48.339c-0.413,6.669-3.753,16.331-4.425,18.196
		c-0.351,0.989-4.439,12.311-11.812,27.194c-7.797,15.739-19.267,35.455-33.882,51.16c-1.518,1.632-3.069,3.223-4.654,4.758h0.005
		l0,0V518.8h0.01v-0.005l0.001-0.005h0.002c9.981-6.239,28.707-26.523,38.223-38.271c16.211-21.896,17.185-23.206,25.556-37.896
		c3.874-7.571,6.621-12.939,8.732-17.185c5.832-11.597,7.18-15.056,11.446-26.679c8.689-27.351,9.028-28.421,12.059-44.657
		c4.031-28.494,4.357-30.821,4.563-50.044C922.339,295.46,922.04,283.977,921.277,275.407z M792.696,289.741
		c0.841-0.525,1.674-0.986,2.539-1.584C794.391,288.724,793.52,289.259,792.696,289.741z M846.266,134.126
		c0.129-0.148,0.2-0.404,0.194-0.819c1.039,1.38,1.337,2.035,1.332,2.917c2.222,0.967,2.459,1.07,4.266,2.879
		c-0.323-0.974-0.918-2.779-0.709-3.937c0.108-0.598,0.438-1.015,1.142-1.045c0.524-0.023,1.246,0.162,2.248,0.66
		c1.165,0.577,7.007,4.53,8.848,7.519c1.095,1.777,1.655,3.05,1.88,3.978c0.628,2.574-1.402,2.371-2.232,2.185
		c-0.642-0.142-1.333-0.453-1.883-0.731c-0.196-0.098-0.381-0.193-0.532-0.276c-0.834,0.811-0.687,2.362-0.354,5.032
		c0.136,1.111,0.194,1.885,0.188,2.482c-0.01,0.86-0.16,1.343-0.44,1.832c-4.256,4.583-16.496-23.483-16.607-23.786
		C844.83,133.88,845.856,134.594,846.266,134.126z M811.088,173.974c0.561-0.449,1.179-0.792,1.82-1.094
		c2.014-0.943,4.28-1.44,5.834-3.206c0.79-0.898,1.156-1.634,1.294-2.472c0.141-0.872,0.032-1.858-0.128-3.265
		c0.443-0.276,0.884-0.339,1.317-0.318c0.958,0.048,1.903,0.557,2.866,0.449c4.768,5.143,6.208,6.698,13.02,8.867
		c4.918,1.562,7.628,2.427,12.291,7.938c0.012,0.017,0.63,1.248,0.488,2.654c-0.052,0.513-0.197,1.045-0.52,1.554
		c-0.656,1.04-1.714,1.503-2.747,2.005c-0.717,0.346-1.42,0.709-1.969,1.299c2.022,2.981,5.666,2.658,8.43,4.142
		c0.076-1.188-0.371-2.158-0.922-3.083c-0.563-0.952-1.233-1.861-1.555-2.914c1.062-1.376,0.434-2.894,0.223-4.381
		c0.249-0.688,0.255-1.383,0.171-1.974c0.051-0.118,0.105-0.23,0.176-0.349c0.025-0.012,0.028-0.012,0.028-0.014
		c-0.118-0.23-0.273-0.447-0.442-0.652c-1.333-1.606-4.033-2.502-4.257-4.609c-0.047-0.434,0-0.915,0.2-1.468
		c0.479,0.017,0.789,0.03,1.279,0.237c0.512,0.215,1.22,0.64,2.526,1.507c-0.708-1.347-1.728-2.307-2.871-3.106
		c-2.333-1.634-5.193-2.604-7.067-4.812c-0.306,0.419-0.42,0.577-0.784,0.794c-5.517,0.74-6.856-6.225-11.857-6.442
		c-2.761-3.759-3.396-4.717-2.945-6.599c0.737,0.366,1.348,0.959,2.034,1.416c0.462,0.305,0.955,0.549,1.552,0.62
		c0.178-0.223,0.339-0.579,0.417-0.855c0.842,0.719,1.909,1.744,2.799,2.394c4.309,3.134,9.976,3.19,14.28,6.332
		c3.822,2.788,5.007,7.797,8.869,10.557c1.62,1.162,1.755,1.258,4.22,2.662c0.66,2.85,3.162,4.5,4.508,6.906
		c0.081-0.278,0.254-0.629,0.415-0.872c0.025,0,0.025,0,1.695,0.213c0.084-0.13,0.202-0.311,0.296-0.446
		c-0.332-0.526-0.739-0.997-1.147-1.469c-0.526-0.605-1.05-1.208-1.439-1.912c0.127,0.123,0.291,0.289,0.42,0.413
		c0.143-0.019,0.332-0.042,0.48-0.06c-0.23-1.467-0.644-1.761-1.399-2.298c0.063-0.125,0.137-0.286,0.195-0.411
		c1.644-0.386,1.438-1.248,1.225-1.655c-0.067-0.126-0.132-0.215-0.145-0.227c-0.025-0.032-0.059-0.063-0.084-0.095
		c-2.519-3.095-6.314-4.758-8.826-7.859c0.024-0.13,0.067-0.306,0.091-0.439c0.652-0.087,1.311,0.176,1.959-0.042
		c-0.033-1.462-1.472-1.979-2.068-3.071c0.156,0.013,0.358,0.048,0.511,0.043c0.854-0.026,0.952-0.895,1.344-1.441
		c0.167-0.233,0.383-0.412,0.743-0.431c0.797-0.037,1.164,0.725,1.623,1.691c0.026,0.048,3.146,5.412,3.359,5.553
		c0.119-0.128,0.271-0.296,0.384-0.429c-0.128-0.577-0.229-0.94-0.558-1.444c0.454,0.625,1.188,1.649,2.424,3.366
		c-0.297-0.032-0.702-0.048-1.002-0.009c-0.08,0.465-0.122,0.754,0.197,1.175c0.113,0.112,0.214,0.235,0.321,0.351
		c0.139,0.135,0.3,0.281,0.51,0.454c0.3-0.04,0.675-0.195,0.926-0.358c2.029,0.691,4.29,5.696,4.308,5.744
		c-0.206-1.995,2.817-0.351,4.173-0.813c0.106-0.628,0.152-0.974-0.337-2.262c0.551,0.08,1.083,0.124,1.468-0.013
		c0.023-0.125,0.04-0.238,0.055-0.351c0.49-0.094,0.737-0.732,0.925-2.263c0.735,0.05,1.002-0.732,1.23-3.147
		c0.332,0.584,0.669,1.173,0.952,1.678c7.022,12.507,9.229,18.264,10.767,22.641c0.125,0.355,0.246,0.705,0.364,1.045
		c-0.445,0.877-1.431,1.128-2.201,1.626c-0.382,0.246-0.713,0.546-0.895,1.022c-0.305,0.785-0.304,1.656-0.149,2.684
		c0.093,0.615,0.241,1.284,0.413,2.017c-3.219,0.707-6.572,0.294-9.761,1.211c-1.821-2.74-3.089-2.637-3.925-1.741
		c-0.953,1.03-1.344,3.098-1.351,3.139c-0.132,0.857-0.162,1.116,1.146,4.099c0.095,0.215,0.196,0.442,0.304,0.688
		c0.384,0.866,0.863,1.928,1.454,3.236c0.154,0.341,0.31,0.686,0.481,1.061c-1.939,1.84-5.692,3.885-10.385-0.895
		c-0.621-0.634-1.255-1.373-1.907-2.26c-2.472-0.18-4.714,1.433-7.222,0.945c-2.08-0.401-2.752-1.044-4.208-2.778
		c-0.126-0.148-0.245-0.288-0.382-0.457c-0.217,0.105-0.347,0.271-0.447,0.457h-0.935v1.051c-1.32-2.274-0.379-5-1.392-7.341
		c0.591,0.408,0.591,0.408,1.2,2.489c0.22-0.68,0.427-1.323-0.488-2.601c-1.048-1.451-2.828-2.073-3.9-3.494
		c-1.117-1.482-0.124-3.226-0.587-4.789c-3.929-0.712-3.929-0.712-4.3-1.072c-2.504,3.137-3.349,4.194-8.808,6.75
		c-8.955,4.199-11.733,6.144-13.932,10.066c-0.401,0.714-0.787,1.505-1.183,2.376c-0.318,0.701-0.644,1.451-0.998,2.281
		c-3.066-0.42-5.375,2.463-8.46,1.931c-2.107-0.366-3.079-2.028-4.313-4.132c0.513-0.406,1.103-0.863,1.708-1.321
		c0.846-0.643,1.721-1.292,2.471-1.818c3.861-2.74,5.779-5.155,6.501-7.412c0.951-2.969-0.156-5.667-1.651-8.473
		c-2.258-4.231-1.498-5.788,2.729-14.446C813.642,177.432,812.03,175.925,811.088,173.974z M770.926,90.099
		c-2.228-2.295-2.531-5.726-4.739-8.029c-1.707-1.788-4.865-1.923-5.539-4.877c-0.276-1.19,0.637-1.267,1.703-1.001l3.878,2.751
		c1.34,1.949,3.374,4.978,3.299,5.222c-0.143,0.062-0.345,0.115-0.495,0.131c0.465,0.332,0.881,0.624,1.307,0.929
		c10.502,7.46,10.558,7.505,11.203,8.077c-0.003,0.003-0.006,0.006-0.007,0.011c-0.235,0.433-0.735,0.401-1.087,0.621
		c-0.131,0.967,2.407,1.577,4.03,1.226c0.364-0.078,0.682-0.203,0.913-0.384c0.646-0.502,0.922-1.351,1.107-2.255
		c0.303-1.468,0.378-3.086,1.392-3.682c0.329-0.19,0.742-0.286,1.306-0.225c0.23,0.455,0.637,1.021,0.767,1.513
		c0.219,0.842,0.236,1.235-0.892,3.227c-1.005,1.782-0.249,3.223,0.156,3.997c1.199,2.304,2.925,3.253,3.24,2.505
		c0.23-0.551-0.405-1.118,0.04-1.66c0.095-0.11,0.384-0.181,1.234,0.123c0.376,0.293,0.741,0.597,1.116,0.892
		c1.063,0.842,2.125,1.685,3.176,2.544c0.073,0.158,0.139,0.381,0.176,0.552c-0.055,0.062-0.132,0.15-0.188,0.211
		c-0.449-0.052-0.861-0.243-1.267-0.459c-0.901-0.485-1.766-1.104-2.916-0.688c-0.145,0.057-0.241,0.344-0.176,0.481
		c0.299,0.589,0.887,1.267,1.312,1.777c2.04,2.467,5.029,3.924,6.969,6.503c0.471,0.624,0.737,1.318,0.94,2.038
		c0.303,1.065,0.463,2.181,0.914,3.195c-1.521-0.84-2.487-1.146-3.111-1.06c-0.994,0.134-1.11,1.271-1.168,2.883
		c-0.006,0.186-0.016,0.364-0.025,0.535c-0.163,2.419-0.935,3.112-4.107,1.141c-0.171-0.105-0.34-0.211-0.523-0.331
		c-0.175,0.222-0.266,0.471-0.328,0.729c-0.225,0.937,0.038,2.04-0.883,2.731c-1.366-2.304-2.184-4.929-3.926-7.019
		c-0.038-0.105-0.078-0.222-0.118-0.332c1.234,0.358,1.759,1.658,2.84,2.217c0.354-0.334,0.19-0.794,0.293-1.194
		c0.008-0.034,0.007-0.067,0.021-0.099c0.383-0.045,0.448-0.056,1.196,0.522c-0.29-1.433-1.593-2.138-2.325-3.251
		c-0.061-0.093-0.127-0.182-0.18-0.282c0.131-0.054,0.304-0.129,0.426-0.19c0.637-0.42,0.97-0.842,1.111-1.497
		c0.052-0.235,0.077-0.505,0.082-0.816c0.001-0.127,0.001-0.26-0.004-0.405c-2.987-2.088-5.387-4.842-8.135-7.202
		c0.202-5.019-3.16-6.71-6.021-7.252C775.679,94.583,775.18,94.487,770.926,90.099z"/>
	<path fill="#542954" d="M569.826,52.73c1.429,0.045,4.918-0.669,5.07-0.7c0.549-0.113,1.208-0.51,1.749-0.671
		c0.574-0.176,1.182-0.222,1.758-0.394c0.3-0.091,0.696-0.224,0.99-0.317c-0.057-0.271-0.146-0.328-0.397-0.504
		c-1.413-0.625-4.598-0.464-10.026,0.504c0.126,0.289,0.116,0.474-0.054,0.992C568.719,52.224,568.567,52.686,569.826,52.73z"/>
	<path fill="#542954" d="M567.713,57.624c1.937,0.856,3.465,1.53,8.054-0.1c0.459-0.164,1.057-0.407,1.514-0.583
		c-0.668-1.479-0.668-1.479,2.671-3.249c-3.232,0.489-3.232,0.489-4.312,0.74c-0.018,0.336-0.023,0.434-0.959,0.896
		c-1.087,0.537-1.143,0.622-1.417,1.033c-0.233-0.076-0.233-0.076-0.56-0.446c0.03-0.28,0.15-0.667,0.326-0.887
		c0.751-0.912,1.707-1.622,2.472-2.517c0.05,0,0.12,0.004,0.166,0.016c0.043,0.07,0.043,0.07,0.024,0.226
		c0.025,0.023,0.048,0.054,0.068,0.077c0.682,0.008,1.967-0.658,2.208-0.867c-0.008-0.022-0.013-0.054-0.022-0.076
		c-0.306-0.055-0.64,0.1-0.926-0.12c-0.921,0.189-1.745,0.695-2.686,0.814c-0.004-0.025-0.01-0.054-0.01-0.078
		c-1.167-0.444-6.555,1.146-7.164,1.327c-0.014,0.002-1.052,0.679-0.838,1.062c0.106,0.179,0.484,0.265,0.788,0.33
		c0.563,0.128,0.744,0.179,0.801,0.417c0.019,0.077-0.367,0.669-0.587,0.522c-0.112-0.078-0.05-0.22-0.108-0.316
		c-0.224-0.043-0.369-0.072-1.955,0.61c0.021,0.053,0.051,0.118,0.07,0.173c-0.18,0.175-0.18,0.175-0.641,0.387
		C565.843,57.02,566.407,57.045,567.713,57.624z"/>
	<path fill="#542954" d="M458.442,105.267c1.188-1.232,2.275-2.558,3.548-3.709c1.933-1.739,3.521-2.814,4.123-3.215
		c-0.342-0.294,0.007-0.638-0.045-0.953c-0.26-0.331-1.472,0.683-1.483,0.692c-4.05,4.044-6.148,6.404-6.246,7.023
		C458.331,105.15,458.32,105.248,458.442,105.267z"/>
	<path fill="#542954" d="M592.781,58.811c1.32-0.244,1.634-0.304,1.851-0.083c0.006,0.009,0.014,0.019,0.021,0.022
		c0.615-0.389,1.896-1.204,1.406-1.348c-0.013-0.001-0.032-0.003-0.05-0.008c-0.441-0.051-1.394,0.189-1.401,0.193
		C594.602,57.589,593.879,57.968,592.781,58.811z"/>
	<path fill="#542954" d="M695.048,52.583c0.523,0.089,0.953-0.307,1.462-0.299c0.279,0.004,0.685,0.056,0.689,0.058
		c1.864,0.405,3.567,1.329,5.428,1.751c0.733,0.165,0.733,0.165,4.632,0.533c-6.367-3.166-7.39-3.938-7.61-4.188
		c-0.029-0.037-0.047-0.062-0.059-0.082c0.443-0.077,1.953,0.358,5.196,1.504c-0.436-0.503,0.891-0.333,1.229-0.705
		c0.001-0.001,0.006-0.002,0.006-0.003c-0.096-0.125-1.229-0.987-2.359-1.225c-0.188-0.039-0.377-0.066-0.56-0.064
		c-2.415,0.031-5.221-0.688-7.688-1.319c0.765-0.135,2.195-0.382,1.105-1.214c-0.197-0.15-0.812-0.52-1.872-0.945
		c-1.522-0.62-2.736-0.386-3.492-0.087c-0.528,0.208-0.839,0.447-0.842,0.453c-0.074,0.197-0.098,0.404-0.113,0.611
		c-0.18,0.181-0.325,0.407-0.544,0.541h-0.002c0.155,0.062,0.321,0.126,0.491,0.192c-0.025,0.211-0.068,0.422-0.174,0.619
		c0.685,0.493,1.529,0.59,2.271,0.933c-2.619-0.282-2.619-0.282-2.727-0.268c-0.487,0.069-0.632,0.574-0.996,0.797l-0.005,0.001
		h-0.002c2.138,0.833,5.803,2.256,5.803,2.256C694.536,52.484,694.829,52.546,695.048,52.583z"/>
	<path fill="#542954" d="M581.824,55.446c-1.136,0.393-2.192,0.956-3.271,1.476c-0.223,0.107-0.44,0.214-0.665,0.314
		c0.042,0.127,0.102,0.296,0.145,0.419c-0.219,0.409-0.51,0.774-0.732,1.184c0.034,0.115,0.08,0.273,0.123,0.387
		c0.369,0.065,0.551,0.09,1.334-0.047c0.036,0.01,0.069,0.021,0.108,0.028c-1.974,1.239-1.853,1.592-1.647,2.113
		c0.482,0.187,1.252,0.488,3.091-0.29c0.251-0.106,0.521-0.23,0.813-0.38c-0.132,0.116-0.28,0.294-0.373,0.446
		c0.356,0.192,0.356,0.192,1.077-0.041c-0.195,0.103-0.451,0.233-0.654,0.333c-0.008,0.005-0.02,0.01-0.026,0.015
		c-0.729,0.438-0.971,0.592-1.425,1.165c-0.225,0.28-0.49,0.652-0.897,1.222c0.969-0.538,1.936,0.329,2.903,0
		c1.067-0.357,1.892-1.019,2.656-1.757c0.697-0.675,1.347-1.41,2.069-2.051c0.242-0.112,0.486-0.219,0.732-0.33
		c0.117,0.135,0.254,0.222,0.804,0.563c-0.549,1.399-2.116,1.687-3.325,2.369c-0.739,0.418-1.346,0.986-1.49,2.05
		c0.092,0.066,0.201,0.187,0.313,0.214c1.141,0.313,2.293-0.197,3.434,0.075c2.104,0.5,3.871,1.863,5.97,2.377
		c0.333,0.081,1.292,0.226,2.088,0.212c4.511-0.081,4.366-3.138,4.357-3.171c-0.002-0.007-0.01-0.011-0.011-0.019
		c-0.338-1.203-3.236-1.137-4.979-1.097c-3.549,0.084-4.902-0.187-3.526-2.021c3.259,0.023,6.372,1.252,9.64,1.17
		c-0.009,0.077-0.025,0.168-0.047,0.267c-0.044,0.203-0.119,0.441-0.247,0.694c0.022,0.034,0.042,0.069,0.063,0.098
		c1.223,0.022,4.204-0.122,5.453-1.913c-0.229-0.138-0.229-0.138-0.804-0.058c-0.016-0.097-0.027-0.224-0.046-0.321
		c1.552-0.666,1.792-0.768,4.396-1.427c0.657-0.166,2.194-0.553,3.018-0.877c0.323-0.128,0.748-0.305,1.07-0.433
		c0.055-0.023,0.101-0.059,0.15-0.088c0.311-0.178,0.533-0.443,0.727-0.735c0.01-0.016,0.021-0.031,0.028-0.048
		c0.313-0.477,0.585-0.994,1.146-1.229c2.853-1.181,5.886-1.808,8.848-2.65c1.84-0.522,3.648-1.126,5.375-1.998
		c0.534-0.269,1.233-0.649,1.758-0.933c-0.443-0.246-0.859-0.46-1.265-0.66c-0.139-0.069-0.278-0.138-0.412-0.201
		c-1.788-0.842-3.327-1.274-5.397-1.556c-3.21-0.33-3.21-0.33-7.192,0.847c-0.844-0.641-2.421-1.041-8.235,0.366
		c0.047,0.107,0.104,0.26,0.148,0.373c-0.48,0.637-1.188,1.097-1.485,1.886c-0.325-0.083-0.325-0.083-0.096-2.09
		c-0.971-1.085-7.415,0.991-8.87,3.279c0.025,0.095,0.06,0.22,0.084,0.311c0.204,0.003,0.479-0.016,0.681-0.054
		c-0.111,0.051-0.253,0.115-0.36,0.166c-0.438,0.197-0.791,0.385-1.097,0.568c-2.753,1.648-0.594,2.709-0.563,2.718
		c0.123,0.037,0.258,0.055,0.393,0.072c0.008,0.001,0.018,0.003,0.025,0.005c0.541,0.064,1.173-0.005,1.781-0.129
		c0.4-0.019,0.803-0.023,1.205-0.029c-0.087,0.06-0.183,0.125-0.263,0.178c-0.108,0.132-0.248,0.305-0.356,0.436
		c0.213,0.18,0.522,0.401,0.787,0.493c-0.185,0.477-0.79,0.916-1.225,1.182c1.068-1.135-0.027-1.288-0.158-1.299
		c-0.789-0.084-1.912,0.476-2.331,0.688c0.078,0.039,0.182,0.086,0.26,0.127c-0.227,0.517-1.069,0.785-2.103,0.889
		c-1.111,0.112-2.442,0.032-3.478-0.146c-0.93-0.16-1.616-0.398-1.676-0.643c-0.022-0.098-0.006-0.243,0.034-0.4
		c-0.461,0.127-0.922,0.254-1.377,0.396c0.127-0.166,0.237-0.344,0.323-0.557c-0.737-0.458-0.737-0.458-0.93-0.732
		c-0.385,0.285-0.739,0.609-1.083,0.945c-0.235,0.381-0.45,0.79-0.685,1.169c-0.48,0.779-1.045,1.425-2.063,1.411
		c-0.159-0.002-0.326-0.017-0.509-0.053c-0.033-0.071-0.064-0.159-0.088-0.247c-0.033-0.112-0.058-0.228-0.063-0.324
		c-0.406-0.12-0.502-0.149-2.283,0.649c1.162-0.909,2.483-1.561,3.729-2.334c0.291-0.182,0.585-0.362,0.864-0.563
		c-0.284-0.413-0.568-0.755-0.96-0.974c-0.794-0.442-2.051-0.37-4.752,0.726c0.942-0.714,1.063-0.806,1.242-1.221
		C581.281,55.855,581.353,55.799,581.824,55.446z M607.443,55.498c0.455-0.18,0.523-0.033,0.552,0.024
		c-0.039,0.023-0.093,0.06-0.127,0.089c-0.755,0.518-1.083,0.679-1.047,0.51c0.013-0.075,0.114-0.212,0.168-0.284
		c-0.467,0.335-0.954,0.705-1.208,0.965c-0.084-0.008-0.169-0.016-0.252-0.024C606.051,56.311,606.91,55.707,607.443,55.498z"/>
	<path fill="#542954" d="M592.565,54.674c-0.739-0.298-1.395,1.097-1.281,1.556c0.07,0.284,0.986,0.559,2.146,0.713
		c0.285-0.132,0.638-0.308,1.103-0.545c-0.356-0.192-0.786-0.149-1.143-0.341c0.248-0.331,0.373-0.417,1.125-0.759
		c-0.025,0.078-0.061,0.185-0.083,0.259c0.435-0.123,0.435-0.123,1.243-0.565c-0.092-0.025-0.208-0.055-0.3-0.078
		c-0.068-0.241-0.011-0.458,0.066-0.674C593.707,55.115,593.64,55.106,592.565,54.674z"/>
	<path fill="#542954" d="M587.009,54.277c0.28-0.021,0.336,0.054,0.419,0.191c0.149,0.263,0.383,0.283,1.388-0.101
		c-0.037-0.044-0.037-0.044-0.143-0.077c-0.019-0.006-0.02-0.008-0.02-0.012h-0.006h-0.007c-0.025-0.011-0.051-0.03-0.073-0.05
		c0.05-0.271,0.643-0.445,0.741-0.328c0.104,0.117-0.067,0.348-0.267,0.614c-0.181,0.243-0.363,0.498-0.235,0.611
		c0.103,0.094,0.415,0.093,1.147-0.108c0.051-0.014,0.12-0.04,0.2-0.075c0.319-0.139,0.852-0.432,1.434-0.804
		c1.166-0.749,2.508-1.817,2.68-2.607c0.059-0.266-0.006-0.501-0.266-0.68c-0.089-0.06-0.225-0.117-0.323-0.158
		c-0.666-0.22-1.34-0.224-1.34-0.224c-0.016,0.003-1.114,0.394-2.07,1.079c-0.497,0.354-0.952,0.532-2.303,1.066
		c0.23,0.491,1.409,0.53,1.044,1.165C588.919,53.541,588.145,53.804,587.009,54.277z"/>
	<path fill="#542954" d="M624.833,54.447c-0.266,0.129-0.528,0.268-0.799,0.375c-0.025-0.08-0.048-0.161-0.069-0.23
		c-0.284,0.043-0.7,0.107-1.361,0.705c-0.079,0.072-0.162,0.146-0.249,0.235c0.049,0.106,0.113,0.254,0.165,0.363
		c0.542,0.076,1.105-0.012,1.639,0.178c0.012,0.127,0.022,0.296,0.026,0.418c-2.683,1.511-5.805,1.561-8.696,2.38
		c-0.051,0.015-0.103,0.034-0.155,0.05c-0.789,0.232-1.566,0.513-2.308,0.916c0.299,0.211,0.518,0.375,0.69,0.515
		c0.459,0.376,0.57,0.601,0.791,1.167c-0.063-0.011-0.102-0.007-0.502,0.231c-0.289,0.173-0.767,0.467-1.606,0.988
		c1.647,7.311,14.769,1.98,13.662,9.841c-0.242,1.705,0.015,3.406-0.006,5.112c-0.013,1.573-0.073,1.892-0.293,3.083
		c1.018-0.076,1.809-0.095,2.446-0.036c1.574,0.143,2.217,0.755,2.945,2.09c-0.078,0.048-0.161,0.096-0.229,0.139
		c0.014,0.071,0.028,0.128,0.046,0.185c-2.981-0.699-3.022-0.699-3.812-0.629c-0.145,0.564-0.145,0.564,0.236,1.718
		c-0.184,0.075-0.268,0.103-0.505-0.004c-0.176-0.075-0.428-0.216-0.87-0.467c-1.455,3.005,0.749,4.715,3.453,3.8
		c1.035-0.344,1.469-1.027,1.76-1.472c-0.85,0.039-1.201-0.002-1.385-0.615c0.249-0.041,0.503-0.097,0.764-0.185
		c0.064-0.024,0.104-0.053,0.166-0.077c0.638,0.188,0.748,0.263,1.233,0.604c0,0.014-0.009,0.601-0.033,1.31
		c-0.038,1.02-0.113,2.291-0.257,2.48c-1.826-0.641-3.236,0.114-4.247,1.499c-1.742,2.399-2.265,6.696-1.554,8.992
		c0.34,1.101,1.528,2.274,2.47,2.94c0.791,6.394,2.78,11.313,8.904,15.032c2.895,1.758,6.704,3.249,11.755,4.503
		c0.207-0.713,0.453-1.629,0.688-2.391c0.033-0.109,0.067-0.224,0.099-0.324c1.318-4.132,3.402-7.975,4.742-12.104
		c0.434-1.345,0.032-3.396,0.689-4.653c0.192-0.373,0.473-0.671,0.781-0.937c1.296-1.108,3.372-1.393,4.488-1.536
		c1.345-0.175,2.318-0.296,3.272-0.984c0.394-0.287,0.842-0.766,1.205-1.089c2.13-1.93,2.965-4.832,5.094-6.757
		c0.935-0.846,2.74-1.065,3.948-1.421c8.161-2.412,9.806-3.838,11.581-7.854c-0.026,0.001-0.045,0.002-0.072,0.002
		c0.142-0.215,0.279-0.438,0.409-0.671c0.038-0.067,0.077-0.129,0.114-0.198c-0.247-0.497-0.538-0.951-0.854-1.376
		c-0.167-0.225-0.332-0.442-0.507-0.645c-1.479-1.703-3.236-2.708-3.68-2.946c0.71-1.559-0.753-2.686-0.811-4.098
		c0.227-0.113,0.594-0.12,0.834-0.044c-0.64-2.703-0.65-2.832,0.726-4.667c0.059-0.078,0.104-0.14,0.169-0.225
		c-0.053-0.047-0.091-0.077-0.142-0.12c-1.752-1.508-1.912-1.46-2.891-1.072c0.057,0.581,0.057,0.581,1.86,1.913
		c-1.764,0.009-1.764,0.009-2.063-0.239c-0.02-0.378-0.02-0.378-4.155-4.668c0.065-0.098,0.149-0.23,0.216-0.331
		c1.091,0.596,1.924,1.606,3.186,1.912c-1.402-1.115-1.673-4.192-4.108-3.477c-1.93-1.108-2.262-3.344-3.495-4.938
		c-0.226,0.84,0.555,1.536,0.346,2.374c-0.596-1.059-1.859-1.565-2.305-2.751c-0.597-1.593-0.251-3.297-0.58-4.922
		c-0.024-0.113-0.05-0.268-0.072-0.383c-5.183-1.113-4.516,0.361-4.157,1.151c-0.64-0.572-0.64-0.572-1.065-0.754
		c-0.07,0.232-0.155,0.541-0.218,0.777c-0.307-0.044-0.702-0.22-0.957-0.396c0.099-0.054,0.231-0.127,0.33-0.179
		c-0.159-0.31-0.36-0.694-1.518-0.721c0.2,0.276,0.564,0.572,0.855,0.75c-0.345,0.134-0.345,0.134-2.637-0.811
		c0.115-0.072,0.268-0.167,0.384-0.242c-0.057-0.149-0.129-0.356-0.185-0.509c-4.805-1.703-8.374-1.689-10.953-1.487
		c-4.127,0.506-7.855,2.849-12.135,2.694h-0.029c-0.124-0.009-0.283-0.016-0.402-0.025c-0.048,0-0.06-0.002-0.072-0.002
		c-3.969-0.183-7.766,1.753-9.681,2.927C625.143,54.25,624.977,54.353,624.833,54.447z"/>
	<path fill="#542954" d="M751.902,107.419c-0.038-0.048-0.09-0.105-0.127-0.153c-0.604-0.698-1.78-1.725-2.365-1.534
		c-0.071,0.029-0.106,0.058-0.154,0.12c0.943,1.027,1.885,2.063,2.819,3.105C753.02,109.06,752.409,108.042,751.902,107.419z"/>
	<path fill="#542954" d="M785.526,140.561c-0.139-0.138-0.254-0.253-0.365-0.368c-0.526-0.554-0.92-1.132-3.216-4.486
		c-1.842-2.699-2.032-2.982-4.713-2.085c-3.237-3.031-3.237-3.031-12.077-7.827c-2.908-1.584-4.131-2.487-4.135-2.494
		c-0.259-0.325-0.291-0.934-0.389-1.342c-0.536-2.152-0.893-2.807-2.065-4.474c-1.619,0.074-3.074,1.596-4.816,0.535
		c-0.069-2.596-0.107-3.342-1.891-5.1c-0.186-0.182-0.372-0.365-0.596-0.573c0.084,0.184,0.2,0.428,0.285,0.608
		c0.018,0.083,0.028,0.156,0.042,0.23c0.129,0.771,0.006,1.192-1.065,2.2c-0.025,0.024-0.044,0.045-0.07,0.069
		c-1.525,1.459-1.669,2.319,0.217,4.946c-0.942-0.484-1.659-0.586-2.144-0.305c-0.112,0.676,0.518,1.273,0.713,1.443
		c0.201,0.172,0.621,0.12,0.834,0.272c1.71,1.227,2.499,3.628,4.963,3.886c-1.207,0.423-1.535,0.763-0.919,1.911
		c0.102,0.188,0.225,0.395,0.38,0.637c0.664-0.068,0.908-0.739,1.446-0.99c0.305,0.306,0.33,0.33,0.655,1.281
		c0.728,0.098,0.584-0.767,0.728-1.351c0.38,0.075,0.737,0.192,1.079,0.333c0.901,0.944,1.07,2.473,2.154,3.282
		c0.25-0.064,0.493-0.131,0.742-0.197c0.685-0.178,1.365-0.355,2.036-0.536c0.996,1.079,2.194,1.953,3.26,2.963
		c0.515,0.486,1.006,0.997,1.414,1.595c-0.369,0.102-0.751,0.199-1.125,0.299c-0.84,0.226-1.675,0.449-2.529,0.669
		c0.933,1.628,2.686,2.441,3.916,3.771c0.252,0.276,0.49,0.563,0.688,0.892c-0.184,0.109-0.344,0.203-0.495,0.294
		c-1.23,0.739-1.453,0.97-1.546,1.912c0.353,0.333,0.836,0.787,1.37,0.874c0.835,0.128,1.595-0.376,2.42-0.28
		c1.221,2.229,0.017,4.569,0.328,6.846C775.635,146.425,782.171,145.964,785.526,140.561z"/>
	<path fill="#542954" d="M747.906,119.666c0.046-0.602,0.098-1.226-0.379-2.174c-0.213-0.418-0.559-0.729-0.733-0.649
		c-0.259,0.248-0.187,0.681-0.495,0.896c-0.262,0.18-0.614,0.053-0.782-0.012c1.073,1.316,2.553,3.115,1.094,2.981
		c-0.1-0.012-0.21-0.029-0.285-0.045c1.145,1.457,1.903,2.162,2.723,2.501C747.89,121.519,747.812,120.802,747.906,119.666z"/>
	<path fill="#542954" d="M713.26,95.847c-1.592-2.49-7.266-2.759-7.828-2.707c-2.217,0.2-2.217,0.2-8.688,4.222
		c-1.651-2.319-2.312-2.372-5.088-2.592c0.003,0.189,0.003,0.442,0.003,0.631c-0.109,0.226-0.266,0.408-0.435,0.583
		c-0.418,0.425-0.937,0.766-1.179,1.34c-0.173,0.42,0.078,1.054,0.197,1.488c1.143,0.142,2.179-0.559,3.315-0.434
		c0.077,0.178,0.17,0.358,0.247,0.498c0.299-0.042,0.563-0.076,0.823-0.112c0.289,0.241,0.331,0.538,0.01,0.774
		c-0.683,0.502-1.563-0.186-2.237,0.364c-0.287,0.24,0.06,0.872,0.268,1.248c2.854-0.405,3.745-0.442,5.339,1.347
		c-0.94,0.187-1.224,0.244-0.522,1.405c9.301,1.659,13.496-1.188,16.93-5.974c-0.116-0.145-0.213-0.298-0.304-0.456
		C713.799,96.942,713.59,96.364,713.26,95.847z"/>
	<path fill="#542954" d="M763.567,139.952c0.082-0.602,0.157-1.12-0.758-2.305c-0.943-1.228-2.314-2.052-3.197-3.338
		c0.153-0.651,0.757-1.186,0.506-1.942c-0.469-1.439-3.259-3.661-6.222-2.837c-0.396,0.134-0.788,0.294-1.176,0.449
		c-0.61,0.246-1.219,0.495-1.837,0.711c0.356,0.763,0.659,1.413,0.853,1.959c0.392,1.1,0.337,1.782-0.604,2.132
		c-0.434,0.162-1.052,0.254-1.911,0.283c0.578,0.917,0.582,2.081,1.283,2.948c0.07,0.076,0.441,0.511,1.485,1.07
		c1.4,0.738,1.631,0.942,2.485,2.15c-0.687,1.235-1.454,2.637,0.21,4.871c0.01,0.012,1.9,0.833,3.593,0.231
		c2.354-0.836,3.313-3.738,6.013-4.064c-0.475-0.739-0.689-1.098-0.752-1.506C763.505,140.535,763.518,140.292,763.567,139.952z"/>
	<path fill="#542954" d="M524.803,301.402c-0.116-1.316,0.997-2.161,1.287-3.317c0.192-0.771-0.271-1.104-0.716-1.359
		c-0.007,0.036-0.015,0.084-0.021,0.114c-0.15,0.411-0.493,0.356-1.506-0.024c-1.963-0.744-2.835-0.752-3.167,1.157
		c0.578,0.322,0.804,0.557,1.312,1.601C522.528,300.677,522.991,301.63,524.803,301.402z"/>
	<path fill="#542954" d="M567.598,331.177c-0.387,0.229-0.844,0.435-1.736,0.32c-0.034,0.637-0.069,1.266-0.094,1.9
		c0.038,0,0.079,0,0.12,0.007h0.022c0.637,0.075,1.008,0.178,1.555,0.6c0.177,0.133,0.314,0.24,0.487,0.256
		c0.332,0.027,0.735-0.31,1.093-0.604c0.027-0.632,0.059-1.262,0.094-1.9c-0.511-0.532-0.776-0.758-1.113-0.754
		C567.875,331.029,567.833,331.043,567.598,331.177z"/>
	<path fill="#542954" d="M632.743,423.219c-3.453-9.28-13.626-14.283-15.603-24.498c-19.435-11.979-19.435-11.979-26.56-9.424
		c-9.054-6.527-15.213-15.958-23.396-23.363c0.491-0.85,1.147-1.987,1.639-2.837c-0.787-0.382-1.835-0.884-2.615-1.262
		c-0.276,0.958-0.64,2.238-0.916,3.196c-2.922-3.576-7.972-3.71-11.133-6.896c-0.286,1.778-1.616,3.984-2.876,5.275
		c-1.131-0.417-2.114-0.774-2.987-1.09c-0.289-0.104-0.556-0.198-0.821-0.294c-5.179-1.837-6.183-1.869-11.96-2.031
		c-0.957-4.963-5.899-6.772-8.353-10.56c-0.517,1.76-1.559,4.048-2.702,5.479c-0.687-1.827-1.333-4.364-1.671-6.284
		c-0.19,0.012-19.458,2.651-20.674,12.487c-1.604,0.948-3.539,2.578-4.759,3.987c-0.676-0.249-1.311-0.485-1.929-0.71
		c-0.479-0.177-0.94-0.346-1.386-0.509c-12.109-4.44-12.272-4.39-14.215-3.697c-9.979-5.295-12.109-21.021-4.307-31.741
		c0.083-0.942,0.173-1.888,0.263-2.831c-2.557-3.097-2.588-3.127-21.529-9.803v-0.968c4.706-8.332,6.344-17.954,10.94-26.327
		c-2.555-1.401-7.085-3.378-10.94-2.373c-0.7,0.181-1.374,0.469-2.013,0.869c-2.101,1.312-3.791,3.908-4.502,8.554
		c-0.481,0.171-0.836,0.296-1.282,0.422c-1.213,0.338-3.117,0.687-10.22,1.977c-0.528-0.591-1.007-1.232-1.461-1.895
		c-8.108-11.799-5.02-34.054,3.293-46.268c1.708-2.515,3.642-4.581,5.738-6.065c0.857-0.605,1.739-1.119,2.65-1.514
		c1.997-0.859,4.11-1.191,6.305-0.841c0.501,0.08,0.997,0.196,1.493,0.332c3.848,1.04,7.429,3.538,10.118,5.426
		c7.222-3.941,14.373,0.873,21.565,0.166c2.05,24.998,2.05,24.998,2.091,25.142c-1.502,1.093-3.46,2.604-4.905,3.771
		c14.979,3.525,12.543-15.006,11.745-21.094c-0.97-7.375-0.97-7.375,14.759-23.676c0.626,0.11,1.252,0.223,1.881,0.332
		c-0.235-0.094-0.476-0.191-0.723-0.276c-0.66-0.224-0.378-1.284,0.292-1.052c0.787,0.268,1.533,0.582,2.261,0.941
		c18.044-21.409,18.104-21.511,23.097-30.752c1.71-0.044,3.988-0.123,5.693-0.191c0.44-0.687,1.024-1.602,1.463-2.287
		c1.617-0.045,3.81,0.275,5.345,0.794c0.768-0.443,1.795-1.045,2.565-1.492c-0.587-0.659-1.371-1.531-1.962-2.188
		c2.181-4.651,4.652-9.919,21.805-11.671l-0.895,0.426c-1.193,1.468-2.28,3.859-2.664,5.715c2.02-0.029,4.749-0.688,6.549-1.61
		c23.671,13.135,22.726-8.146,21.873-14.982c7.136,0.574,7.136,0.574,9.84,1.111c0.214,0.791,0.493,1.834,0.706,2.621
		c-0.104,0.967-0.099,0.967-0.095,0.967c1.751-0.54,3.975-1.698,5.408-2.842c0.22,0.938,0.516,2.19,0.739,3.131
		c0.809,0.287,1.882,0.676,2.688,0.964c1.421-1.36,2.788-3.744,3.388-5.618c-0.73-0.394-1.705-0.914-2.433-1.303
		c1.535-4.266,1.535-4.266-9.259-9.208c0.653-1.612,1.861-3.64,2.961-4.984c-1.231,0.025-2.875,0.053-4.104,0.078
		c-4.073,4.521-6.604,10.295-11.492,14.162c-4.924-9.836-13.966-2.993-18.811,5.007c0.182-1.985,0.86-4.598,1.634-6.43
		c-0.819-0.048-1.91-0.115-2.731-0.16c1.76-0.79,3.925-2.281,5.339-3.593c-0.513-0.721-1.193-1.682-1.702-2.4
		c-4.827-0.817-6.454-1.092-14.047,2.26c1.088-1.502,3.349-3.031,5.171-3.395c1.163,0.071,1.163,0.071,1.163,0.071h0.004h0.005
		l0.006,0.004h0.005h0.007c0.611-0.775,1.426-1.802,2.043-2.576c31.792-3.08,31.792-3.08,37.968-6.89
		c0.315-2.05,0.635-4.083,0.959-6.097c-5.922-3.726-8.717-5.484-10.874-9.86c-1.924-3.908-3.341-9.903-6.021-21.253
		c-6.513,6.685-7.942,6.859-11.772,7.327c-2.224-2.446-3.054-3.359-0.485-8.339c-5.199-8.095-5.199-8.095-15.188-9.639
		c-1.853,2.711-3.261,4.771-4.381,6.393c-3.72,5.376-4.119,5.678-5.787,6.882c4.507,12.868-11.523,15.721-11.693,15.734
		c-2.582,8.773-2.582,8.773-7.835,13.063c-0.552-0.814-1.276-1.905-1.829-2.719c1.328-1.098,2.544-3.268,2.893-4.957
		c-0.635-0.725-1.474-1.684-2.105-2.407c0.961-1.618,2.304-3.738,3.388-5.274c-5.991-3.607-8.393-10.809-14.395-14.413
		c-0.561-3.321,0.587-6.538,0.578-9.829c1.959-1.952,2.013-1.995,34.136-16.793c-0.033,0.24-0.067,0.481-0.094,0.725
		c-3.975,3.38-4.095,3.461-7.107,5.495c0.385,0.782,0.898,1.83,1.282,2.614c1.64-0.182,3.798-0.791,5.289-1.501
		c0.096,0.058,0.203,0.114,0.304,0.171c1.518,0.843,3.623,1.613,5.274,1.872c0.311-3.639-1.322-7.198-0.454-10.859
		c0,0.809,0,1.896,0,2.704c2.849-2.93,7.574-3.028,9.979-6.624c0.755,0.326,1.762,0.756,2.515,1.081
		c-0.014,0.074-1.791,7.507-5.139,10.741c10.186,5.426,10.186,5.426,11.039,9.639c3.02,0.719,5.632,2.41,8.467,3.56
		c0.25-0.852,0.586-1.996,0.84-2.847c-0.415-0.744-0.973-1.728-1.392-2.471c1.586,0.691,3.563,1.982,4.809,3.185
		c1.323-1.061,3.072-2.489,4.373-3.576c-3.257-8.869-3.257-8.869-3.248-10.092c1.569,1.052,3.349,3.01,4.205,4.7
		c3.041-0.091,3.041-0.091,8.216-4.125c-1.911-3.682-5.654-5.845-7.743-9.377c0.54-0.636,1.27-1.493,1.809-2.129
		c-0.479-1.968-0.479-1.968-7.485-11.028c0.266-0.916,0.621-2.132,0.884-3.048c-0.205-0.092-20.596-8.723-24.452,6.063
		c0.625,0.567,1.452,1.331,2.076,1.901c-1.28,1.631-3.304,3.563-4.968,4.804c-0.798-0.22-1.859-0.509-2.658-0.729
		c0.443-0.724,1.031-1.686,1.479-2.408c-2.622-6.691-1.715-7.073,13.337-13.487c-1.79-1.517-2.607-2.205-5.166-2.169
		c-2.135,0.029-5.48,0.563-11.63,1.544c-0.434,0.757-1.014,1.762-1.453,2.52c0.664,0.501,1.544,1.173,2.204,1.68
		c-3.508,3.457-3.508,3.457-10.243,4.689c3.82-9.664,3.82-9.664,11.015-12.107c-0.684-0.536-1.591-1.255-2.269-1.792
		c-1.953,0.96-4.5,2.362-6.356,3.488c0.926-0.634,2.16-1.479,3.087-2.114c-0.438-0.728-1.026-1.695-1.46-2.421
		c0.885-1.706,2.196-3.927,3.355-5.465c-0.128-0.272-0.307-0.632-0.436-0.904c-2.083-0.684-4.675-1.535-15.161,3.588
		c0.803,0.599,1.871,1.397,2.675,1.989c1.211-0.261,2.828-0.649,4.06-0.8c-4.906,1.579-4.906,1.579-7.868,3.49
		c0.078,0.824,0.183,1.924,0.263,2.75c-5.71-0.438-6.17,0.653-7.875,4.712c-0.308-1.631-0.252-3.928,0.176-5.531
		c-0.664-0.487-1.549-1.135-2.21-1.622c0.746-0.33,1.746-0.774,2.488-1.105l1.713-0.848c-0.002,0-0.002-0.005-0.002-0.005v-0.001
		h-0.003v-0.006c-0.837,0.202-1.943,0.469-2.78,0.671c0.618-0.626,1.445-1.462,2.063-2.09c-1.384-1.392-3.687-2.808-5.512-3.532
		c5.319-4.533,11.435-7.966,16.904-12.292c-3.383-0.646-3.383-0.646-17.592,4.916c0.665-0.34,1.351-0.677,2.054-1.012
		c0.763-0.294,1.784-0.688,2.549-0.983c-11.263,3.645-28.929,14.825-36.213,18.822l-1.621,1.285
		c-2.852,1.69-0.001,0.001-2.821,1.744c-0.218,0.035-0.436,0.071,0,0.001c-0.405,0.204-0.269,0.134-0.075,0.037
		c-0.275,0.142-0.117,0.061,0.068-0.033c-0.424,0.297-0.361,0.276-0.173,0.164c-7.593,7.005-14.797,14.436-22.644,21.167
		c1.714-1.216,3.991-2.858,5.68-4.113c-11.836,11.604-11.836,11.604-12.015,12.371c-1.679,1.295-3.341,2.61-4.985,3.947
		c-2.365,3.384-4.616,6.61-6.781,9.711c-4.044,3.739-7.362,8.408-9.63,13.793c-38.757,55.535-39.004,56.134-41.193,61.505
		c-4.726,11.576-0.899,24.351-5.056,36.003c-0.753,2.115-1.329,4.189-1.77,6.202c-0.202,0.923-0.371,1.827-0.517,2.724
		c-0.539,3.326-0.713,6.452-0.659,9.287c0.053,2.783,0.323,5.284,0.669,7.412c0.771,4.707,1.924,7.578,1.958,7.627
		c0.316-3.592,0.604-6.857,0.871-9.878c0.16-1.816,0.312-3.538,0.456-5.161c0.366-4.131,0.681-7.66,0.955-10.682
		c0.039-0.446,0.08-0.9,0.119-1.326c1.468-16.127,1.691-16.785,2.49-19.119c0.655,0.652,1.529,1.529,2.182,2.185
		c-1.284,5.997-2.251,11.63-2.956,16.935c-0.041,0.301-0.083,0.604-0.121,0.902c-0.497,3.879-0.85,7.58-1.072,11.105
		c-0.084,1.35-0.148,2.671-0.196,3.969c-1.155,31.47,8.373,48.333,16.514,57.49c0.038,0.043,0.076,0.082,0.115,0.125
		c3.184,3.56,6.147,5.943,8.162,7.565c0.872-0.337,2.039-0.788,2.912-1.119c0.957,0.708,2.041,1.646,3.21,2.745
		c1.858,1.75,3.94,3.924,6.109,6.324c9.937,10.994,21.66,26.623,21.779,26.803c-0.113,2.214-0.207,4.429-0.283,6.646
		c6.476,3.185,9.166,10.834,16.025,13.559c-0.076,0.806-0.185,1.889-0.269,2.701c1.61,0.575,3.672,1.611,5.089,2.57
		c0.521-0.679,1.218-1.586,1.742-2.267c-0.427-0.763-0.988-1.771-1.412-2.532c1.221-1.178,3.215-2.425,4.837-2.914
		c0.793,1.474,2.04,3.343,3.112,4.627c1.701,7.482,2.82,12.412,3.233,16.216v0.65h0.063c0.621,6.896-1.272,10.092-6.539,18.94
		c-0.825,0.165-1.922,0.383-2.75,0.546c-0.473,5.326-2.142,10.514-1.911,15.927h0.004c0,0,0.003,0,0.003,0.003c0,0,0,0,0,0.002
		h0.005h0.006c0,0,0.002,0,0.002,0.003h0.003c1.563,1.027,3.44,2.754,4.601,4.223c-0.913,0.466-2.13,1.09-3.043,1.556
		c-2.204,7.137,0.265,11.661,0.29,11.701c7.551,12.899,21.353,21.274,26.136,36.173c0.105,0.321,0.105,0.321,25.545,20.848
		c6.438,5.195,8.99,12.027,10.081,19.474v19.34h1.089c0.587,13.29,2.827,25.883,18.908,32.65c-0.548-0.66-1.28-1.546-1.829-2.205
		c1.503,0.869,3.296,2.458,4.288,3.898c0.565-0.127,10.364,0.103,4.576-0.107c6.567,0.238-1.038-0.046,0.853,0.568
		c0.559,0.853,6.558,1.183,2.556,3.129c9.781,5.888,15.368,8.885,26.999,9.664c-10.648-3.408-10.523-1.361-13.363-6.695
		c-0.794-0.181-1.852-0.429-2.645-0.611c0.753-1.569,1.243-3.927,1.216-5.663c0.823,0.167,1.921,0.391,2.743,0.556
		c-1.347-0.932-3.458-1.762-5.08-1.988c1.791-0.775,4.418-1.3,6.373-1.364c0.12-0.894,0.28-2.081,0.398-2.976
		c8.913-0.741,8.986-0.794,12.669-3.599c-0.322-1.096-0.745-2.562-1.069-3.659c15.787-6.925,15.787-6.925,26.855-20.308
		c-1.096-9.032-1.096-9.032,29.501-17.223c2.602-4.51,6.184-8.362,8.688-12.934c0.939-2.514,1.708-2.539,2.475-2.562
		c0.639-16.487,14.005-26.406,20.562-39.841c3.315-6.784,1.817-11.226-0.257-17.366
		C670.569,443.964,654.036,426.685,632.743,423.219z M498.221,159.424c6.351-3.182,9.486-4.068,15.42-2.951
		c-0.62,1.296-1.67,3.524,0.29,4.375c0.369,0.16,0.834,0.277,1.438,0.325c-0.707,1.307-0.852,1.578-1.022,3.423
		c-0.005,0.053-0.015,0.089-0.021,0.139c-0.092,0.853-0.309,1.378-0.826,1.973c-0.224,0.256-0.587,0.535-0.838,0.767
		c0.063-1.429-0.441-2.052-1.543-2.218c-1.127-0.168-2.884,0.15-5.313,0.593c0.041-1.071-0.862-1.916-0.726-3.01
		c0.105-0.869,0.167-0.981,1.131-1.877c0.074-0.069,0.139-0.126,0.225-0.208c-0.075,0.007-0.147,0.026-0.223,0.033
		c-2.729,0.358-5.281,1.804-8.145,1.388c-0.892-0.291-1.385-0.668-2.104-1.605C496.769,160.158,497.511,159.78,498.221,159.424z
		 M501.575,178.56c-0.751,1.288-1.403,2.761-1.984,4.536c-0.245,0.745-0.483,1.536-0.704,2.4c-1.923-0.896-2.208,2.535-4.164,1.718
		c-0.097-2.144,0.988-5.113,2.536-7.898c0.705-1.27,1.506-2.498,2.342-3.594c1.143-1.496,2.341-2.75,3.434-3.5
		c-0.204-0.368-0.204-0.368-0.438-0.6c0-0.029,0.003-0.043,0.392-0.695c0.182-0.308,0.469-0.788,0.867-1.452
		c0.101-0.169,0.19-0.322,0.309-0.516c0.302,0.208,0.509,0.3,0.876,0.396c0.862,0.165,1.422,0.112,2.793-0.16
		c0.038-0.01,0.071-0.015,0.112-0.023c0.693-0.137,1.221-0.218,1.623-0.188c0.443,0.035,0.738,0.206,0.923,0.602
		c-0.128,0.105-0.294,0.246-0.426,0.349C506.169,173.075,503.531,175.208,501.575,178.56z M521.293,187.927
		c-3.452,2.681-7.265,2.97-12.548,3.368c0.373-0.571,1.002-1.533,2.051-2.345c0.606-0.471,1.351-0.891,2.272-1.151
		c1.017-0.287,1.864-0.36,2.907-0.378c1.015-0.019,2.028,0.049,3.039,0.116c0.881,0.055,1.759,0.112,2.636,0.105
		C521.547,187.726,521.404,187.844,521.293,187.927z M533.781,184.204c-2.046,3.487-6.708,2.154-9.796,1.273
		c-1.546-0.442-2.379-0.667-3.045-0.6c1.045-0.892,2.171-1.502,3.414-1.887c2.377-0.736,5.24-0.552,8.993,0.523
		c0.233,0.068,0.449,0.116,0.69,0.188C533.963,183.851,533.865,184.055,533.781,184.204z"/>
	<path fill="#542954" d="M503.844,270.536c0.655,1.529,0.96,2.019,1.677,2.313c0.355-0.596,0.697-1.159,0.922-1.961
		c1.098-3.883-2.899-5.764-6.762-7.589c-0.051,0.172-0.124,0.4-0.177,0.573c-0.675,2.602-0.383,4.025,1.064,5.26
		C502.389,267.455,502.999,268.578,503.844,270.536z"/>
	<path fill="#542954" d="M541.031,317.672c-0.501,4.646,7.104,3.924,8.859,2.558c0.13-0.1,0.291-0.255,0.39-0.391
		c0.044-0.059,0.088-0.147,0.126-0.214c-1.499-1.244-2.416-1.789-4.204-1.948C544.485,317.576,542.756,317.736,541.031,317.672z"/>
	<path fill="#542954" d="M516.941,291.86c0.021-0.035,0.05-0.08,0.073-0.115c-0.771-0.401-1.258-1.239-2.199-1.368
		c-0.208-0.021-0.344-0.021-0.583,0c-0.178,1.243-0.356,2.481-0.531,3.719C515.264,294.466,515.858,293.539,516.941,291.86z"/>
	<path fill="#542954" d="M496.997,271.798c-1.937,6.191-1.341,10.744,0.301,14.061c1.351,2.731,3.414,4.626,5.356,5.903
		c2.546,1.677,4.885,2.296,5.135,2.36c0.79-0.896,0.998-1.135,0.464-2.028c-1.075-1.777-0.717-3.419,0.736-3.37
		c2.966,0.098,2.966,0.098,3.065-0.026c0.054-0.066,0.127-0.146,0.169-0.22c0.412-0.709-1.096-2.704-1.116-2.718
		c-0.488-0.361-1.328-0.282-2.767-0.115c-0.643-2.407-1.653-4.688-2.434-7.051c1.817,0.225,2.339,0.955,2.645,1.395
		c0.543-2.856,0.322-3.155-1.813-5.988c-1.18,2.635-2.228,3.091-3.119,1.359c-0.418,3.084-0.418,3.084,1.889,9.819
		c-0.756,1.108-1.485,1.431-3.118,1.376c0.361-2.517,0.378-3.605-0.189-7.044c-0.581-3.528-0.37-4.706,1.249-7.022
		c-2.246,0.08-3.937-1.469-5.966-2.015C497.336,270.866,497.142,271.396,496.997,271.798z"/>
	<path fill="#542954" d="M516.676,316.642c4.346,0.18,5.962,0.733,6.938,3.665c2.556-4.006,3.167-3.898,13.432-2.126
		c0.068-0.813,0.138-1.625,0.21-2.437c0.038-0.447,0.076-0.895,0.117-1.345c-6.941-4.042-11.525-6.708-16.786-7.31
		c-0.485-0.028-0.92-0.042-1.325-0.036c-1.275,0.017-2.245,0.22-3.541,0.693c1.291,0.466,1.961,0.94,2.276,1.373
		c-0.022,0.478-0.002,0.872,0.108,1.113c-0.163,0.285-0.435,0.48-0.585,0.521c-0.18,0.048-0.436,0.019-0.624,0.025
		c-0.024,0.348-0.04,0.677-0.04,0.974c0,0.395,0.035,0.724,0.172,0.886c0.678,0.81,1.767,0.842,2.582,1.389
		c-0.27,0.183-0.521,0.309-0.769,0.405c-0.332-0.022-0.659-0.043-1.033-0.06c-0.529-0.022-1.013-0.051-1.456-0.087
		c-0.403-0.152-0.845-0.348-1.352-0.587c-0.867-0.403-1.639-0.714-2.447-0.885c-0.593-0.126-1.205-0.186-1.91-0.104
		C510.943,315.878,512.413,316.468,516.676,316.642z"/>
	<path fill="#542954" d="M493.711,282.932c0.319-1.41-0.425-2.709-1.659-2.886c-1.209-0.06-1.513,1.094-1.614,1.467
		c0.784,1.088,1.75,1.557,3.237,1.571C493.686,283.036,493.698,282.979,493.711,282.932z"/>
	<path fill="#542954" d="M474.59,286.201c-0.451,0.659-0.881,1.409-1.322,2.267c1.98-0.064,3.279,0.769,5.231,2.126
		c3.391,2.367,5.379,3.129,8.948-0.099c5.071,4.184,7.584,7.563,10.779,14.45c1.798-0.457,3.107-0.437,6.652,0.126
		c0.031,0.008,0.061,0.014,0.093,0.017c2.8,0.464,5.221,0.865,7.207,0.519c0.245-0.04,0.564-0.128,0.806-0.184
		c-0.315-0.715-0.712-1.357-1.154-1.961c-3.598-4.916-10.829-6.708-12.156-13.561c-12.789-6.438-12.789-6.438-17.223-7.111
		C478.289,282.659,476.277,283.748,474.59,286.201z"/>
</g>
</svg>
