<?xml version="1.0" encoding="utf-8"?>
<!-- Generator: Adobe Illustrator 15.0.2, SVG Export Plug-In . SVG Version: 6.00 Build 0)  -->
<!DOCTYPE svg PUBLIC "-//W3C//DTD SVG 1.1//EN" "http://www.w3.org/Graphics/SVG/1.1/DTD/svg11.dtd">
<svg version="1.1" id="Calque_1" xmlns="http://www.w3.org/2000/svg" xmlns:xlink="http://www.w3.org/1999/xlink" x="0px" y="0px"
	 width="800px" height="205px" viewBox="0 0 800 205" enable-background="new 0 0 800 205" xml:space="preserve">
<g opacity="0.02">
	<circle fill="#9595A4" cx="561.089" cy="288.31" r="394.662"/>
</g>
<g>
	<path fill="#542954" d="M948.906,234.021c0.398,2.858,0.802,5.652,1.144,8.12C949.707,239.351,949.313,236.664,948.906,234.021z"/>
	<path fill="#542954" d="M630.767-77.647c0,0.005-0.009,0.017-0.016,0.021c-0.177,0.114-0.447-0.044-0.571,0.216
		c0.172,0.209,1.006,0.45,2.944,0.936c-1.217-0.4-1.545-0.537-1.593-0.686c0.119-0.15,0.364-0.083,0.474-0.26
		c-0.028-0.09-0.061-0.221-1.266-0.639c-0.169-0.063-0.394-0.137-0.57-0.196c0.237,0.099,0.24,0.11,0.256,0.154
		c-0.098,0.02-0.326-0.009-1.114-0.154c-0.715-0.137-0.726-0.132-0.756-0.108c0,0.003,0.865,0.324,1.544,0.478
		C630.713-77.741,630.742-77.672,630.767-77.647z"/>
	<path fill="#542954" d="M950.678,247.923l-0.108-0.985c-1.563-13.581-4.552-26.194-8.366-37.983
		c-1.481-7.004-2.64-12.334-3.67-16.766c-1.719-7.404-3.089-12.326-5.036-18.37v-8.083v-11.108h-3.965h-2.849
		c-3.633-9.392-7.771-20.078-11.488-28.367l-0.504-1.082c-3.216-6.856-7.891-15.8-11.331-22.545
		c-18.737-31.54-20.728-34.89-32.468-50.217c0.84,1.104,1.699,2.25,2.594,3.445l10.881,15.408c0.04,0.059,0.093,0.145,0.13,0.207
		c-4.874-6.118-8.894-12.874-13.926-18.877L852.4,33.156c-3.435-3.658-4.651-5.832-4.665-5.849c0.077-0.037,0.164-0.073,0.233-0.104
		c1.657,1.245,5.115,4.163,10.531,10.148c-15.716-18.64-19.094-22.075-34.485-36.511c-22.175-19.056-39.679-34.104-72.888-53.227
		c-15.469-8.785-31.788-16.188-48.821-22.094c-1.876-0.651-3.768-1.275-5.657-1.888c-0.411-0.133-0.817-0.278-1.227-0.408
		l0.018,0.054c0.308,0.69,0.676,1.521,1.027,2.314c0.198,0.451,0.396,0.893,0.569,1.283c1.232,0.133,1.232,0.133,23.41,14.949
		c-1.995-0.649-4.785-1.166-6.879-1.255c2.149,1.372,4.946,3.125,7.914,4.972c2.923,1.818,6.006,3.725,8.813,5.455
		c5.391,3.322,9.736,5.978,9.821,6.034c-0.138,0.048-0.296,0.103-0.446,0.157c-0.887,0.313-1.927,0.677-2.743,0.962
		c1.995,1.245,4.998,2.381,7.302,2.882c-3.492,0.677-3.492,0.677-18.083-5.623c1.236-0.402,2.836-1.217,3.838-2.245
		c0.247-0.254,0.469-0.516,0.624-0.794c-0.396-0.342-0.747-0.642-1.116-0.915c-2.625-1.941-6.225-2.418-35.126-6.051
		c-0.408-0.051-0.801-0.101-1.217-0.153c-0.572,1.845-0.531,4.619,0.198,6.474c-0.016,0.026-0.034,0.058-0.045,0.083
		c0.04,0.057,0.101,0.116,0.143,0.174c0,0,0,0,0,0.001c-0.525,0.91-1.225,2.121-1.754,3.033c1.377,1.874,3.681,4.012,5.521,5.422
		c-0.132,1.121-0.299,2.617-0.429,3.736c5.888,1.906,5.888,1.906,19.931,21.995c-4.411,15.447,17.866,29.567,25.989,29.842
		c0.15-1.001,0.228-2.188,0.238-3.371c0.012-1.286-0.059-2.58-0.223-3.671c0.295-0.01,0.47-0.014,1.821,0.583
		c1.259,0.56,3.557,1.65,7.938,3.762c1.762,0.844,3.857,1.86,6.362,3.064c0.988,0.887,1.816,1.618,2.503,2.233
		c0.688,2.099,1.521,4.516,2.199,6.424c-0.473-0.238-0.523-0.27-10.921-9.574c-0.468-0.415-0.92-0.826-1.428-1.274
		c-2.636,10.802,10.055,13.471,11.955,21.868c0.078,0.343,0.171,0.679,0.209,1.042c-0.765,0.861-1.627,1.913-2.455,2.977
		c-0.685,0.883-1.347,1.768-1.894,2.557c2.393,5.352,5.063,11.372,1.446,24.189c-0.301,1.072-0.63,2.176-1.026,3.346
		c-0.718-0.167-1.601-0.371-2.413-0.56c-0.348-0.08-0.683-0.157-0.987-0.226c-0.071,1.056-0.301,2.294-0.639,3.494
		c-0.322,1.146-0.742,2.26-1.23,3.145c-1.039,0.109-2.232,0.422-3.389,0.841c-1.133,0.411-2.227,0.93-3.092,1.478
		c7.735,10.427,26.78,10.14,28.066,26.63c0.063,0.809,0.099,1.645,0.072,2.54c-8.575,3.849-18.925,2.116-27.025,7.441
		c-0.881,0.576-1.741,1.208-2.56,1.972c10.134,11.836,9.015,29.376,20.517,40.524c21.482-3.147,5.291,29.463,7.759,45.364
		c-1.866,2.077-3.239,3.961-4.747,7.42c-1.405,2.411-2.731,5.669-4.515,11.27c-2.694,8.459-5.627,16.845-8.507,25.245
		c-2.625,7.657-5.207,15.327-7.514,23.088c-4.496,15.073,3.477,29.787,4.154,44.711c0.228,4.928-0.339,9.872-2.409,14.859
		l27.073,49.297c6.532,2.403,12.134,6.299,17.663,10.315c4.589,3.33,9.133,6.745,14.117,9.449
		c4.813-5.475,21.983-15.247,36.623-22.725c10.857-5.549,20.321-9.829,22.304-10.15c3.633,5.145,4.189,7.104,5.15,13.953
		c9.271-4.871,9.271-4.871,14.031-4.794c0.488,1.646,1.621,3.771,1.621,5.481l-1.571,68.22c-0.583,9.411-5.298,23.048-6.244,25.68
		c-0.496,1.396-6.266,17.374-16.67,38.379c-11.003,22.213-27.19,50.036-47.816,72.201c-2.142,2.302-4.332,4.548-6.568,6.715h0.007
		l0,0v-0.003h0.014v-0.007l0.001-0.008h0.004c14.086-8.805,40.514-37.431,53.94-54.011c22.88-30.901,24.254-32.749,36.067-53.48
		c5.468-10.684,9.345-18.26,12.325-24.251c8.229-16.365,10.131-21.248,16.153-37.65c12.262-38.601,12.74-40.11,17.017-63.024
		c5.69-40.213,6.15-43.497,6.438-70.625C952.178,276.224,951.757,260.017,950.678,247.923z M769.216,268.152
		c1.187-0.741,2.361-1.392,3.583-2.234C771.608,266.716,770.378,267.472,769.216,268.152z M844.818,48.538
		c0.183-0.209,0.283-0.57,0.274-1.156c1.468,1.949,1.886,2.873,1.88,4.116c3.136,1.365,3.471,1.51,6.021,4.063
		c-0.456-1.374-1.296-3.922-1.002-5.555c0.153-0.845,0.617-1.433,1.612-1.475c0.739-0.033,1.758,0.229,3.172,0.932
		c1.646,0.814,9.889,6.393,12.486,10.611c1.546,2.508,2.336,4.304,2.652,5.614c0.887,3.632-1.978,3.346-3.149,3.083
		c-0.905-0.201-1.881-0.639-2.656-1.032c-0.278-0.138-0.538-0.273-0.752-0.389c-1.177,1.145-0.969,3.334-0.501,7.101
		c0.192,1.567,0.275,2.66,0.266,3.502c-0.014,1.213-0.227,1.896-0.622,2.586c-6.006,6.469-23.281-33.141-23.438-33.569
		C842.791,48.19,844.24,49.198,844.818,48.538z M795.173,104.773c0.79-0.634,1.663-1.118,2.568-1.544
		c2.842-1.333,6.041-2.032,8.234-4.524c1.113-1.268,1.631-2.305,1.824-3.489c0.2-1.23,0.047-2.622-0.18-4.607
		c0.625-0.39,1.247-0.479,1.858-0.449c1.353,0.067,2.688,0.786,4.046,0.634c6.728,7.257,8.762,9.453,18.374,12.513
		c6.94,2.204,10.766,3.426,17.346,11.202c0.017,0.023,0.89,1.761,0.689,3.744c-0.073,0.726-0.279,1.476-0.733,2.193
		c-0.926,1.468-2.419,2.122-3.876,2.83c-1.013,0.488-2.006,1.001-2.779,1.834c2.854,4.207,7.996,3.752,11.897,5.846
		c0.107-1.677-0.525-3.046-1.302-4.353c-0.795-1.343-1.741-2.626-2.194-4.112c1.498-1.941,0.611-4.085,0.315-6.182
		c0.351-0.972,0.358-1.953,0.24-2.787c0.071-0.167,0.148-0.325,0.248-0.492c0.036-0.018,0.04-0.018,0.04-0.021
		c-0.167-0.325-0.386-0.63-0.624-0.92c-1.882-2.267-5.693-3.531-6.008-6.505c-0.066-0.611,0-1.291,0.283-2.07
		c0.676,0.023,1.112,0.042,1.805,0.335c0.722,0.304,1.722,0.903,3.564,2.127c-0.999-1.901-2.437-3.256-4.051-4.384
		c-3.292-2.307-7.329-3.677-9.973-6.792c-0.433,0.592-0.594,0.814-1.108,1.121c-7.785,1.046-9.677-8.785-16.733-9.091
		c-3.897-5.306-4.792-6.658-4.157-9.313c1.041,0.516,1.902,1.354,2.871,1.998c0.652,0.43,1.349,0.775,2.188,0.875
		c0.252-0.314,0.479-0.817,0.589-1.207c1.188,1.015,2.695,2.46,3.951,3.378c6.08,4.423,14.077,4.502,20.153,8.937
		c5.394,3.934,7.066,11.003,12.517,14.898c2.285,1.64,2.477,1.774,5.955,3.757c0.933,4.021,4.463,6.352,6.36,9.746
		c0.115-0.394,0.359-0.889,0.587-1.231c0.036,0,0.036,0,2.392,0.301c0.12-0.185,0.287-0.438,0.419-0.629
		c-0.47-0.744-1.043-1.407-1.62-2.073c-0.742-0.854-1.481-1.704-2.031-2.699c0.18,0.174,0.412,0.408,0.594,0.584
		c0.201-0.027,0.468-0.06,0.677-0.085c-0.325-2.069-0.908-2.484-1.975-3.242c0.089-0.177,0.193-0.403,0.276-0.58
		c2.318-0.544,2.027-1.762,1.728-2.336c-0.095-0.179-0.186-0.304-0.204-0.32c-0.036-0.045-0.082-0.09-0.118-0.135
		c-3.554-4.367-8.911-6.715-12.455-11.09c0.032-0.185,0.094-0.433,0.127-0.621c0.921-0.123,1.85,0.247,2.765-0.06
		c-0.048-2.063-2.076-2.792-2.92-4.333c0.222,0.019,0.506,0.067,0.723,0.061c1.203-0.037,1.343-1.262,1.896-2.034
		c0.235-0.329,0.539-0.582,1.048-0.608c1.125-0.053,1.645,1.023,2.291,2.386c0.037,0.067,4.44,7.637,4.741,7.836
		c0.169-0.18,0.383-0.418,0.542-0.605c-0.181-0.814-0.322-1.326-0.787-2.037c0.642,0.881,1.677,2.328,3.421,4.749
		c-0.42-0.045-0.991-0.067-1.414-0.013c-0.113,0.656-0.172,1.064,0.278,1.658c0.16,0.158,0.302,0.332,0.453,0.495
		c0.195,0.19,0.424,0.396,0.72,0.641c0.423-0.055,0.953-0.274,1.307-0.506c2.864,0.977,6.054,8.038,6.079,8.106
		c-0.292-2.815,3.977-0.496,5.89-1.147c0.15-0.886,0.214-1.375-0.476-3.191c0.777,0.113,1.527,0.176,2.071-0.019
		c0.032-0.177,0.056-0.336,0.076-0.496c0.693-0.133,1.042-1.033,1.307-3.194c1.036,0.071,1.414-1.032,1.736-4.44
		c0.468,0.824,0.943,1.654,1.343,2.367c9.911,17.651,13.023,25.775,15.194,31.953c0.178,0.501,0.348,0.994,0.515,1.475
		c-0.629,1.239-2.02,1.593-3.107,2.295c-0.539,0.348-1.006,0.771-1.262,1.443c-0.429,1.107-0.428,2.339-0.211,3.788
		c0.132,0.867,0.34,1.812,0.583,2.847c-4.542,0.997-9.274,0.414-13.775,1.708c-2.57-3.865-4.358-3.721-5.538-2.456
		c-1.346,1.452-1.896,4.372-1.906,4.43c-0.187,1.209-0.229,1.573,1.618,5.784c0.133,0.304,0.275,0.623,0.428,0.971
		c0.542,1.223,1.218,2.72,2.054,4.567c0.217,0.48,0.436,0.966,0.679,1.497c-2.737,2.595-8.033,5.48-14.656-1.263
		c-0.876-0.895-1.771-1.938-2.691-3.19c-3.488-0.253-6.653,2.022-10.192,1.335c-2.934-0.566-3.884-1.473-5.938-3.92
		c-0.18-0.21-0.346-0.406-0.539-0.645c-0.306,0.148-0.489,0.383-0.631,0.645h-1.32v1.482c-1.862-3.209-0.533-7.058-1.963-10.36
		c0.834,0.576,0.834,0.576,1.693,3.512c0.311-0.959,0.603-1.867-0.688-3.67c-1.479-2.049-3.991-2.927-5.506-4.931
		c-1.576-2.092-0.175-4.553-0.827-6.759c-5.546-1.005-5.546-1.005-6.068-1.514c-3.534,4.428-4.726,5.92-12.431,9.526
		c-12.638,5.926-16.558,8.67-19.661,14.205c-0.565,1.008-1.11,2.124-1.669,3.353c-0.449,0.989-0.908,2.048-1.409,3.221
		c-4.326-0.593-7.584,3.477-11.938,2.724c-2.976-0.515-4.346-2.861-6.087-5.831c0.723-0.573,1.557-1.217,2.41-1.864
		c1.193-0.907,2.429-1.821,3.487-2.565c5.45-3.867,8.156-7.274,9.175-10.46c1.342-4.19-0.222-7.998-2.331-11.957
		c-3.186-5.972-2.114-8.168,3.852-20.388C798.777,109.654,796.501,107.527,795.173,104.773z M738.492-13.597
		c-3.143-3.24-3.572-8.081-6.688-11.332c-2.409-2.523-6.867-2.714-7.818-6.884c-0.389-1.679,0.899-1.788,2.404-1.413l5.473,3.882
		c1.892,2.75,4.762,7.025,4.655,7.369c-0.2,0.087-0.485,0.162-0.698,0.186c0.656,0.468,1.243,0.879,1.845,1.311
		c14.82,10.527,14.899,10.592,15.81,11.399c-0.003,0.005-0.008,0.009-0.01,0.015c-0.332,0.61-1.037,0.566-1.534,0.876
		c-0.183,1.365,3.397,2.225,5.688,1.729c0.515-0.11,0.963-0.287,1.288-0.541c0.911-0.709,1.302-1.906,1.563-3.183
		c0.427-2.071,0.533-4.355,1.964-5.196c0.464-0.268,1.048-0.403,1.843-0.317c0.325,0.643,0.897,1.441,1.082,2.136
		c0.309,1.188,0.333,1.743-1.259,4.554c-1.418,2.515-0.352,4.549,0.221,5.642c1.692,3.251,4.127,4.591,4.572,3.534
		c0.325-0.777-0.571-1.578,0.058-2.342c0.133-0.155,0.541-0.255,1.741,0.173c0.53,0.415,1.047,0.843,1.575,1.259
		c1.5,1.188,2.999,2.378,4.482,3.59c0.103,0.223,0.195,0.538,0.248,0.779c-0.078,0.087-0.186,0.212-0.265,0.298
		c-0.635-0.073-1.216-0.342-1.786-0.647c-1.273-0.685-2.494-1.558-4.116-0.971c-0.205,0.081-0.341,0.485-0.248,0.679
		c0.421,0.831,1.25,1.789,1.851,2.508c2.878,3.482,7.097,5.538,9.834,9.177c0.665,0.88,1.04,1.861,1.327,2.876
		c0.429,1.503,0.654,3.077,1.291,4.508c-2.147-1.185-3.511-1.616-4.391-1.495c-1.403,0.189-1.567,1.793-1.648,4.069
		c-0.009,0.263-0.021,0.514-0.037,0.755c-0.229,3.415-1.317,4.392-5.797,1.609c-0.24-0.148-0.479-0.298-0.737-0.467
		c-0.246,0.314-0.375,0.664-0.464,1.028c-0.317,1.322,0.055,2.879-1.246,3.855c-1.928-3.251-3.081-6.956-5.539-9.906
		c-0.055-0.148-0.11-0.313-0.168-0.468c1.743,0.505,2.483,2.339,4.009,3.128c0.499-0.472,0.268-1.121,0.412-1.686
		c0.013-0.047,0.011-0.094,0.029-0.14c0.541-0.064,0.634-0.079,1.689,0.736c-0.41-2.022-2.249-3.017-3.282-4.588
		c-0.086-0.131-0.179-0.256-0.253-0.397c0.184-0.076,0.428-0.182,0.6-0.268c0.898-0.594,1.369-1.188,1.57-2.112
		c0.071-0.333,0.106-0.713,0.114-1.151c0.002-0.18,0.002-0.368-0.006-0.571c-4.215-2.947-7.602-6.833-11.479-10.164
		c0.284-7.083-4.46-9.469-8.496-10.234C745.201-7.27,744.496-7.405,738.492-13.597z"/>
	<path fill="#542954" d="M454.686-66.335c2.017,0.064,6.942-0.944,7.156-0.987c0.775-0.161,1.705-0.72,2.469-0.947
		c0.811-0.249,1.667-0.314,2.481-0.556c0.423-0.128,0.982-0.316,1.396-0.447c-0.08-0.383-0.207-0.463-0.561-0.711
		c-1.995-0.883-6.489-0.655-14.149,0.711c0.177,0.408,0.163,0.668-0.076,1.4C453.124-67.049,452.908-66.397,454.686-66.335z"/>
	<path fill="#542954" d="M451.705-59.428c2.732,1.209,4.889,2.159,11.365-0.141c0.646-0.231,1.491-0.575,2.135-0.824
		c-0.942-2.086-0.942-2.086,3.771-4.585c-4.563,0.69-4.563,0.69-6.085,1.044c-0.025,0.475-0.034,0.612-1.354,1.265
		c-1.534,0.758-1.613,0.878-2.001,1.458c-0.329-0.108-0.329-0.108-0.789-0.629c0.042-0.395,0.213-0.941,0.46-1.251
		c1.061-1.286,2.409-2.289,3.488-3.552c0.07,0,0.17,0.006,0.233,0.023c0.061,0.099,0.061,0.099,0.036,0.319
		c0.035,0.033,0.067,0.076,0.096,0.108c0.963,0.012,2.776-0.928,3.117-1.224c-0.013-0.031-0.019-0.076-0.032-0.107
		c-0.432-0.078-0.904,0.142-1.307-0.169c-1.3,0.267-2.462,0.981-3.79,1.15c-0.006-0.037-0.014-0.076-0.014-0.111
		c-1.647-0.626-9.25,1.617-10.11,1.873c-0.021,0.003-1.485,0.958-1.183,1.498c0.149,0.252,0.684,0.374,1.112,0.466
		c0.795,0.181,1.05,0.252,1.129,0.589c0.027,0.108-0.518,0.943-0.828,0.737c-0.158-0.11-0.069-0.311-0.153-0.445
		c-0.314-0.062-0.521-0.102-2.759,0.861c0.031,0.074,0.073,0.166,0.1,0.244c-0.253,0.247-0.253,0.247-0.904,0.546
		C449.066-60.28,449.861-60.244,451.705-59.428z"/>
	<path fill="#542954" d="M297.493,7.809c1.675-1.739,3.211-3.61,5.007-5.235c2.727-2.454,4.969-3.971,5.818-4.537
		c-0.482-0.415,0.01-0.9-0.063-1.345c-0.368-0.467-2.077,0.964-2.094,0.977c-5.716,5.707-8.677,9.038-8.815,9.911
		C297.336,7.644,297.321,7.782,297.493,7.809z"/>
	<path fill="#542954" d="M487.082-57.753c1.863-0.344,2.306-0.43,2.612-0.118c0.009,0.013,0.019,0.026,0.029,0.031
		c0.868-0.549,2.674-1.7,1.983-1.902c-0.017-0.001-0.046-0.005-0.069-0.012c-0.623-0.072-1.967,0.267-1.979,0.273
		C489.651-59.478,488.631-58.942,487.082-57.753z"/>
	<path fill="#542954" d="M631.408-66.542c0.738,0.126,1.346-0.433,2.063-0.421c0.394,0.006,0.966,0.078,0.972,0.082
		c2.632,0.571,5.036,1.875,7.661,2.471c1.035,0.233,1.035,0.233,6.536,0.752c-8.984-4.468-10.428-5.557-10.739-5.911
		c-0.042-0.052-0.066-0.087-0.082-0.115c0.624-0.108,2.756,0.505,7.333,2.123c-0.615-0.709,1.255-0.469,1.732-0.994
		c0.002-0.001,0.008-0.003,0.008-0.005c-0.135-0.176-1.734-1.393-3.328-1.728c-0.265-0.056-0.533-0.094-0.79-0.091
		c-3.408,0.043-7.368-0.971-10.85-1.863c1.078-0.19,3.097-0.539,1.559-1.712c-0.278-0.212-1.145-0.734-2.641-1.334
		c-2.149-0.875-3.862-0.545-4.929-0.124c-0.747,0.293-1.186,0.631-1.188,0.64c-0.104,0.278-0.139,0.569-0.16,0.862
		c-0.253,0.256-0.459,0.575-0.767,0.763h-0.004c0.219,0.087,0.453,0.179,0.693,0.272c-0.036,0.298-0.097,0.595-0.245,0.873
		c0.966,0.696,2.157,0.833,3.204,1.317c-3.695-0.399-3.695-0.399-3.848-0.378c-0.688,0.097-0.891,0.81-1.405,1.124l-0.008,0.001
		h-0.003c3.018,1.177,8.189,3.184,8.189,3.184C630.685-66.682,631.101-66.593,631.408-66.542z"/>
	<path fill="#542954" d="M471.619-62.501c-1.603,0.554-3.096,1.35-4.616,2.083c-0.316,0.151-0.623,0.303-0.939,0.444
		c0.06,0.18,0.144,0.417,0.203,0.592c-0.308,0.577-0.719,1.093-1.032,1.671c0.047,0.162,0.113,0.386,0.174,0.545
		c0.521,0.092,0.776,0.127,1.883-0.066c0.05,0.015,0.098,0.03,0.151,0.04c-2.784,1.749-2.614,2.248-2.324,2.983
		c0.681,0.264,1.766,0.688,4.361-0.409c0.355-0.149,0.735-0.324,1.148-0.536c-0.186,0.164-0.396,0.415-0.526,0.629
		c0.502,0.271,0.502,0.271,1.521-0.059c-0.276,0.145-0.637,0.33-0.924,0.471c-0.011,0.007-0.028,0.014-0.037,0.021
		c-1.027,0.618-1.37,0.836-2.011,1.644c-0.316,0.395-0.692,0.92-1.268,1.724c1.367-0.759,2.732,0.465,4.098,0
		c1.507-0.504,2.67-1.438,3.748-2.48c0.985-0.952,1.902-1.989,2.922-2.894c0.342-0.158,0.687-0.309,1.033-0.466
		c0.165,0.191,0.358,0.314,1.135,0.796c-0.774,1.975-2.986,2.38-4.693,3.343c-1.043,0.59-1.899,1.391-2.103,2.894
		c0.13,0.094,0.285,0.263,0.441,0.303c1.609,0.441,3.236-0.278,4.846,0.105c2.97,0.705,5.463,2.628,8.424,3.355
		c0.471,0.114,1.824,0.319,2.946,0.3c6.366-0.114,6.162-4.429,6.15-4.476c-0.004-0.01-0.013-0.016-0.015-0.025
		c-0.478-1.698-4.567-1.606-7.027-1.548c-5.008,0.119-6.917-0.264-4.976-2.851c4.598,0.033,8.992,1.768,13.604,1.652
		c-0.013,0.109-0.036,0.237-0.066,0.376c-0.063,0.286-0.168,0.623-0.35,0.979c0.033,0.047,0.06,0.097,0.089,0.139
		c1.725,0.031,5.933-0.172,7.695-2.7c-0.322-0.194-0.322-0.194-1.135-0.081c-0.021-0.137-0.038-0.316-0.063-0.453
		c2.189-0.94,2.528-1.083,6.203-2.014c0.927-0.234,3.097-0.781,4.259-1.239c0.455-0.181,1.056-0.43,1.51-0.611
		c0.078-0.032,0.143-0.082,0.213-0.124c0.438-0.251,0.752-0.625,1.024-1.037c0.014-0.023,0.029-0.044,0.04-0.068
		c0.442-0.673,0.826-1.403,1.618-1.733c4.025-1.667,8.308-2.552,12.486-3.74c2.597-0.737,5.15-1.589,7.585-2.82
		c0.756-0.379,1.741-0.916,2.481-1.316c-0.626-0.347-1.212-0.65-1.785-0.932c-0.195-0.097-0.393-0.194-0.581-0.283
		c-2.523-1.188-4.696-1.799-7.617-2.195c-4.53-0.466-4.53-0.466-10.149,1.196c-1.192-0.904-3.417-1.469-11.624,0.516
		c0.067,0.151,0.149,0.367,0.211,0.527c-0.679,0.899-1.677,1.548-2.097,2.661c-0.459-0.117-0.459-0.117-0.135-2.95
		c-1.37-1.531-10.466,1.398-12.519,4.627c0.035,0.134,0.085,0.31,0.117,0.438c0.289,0.005,0.679-0.022,0.961-0.075
		c-0.156,0.072-0.356,0.161-0.508,0.234c-0.619,0.278-1.116,0.543-1.548,0.802c-3.885,2.325-0.838,3.824-0.796,3.835
		c0.174,0.051,0.364,0.078,0.555,0.102c0.013,0.001,0.025,0.005,0.036,0.006c0.764,0.091,1.655-0.006,2.514-0.182
		c0.565-0.026,1.133-0.033,1.701-0.042c-0.123,0.084-0.258,0.177-0.371,0.252c-0.152,0.187-0.351,0.43-0.504,0.615
		c0.302,0.253,0.739,0.566,1.111,0.695c-0.261,0.673-1.114,1.292-1.729,1.667c1.51-1.602-0.038-1.817-0.222-1.833
		c-1.114-0.119-2.698,0.671-3.29,0.97c0.109,0.055,0.256,0.123,0.365,0.179c-0.317,0.73-1.508,1.108-2.966,1.255
		c-1.569,0.158-3.447,0.044-4.909-0.206c-1.312-0.226-2.28-0.561-2.364-0.907c-0.032-0.138-0.009-0.342,0.049-0.565
		c-0.651,0.18-1.301,0.359-1.943,0.559c0.179-0.234,0.334-0.486,0.455-0.786c-1.04-0.647-1.04-0.647-1.312-1.034
		c-0.542,0.401-1.043,0.859-1.528,1.334c-0.333,0.539-0.635,1.115-0.967,1.65c-0.677,1.099-1.474,2.011-2.91,1.992
		c-0.224-0.003-0.46-0.023-0.718-0.075c-0.047-0.1-0.092-0.224-0.125-0.349c-0.046-0.158-0.081-0.322-0.088-0.457
		c-0.573-0.169-0.708-0.211-3.223,0.916c1.641-1.282,3.507-2.202,5.264-3.294c0.411-0.256,0.826-0.511,1.221-0.794
		c-0.4-0.582-0.802-1.065-1.355-1.375c-1.12-0.625-2.894-0.523-6.706,1.024c1.33-1.008,1.5-1.138,1.753-1.723
		C470.852-61.925,470.954-62.003,471.619-62.501z M507.773-62.429c0.644-0.254,0.739-0.047,0.779,0.035
		c-0.056,0.032-0.131,0.084-0.179,0.125c-1.065,0.731-1.528,0.958-1.478,0.72c0.019-0.105,0.161-0.3,0.237-0.4
		c-0.659,0.473-1.347,0.994-1.705,1.362c-0.119-0.012-0.238-0.023-0.356-0.035C505.81-61.282,507.022-62.134,507.773-62.429z"/>
	<path fill="#542954" d="M486.778-63.591c-1.043-0.42-1.969,1.548-1.809,2.195c0.099,0.4,1.392,0.789,3.028,1.007
		c0.403-0.187,0.9-0.436,1.556-0.77c-0.502-0.272-1.109-0.211-1.611-0.482c0.349-0.467,0.525-0.588,1.588-1.071
		c-0.037,0.111-0.086,0.26-0.118,0.366c0.613-0.173,0.613-0.173,1.754-0.797c-0.129-0.036-0.293-0.078-0.423-0.111
		c-0.095-0.34-0.015-0.647,0.095-0.952C488.388-62.969,488.293-62.981,486.778-63.591z"/>
	<path fill="#542954" d="M478.936-64.151c0.396-0.029,0.474,0.076,0.593,0.269c0.209,0.371,0.538,0.4,1.957-0.142
		c-0.052-0.063-0.052-0.063-0.201-0.109c-0.026-0.008-0.027-0.012-0.027-0.017h-0.009h-0.01c-0.036-0.017-0.07-0.043-0.103-0.071
		c0.07-0.384,0.906-0.628,1.046-0.463c0.146,0.166-0.096,0.491-0.377,0.867c-0.255,0.342-0.513,0.703-0.333,0.863
		c0.146,0.133,0.588,0.131,1.62-0.154c0.072-0.019,0.17-0.055,0.283-0.104c0.451-0.196,1.203-0.61,2.022-1.135
		c1.646-1.056,3.54-2.564,3.782-3.68c0.083-0.375-0.008-0.708-0.375-0.96c-0.125-0.084-0.317-0.165-0.456-0.222
		c-0.94-0.311-1.891-0.316-1.891-0.316c-0.021,0.005-1.572,0.557-2.923,1.523c-0.701,0.5-1.343,0.752-3.249,1.505
		c0.325,0.694,1.988,0.748,1.473,1.644C481.631-65.19,480.539-64.819,478.936-64.151z"/>
	<path fill="#542954" d="M532.317-63.912c-0.375,0.183-0.746,0.378-1.129,0.53c-0.035-0.112-0.066-0.228-0.098-0.325
		c-0.401,0.061-0.987,0.152-1.92,0.995c-0.112,0.102-0.229,0.207-0.352,0.332c0.069,0.149,0.16,0.359,0.232,0.512
		c0.766,0.107,1.561-0.017,2.313,0.25c0.017,0.18,0.032,0.417,0.037,0.59c-3.785,2.133-8.191,2.203-12.271,3.359
		c-0.072,0.021-0.146,0.048-0.22,0.07c-1.114,0.328-2.212,0.723-3.257,1.293c0.422,0.298,0.73,0.528,0.976,0.727
		c0.646,0.532,0.803,0.848,1.115,1.647c-0.09-0.016-0.144-0.01-0.708,0.326c-0.407,0.245-1.082,0.659-2.268,1.394
		c2.325,10.318,20.842,2.795,19.281,13.889c-0.343,2.406,0.021,4.807-0.009,7.214c-0.019,2.22-0.103,2.67-0.413,4.351
		c1.436-0.108,2.552-0.135,3.452-0.05c2.222,0.202,3.128,1.065,4.157,2.949c-0.11,0.068-0.229,0.135-0.324,0.196
		c0.019,0.099,0.04,0.18,0.063,0.261c-4.206-0.986-4.264-0.986-5.378-0.888c-0.205,0.795-0.205,0.795,0.333,2.424
		c-0.259,0.106-0.377,0.145-0.713-0.005c-0.247-0.106-0.603-0.305-1.227-0.659c-2.055,4.241,1.058,6.654,4.873,5.363
		c1.461-0.485,2.073-1.449,2.482-2.076c-1.198,0.054-1.693-0.004-1.953-0.868c0.35-0.057,0.709-0.136,1.077-0.261
		c0.091-0.034,0.148-0.074,0.233-0.108c0.9,0.265,1.058,0.371,1.741,0.853c0,0.02-0.012,0.848-0.047,1.849
		c-0.054,1.439-0.16,3.232-0.362,3.5c-2.576-0.905-4.567,0.16-5.994,2.116c-2.458,3.386-3.195,9.45-2.192,12.69
		c0.48,1.554,2.157,3.209,3.485,4.149c1.116,9.024,3.924,15.965,12.567,21.214c4.084,2.481,9.461,4.585,16.589,6.356
		c0.291-1.007,0.639-2.299,0.972-3.375c0.045-0.153,0.094-0.315,0.138-0.457c1.86-5.832,4.802-11.254,6.692-17.081
		c0.612-1.898,0.047-4.793,0.974-6.566c0.271-0.526,0.667-0.947,1.102-1.321c1.829-1.564,4.76-1.965,6.335-2.167
		c1.897-0.247,3.271-0.418,4.617-1.389c0.557-0.404,1.188-1.081,1.701-1.537c3.007-2.724,4.186-6.82,7.188-9.537
		c1.32-1.193,3.868-1.503,5.573-2.005c11.516-3.405,13.838-5.417,16.344-11.084c-0.037,0.002-0.064,0.003-0.104,0.003
		c0.201-0.303,0.396-0.617,0.578-0.947c0.055-0.094,0.11-0.182,0.162-0.28c-0.349-0.701-0.761-1.341-1.205-1.942
		c-0.235-0.317-0.469-0.623-0.715-0.91c-2.088-2.404-4.567-3.823-5.192-4.158c1.001-2.2-1.063-3.791-1.146-5.784
		c0.321-0.16,0.839-0.169,1.177-0.062c-0.9-3.814-0.916-3.996,1.025-6.586c0.083-0.11,0.146-0.198,0.237-0.318
		c-0.074-0.066-0.128-0.108-0.198-0.168c-2.474-2.129-2.698-2.061-4.081-1.513c0.081,0.82,0.081,0.82,2.626,2.699
		c-2.489,0.013-2.489,0.013-2.912-0.338c-0.028-0.534-0.028-0.534-5.864-6.588c0.092-0.138,0.211-0.325,0.305-0.466
		c1.539,0.84,2.715,2.266,4.496,2.698c-1.979-1.575-2.362-5.917-5.799-4.907c-2.723-1.564-3.192-4.719-4.932-6.97
		c-0.319,1.186,0.781,2.167,0.487,3.35c-0.841-1.495-2.625-2.21-3.254-3.883c-0.84-2.248-0.354-4.654-0.816-6.947
		c-0.036-0.16-0.071-0.379-0.103-0.54c-7.314-1.571-6.373,0.508-5.868,1.624c-0.902-0.807-0.902-0.807-1.503-1.063
		c-0.1,0.328-0.219,0.763-0.308,1.097c-0.433-0.063-0.99-0.312-1.35-0.56c0.138-0.076,0.325-0.179,0.465-0.252
		c-0.224-0.438-0.509-0.98-2.142-1.018c0.283,0.39,0.798,0.807,1.208,1.057c-0.486,0.19-0.486,0.19-3.721-1.144
		c0.161-0.102,0.377-0.236,0.541-0.342c-0.079-0.21-0.183-0.502-0.261-0.718c-6.779-2.403-11.818-2.383-15.457-2.098
		c-5.825,0.714-11.087,4.021-17.127,3.801h-0.04c-0.176-0.012-0.399-0.022-0.568-0.034c-0.067,0-0.084-0.003-0.103-0.003
		c-5.601-0.259-10.959,2.473-13.661,4.13C532.752-64.189,532.518-64.044,532.317-63.912z"/>
	<path fill="#542954" d="M711.645,10.847c-0.055-0.067-0.127-0.149-0.18-0.216c-0.853-0.984-2.513-2.434-3.339-2.164
		c-0.099,0.04-0.15,0.081-0.217,0.168c1.331,1.449,2.659,2.913,3.979,4.382C713.221,13.162,712.361,11.726,711.645,10.847z"/>
	<path fill="#542954" d="M759.096,57.619c-0.195-0.195-0.357-0.357-0.514-0.519c-0.743-0.782-1.3-1.598-4.539-6.331
		c-2.599-3.809-2.869-4.209-6.65-2.943c-4.57-4.278-4.57-4.278-17.045-11.047c-4.104-2.235-5.829-3.509-5.835-3.52
		c-0.366-0.458-0.411-1.318-0.55-1.895c-0.756-3.037-1.258-3.961-2.913-6.314c-2.286,0.104-4.339,2.252-6.798,0.755
		c-0.099-3.664-0.152-4.716-2.669-7.197c-0.261-0.256-0.524-0.516-0.841-0.809c0.119,0.259,0.282,0.604,0.403,0.858
		c0.024,0.117,0.04,0.221,0.059,0.325c0.182,1.089,0.008,1.682-1.503,3.104c-0.036,0.034-0.063,0.064-0.1,0.098
		c-2.152,2.06-2.355,3.273,0.306,6.979c-1.33-0.683-2.341-0.828-3.024-0.43c-0.159,0.954,0.729,1.797,1.006,2.036
		c0.282,0.243,0.876,0.168,1.177,0.384c2.413,1.731,3.527,5.121,7.004,5.485c-1.703,0.597-2.167,1.077-1.297,2.697
		c0.143,0.264,0.316,0.556,0.536,0.898c0.937-0.096,1.282-1.043,2.041-1.397c0.43,0.432,0.467,0.465,0.926,1.807
		c1.025,0.139,0.823-1.082,1.025-1.906c0.537,0.106,1.04,0.271,1.524,0.47c1.271,1.333,1.51,3.491,3.039,4.632
		c0.354-0.091,0.696-0.185,1.048-0.278c0.966-0.251,1.927-0.502,2.874-0.756c1.405,1.522,3.097,2.756,4.6,4.182
		c0.727,0.686,1.42,1.408,1.995,2.251c-0.521,0.144-1.061,0.28-1.587,0.422c-1.185,0.318-2.364,0.634-3.57,0.944
		c1.316,2.297,3.79,3.445,5.527,5.322c0.355,0.39,0.692,0.794,0.971,1.259c-0.261,0.154-0.485,0.287-0.699,0.415
		c-1.736,1.043-2.051,1.369-2.183,2.699c0.498,0.47,1.181,1.11,1.935,1.234c1.178,0.18,2.25-0.531,3.414-0.396
		c1.723,3.145,0.023,6.448,0.464,9.661C745.139,65.895,754.363,65.244,759.096,57.619z"/>
	<path fill="#542954" d="M706.004,28.129c0.065-0.85,0.139-1.729-0.534-3.067c-0.3-0.59-0.789-1.028-1.034-0.917
		c-0.367,0.351-0.264,0.96-0.7,1.264c-0.369,0.254-0.866,0.074-1.104-0.017c1.516,1.857,3.604,4.396,1.544,4.208
		c-0.14-0.017-0.297-0.041-0.403-0.064c1.616,2.057,2.688,3.051,3.844,3.53C705.983,30.746,705.873,29.734,706.004,28.129z"/>
	<path fill="#542954" d="M657.112-5.484c-2.247-3.515-10.255-3.894-11.05-3.82c-3.128,0.282-3.128,0.282-12.262,5.958
		c-2.329-3.273-3.261-3.348-7.181-3.658c0.006,0.267,0.006,0.624,0.006,0.89c-0.154,0.319-0.376,0.576-0.613,0.823
		c-0.59,0.6-1.322,1.08-1.663,1.891c-0.245,0.593,0.108,1.488,0.277,2.1c1.613,0.201,3.075-0.789,4.68-0.612
		c0.108,0.251,0.238,0.505,0.349,0.703c0.421-0.06,0.795-0.108,1.161-0.159c0.407,0.34,0.467,0.758,0.014,1.092
		c-0.963,0.708-2.207-0.263-3.157,0.515c-0.404,0.338,0.084,1.23,0.378,1.761c4.028-0.572,5.285-0.624,7.534,1.901
		c-1.327,0.263-1.727,0.344-0.737,1.982c13.126,2.341,19.047-1.677,23.893-8.431c-0.163-0.205-0.3-0.421-0.429-0.644
		C657.871-3.939,657.576-4.755,657.112-5.484z"/>
	<path fill="#542954" d="M728.107,56.76c0.116-0.85,0.222-1.581-1.069-3.253c-1.331-1.732-3.266-2.896-4.512-4.711
		c0.216-0.918,1.067-1.674,0.713-2.74c-0.66-2.031-4.598-5.166-8.779-4.003c-0.558,0.189-1.112,0.415-1.661,0.634
		c-0.86,0.347-1.719,0.698-2.592,1.003c0.504,1.077,0.931,1.994,1.203,2.766c0.553,1.553,0.476,2.515-0.853,3.009
		c-0.612,0.228-1.485,0.359-2.697,0.4c0.816,1.294,0.821,2.936,1.811,4.16c0.1,0.108,0.623,0.722,2.097,1.51
		c1.976,1.042,2.301,1.33,3.508,3.034c-0.969,1.743-2.054,3.722,0.296,6.874c0.015,0.016,2.682,1.176,5.07,0.326
		c3.322-1.18,4.676-5.275,8.485-5.735c-0.669-1.043-0.973-1.549-1.06-2.125C728.02,57.582,728.037,57.238,728.107,56.76z"/>
	<path fill="#542954" d="M391.146,284.61c-0.164-1.857,1.408-3.051,1.817-4.683c0.271-1.089-0.385-1.558-1.011-1.918
		c-0.009,0.05-0.021,0.118-0.029,0.162c-0.212,0.579-0.696,0.502-2.125-0.036c-2.769-1.05-4-1.06-4.468,1.634
		c0.815,0.454,1.134,0.785,1.851,2.258C387.935,283.585,388.59,284.931,391.146,284.61z"/>
	<path fill="#542954" d="M451.541,326.63c-0.546,0.321-1.19,0.613-2.45,0.451c-0.047,0.899-0.098,1.787-0.132,2.682
		c0.054,0,0.111,0,0.169,0.011h0.032c0.897,0.105,1.422,0.251,2.194,0.847c0.249,0.187,0.443,0.338,0.688,0.359
		c0.469,0.039,1.038-0.436,1.542-0.853c0.038-0.892,0.083-1.779,0.132-2.682c-0.72-0.751-1.096-1.07-1.57-1.063
		C451.933,326.421,451.873,326.441,451.541,326.63z"/>
	<path fill="#542954" d="M543.479,456.525c-4.873-13.096-19.229-20.157-22.02-34.573c-27.427-16.905-27.427-16.905-37.482-13.299
		c-12.777-9.213-21.47-22.521-33.017-32.972c0.692-1.2,1.619-2.806,2.313-4.005c-1.111-0.538-2.589-1.248-3.692-1.779
		c-0.389,1.352-0.9,3.158-1.292,4.51c-4.122-5.046-11.249-5.235-15.711-9.732c-0.404,2.51-2.28,5.624-4.058,7.445
		c-1.597-0.588-2.983-1.095-4.216-1.539c-0.408-0.145-0.786-0.279-1.159-0.414c-7.31-2.593-8.727-2.639-16.879-2.867
		c-1.351-7.003-8.327-9.558-11.789-14.901c-0.729,2.482-2.199,5.712-3.813,7.732c-0.969-2.579-1.881-6.159-2.358-8.869
		c-0.27,0.018-27.46,3.742-29.176,17.623c-2.264,1.339-4.994,3.638-6.717,5.627c-0.954-0.351-1.849-0.684-2.722-1.002
		c-0.676-0.249-1.327-0.488-1.957-0.718c-17.09-6.266-17.319-6.196-20.061-5.218c-14.083-7.473-17.09-29.666-6.078-44.796
		c0.118-1.329,0.244-2.662,0.371-3.995c-3.609-4.369-3.652-4.412-30.383-13.835v-1.364c6.641-11.761,8.953-25.338,15.439-37.155
		c-3.605-1.978-9.999-4.767-15.439-3.349c-0.988,0.254-1.938,0.661-2.84,1.226c-2.965,1.851-5.35,5.516-6.354,12.072
		c-0.679,0.241-1.18,0.419-1.809,0.596c-1.712,0.476-4.399,0.969-14.423,2.788c-0.745-0.834-1.42-1.739-2.063-2.672
		c-11.442-16.651-7.084-48.06,4.649-65.298c2.41-3.548,5.139-6.465,8.097-8.559c1.21-0.855,2.454-1.581,3.74-2.138
		c2.818-1.213,5.8-1.682,8.898-1.186c0.708,0.113,1.407,0.277,2.106,0.468c5.431,1.469,10.484,4.994,14.28,7.657
		c10.192-5.562,20.284,1.232,30.434,0.235c2.894,35.278,2.894,35.278,2.951,35.481c-2.12,1.542-4.882,3.674-6.922,5.322
		c21.14,4.976,17.701-21.178,16.575-29.77c-1.369-10.408-1.369-10.408,20.83-33.412c0.883,0.155,1.766,0.314,2.654,0.468
		c-0.332-0.132-0.67-0.27-1.02-0.39c-0.932-0.315-0.535-1.813,0.411-1.485c1.111,0.378,2.164,0.823,3.19,1.33
		c25.464-30.215,25.551-30.357,32.596-43.4c2.413-0.062,5.628-0.174,8.035-0.27c0.621-0.969,1.446-2.26,2.064-3.228
		c2.282-0.064,5.377,0.388,7.543,1.121c1.084-0.626,2.533-1.476,3.621-2.105c-0.828-0.931-1.936-2.16-2.77-3.088
		c3.077-6.563,6.566-13.998,30.772-16.471l-1.264,0.602c-1.684,2.071-3.218,5.446-3.759,8.066c2.851-0.042,6.702-0.972,9.242-2.272
		c33.406,18.536,32.072-11.496,30.869-21.144c10.07,0.809,10.07,0.809,13.886,1.567c0.303,1.116,0.696,2.589,0.997,3.698
		c-0.146,1.364-0.139,1.364-0.134,1.364c2.471-0.761,5.609-2.396,7.632-4.011c0.311,1.323,0.729,3.092,1.044,4.42
		c1.141,0.404,2.656,0.953,3.794,1.359c2.006-1.919,3.936-5.284,4.781-7.928c-1.031-0.557-2.406-1.29-3.433-1.84
		c2.165-6.021,2.165-6.021-13.066-12.995c0.922-2.275,2.626-5.137,4.179-7.033c-1.737,0.035-4.058,0.074-5.794,0.109
		c-5.747,6.381-9.318,14.528-16.217,19.987c-6.95-13.882-19.711-4.225-26.548,7.065c0.256-2.802,1.214-6.489,2.307-9.075
		c-1.156-0.067-2.697-0.162-3.854-0.226c2.481-1.114,5.538-3.22,7.534-5.07c-0.724-1.018-1.685-2.373-2.402-3.388
		c-6.813-1.153-9.109-1.541-19.825,3.189c1.536-2.121,4.726-4.278,7.299-4.791c1.641,0.099,1.641,0.099,1.641,0.099h0.005h0.008
		l0.008,0.007h0.008h0.009c0.863-1.094,2.013-2.543,2.883-3.635c44.868-4.348,44.868-4.348,53.584-9.724
		c0.444-2.893,0.896-5.763,1.353-8.604c-8.357-5.258-12.302-7.74-15.346-13.916c-2.716-5.515-4.715-13.976-8.498-29.994
		c-9.191,9.434-11.209,9.68-16.614,10.34c-3.139-3.452-4.311-4.741-0.685-11.768c-7.338-11.424-7.338-11.424-21.437-13.604
		c-2.614,3.826-4.602,6.733-6.183,9.022c-5.248,7.586-5.813,8.013-8.166,9.712c6.359,18.16-16.264,22.186-16.503,22.205
		c-3.644,12.382-3.644,12.382-11.057,18.436c-0.778-1.149-1.802-2.688-2.582-3.838c1.875-1.549,3.591-4.611,4.082-6.995
		c-0.895-1.023-2.08-2.376-2.972-3.396c1.356-2.284,3.252-5.276,4.782-7.443c-8.456-5.09-11.845-15.254-20.315-20.341
		c-0.791-4.687,0.829-9.226,0.815-13.872c2.767-2.753,2.842-2.814,48.176-23.7c-0.047,0.339-0.095,0.679-0.132,1.023
		c-5.609,4.77-5.78,4.884-10.03,7.755c0.543,1.104,1.268,2.582,1.809,3.689c2.314-0.256,5.36-1.116,7.465-2.119
		c0.135,0.081,0.287,0.16,0.428,0.241c2.143,1.189,5.114,2.277,7.444,2.641c0.438-5.136-1.866-10.159-0.642-15.325
		c0,1.141,0,2.675,0,3.816c4.021-4.135,10.69-4.273,14.084-9.349c1.065,0.46,2.486,1.067,3.549,1.526
		c-0.019,0.104-2.527,10.595-7.251,15.158c14.374,7.657,14.374,7.657,15.578,13.604c4.262,1.014,7.948,3.401,11.949,5.024
		c0.353-1.201,0.827-2.816,1.185-4.018c-0.584-1.05-1.371-2.439-1.963-3.487c2.238,0.976,5.029,2.798,6.785,4.496
		c1.868-1.497,4.337-3.513,6.172-5.047c-4.596-12.517-4.596-12.517-4.583-14.242c2.215,1.485,4.726,4.248,5.935,6.632
		c4.29-0.128,4.29-0.128,11.594-5.822c-2.697-5.196-7.979-8.249-10.927-13.233c0.762-0.898,1.791-2.107,2.552-3.005
		c-0.677-2.777-0.677-2.777-10.563-15.564c0.375-1.293,0.877-3.009,1.247-4.301c-0.289-0.13-29.065-12.311-34.509,8.556
		c0.882,0.8,2.05,1.877,2.93,2.684c-1.807,2.302-4.663,5.027-7.01,6.779c-1.126-0.31-2.625-0.718-3.752-1.028
		c0.625-1.021,1.455-2.38,2.086-3.398c-3.699-9.443-2.42-9.981,18.822-19.034c-2.526-2.141-3.68-3.112-7.289-3.062
		c-3.015,0.042-7.735,0.794-16.414,2.18c-0.612,1.068-1.431,2.487-2.051,3.555c0.937,0.708,2.18,1.655,3.111,2.372
		c-4.951,4.878-4.951,4.878-14.457,6.618c5.393-13.639,5.393-13.639,15.545-17.087c-0.966-0.756-2.244-1.771-3.202-2.53
		c-2.756,1.356-6.351,3.334-8.97,4.923c1.307-0.895,3.049-2.088,4.356-2.984c-0.618-1.026-1.449-2.392-2.061-3.417
		c1.249-2.408,3.1-5.542,4.736-7.712c-0.182-0.384-0.434-0.893-0.615-1.276c-2.94-0.966-6.598-2.166-21.396,5.064
		c1.132,0.845,2.639,1.971,3.772,2.806c1.71-0.367,3.991-0.916,5.73-1.128c-6.925,2.228-6.925,2.228-11.105,4.926
		c0.111,1.163,0.259,2.715,0.372,3.882c-8.06-0.619-8.708,0.921-11.113,6.65c-0.436-2.302-0.355-5.543,0.248-7.806
		c-0.938-0.687-2.187-1.602-3.12-2.289c1.054-0.466,2.464-1.093,3.513-1.56l2.417-1.197c-0.004,0-0.004-0.007-0.004-0.007v-0.001
		h-0.003v-0.008c-1.182,0.284-2.742,0.662-3.924,0.947c0.873-0.883,2.039-2.063,2.913-2.949c-1.954-1.965-5.203-3.963-7.779-4.985
		c7.508-6.397,16.138-11.243,23.856-17.348c-4.775-0.913-4.775-0.913-24.827,6.937c0.938-0.48,1.906-0.955,2.898-1.428
		c1.076-0.416,2.519-0.972,3.598-1.387c-15.895,5.144-40.827,20.921-51.106,26.563l-2.288,1.813
		c-4.024,2.385-0.001,0.001-3.981,2.46c-0.307,0.05-0.615,0.101,0,0.002c-0.571,0.289-0.379,0.189-0.106,0.052
		c-0.387,0.2-0.165,0.086,0.096-0.047c-0.598,0.42-0.509,0.391-0.244,0.232c-10.716,9.886-20.884,20.373-31.958,29.873
		c2.419-1.716,5.633-4.034,8.017-5.805C311.809-4.107,311.809-4.107,311.556-3.025c-2.37,1.829-4.716,3.685-7.035,5.57
		c-3.337,4.777-6.515,9.33-9.57,13.705c-5.708,5.277-10.389,11.866-13.59,19.466c-54.696,78.374-55.045,79.22-58.135,86.8
		c-6.669,16.335-1.269,34.364-7.135,50.81c-1.063,2.984-1.876,5.912-2.498,8.752c-0.285,1.304-0.524,2.579-0.73,3.846
		c-0.76,4.694-1.006,9.104-0.93,13.104c0.074,3.929,0.455,7.458,0.944,10.462c1.089,6.643,2.716,10.694,2.762,10.764
		c0.447-5.07,0.854-9.679,1.229-13.94c0.226-2.564,0.44-4.993,0.644-7.285c0.516-5.828,0.961-10.81,1.347-15.073
		c0.056-0.631,0.113-1.271,0.168-1.871c2.072-22.761,2.387-23.69,3.515-26.982c0.923,0.919,2.157,2.156,3.079,3.081
		c-1.812,8.466-3.177,16.414-4.172,23.901c-0.057,0.423-0.116,0.852-0.17,1.272c-0.701,5.475-1.2,10.698-1.514,15.672
		c-0.118,1.906-0.209,3.771-0.276,5.603c-1.63,44.411,11.815,68.211,23.306,81.134c0.054,0.061,0.108,0.116,0.162,0.177
		c4.493,5.023,8.675,8.387,11.519,10.676c1.23-0.476,2.877-1.112,4.109-1.579c1.35,1,2.88,2.325,4.53,3.875
		c2.623,2.469,5.561,5.537,8.621,8.925c14.024,15.515,30.569,37.571,30.737,37.826c-0.16,3.123-0.291,6.25-0.399,9.38
		c9.139,4.493,12.934,15.289,22.616,19.134c-0.108,1.138-0.261,2.666-0.379,3.813c2.272,0.812,5.183,2.273,7.182,3.627
		c0.735-0.958,1.72-2.238,2.458-3.199c-0.602-1.076-1.394-2.498-1.992-3.573c1.722-1.662,4.537-3.422,6.826-4.113
		c1.119,2.08,2.879,4.718,4.393,6.53c2.4,10.56,3.979,17.518,4.562,22.886v0.917h0.09c0.876,9.731-1.795,14.242-9.228,26.73
		c-1.165,0.232-2.712,0.54-3.882,0.77c-0.667,7.518-3.022,14.838-2.697,22.479h0.005c0,0,0.005,0,0.005,0.004c0,0,0,0,0,0.003h0.007
		h0.009c0,0,0.003,0,0.003,0.003h0.005c2.207,1.449,4.854,3.888,6.493,5.96c-1.288,0.658-3.007,1.537-4.295,2.194
		c-3.11,10.073,0.375,16.457,0.409,16.515c10.656,18.204,30.136,30.024,36.886,51.049c0.149,0.454,0.149,0.454,36.05,29.423
		c9.086,7.332,12.688,16.974,14.227,27.482v27.294h1.538c0.827,18.756,3.989,36.527,26.685,46.078
		c-0.773-0.932-1.807-2.181-2.582-3.112c2.122,1.228,4.651,3.469,6.053,5.502c0.797-0.179,14.627,0.145,6.457-0.151
		c9.269,0.337-1.465-0.063,1.203,0.803c0.789,1.203,9.256,1.668,3.607,4.416c13.805,8.309,21.688,12.537,38.103,13.638
		c-15.028-4.81-14.852-1.921-18.859-9.448c-1.121-0.256-2.612-0.604-3.732-0.863c1.063-2.215,1.756-5.541,1.717-7.992
		c1.161,0.236,2.71,0.551,3.871,0.783c-1.9-1.314-4.881-2.486-7.17-2.804c2.529-1.096,6.235-1.837,8.994-1.927
		c0.17-1.262,0.396-2.937,0.563-4.199c12.579-1.046,12.682-1.12,17.88-5.078c-0.454-1.548-1.051-3.615-1.51-5.165
		c22.28-9.772,22.28-9.772,37.899-28.66c-1.545-12.745-1.545-12.745,41.635-24.305c3.673-6.364,8.728-11.803,12.262-18.252
		c1.326-3.548,2.41-3.584,3.492-3.616c0.901-23.268,19.765-37.267,29.018-56.227c4.68-9.574,2.565-15.842-0.362-24.507
		C596.861,485.802,573.53,461.417,543.479,456.525z M353.632,84.24c8.961-4.49,13.388-5.741,21.762-4.165
		c-0.875,1.828-2.356,4.974,0.409,6.173c0.521,0.226,1.177,0.392,2.03,0.459c-0.998,1.844-1.202,2.227-1.443,4.83
		c-0.007,0.075-0.021,0.126-0.029,0.196c-0.13,1.203-0.435,1.944-1.167,2.784c-0.315,0.36-0.828,0.755-1.182,1.082
		c0.088-2.017-0.623-2.896-2.178-3.13c-1.591-0.238-4.07,0.212-7.499,0.838c0.057-1.512-1.217-2.704-1.025-4.248
		c0.15-1.227,0.236-1.385,1.596-2.649c0.104-0.098,0.196-0.179,0.317-0.293c-0.106,0.01-0.207,0.037-0.313,0.047
		c-3.852,0.505-7.453,2.545-11.495,1.958c-1.259-0.411-1.955-0.944-2.97-2.265C351.582,85.275,352.631,84.743,353.632,84.24z
		 M358.366,111.246c-1.06,1.816-1.98,3.896-2.801,6.401c-0.345,1.052-0.681,2.167-0.993,3.388c-2.714-1.265-3.117,3.576-5.875,2.424
		c-0.137-3.025,1.394-7.216,3.578-11.146c0.994-1.792,2.125-3.524,3.305-5.072c1.613-2.11,3.304-3.879,4.846-4.938
		c-0.288-0.52-0.288-0.52-0.617-0.847c0-0.04,0.003-0.062,0.553-0.98c0.256-0.435,0.66-1.113,1.224-2.05
		c0.141-0.24,0.268-0.455,0.435-0.729c0.426,0.293,0.718,0.424,1.237,0.559c1.217,0.233,2.005,0.159,3.94-0.225
		c0.054-0.014,0.102-0.021,0.158-0.031c0.979-0.195,1.723-0.309,2.291-0.266c0.625,0.049,1.042,0.289,1.303,0.85
		c-0.18,0.148-0.415,0.348-0.602,0.492C364.849,103.506,361.126,106.516,358.366,111.246z M386.193,124.465
		c-4.871,3.784-10.251,4.191-17.708,4.753c0.526-0.805,1.414-2.162,2.894-3.309c0.856-0.664,1.906-1.258,3.208-1.625
		c1.435-0.404,2.631-0.509,4.102-0.533c1.433-0.028,2.863,0.068,4.29,0.162c1.243,0.078,2.481,0.158,3.72,0.149
		C386.552,124.182,386.349,124.349,386.193,124.465z M403.819,119.211c-2.888,4.921-9.468,3.041-13.825,1.797
		c-2.183-0.624-3.357-0.94-4.298-0.847c1.475-1.259,3.064-2.12,4.819-2.663c3.354-1.038,7.394-0.778,12.692,0.739
		c0.328,0.096,0.634,0.163,0.975,0.264C404.074,118.712,403.935,119,403.819,119.211z"/>
	<path fill="#542954" d="M361.568,241.05c0.925,2.158,1.355,2.848,2.366,3.263c0.502-0.841,0.984-1.636,1.301-2.768
		c1.549-5.479-4.093-8.134-9.543-10.709c-0.073,0.242-0.175,0.564-0.25,0.81c-0.952,3.67-0.541,5.679,1.502,7.422
		C359.514,236.701,360.376,238.285,361.568,241.05z"/>
	<path fill="#542954" d="M414.049,307.569c-0.706,6.558,10.027,5.539,12.504,3.611c0.183-0.143,0.41-0.361,0.549-0.552
		c0.062-0.082,0.124-0.209,0.178-0.301c-2.115-1.757-3.409-2.525-5.933-2.751C418.922,307.435,416.483,307.661,414.049,307.569z"/>
	<path fill="#542954" d="M380.051,271.143c0.029-0.048,0.071-0.113,0.103-0.161c-1.087-0.567-1.775-1.75-3.104-1.932
		c-0.293-0.029-0.485-0.029-0.822,0c-0.251,1.755-0.504,3.502-0.75,5.248C377.684,274.82,378.522,273.513,380.051,271.143z"/>
	<path fill="#542954" d="M351.905,242.83c-2.734,8.737-1.893,15.163,0.425,19.844c1.906,3.854,4.817,6.527,7.558,8.331
		c3.593,2.366,6.894,3.239,7.248,3.33c1.114-1.264,1.407-1.601,0.654-2.862c-1.517-2.508-1.011-4.825,1.04-4.757
		c4.186,0.14,4.186,0.14,4.325-0.036c0.076-0.094,0.181-0.207,0.239-0.311c0.582-1-1.547-3.816-1.576-3.836
		c-0.689-0.509-1.874-0.397-3.903-0.162c-0.907-3.397-2.334-6.616-3.435-9.95c2.565,0.316,3.3,1.348,3.731,1.968
		c0.767-4.031,0.455-4.452-2.559-8.451c-1.665,3.719-3.144,4.362-4.403,1.919c-0.59,4.352-0.59,4.352,2.667,13.857
		c-1.067,1.564-2.097,2.02-4.401,1.942c0.509-3.552,0.533-5.089-0.268-9.941c-0.819-4.979-0.522-6.642,1.763-9.91
		c-3.17,0.111-5.556-2.074-8.419-2.844C352.383,241.516,352.11,242.264,351.905,242.83z"/>
	<path fill="#542954" d="M379.677,306.117c6.134,0.253,8.414,1.035,9.791,5.171c3.607-5.653,4.47-5.501,18.956-3
		c0.098-1.146,0.195-2.292,0.296-3.438c0.055-0.63,0.108-1.263,0.166-1.897c-9.796-5.704-16.266-9.466-23.69-10.315
		c-0.685-0.041-1.298-0.06-1.869-0.051c-1.8,0.023-3.169,0.311-4.998,0.978c1.822,0.657,2.768,1.328,3.212,1.938
		c-0.032,0.674-0.003,1.23,0.153,1.571c-0.231,0.402-0.613,0.677-0.825,0.734c-0.255,0.067-0.615,0.025-0.882,0.035
		c-0.034,0.49-0.056,0.956-0.056,1.374c0,0.558,0.049,1.021,0.243,1.251c0.956,1.143,2.492,1.188,3.644,1.96
		c-0.381,0.258-0.737,0.435-1.085,0.571c-0.468-0.031-0.93-0.061-1.458-0.084c-0.747-0.032-1.43-0.071-2.054-0.123
		c-0.57-0.215-1.192-0.491-1.908-0.827c-1.224-0.57-2.313-1.009-3.454-1.25c-0.836-0.177-1.701-0.261-2.695-0.146
		C371.586,305.038,373.661,305.871,379.677,306.117z"/>
	<path fill="#542954" d="M347.267,258.542c0.45-1.989-0.6-3.822-2.341-4.072c-1.706-0.084-2.135,1.544-2.277,2.069
		c1.106,1.536,2.469,2.198,4.567,2.218C347.232,258.69,347.249,258.609,347.267,258.542z"/>
	<path fill="#542954" d="M320.282,263.157c-0.637,0.93-1.244,1.988-1.866,3.199c2.794-0.092,4.626,1.083,7.382,2.999
		c4.785,3.342,7.591,4.417,12.628-0.14c7.157,5.905,10.703,10.675,15.212,20.393c2.538-0.643,4.386-0.614,9.388,0.18
		c0.044,0.01,0.086,0.019,0.131,0.023c3.951,0.654,7.367,1.22,10.17,0.731c0.345-0.058,0.797-0.18,1.138-0.26
		c-0.445-1.008-1.004-1.915-1.63-2.768c-5.077-6.938-15.283-9.465-17.155-19.137c-18.048-9.086-18.048-9.086-24.307-10.036
		C325.503,258.157,322.662,259.694,320.282,263.157z"/>
</g>
<path fill="#542954" d="M776.86,212.477v-1.617h-0.568C744.554,122.693,660.189,59.647,561.09,59.647
	c-126.283,0-228.66,102.376-228.66,228.662c0,126.287,102.376,228.662,228.66,228.662c126.288,0,228.664-102.375,228.664-228.662
	C789.754,261.727,785.2,236.208,776.86,212.477z"/>
<g opacity="0.1">
	<circle fill="#9595A4" cx="561.09" cy="288.31" r="228.662"/>
</g>
<g>
	<path fill="#542954" d="M785.785,256.855c0.231,1.656,0.465,3.275,0.663,4.705C786.25,259.943,786.022,258.387,785.785,256.855z"/>
	<path fill="#542954" d="M601.46,76.279c0,0.002-0.005,0.009-0.009,0.012c-0.103,0.066-0.26-0.026-0.331,0.125
		c0.1,0.121,0.583,0.261,1.706,0.542c-0.705-0.232-0.896-0.311-0.923-0.397c0.068-0.087,0.211-0.048,0.274-0.151
		c-0.017-0.052-0.035-0.128-0.733-0.37c-0.098-0.036-0.229-0.079-0.331-0.113c0.138,0.057,0.14,0.063,0.148,0.089
		c-0.057,0.012-0.188-0.005-0.646-0.089c-0.414-0.08-0.42-0.077-0.438-0.063c0,0.002,0.501,0.188,0.895,0.277
		C601.429,76.224,601.447,76.264,601.46,76.279z"/>
	<path fill="#542954" d="M786.813,264.91l-0.063-0.571c-0.906-7.868-2.638-15.177-4.848-22.007
		c-0.858-4.059-1.529-7.146-2.126-9.714c-0.996-4.29-1.79-7.142-2.918-10.644v-4.683v-6.437h-2.297h-1.65
		c-2.105-5.441-4.503-11.633-6.656-16.436l-0.292-0.627c-1.863-3.973-4.572-9.154-6.565-13.063
		c-10.856-18.273-12.01-20.215-18.812-29.095c0.486,0.64,0.984,1.304,1.503,1.996l6.304,8.927c0.023,0.034,0.055,0.084,0.076,0.12
		c-2.824-3.545-5.153-7.459-8.069-10.938l-10.528-11.265c-1.989-2.119-2.694-3.379-2.703-3.389c0.045-0.021,0.096-0.042,0.136-0.061
		c0.96,0.722,2.964,2.412,6.102,5.88c-9.105-10.8-11.063-12.79-19.98-21.154c-12.848-11.041-22.989-19.76-42.229-30.839
		c-8.963-5.09-18.418-9.379-28.287-12.801c-1.087-0.377-2.183-0.739-3.277-1.094c-0.238-0.077-0.474-0.161-0.711-0.237l0.01,0.032
		c0.179,0.4,0.392,0.881,0.596,1.341c0.115,0.261,0.229,0.517,0.33,0.743c0.714,0.077,0.714,0.077,13.563,8.661
		c-1.156-0.376-2.772-0.675-3.985-0.727c1.245,0.795,2.865,1.811,4.585,2.881c1.693,1.053,3.479,2.158,5.106,3.16
		c3.123,1.925,5.641,3.464,5.69,3.496c-0.08,0.028-0.172,0.06-0.259,0.091c-0.514,0.181-1.116,0.392-1.589,0.557
		c1.155,0.722,2.896,1.38,4.23,1.67c-2.023,0.392-2.023,0.392-10.478-3.258c0.717-0.233,1.644-0.705,2.224-1.301
		c0.144-0.147,0.271-0.299,0.361-0.46c-0.229-0.198-0.433-0.372-0.646-0.53c-1.521-1.125-3.606-1.401-20.352-3.506
		c-0.236-0.03-0.464-0.059-0.705-0.089c-0.331,1.069-0.308,2.676,0.115,3.751c-0.009,0.015-0.02,0.033-0.026,0.048
		c0.023,0.033,0.059,0.067,0.083,0.101c0,0,0,0,0,0.001c-0.305,0.527-0.71,1.229-1.017,1.757c0.798,1.086,2.133,2.325,3.199,3.142
		c-0.076,0.649-0.173,1.516-0.248,2.165c3.411,1.104,3.411,1.104,11.547,12.743c-2.556,8.95,10.352,17.131,15.059,17.29
		c0.087-0.58,0.132-1.268,0.138-1.953c0.007-0.745-0.034-1.495-0.129-2.127c0.171-0.006,0.272-0.008,1.055,0.338
		c0.729,0.324,2.062,0.956,4.6,2.18c1.021,0.489,2.234,1.078,3.686,1.775c0.573,0.514,1.053,0.938,1.45,1.294
		c0.399,1.216,0.882,2.616,1.274,3.722c-0.273-0.138-0.303-0.156-6.327-5.547c-0.271-0.24-0.533-0.479-0.827-0.738
		c-1.527,6.259,5.825,7.805,6.927,12.67c0.045,0.199,0.099,0.394,0.121,0.604c-0.443,0.499-0.943,1.108-1.423,1.725
		c-0.396,0.512-0.78,1.024-1.097,1.481c1.386,3.101,2.933,6.589,0.838,14.015c-0.175,0.621-0.365,1.261-0.595,1.938
		c-0.416-0.097-0.928-0.215-1.398-0.324c-0.201-0.046-0.396-0.091-0.572-0.131c-0.041,0.611-0.174,1.329-0.37,2.024
		c-0.187,0.664-0.43,1.31-0.713,1.822c-0.602,0.063-1.293,0.244-1.963,0.487c-0.656,0.238-1.29,0.539-1.791,0.856
		c4.481,6.041,15.516,5.875,16.261,15.429c0.037,0.469,0.058,0.953,0.042,1.472c-4.969,2.23-10.965,1.227-15.658,4.312
		c-0.511,0.334-1.009,0.7-1.482,1.143c5.871,6.857,5.223,17.021,11.887,23.479c12.446-1.824,3.065,17.07,4.495,26.283
		c-1.081,1.203-1.877,2.295-2.75,4.299c-0.814,1.397-1.583,3.285-2.616,6.529c-1.561,4.901-3.26,9.76-4.929,14.627
		c-1.521,4.437-3.017,8.881-4.354,13.377c-2.604,8.733,2.015,17.258,2.407,25.905c0.132,2.854-0.196,5.72-1.396,8.609l15.686,28.562
		c3.785,1.393,7.03,3.649,10.233,5.977c2.659,1.93,5.292,3.908,8.18,5.475c2.789-3.172,12.737-8.834,21.219-13.166
		c6.291-3.215,11.774-5.695,12.923-5.881c2.104,2.98,2.427,4.115,2.984,8.084c5.371-2.822,5.371-2.822,8.129-2.777
		c0.283,0.953,0.939,2.185,0.939,3.176l-0.91,39.525c-0.338,5.453-3.069,13.354-3.618,14.879c-0.287,0.809-3.63,10.066-9.658,22.236
		c-6.375,12.869-15.754,28.99-27.704,41.832c-1.241,1.334-2.51,2.635-3.806,3.891h0.004l0,0v-0.002h0.008v-0.004l0.001-0.004h0.002
		c8.161-5.102,23.473-21.688,31.253-31.293c13.256-17.904,14.052-18.975,20.896-30.986c3.168-6.19,5.414-10.58,7.141-14.051
		c4.769-9.482,5.87-12.311,9.359-21.814c7.104-22.364,7.382-23.239,9.859-36.516c3.297-23.299,3.563-25.201,3.73-40.919
		C787.682,281.307,787.438,271.917,786.813,264.91z M681.676,276.631c0.688-0.43,1.368-0.807,2.076-1.295
		C683.062,275.799,682.35,276.236,681.676,276.631z M725.479,149.389c0.105-0.121,0.164-0.33,0.159-0.67
		c0.85,1.129,1.093,1.664,1.089,2.385c1.816,0.791,2.011,0.875,3.488,2.354c-0.265-0.796-0.751-2.272-0.58-3.219
		c0.089-0.489,0.357-0.83,0.934-0.854c0.429-0.019,1.019,0.133,1.838,0.54c0.953,0.472,5.729,3.704,7.234,6.147
		c0.896,1.453,1.354,2.494,1.537,3.253c0.514,2.104-1.146,1.938-1.825,1.786c-0.524-0.116-1.09-0.37-1.539-0.598
		c-0.161-0.08-0.312-0.158-0.436-0.226c-0.682,0.663-0.562,1.932-0.29,4.114c0.111,0.908,0.159,1.541,0.153,2.029
		c-0.008,0.703-0.131,1.099-0.36,1.498c-3.479,3.748-13.488-19.201-13.579-19.449C724.305,149.188,725.144,149.771,725.479,149.389z
		 M696.715,181.971c0.458-0.367,0.964-0.647,1.488-0.895c1.646-0.771,3.5-1.178,4.771-2.621c0.646-0.734,0.945-1.336,1.058-2.021
		c0.115-0.713,0.026-1.52-0.104-2.67c0.362-0.226,0.723-0.277,1.077-0.26c0.783,0.039,1.557,0.455,2.344,0.367
		c3.898,4.205,5.076,5.477,10.646,7.25c4.021,1.277,6.237,1.984,10.05,6.49c0.01,0.014,0.516,1.021,0.399,2.17
		c-0.042,0.42-0.161,0.854-0.425,1.271c-0.536,0.851-1.401,1.229-2.246,1.64c-0.586,0.283-1.161,0.58-1.609,1.063
		c1.653,2.438,4.633,2.174,6.893,3.387c0.063-0.972-0.304-1.765-0.754-2.521c-0.461-0.778-1.009-1.521-1.271-2.383
		c0.868-1.125,0.354-2.366,0.183-3.582c0.203-0.563,0.208-1.131,0.14-1.614c0.041-0.097,0.086-0.188,0.144-0.285
		c0.021-0.01,0.023-0.01,0.023-0.012c-0.097-0.188-0.224-0.365-0.362-0.533c-1.09-1.313-3.298-2.046-3.48-3.769
		c-0.038-0.354,0-0.748,0.164-1.2c0.392,0.014,0.645,0.024,1.046,0.194c0.418,0.176,0.997,0.523,2.065,1.232
		c-0.579-1.102-1.412-1.887-2.348-2.54c-1.907-1.336-4.246-2.13-5.778-3.935c-0.25,0.343-0.344,0.472-0.642,0.649
		c-4.511,0.605-5.606-5.09-9.695-5.268c-2.258-3.074-2.776-3.857-2.408-5.396c0.603,0.299,1.102,0.784,1.663,1.157
		c0.378,0.249,0.781,0.449,1.269,0.507c0.146-0.183,0.277-0.474,0.341-0.699c0.688,0.588,1.562,1.426,2.289,1.957
		c3.522,2.563,8.156,2.608,11.677,5.178c3.125,2.279,4.094,6.375,7.252,8.632c1.324,0.95,1.435,1.028,3.45,2.177
		c0.54,2.33,2.586,3.68,3.686,5.646c0.066-0.228,0.208-0.515,0.34-0.713c0.021,0,0.021,0,1.386,0.174
		c0.069-0.106,0.166-0.254,0.242-0.364c-0.271-0.431-0.604-0.815-0.938-1.201c-0.43-0.495-0.858-0.987-1.177-1.563
		c0.104,0.101,0.238,0.236,0.344,0.338c0.116-0.016,0.271-0.034,0.393-0.049c-0.188-1.199-0.526-1.439-1.145-1.879
		c0.052-0.103,0.112-0.233,0.16-0.336c1.344-0.315,1.175-1.021,1.001-1.354c-0.055-0.104-0.107-0.176-0.118-0.186
		c-0.021-0.026-0.048-0.052-0.068-0.078c-2.06-2.53-5.163-3.891-7.217-6.426c0.02-0.106,0.055-0.25,0.074-0.359
		c0.533-0.071,1.071,0.144,1.602-0.034c-0.027-1.195-1.203-1.618-1.691-2.511c0.128,0.011,0.293,0.039,0.418,0.035
		c0.697-0.021,0.778-0.731,1.099-1.179c0.137-0.19,0.313-0.337,0.607-0.353c0.651-0.03,0.952,0.593,1.327,1.383
		c0.021,0.039,2.572,4.425,2.747,4.54c0.098-0.104,0.222-0.242,0.313-0.351c-0.104-0.472-0.187-0.769-0.456-1.181
		c0.372,0.511,0.972,1.349,1.982,2.752c-0.243-0.026-0.574-0.039-0.819-0.008c-0.065,0.381-0.1,0.617,0.161,0.961
		c0.093,0.092,0.175,0.192,0.263,0.287c0.113,0.11,0.245,0.229,0.417,0.371c0.245-0.032,0.552-0.159,0.757-0.293
		c1.659,0.565,3.508,4.657,3.522,4.696c-0.169-1.631,2.304-0.287,3.412-0.664c0.087-0.514,0.124-0.797-0.275-1.85
		c0.45,0.065,0.885,0.102,1.2-0.011c0.019-0.103,0.032-0.194,0.044-0.287c0.401-0.077,0.604-0.599,0.757-1.851
		c0.601,0.041,0.819-0.599,1.006-2.573c0.271,0.478,0.547,0.959,0.778,1.372c5.742,10.227,7.546,14.934,8.804,18.513
		c0.103,0.29,0.201,0.576,0.298,0.854c-0.364,0.718-1.17,0.923-1.8,1.33c-0.313,0.201-0.583,0.446-0.731,0.836
		c-0.249,0.642-0.248,1.354-0.122,2.194c0.076,0.503,0.197,1.05,0.338,1.649c-2.632,0.578-5.374,0.24-7.981,0.99
		c-1.489-2.24-2.525-2.156-3.209-1.424c-0.779,0.842-1.099,2.533-1.104,2.566c-0.107,0.701-0.133,0.912,0.938,3.352
		c0.077,0.176,0.16,0.361,0.248,0.563c0.314,0.708,0.706,1.576,1.189,2.646c0.126,0.278,0.253,0.56,0.394,0.867
		c-1.586,1.504-4.654,3.176-8.491-0.731c-0.508-0.519-1.026-1.123-1.56-1.849c-2.021-0.146-3.854,1.172-5.905,0.773
		c-1.7-0.328-2.25-0.854-3.44-2.271c-0.104-0.121-0.2-0.235-0.313-0.373c-0.177,0.086-0.283,0.222-0.365,0.373h-0.765v0.859
		c-1.079-1.859-0.31-4.089-1.138-6.003c0.483,0.334,0.483,0.334,0.981,2.035c0.18-0.556,0.349-1.082-0.399-2.127
		c-0.856-1.187-2.313-1.695-3.189-2.856c-0.913-1.212-0.102-2.638-0.479-3.916c-3.213-0.582-3.213-0.582-3.516-0.877
		c-2.048,2.565-2.738,3.43-7.202,5.52c-7.322,3.434-9.594,5.023-11.392,8.23c-0.328,0.584-0.644,1.23-0.967,1.942
		c-0.261,0.573-0.526,1.187-0.816,1.866c-2.507-0.344-4.395,2.014-6.917,1.578c-1.724-0.299-2.518-1.658-3.526-3.379
		c0.419-0.332,0.901-0.705,1.396-1.08c0.691-0.525,1.407-1.056,2.021-1.486c3.157-2.24,4.726-4.215,5.315-6.061
		c0.777-2.428-0.128-4.634-1.351-6.928c-1.846-3.46-1.225-4.732,2.231-11.813C698.803,184.799,697.485,183.566,696.715,181.971z
		 M663.875,113.389c-1.821-1.877-2.069-4.682-3.875-6.565c-1.396-1.462-3.979-1.572-4.529-3.988
		c-0.226-0.973,0.521-1.036,1.393-0.819l3.171,2.25c1.096,1.594,2.759,4.07,2.697,4.27c-0.116,0.051-0.281,0.094-0.404,0.107
		c0.38,0.271,0.72,0.51,1.068,0.76c8.587,6.1,8.633,6.137,9.16,6.604c-0.002,0.003-0.005,0.005-0.006,0.009
		c-0.192,0.354-0.601,0.328-0.889,0.508c-0.106,0.791,1.969,1.289,3.296,1.002c0.298-0.063,0.558-0.166,0.746-0.313
		c0.528-0.411,0.754-1.104,0.906-1.844c0.247-1.2,0.309-2.523,1.138-3.011c0.269-0.155,0.606-0.233,1.067-0.184
		c0.188,0.372,0.521,0.835,0.627,1.237c0.179,0.688,0.193,1.01-0.729,2.639c-0.821,1.457-0.203,2.636,0.128,3.269
		c0.98,1.884,2.392,2.66,2.649,2.048c0.188-0.45-0.331-0.914,0.033-1.357c0.077-0.09,0.313-0.147,1.009,0.101
		c0.308,0.24,0.606,0.488,0.913,0.729c0.869,0.688,1.737,1.378,2.597,2.08c0.06,0.129,0.113,0.312,0.144,0.451
		c-0.045,0.051-0.107,0.123-0.153,0.173c-0.367-0.042-0.704-0.198-1.035-0.375c-0.737-0.396-1.444-0.902-2.385-0.563
		c-0.118,0.047-0.197,0.281-0.144,0.394c0.244,0.481,0.725,1.036,1.072,1.453c1.668,2.018,4.112,3.209,5.698,5.317
		c0.385,0.51,0.603,1.078,0.769,1.666c0.248,0.871,0.379,1.783,0.748,2.612c-1.244-0.687-2.034-0.937-2.544-0.866
		c-0.813,0.109-0.908,1.039-0.955,2.357c-0.005,0.152-0.013,0.298-0.021,0.438c-0.133,1.979-0.764,2.545-3.358,0.933
		c-0.14-0.086-0.277-0.173-0.428-0.271c-0.143,0.182-0.217,0.385-0.269,0.596c-0.184,0.766,0.031,1.668-0.722,2.233
		c-1.117-1.884-1.785-4.03-3.21-5.739c-0.031-0.086-0.063-0.182-0.097-0.271c1.01,0.293,1.438,1.355,2.322,1.813
		c0.289-0.273,0.155-0.649,0.239-0.977c0.007-0.027,0.006-0.055,0.017-0.081c0.313-0.037,0.367-0.046,0.979,0.427
		c-0.237-1.172-1.303-1.748-1.901-2.658c-0.05-0.076-0.104-0.148-0.146-0.23c0.106-0.044,0.248-0.105,0.348-0.155
		c0.521-0.344,0.793-0.688,0.909-1.224c0.042-0.192,0.063-0.413,0.066-0.667c0.001-0.104,0.001-0.213-0.003-0.331
		c-2.442-1.707-4.404-3.959-6.651-5.889c0.165-4.104-2.584-5.486-4.923-5.93C667.762,117.055,667.354,116.977,663.875,113.389z"/>
	<path fill="#542954" d="M499.442,82.833c1.168,0.037,4.021-0.547,4.146-0.572c0.449-0.093,0.988-0.417,1.431-0.549
		c0.47-0.144,0.966-0.182,1.438-0.322c0.245-0.074,0.569-0.183,0.81-0.259c-0.047-0.222-0.12-0.268-0.325-0.412
		c-1.155-0.512-3.76-0.38-8.198,0.412c0.103,0.236,0.095,0.387-0.044,0.811C498.536,82.419,498.411,82.797,499.442,82.833z"/>
	<path fill="#542954" d="M497.714,86.835c1.583,0.7,2.833,1.251,6.585-0.082c0.375-0.134,0.864-0.333,1.237-0.477
		c-0.546-1.209-0.546-1.209,2.185-2.657c-2.644,0.4-2.644,0.4-3.525,0.605c-0.015,0.275-0.02,0.355-0.784,0.733
		c-0.889,0.439-0.935,0.509-1.159,0.845c-0.19-0.063-0.19-0.063-0.457-0.365c0.024-0.229,0.123-0.545,0.267-0.725
		c0.614-0.745,1.396-1.326,2.021-2.058c0.041,0,0.099,0.003,0.136,0.013c0.035,0.057,0.035,0.057,0.021,0.185
		c0.021,0.019,0.039,0.044,0.056,0.063c0.558,0.007,1.608-0.538,1.806-0.709c-0.007-0.018-0.011-0.044-0.019-0.062
		c-0.25-0.045-0.523,0.082-0.757-0.098c-0.753,0.154-1.427,0.568-2.196,0.666c-0.003-0.021-0.008-0.044-0.008-0.064
		c-0.954-0.363-5.359,0.937-5.857,1.085c-0.012,0.002-0.86,0.555-0.686,0.868c0.087,0.146,0.396,0.217,0.645,0.27
		c0.461,0.105,0.608,0.146,0.654,0.341c0.016,0.063-0.3,0.547-0.479,0.427c-0.092-0.064-0.041-0.18-0.089-0.258
		c-0.183-0.036-0.302-0.059-1.599,0.499c0.018,0.043,0.042,0.096,0.058,0.141c-0.146,0.143-0.146,0.143-0.523,0.317
		C496.185,86.341,496.646,86.362,497.714,86.835z"/>
	<path fill="#542954" d="M408.365,125.791c0.971-1.008,1.86-2.092,2.901-3.033c1.58-1.422,2.879-2.301,3.371-2.629
		c-0.279-0.24,0.006-0.521-0.037-0.779c-0.213-0.271-1.203,0.559-1.213,0.566c-3.312,3.307-5.027,5.236-5.107,5.742
		C408.275,125.695,408.266,125.775,408.365,125.791z"/>
	<path fill="#542954" d="M518.211,87.805c1.08-0.199,1.336-0.249,1.514-0.068c0.005,0.007,0.011,0.015,0.017,0.018
		c0.503-0.318,1.55-0.985,1.149-1.102c-0.01-0.001-0.026-0.003-0.04-0.007c-0.361-0.042-1.14,0.155-1.146,0.158
		C519.699,86.806,519.109,87.116,518.211,87.805z"/>
	<path fill="#542954" d="M601.832,82.713c0.428,0.073,0.779-0.251,1.195-0.244c0.229,0.003,0.56,0.045,0.563,0.047
		c1.524,0.331,2.917,1.087,4.438,1.432c0.6,0.135,0.6,0.135,3.787,0.436c-5.206-2.589-6.042-3.22-6.223-3.425
		c-0.024-0.03-0.038-0.051-0.048-0.067c0.362-0.063,1.597,0.293,4.249,1.23c-0.356-0.411,0.728-0.272,1.004-0.576
		c0.001-0.001,0.005-0.002,0.005-0.003c-0.078-0.102-1.005-0.807-1.929-1.001c-0.153-0.032-0.309-0.054-0.458-0.053
		c-1.975,0.025-4.269-0.563-6.286-1.079c0.625-0.11,1.795-0.312,0.903-0.992c-0.161-0.123-0.663-0.425-1.53-0.773
		c-1.245-0.507-2.237-0.316-2.855-0.072c-0.433,0.17-0.687,0.366-0.688,0.371c-0.061,0.161-0.08,0.33-0.093,0.5
		c-0.146,0.148-0.266,0.333-0.444,0.442h-0.002c0.127,0.05,0.263,0.104,0.401,0.157c-0.021,0.173-0.056,0.345-0.142,0.506
		c0.56,0.403,1.25,0.482,1.856,0.763c-2.142-0.231-2.142-0.231-2.229-0.219c-0.398,0.056-0.517,0.469-0.814,0.651l-0.004,0.001
		h-0.002c1.748,0.682,4.745,1.845,4.745,1.845C601.413,82.632,601.654,82.683,601.832,82.713z"/>
	<path fill="#542954" d="M509.252,85.054c-0.929,0.321-1.793,0.782-2.675,1.207c-0.183,0.087-0.36,0.175-0.544,0.257
		c0.034,0.104,0.083,0.242,0.118,0.343c-0.179,0.334-0.417,0.633-0.599,0.968c0.027,0.094,0.065,0.224,0.101,0.316
		c0.302,0.053,0.45,0.074,1.091-0.038c0.029,0.008,0.057,0.017,0.088,0.023c-1.613,1.013-1.515,1.302-1.347,1.728
		c0.395,0.153,1.023,0.399,2.527-0.237c0.205-0.087,0.426-0.188,0.665-0.311c-0.107,0.095-0.229,0.241-0.305,0.365
		c0.291,0.157,0.291,0.157,0.881-0.034c-0.16,0.084-0.369,0.191-0.535,0.273c-0.007,0.004-0.017,0.008-0.021,0.012
		c-0.596,0.358-0.794,0.484-1.165,0.952c-0.184,0.229-0.401,0.533-0.734,0.999c0.792-0.44,1.583,0.269,2.374,0
		c0.873-0.292,1.547-0.833,2.172-1.437c0.57-0.552,1.102-1.153,1.692-1.677c0.198-0.091,0.397-0.179,0.599-0.27
		c0.096,0.111,0.208,0.182,0.657,0.461c-0.448,1.144-1.73,1.379-2.719,1.937c-0.604,0.342-1.101,0.806-1.219,1.677
		c0.075,0.054,0.165,0.152,0.256,0.175c0.933,0.256,1.875-0.161,2.808,0.061c1.721,0.409,3.165,1.523,4.881,1.944
		c0.272,0.066,1.057,0.185,1.707,0.174c3.688-0.066,3.57-2.566,3.563-2.593c-0.002-0.006-0.008-0.009-0.009-0.015
		c-0.276-0.984-2.646-0.93-4.071-0.897c-2.901,0.069-4.008-0.153-2.883-1.652c2.664,0.019,5.21,1.024,7.882,0.957
		c-0.007,0.063-0.021,0.138-0.038,0.218c-0.036,0.166-0.098,0.361-0.202,0.568c0.019,0.027,0.034,0.056,0.051,0.08
		c1,0.018,3.438-0.1,4.459-1.564c-0.187-0.113-0.187-0.113-0.657-0.047c-0.013-0.079-0.022-0.183-0.037-0.262
		c1.269-0.545,1.465-0.628,3.594-1.167c0.537-0.136,1.794-0.453,2.468-0.718c0.264-0.105,0.611-0.249,0.875-0.354
		c0.045-0.019,0.082-0.048,0.123-0.072c0.254-0.146,0.436-0.362,0.594-0.601c0.008-0.013,0.017-0.025,0.023-0.039
		c0.256-0.39,0.479-0.813,0.938-1.004c2.332-0.966,4.813-1.479,7.234-2.167c1.504-0.427,2.983-0.921,4.395-1.634
		c0.438-0.22,1.009-0.531,1.438-0.763c-0.362-0.201-0.702-0.376-1.034-0.54c-0.113-0.056-0.228-0.112-0.337-0.164
		c-1.462-0.688-2.721-1.042-4.413-1.272c-2.625-0.27-2.625-0.27-5.881,0.693c-0.69-0.524-1.979-0.851-6.734,0.299
		c0.039,0.088,0.086,0.213,0.122,0.305c-0.394,0.521-0.972,0.897-1.215,1.542c-0.266-0.068-0.266-0.068-0.078-1.709
		c-0.794-0.887-6.063,0.81-7.253,2.681c0.021,0.078,0.049,0.18,0.068,0.254c0.167,0.003,0.393-0.013,0.557-0.044
		c-0.091,0.042-0.207,0.094-0.295,0.136c-0.358,0.161-0.646,0.315-0.896,0.465c-2.251,1.347-0.485,2.215-0.461,2.222
		c0.101,0.03,0.211,0.045,0.321,0.059c0.007,0.001,0.015,0.003,0.021,0.004c0.442,0.052,0.959-0.004,1.457-0.106
		c0.327-0.015,0.656-0.019,0.985-0.024c-0.071,0.049-0.149,0.102-0.215,0.146c-0.089,0.108-0.203,0.249-0.292,0.356
		c0.175,0.147,0.428,0.328,0.644,0.403c-0.15,0.39-0.646,0.749-1.001,0.966c0.874-0.928-0.022-1.053-0.129-1.062
		c-0.646-0.069-1.563,0.389-1.906,0.562c0.063,0.032,0.148,0.071,0.212,0.104c-0.185,0.423-0.874,0.642-1.719,0.727
		c-0.909,0.092-1.997,0.026-2.844-0.119c-0.76-0.131-1.321-0.325-1.37-0.526c-0.019-0.08-0.005-0.198,0.028-0.327
		c-0.377,0.104-0.754,0.208-1.126,0.324c0.104-0.136,0.193-0.282,0.264-0.456c-0.603-0.375-0.603-0.375-0.76-0.599
		c-0.314,0.233-0.604,0.498-0.886,0.773c-0.192,0.312-0.368,0.646-0.56,0.956c-0.393,0.637-0.854,1.165-1.687,1.154
		c-0.13-0.002-0.267-0.014-0.416-0.043c-0.027-0.058-0.053-0.13-0.072-0.202c-0.026-0.092-0.047-0.187-0.051-0.265
		c-0.332-0.098-0.41-0.122-1.867,0.531c0.95-0.743,2.031-1.276,3.05-1.909c0.238-0.148,0.479-0.296,0.707-0.46
		c-0.232-0.337-0.465-0.617-0.785-0.796c-0.649-0.362-1.677-0.303-3.886,0.593c0.771-0.584,0.869-0.659,1.016-0.998
		C508.808,85.388,508.866,85.343,509.252,85.054z M530.199,85.096c0.372-0.147,0.428-0.027,0.451,0.02
		c-0.032,0.019-0.076,0.049-0.104,0.073c-0.617,0.424-0.886,0.555-0.856,0.417c0.011-0.061,0.094-0.174,0.138-0.232
		c-0.382,0.274-0.78,0.576-0.988,0.789c-0.068-0.007-0.138-0.013-0.206-0.02C529.062,85.761,529.764,85.267,530.199,85.096z"/>
	<path fill="#542954" d="M518.034,84.423c-0.604-0.244-1.141,0.897-1.048,1.272c0.058,0.232,0.807,0.457,1.755,0.583
		c0.233-0.108,0.521-0.252,0.901-0.446c-0.291-0.157-0.643-0.122-0.934-0.279c0.202-0.271,0.305-0.341,0.92-0.621
		c-0.021,0.064-0.05,0.151-0.068,0.212c0.355-0.1,0.355-0.1,1.017-0.462c-0.075-0.021-0.17-0.045-0.245-0.064
		c-0.056-0.197-0.009-0.375,0.055-0.551C518.968,84.783,518.913,84.776,518.034,84.423z"/>
	<path fill="#542954" d="M513.491,84.098c0.229-0.017,0.274,0.044,0.343,0.156c0.122,0.215,0.313,0.232,1.135-0.082
		c-0.03-0.036-0.03-0.036-0.117-0.063c-0.015-0.005-0.016-0.007-0.016-0.01h-0.005h-0.006c-0.021-0.009-0.041-0.025-0.06-0.041
		c0.041-0.222,0.525-0.364,0.606-0.268c0.084,0.096-0.056,0.284-0.219,0.502c-0.147,0.198-0.297,0.407-0.192,0.5
		c0.084,0.077,0.34,0.076,0.938-0.089c0.042-0.011,0.099-0.032,0.164-0.061c0.261-0.113,0.696-0.353,1.172-0.657
		c0.953-0.612,2.051-1.486,2.191-2.132c0.048-0.217-0.005-0.41-0.218-0.556c-0.072-0.049-0.184-0.096-0.264-0.129
		c-0.545-0.18-1.096-0.183-1.096-0.183c-0.013,0.003-0.911,0.322-1.693,0.882c-0.406,0.29-0.778,0.436-1.883,0.872
		c0.188,0.402,1.152,0.434,0.854,0.953C515.053,83.496,514.42,83.711,513.491,84.098z"/>
	<path fill="#542954" d="M544.419,84.237c-0.217,0.106-0.432,0.219-0.653,0.307c-0.021-0.065-0.039-0.132-0.057-0.188
		c-0.232,0.035-0.572,0.088-1.113,0.576c-0.064,0.059-0.132,0.12-0.203,0.192c0.04,0.087,0.093,0.208,0.135,0.297
		c0.443,0.062,0.904-0.01,1.34,0.145c0.01,0.104,0.019,0.242,0.021,0.342c-2.193,1.236-4.746,1.276-7.11,1.946
		c-0.042,0.012-0.084,0.028-0.127,0.041c-0.646,0.19-1.281,0.419-1.887,0.749c0.244,0.173,0.423,0.306,0.564,0.421
		c0.375,0.308,0.466,0.491,0.646,0.954c-0.052-0.009-0.083-0.006-0.41,0.189c-0.236,0.142-0.627,0.382-1.313,0.808
		c1.347,5.978,12.075,1.62,11.171,8.047c-0.198,1.394,0.012,2.785-0.005,4.18c-0.011,1.286-0.06,1.547-0.239,2.521
		c0.832-0.063,1.479-0.078,2-0.029c1.287,0.117,1.813,0.617,2.408,1.709c-0.063,0.039-0.132,0.078-0.188,0.113
		c0.011,0.058,0.023,0.104,0.037,0.151c-2.438-0.571-2.471-0.571-3.116-0.515c-0.118,0.461-0.118,0.461,0.193,1.404
		c-0.15,0.062-0.219,0.084-0.413-0.003c-0.144-0.062-0.35-0.177-0.711-0.382c-1.19,2.457,0.612,3.855,2.823,3.107
		c0.847-0.281,1.201-0.84,1.438-1.203c-0.694,0.031-0.981-0.002-1.132-0.503c0.203-0.033,0.411-0.079,0.624-0.151
		c0.053-0.02,0.086-0.043,0.136-0.063c0.521,0.153,0.612,0.215,1.009,0.494c0,0.012-0.007,0.491-0.027,1.071
		c-0.031,0.834-0.093,1.873-0.21,2.028c-1.493-0.524-2.646,0.093-3.473,1.226c-1.425,1.962-1.852,5.476-1.271,7.353
		c0.278,0.9,1.25,1.859,2.02,2.404c0.646,5.229,2.273,9.25,7.281,12.291c2.366,1.438,5.481,2.656,9.611,3.683
		c0.169-0.583,0.37-1.332,0.563-1.955c0.026-0.089,0.055-0.183,0.08-0.265c1.078-3.379,2.782-6.521,3.878-9.896
		c0.354-1.1,0.026-2.777,0.563-3.805c0.157-0.305,0.387-0.549,0.639-0.766c1.06-0.906,2.758-1.139,3.67-1.256
		c1.1-0.143,1.896-0.242,2.676-0.805c0.322-0.234,0.688-0.626,0.985-0.891c1.742-1.578,2.425-3.951,4.165-5.525
		c0.765-0.691,2.241-0.871,3.229-1.162c6.673-1.973,8.018-3.139,9.47-6.422c-0.021,0.001-0.037,0.002-0.06,0.002
		c0.116-0.176,0.229-0.357,0.335-0.549c0.031-0.055,0.063-0.105,0.094-0.162c-0.202-0.406-0.44-0.777-0.698-1.125
		c-0.137-0.184-0.271-0.361-0.414-0.527c-1.21-1.393-2.646-2.215-3.009-2.409c0.58-1.275-0.616-2.196-0.663-3.351
		c0.186-0.093,0.485-0.098,0.682-0.036c-0.522-2.21-0.531-2.315,0.594-3.816c0.048-0.064,0.085-0.115,0.138-0.184
		c-0.043-0.038-0.074-0.063-0.115-0.098c-1.433-1.233-1.563-1.194-2.364-0.876c0.047,0.475,0.047,0.475,1.521,1.564
		c-1.442,0.007-1.442,0.007-1.688-0.196c-0.016-0.309-0.016-0.309-3.397-3.817c0.054-0.08,0.122-0.188,0.177-0.27
		c0.892,0.487,1.573,1.313,2.604,1.563c-1.146-0.912-1.368-3.428-3.359-2.843c-1.578-0.906-1.85-2.734-2.857-4.038
		c-0.185,0.687,0.453,1.256,0.282,1.941c-0.487-0.866-1.521-1.28-1.885-2.25c-0.487-1.302-0.205-2.696-0.474-4.025
		c-0.021-0.092-0.041-0.219-0.06-0.313c-4.237-0.91-3.692,0.295-3.399,0.941c-0.522-0.467-0.522-0.467-0.871-0.616
		c-0.058,0.19-0.127,0.442-0.178,0.635c-0.251-0.036-0.574-0.18-0.782-0.324c0.08-0.044,0.188-0.104,0.27-0.146
		c-0.13-0.254-0.295-0.568-1.241-0.59c0.164,0.226,0.462,0.468,0.7,0.613c-0.282,0.11-0.282,0.11-2.156-0.663
		c0.094-0.059,0.219-0.137,0.313-0.198c-0.046-0.122-0.105-0.291-0.15-0.416c-3.929-1.392-6.848-1.381-8.956-1.216
		c-3.375,0.414-6.424,2.33-9.923,2.203h-0.023c-0.102-0.007-0.231-0.013-0.329-0.02c-0.039,0-0.049-0.002-0.06-0.002
		c-3.245-0.15-6.35,1.433-7.915,2.393C544.672,84.076,544.536,84.16,544.419,84.237z"/>
	<path fill="#542954" d="M648.32,127.551c-0.031-0.039-0.073-0.086-0.104-0.125c-0.494-0.57-1.456-1.41-1.935-1.254
		c-0.058,0.023-0.087,0.047-0.126,0.098c0.771,0.84,1.541,1.688,2.306,2.539C649.234,128.893,648.735,128.061,648.32,127.551z"/>
	<path fill="#542954" d="M675.813,154.65c-0.113-0.113-0.207-0.207-0.298-0.301c-0.431-0.453-0.753-0.926-2.63-3.668
		c-1.506-2.207-1.662-2.438-3.854-1.705c-2.647-2.479-2.647-2.479-9.875-6.4c-2.378-1.295-3.378-2.033-3.381-2.039
		c-0.212-0.266-0.238-0.764-0.318-1.098c-0.438-1.76-0.729-2.295-1.688-3.658c-1.324,0.061-2.514,1.305-3.938,0.438
		c-0.057-2.123-0.088-2.732-1.546-4.17c-0.151-0.148-0.304-0.299-0.487-0.469c0.069,0.15,0.164,0.35,0.233,0.497
		c0.015,0.067,0.023,0.128,0.034,0.188c0.105,0.631,0.005,0.975-0.871,1.799c-0.021,0.02-0.036,0.037-0.058,0.057
		c-1.247,1.193-1.364,1.896,0.178,4.044c-0.771-0.396-1.356-0.479-1.753-0.249c-0.092,0.553,0.423,1.041,0.583,1.18
		c0.164,0.141,0.508,0.098,0.682,0.223c1.398,1.003,2.044,2.967,4.059,3.178c-0.987,0.346-1.256,0.624-0.752,1.563
		c0.083,0.153,0.184,0.322,0.311,0.521c0.543-0.056,0.743-0.604,1.183-0.81c0.249,0.25,0.271,0.27,0.536,1.047
		c0.595,0.08,0.478-0.627,0.595-1.104c0.311,0.062,0.603,0.157,0.883,0.272c0.736,0.772,0.875,2.022,1.761,2.684
		c0.205-0.053,0.403-0.107,0.607-0.161c0.56-0.146,1.116-0.291,1.665-0.438c0.814,0.882,1.794,1.597,2.665,2.423
		c0.421,0.397,0.822,0.815,1.156,1.305c-0.302,0.083-0.614,0.162-0.92,0.244c-0.687,0.185-1.369,0.367-2.068,0.547
		c0.763,1.331,2.196,1.996,3.202,3.084c0.206,0.226,0.401,0.46,0.563,0.729c-0.15,0.089-0.281,0.166-0.405,0.24
		c-1.006,0.604-1.188,0.793-1.264,1.563c0.288,0.272,0.684,0.644,1.12,0.715c0.683,0.104,1.304-0.308,1.979-0.229
		c0.998,1.822,0.014,3.736,0.269,5.598C667.726,159.445,673.071,159.068,675.813,154.65z"/>
	<path fill="#542954" d="M645.052,137.564c0.038-0.492,0.08-1.002-0.31-1.777c-0.174-0.342-0.457-0.596-0.6-0.531
		c-0.212,0.203-0.152,0.557-0.405,0.732c-0.214,0.147-0.502,0.043-0.64-0.01c0.878,1.076,2.088,2.547,0.895,2.438
		c-0.081-0.01-0.172-0.023-0.233-0.037c0.937,1.191,1.557,1.768,2.227,2.045C645.039,139.08,644.976,138.494,645.052,137.564z"/>
	<path fill="#542954" d="M616.724,118.089c-1.302-2.036-5.941-2.256-6.401-2.213c-1.813,0.163-1.813,0.163-7.104,3.452
		c-1.35-1.896-1.89-1.939-4.16-2.119c0.003,0.154,0.003,0.361,0.003,0.516c-0.09,0.185-0.218,0.334-0.355,0.477
		c-0.342,0.348-0.766,0.626-0.964,1.096c-0.142,0.344,0.063,0.862,0.161,1.217c0.935,0.116,1.781-0.457,2.711-0.354
		c0.063,0.146,0.139,0.293,0.202,0.407c0.244-0.034,0.461-0.063,0.673-0.092c0.236,0.197,0.271,0.439,0.008,0.633
		c-0.558,0.41-1.278-0.152-1.829,0.298c-0.234,0.196,0.049,0.713,0.219,1.021c2.334-0.331,3.063-0.361,4.365,1.102
		c-0.769,0.152-1,0.199-0.427,1.148c7.604,1.356,11.035-0.972,13.843-4.885c-0.095-0.118-0.174-0.244-0.248-0.373
		C617.164,118.984,616.993,118.512,616.724,118.089z"/>
	<path fill="#542954" d="M657.858,154.152c0.067-0.492,0.129-0.916-0.619-1.885c-0.771-1.004-1.893-1.678-2.614-2.729
		c0.125-0.532,0.618-0.97,0.413-1.588c-0.383-1.177-2.664-2.993-5.087-2.319c-0.323,0.109-0.645,0.24-0.962,0.367
		c-0.499,0.201-0.996,0.404-1.502,0.581c0.292,0.624,0.539,1.155,0.697,1.603c0.32,0.899,0.275,1.457-0.494,1.743
		c-0.354,0.132-0.86,0.208-1.563,0.231c0.473,0.75,0.476,1.701,1.049,2.41c0.058,0.063,0.361,0.418,1.215,0.875
		c1.145,0.604,1.333,0.771,2.032,1.758c-0.562,1.01-1.189,2.156,0.172,3.982c0.008,0.01,1.554,0.682,2.938,0.189
		c1.925-0.684,2.709-3.057,4.916-3.323c-0.388-0.604-0.563-0.897-0.614-1.231C657.808,154.629,657.818,154.43,657.858,154.152z"/>
	<path fill="#542954" d="M462.627,286.166c-0.095-1.076,0.815-1.768,1.053-2.713c0.157-0.631-0.223-0.902-0.586-1.111
		c-0.005,0.029-0.012,0.068-0.017,0.094c-0.123,0.336-0.403,0.291-1.231-0.021c-1.604-0.608-2.317-0.614-2.589,0.946
		c0.473,0.264,0.657,0.455,1.072,1.309C460.767,285.572,461.146,286.352,462.627,286.166z"/>
	<path fill="#542954" d="M497.619,310.512c-0.316,0.187-0.689,0.355-1.42,0.262c-0.027,0.521-0.057,1.035-0.076,1.554
		c0.031,0,0.064,0,0.098,0.006h0.019c0.521,0.062,0.824,0.146,1.271,0.49c0.145,0.108,0.257,0.196,0.398,0.209
		c0.271,0.022,0.602-0.253,0.894-0.494c0.022-0.517,0.048-1.031,0.076-1.554c-0.417-0.436-0.635-0.62-0.91-0.616
		C497.846,310.391,497.812,310.402,497.619,310.512z"/>
	<path fill="#542954" d="M550.887,385.771c-2.823-7.588-11.142-11.679-12.758-20.031c-15.891-9.795-15.891-9.795-21.717-7.705
		c-7.403-5.338-12.439-13.049-19.13-19.104c0.401-0.695,0.938-1.625,1.34-2.32c-0.644-0.312-1.5-0.723-2.139-1.031
		c-0.226,0.783-0.522,1.83-0.749,2.613c-2.389-2.924-6.518-3.033-9.103-5.639c-0.234,1.454-1.321,3.258-2.352,4.313
		c-0.925-0.341-1.729-0.634-2.442-0.892c-0.236-0.084-0.455-0.162-0.672-0.24c-4.234-1.502-5.056-1.528-9.779-1.661
		c-0.782-4.058-4.824-5.537-6.83-8.634c-0.422,1.438-1.274,3.31-2.209,4.48c-0.562-1.494-1.09-3.568-1.366-5.139
		c-0.156,0.01-15.91,2.168-16.904,10.211c-1.312,0.775-2.894,2.107-3.892,3.26c-0.553-0.203-1.071-0.396-1.577-0.58
		c-0.392-0.145-0.769-0.283-1.134-0.416c-9.901-3.631-10.034-3.59-11.623-3.023c-8.159-4.329-9.901-17.188-3.521-25.954
		c0.068-0.771,0.142-1.543,0.215-2.314c-2.091-2.532-2.116-2.557-17.604-8.016v-0.791c3.848-6.813,5.188-14.681,8.945-21.527
		c-2.089-1.146-5.793-2.762-8.945-1.94c-0.572,0.147-1.123,0.384-1.646,0.711c-1.718,1.072-3.1,3.195-3.682,6.994
		c-0.394,0.14-0.684,0.242-1.048,0.345c-0.992,0.276-2.549,0.562-8.356,1.616c-0.432-0.483-0.823-1.008-1.195-1.549
		c-6.63-9.647-4.104-27.845,2.693-37.832c1.396-2.056,2.978-3.746,4.691-4.959c0.701-0.496,1.422-0.916,2.167-1.238
		c1.633-0.703,3.36-0.975,5.155-0.688c0.41,0.065,0.815,0.161,1.221,0.271c3.146,0.851,6.074,2.894,8.273,4.437
		c5.905-3.223,11.752,0.714,17.633,0.136c1.677,20.44,1.677,20.44,1.71,20.558c-1.229,0.894-2.829,2.129-4.011,3.084
		c12.248,2.883,10.256-12.271,9.604-17.248c-0.793-6.03-0.793-6.03,12.068-19.358c0.512,0.09,1.023,0.182,1.538,0.271
		c-0.192-0.076-0.389-0.156-0.591-0.226c-0.54-0.183-0.31-1.05,0.238-0.86c0.644,0.219,1.254,0.477,1.849,0.771
		c14.754-17.506,14.804-17.589,18.886-25.146c1.398-0.036,3.261-0.101,4.655-0.156c0.36-0.562,0.838-1.31,1.196-1.87
		c1.322-0.037,3.115,0.225,4.37,0.649c0.628-0.362,1.468-0.854,2.098-1.22c-0.479-0.539-1.121-1.252-1.604-1.789
		c1.783-3.803,3.805-8.11,17.829-9.543l-0.731,0.349c-0.976,1.2-1.864,3.155-2.178,4.673c1.651-0.023,3.883-0.563,5.354-1.316
		c19.355,10.74,18.582-6.66,17.885-12.25c5.835,0.469,5.835,0.469,8.046,0.908c0.175,0.646,0.403,1.5,0.577,2.143
		c-0.084,0.791-0.08,0.791-0.077,0.791c1.432-0.441,3.25-1.389,4.422-2.324c0.18,0.767,0.422,1.791,0.604,2.561
		c0.661,0.234,1.539,0.553,2.198,0.788c1.162-1.112,2.28-3.062,2.771-4.594c-0.598-0.322-1.395-0.747-1.989-1.065
		c1.255-3.488,1.255-3.488-7.57-7.529c0.534-1.318,1.521-2.977,2.421-4.075c-1.007,0.021-2.351,0.043-3.356,0.063
		c-3.33,3.697-5.399,8.418-9.396,11.58c-4.026-8.043-11.42-2.447-15.381,4.094c0.148-1.623,0.703-3.76,1.336-5.258
		c-0.67-0.039-1.563-0.094-2.233-0.131c1.438-0.646,3.209-1.865,4.365-2.938c-0.419-0.59-0.976-1.375-1.392-1.963
		c-3.947-0.668-5.277-0.893-11.486,1.848c0.89-1.229,2.738-2.479,4.229-2.775c0.951,0.058,0.951,0.058,0.951,0.058h0.003h0.004
		l0.005,0.004h0.004h0.006c0.5-0.634,1.166-1.474,1.67-2.106c25.996-2.519,25.996-2.519,31.046-5.634
		c0.258-1.676,0.519-3.339,0.784-4.985c-4.843-3.047-7.128-4.484-8.892-8.063c-1.573-3.195-2.731-8.098-4.924-17.378
		c-5.325,5.466-6.494,5.608-9.626,5.991c-1.818-2-2.497-2.747-0.396-6.818c-4.252-6.619-4.252-6.619-12.42-7.882
		c-1.515,2.217-2.666,3.901-3.582,5.228c-3.041,4.396-3.368,4.643-4.731,5.627c3.685,10.521-9.423,12.854-9.562,12.865
		c-2.111,7.174-2.111,7.174-6.406,10.682c-0.451-0.666-1.044-1.558-1.496-2.224c1.086-0.897,2.08-2.672,2.365-4.053
		c-0.519-0.593-1.205-1.377-1.722-1.968c0.786-1.323,1.884-3.057,2.771-4.313c-4.899-2.949-6.862-8.838-11.771-11.785
		c-0.458-2.716,0.48-5.346,0.473-8.037c1.603-1.596,1.646-1.631,27.912-13.731c-0.027,0.196-0.055,0.394-0.076,0.593
		c-3.25,2.764-3.349,2.83-5.812,4.493c0.314,0.64,0.734,1.496,1.048,2.138c1.341-0.148,3.105-0.646,4.325-1.228
		c0.078,0.047,0.166,0.093,0.248,0.14c1.241,0.689,2.963,1.319,4.313,1.53c0.254-2.976-1.081-5.886-0.371-8.879
		c0,0.661,0,1.55,0,2.211c2.329-2.396,6.193-2.476,8.16-5.416c0.617,0.267,1.44,0.618,2.056,0.884
		c-0.011,0.061-1.464,6.139-4.201,8.782c8.328,4.437,8.328,4.437,9.026,7.882c2.469,0.588,4.604,1.971,6.923,2.911
		c0.204-0.696,0.479-1.632,0.687-2.328c-0.339-0.608-0.795-1.413-1.138-2.021c1.297,0.565,2.914,1.621,3.932,2.604
		c1.082-0.867,2.513-2.035,3.576-2.924c-2.663-7.252-2.663-7.252-2.656-8.252c1.283,0.86,2.738,2.461,3.438,3.843
		c2.486-0.074,2.486-0.074,6.718-3.373c-1.563-3.011-4.623-4.779-6.331-7.667c0.441-0.521,1.038-1.221,1.479-1.741
		c-0.392-1.609-0.392-1.609-6.12-9.018c0.217-0.749,0.508-1.743,0.723-2.492c-0.168-0.075-16.841-7.133-19.994,4.957
		c0.511,0.464,1.188,1.088,1.697,1.555c-1.047,1.334-2.701,2.913-4.062,3.928c-0.652-0.18-1.521-0.416-2.174-0.596
		c0.362-0.592,0.844-1.379,1.209-1.969c-2.144-5.471-1.402-5.783,10.905-11.028c-1.464-1.24-2.132-1.803-4.224-1.774
		c-1.746,0.024-4.481,0.46-9.51,1.263c-0.354,0.619-0.829,1.441-1.188,2.06c0.543,0.41,1.263,0.959,1.803,1.374
		c-2.868,2.826-2.868,2.826-8.376,3.834c3.124-7.902,3.124-7.902,9.007-9.9c-0.56-0.438-1.301-1.026-1.855-1.466
		c-1.597,0.786-3.68,1.932-5.197,2.853c0.757-0.519,1.767-1.21,2.524-1.729c-0.358-0.595-0.84-1.386-1.194-1.98
		c0.724-1.395,1.796-3.211,2.744-4.469c-0.104-0.222-0.251-0.517-0.356-0.739c-1.703-0.56-3.822-1.255-12.396,2.934
		c0.656,0.489,1.529,1.142,2.187,1.626c0.99-0.213,2.313-0.531,3.319-0.654c-4.012,1.291-4.012,1.291-6.434,2.854
		c0.064,0.674,0.149,1.573,0.215,2.249c-4.669-0.359-5.045,0.534-6.438,3.853c-0.252-1.334-0.206-3.212,0.144-4.523
		c-0.543-0.398-1.267-0.928-1.808-1.326c0.61-0.27,1.428-0.633,2.035-0.904l1.4-0.693c-0.002,0-0.002-0.004-0.002-0.004v-0.001
		h-0.002V89.16c-0.685,0.165-1.589,0.384-2.273,0.549c0.506-0.512,1.182-1.196,1.688-1.709c-1.132-1.138-3.015-2.296-4.507-2.888
		c4.35-3.707,9.35-6.514,13.822-10.051c-2.767-0.529-2.767-0.529-14.385,4.019c0.544-0.278,1.104-0.553,1.68-0.827
		c0.623-0.241,1.459-0.563,2.084-0.804c-9.209,2.98-23.654,12.122-29.61,15.391l-1.325,1.05c-2.332,1.382-0.001,0.001-2.307,1.426
		c-0.178,0.029-0.356,0.058,0,0.001c-0.331,0.167-0.22,0.11-0.062,0.03c-0.225,0.116-0.096,0.05,0.056-0.027
		c-0.347,0.243-0.295,0.226-0.142,0.134c-6.209,5.728-12.1,11.804-18.516,17.308c1.401-0.994,3.264-2.337,4.645-3.363
		c-9.678,9.488-9.678,9.488-9.824,10.115c-1.373,1.06-2.732,2.135-4.076,3.228c-1.934,2.768-3.774,5.405-5.545,7.94
		c-3.307,3.058-6.02,6.875-7.874,11.278c-31.69,45.409-31.893,45.899-33.683,50.291c-3.864,9.465-0.735,19.91-4.134,29.438
		c-0.616,1.729-1.087,3.426-1.447,5.071c-0.165,0.755-0.304,1.494-0.423,2.228c-0.44,2.72-0.583,5.275-0.539,7.593
		c0.043,2.276,0.264,4.321,0.547,6.062c0.631,3.849,1.573,6.196,1.601,6.236c0.259-2.938,0.494-5.607,0.712-8.077
		c0.131-1.485,0.255-2.893,0.373-4.221c0.299-3.377,0.557-6.263,0.78-8.733c0.032-0.365,0.065-0.736,0.098-1.084
		c1.2-13.188,1.383-13.726,2.036-15.634c0.535,0.533,1.25,1.25,1.784,1.786c-1.05,4.904-1.841,9.51-2.417,13.848
		c-0.033,0.245-0.067,0.493-0.099,0.737c-0.406,3.172-0.695,6.198-0.877,9.08c-0.068,1.104-0.121,2.185-0.16,3.246
		c-0.944,25.731,6.846,39.521,13.503,47.008c0.031,0.035,0.063,0.067,0.094,0.103c2.604,2.91,5.026,4.859,6.674,6.186
		c0.713-0.275,1.667-0.645,2.381-0.915c0.782,0.579,1.669,1.347,2.625,2.245c1.52,1.431,3.222,3.208,4.995,5.171
		c8.125,8.989,17.711,21.769,17.809,21.916c-0.093,1.81-0.169,3.621-0.231,5.435c5.295,2.604,7.494,8.858,13.104,11.086
		c-0.063,0.659-0.151,1.545-0.22,2.209c1.316,0.471,3.003,1.317,4.161,2.102c0.426-0.555,0.996-1.297,1.424-1.854
		c-0.349-0.623-0.808-1.447-1.154-2.07c0.998-0.963,2.629-1.982,3.955-2.383c0.648,1.205,1.668,2.733,2.545,3.783
		c1.391,6.118,2.306,10.149,2.644,13.26v0.531h0.052c0.508,5.639-1.04,8.252-5.347,15.487c-0.675,0.135-1.571,0.313-2.249,0.446
		c-0.387,4.355-1.751,8.597-1.563,13.023h0.003c0,0,0.003,0,0.003,0.002c0,0,0,0,0,0.002h0.004h0.005c0,0,0.002,0,0.002,0.002h0.003
		c1.278,0.84,2.813,2.252,3.762,3.453c-0.746,0.381-1.742,0.891-2.488,1.271c-1.802,5.836,0.217,9.535,0.237,9.568
		c6.174,10.547,17.46,17.396,21.371,29.577c0.086,0.263,0.086,0.263,20.887,17.047c5.265,4.248,7.352,9.834,8.243,15.923v15.813
		h0.891c0.479,10.867,2.312,21.164,15.461,26.697c-0.448-0.539-1.047-1.264-1.496-1.803c1.229,0.711,2.695,2.01,3.507,3.188
		c0.462-0.104,8.475,0.084,3.741-0.088c5.37,0.195-0.849-0.037,0.697,0.465c0.457,0.697,5.362,0.967,2.09,2.559
		c7.998,4.814,12.566,7.265,22.076,7.902c-8.707-2.787-8.604-1.113-10.927-5.475c-0.649-0.148-1.514-0.351-2.162-0.5
		c0.615-1.283,1.017-3.211,0.994-4.631c0.673,0.137,1.57,0.319,2.243,0.454c-1.102-0.762-2.828-1.44-4.154-1.625
		c1.465-0.635,3.612-1.063,5.211-1.116c0.099-0.73,0.229-1.701,0.326-2.433c7.288-0.606,7.348-0.649,10.359-2.942
		c-0.264-0.896-0.609-2.095-0.875-2.992c12.909-5.662,12.909-5.662,21.959-16.605c-0.896-7.385-0.896-7.385,24.122-14.082
		c2.128-3.688,5.057-6.838,7.104-10.575c0.769-2.056,1.396-2.076,2.023-2.095c0.522-13.481,11.451-21.592,16.813-32.577
		c2.711-5.547,1.486-9.179-0.21-14.199C581.816,402.734,568.298,388.605,550.887,385.771z M440.892,170.074
		c5.192-2.602,7.757-3.326,12.608-2.413c-0.507,1.06-1.365,2.882,0.237,3.577c0.302,0.131,0.682,0.227,1.176,0.266
		c-0.578,1.068-0.696,1.29-0.836,2.799c-0.004,0.043-0.012,0.073-0.017,0.113c-0.075,0.697-0.252,1.127-0.676,1.613
		c-0.183,0.209-0.479,0.438-0.685,0.627c0.051-1.168-0.361-1.678-1.262-1.813c-0.922-0.138-2.358,0.123-4.345,0.485
		c0.033-0.876-0.705-1.566-0.594-2.461c0.087-0.711,0.137-0.803,0.925-1.535c0.061-0.057,0.113-0.104,0.184-0.17
		c-0.062,0.006-0.12,0.021-0.182,0.027c-2.231,0.293-4.318,1.475-6.66,1.135c-0.729-0.238-1.133-0.547-1.721-1.313
		C439.704,170.674,440.312,170.365,440.892,170.074z M443.635,185.721c-0.614,1.053-1.147,2.258-1.623,3.709
		c-0.2,0.609-0.395,1.256-0.575,1.963c-1.572-0.732-1.806,2.072-3.404,1.404c-0.079-1.753,0.808-4.181,2.073-6.458
		c0.576-1.038,1.231-2.042,1.915-2.938c0.935-1.223,1.914-2.248,2.808-2.861c-0.167-0.301-0.167-0.301-0.357-0.49
		c0-0.023,0.002-0.035,0.32-0.568c0.148-0.252,0.383-0.645,0.709-1.188c0.082-0.139,0.155-0.264,0.252-0.422
		c0.247,0.17,0.416,0.245,0.717,0.324c0.705,0.135,1.162,0.092,2.283-0.131c0.031-0.008,0.059-0.012,0.092-0.019
		c0.567-0.112,0.998-0.179,1.327-0.153c0.362,0.028,0.604,0.168,0.755,0.492c-0.104,0.086-0.24,0.201-0.349,0.285
		C447.391,181.236,445.234,182.98,443.635,185.721z M459.757,193.38c-2.822,2.192-5.939,2.429-10.26,2.754
		c0.305-0.467,0.819-1.253,1.677-1.917c0.496-0.385,1.104-0.729,1.858-0.941c0.831-0.234,1.524-0.295,2.377-0.31
		c0.83-0.016,1.658,0.04,2.485,0.095c0.72,0.045,1.438,0.092,2.155,0.086C459.965,193.216,459.848,193.313,459.757,193.38z
		 M469.969,190.336c-1.673,2.852-5.485,1.762-8.01,1.041c-1.265-0.361-1.945-0.545-2.49-0.49c0.854-0.729,1.775-1.229,2.792-1.543
		c1.943-0.602,4.284-0.451,7.354,0.428c0.19,0.056,0.367,0.095,0.564,0.153C470.117,190.047,470.036,190.214,469.969,190.336z"/>
	<path fill="#542954" d="M445.49,260.928c0.536,1.25,0.785,1.65,1.371,1.891c0.291-0.487,0.57-0.948,0.754-1.604
		c0.897-3.175-2.371-4.713-5.529-6.205c-0.042,0.141-0.102,0.327-0.145,0.469c-0.552,2.127-0.313,3.291,0.87,4.301
		C444.3,258.408,444.799,259.326,445.49,260.928z"/>
	<path fill="#542954" d="M475.897,299.469c-0.409,3.799,5.81,3.209,7.244,2.092c0.106-0.082,0.238-0.209,0.318-0.319
		c0.036-0.048,0.072-0.121,0.104-0.175c-1.226-1.018-1.976-1.463-3.438-1.594C478.72,299.391,477.307,299.521,475.897,299.469z"/>
	<path fill="#542954" d="M456.198,278.363c0.017-0.028,0.041-0.065,0.06-0.094c-0.63-0.328-1.028-1.014-1.798-1.119
		c-0.17-0.017-0.281-0.017-0.477,0c-0.146,1.017-0.292,2.029-0.435,3.041C454.827,280.494,455.313,279.736,456.198,278.363z"/>
	<path fill="#542954" d="M439.891,261.959c-1.584,5.063-1.097,8.785,0.246,11.497c1.104,2.233,2.791,3.782,4.379,4.827
		c2.082,1.371,3.994,1.877,4.199,1.93c0.646-0.732,0.815-0.928,0.379-1.658c-0.879-1.453-0.586-2.796,0.603-2.756
		c2.425,0.08,2.425,0.08,2.506-0.021c0.044-0.055,0.104-0.12,0.139-0.18c0.337-0.58-0.896-2.211-0.913-2.223
		c-0.399-0.295-1.086-0.23-2.262-0.094c-0.525-1.969-1.353-3.834-1.99-5.766c1.486,0.184,1.912,0.781,2.162,1.141
		c0.444-2.336,0.264-2.58-1.482-4.896c-0.965,2.154-1.821,2.527-2.551,1.111c-0.342,2.521-0.342,2.521,1.545,8.029
		c-0.618,0.906-1.215,1.17-2.55,1.125c0.295-2.058,0.309-2.948-0.155-5.76c-0.475-2.885-0.303-3.848,1.021-5.742
		c-1.837,0.065-3.219-1.201-4.878-1.647C440.168,261.197,440.01,261.631,439.891,261.959z"/>
	<path fill="#542954" d="M455.982,298.627c3.554,0.146,4.875,0.6,5.673,2.996c2.09-3.275,2.59-3.188,10.982-1.738
		c0.057-0.664,0.113-1.328,0.172-1.992c0.031-0.365,0.063-0.731,0.096-1.1c-5.676-3.305-9.424-5.484-13.726-5.977
		c-0.396-0.023-0.752-0.034-1.083-0.029c-1.043,0.014-1.836,0.18-2.896,0.566c1.056,0.381,1.604,0.77,1.861,1.123
		c-0.019,0.391-0.002,0.713,0.089,0.91c-0.134,0.233-0.355,0.393-0.479,0.426c-0.147,0.039-0.356,0.015-0.511,0.021
		c-0.02,0.284-0.032,0.554-0.032,0.796c0,0.323,0.028,0.592,0.141,0.725c0.554,0.662,1.444,0.688,2.111,1.136
		c-0.221,0.149-0.427,0.252-0.629,0.331c-0.271-0.019-0.539-0.035-0.845-0.049c-0.433-0.019-0.828-0.041-1.19-0.071
		c-0.33-0.124-0.69-0.284-1.105-0.479c-0.709-0.33-1.34-0.584-2.001-0.724c-0.484-0.103-0.985-0.151-1.562-0.085
		C451.294,298.002,452.496,298.484,455.982,298.627z"/>
	<path fill="#542954" d="M437.204,271.063c0.261-1.152-0.348-2.215-1.356-2.359c-0.988-0.049-1.237,0.895-1.319,1.199
		c0.641,0.89,1.431,1.273,2.646,1.285C437.184,271.148,437.194,271.102,437.204,271.063z"/>
	<path fill="#542954" d="M421.57,273.736c-0.369,0.539-0.721,1.152-1.081,1.854c1.619-0.053,2.681,0.628,4.277,1.738
		c2.772,1.936,4.398,2.559,7.316-0.081c4.146,3.421,6.201,6.185,8.813,11.815c1.471-0.373,2.541-0.356,5.439,0.104
		c0.025,0.006,0.05,0.011,0.076,0.014c2.289,0.379,4.269,0.707,5.893,0.424c0.2-0.033,0.462-0.104,0.659-0.15
		c-0.258-0.584-0.582-1.109-0.944-1.604c-2.941-4.02-8.854-5.484-9.939-11.088c-10.457-5.264-10.457-5.264-14.083-5.814
		C424.594,270.84,422.948,271.73,421.57,273.736z"/>
</g>
</svg>
