<?xml version="1.0" encoding="utf-8"?>
<!-- Generator: Adobe Illustrator 15.0.2, SVG Export Plug-In . SVG Version: 6.00 Build 0)  -->
<!DOCTYPE svg PUBLIC "-//W3C//DTD SVG 1.1//EN" "http://www.w3.org/Graphics/SVG/1.1/DTD/svg11.dtd">
<svg version="1.1" id="Calque_1" xmlns="http://www.w3.org/2000/svg" xmlns:xlink="http://www.w3.org/1999/xlink" x="0px" y="0px"
	 width="1016px" height="322px" viewBox="0 0 1016 322" enable-background="new 0 0 1016 322" xml:space="preserve">
<g opacity="0.02">
	<circle fill="#9595A4" cx="721.342" cy="349.268" r="464.162"/>
</g>
<g>
	<path fill="#542954" d="M1177.452,285.42c0.47,3.36,0.943,6.647,1.346,9.549C1178.396,291.688,1177.932,288.527,1177.452,285.42z"
		/>
	<path fill="#542954" d="M803.29-81.134c0,0.005-0.011,0.019-0.02,0.025c-0.207,0.134-0.524-0.052-0.671,0.254
		c0.202,0.246,1.183,0.529,3.462,1.1c-1.43-0.471-1.816-0.632-1.872-0.806c0.14-0.176,0.428-0.097,0.557-0.306
		c-0.033-0.105-0.071-0.259-1.489-0.751c-0.197-0.074-0.462-0.161-0.671-0.23c0.28,0.117,0.283,0.129,0.302,0.182
		c-0.114,0.023-0.384-0.011-1.311-0.182c-0.841-0.162-0.853-0.155-0.889-0.127c0,0.004,1.018,0.381,1.815,0.562
		C803.227-81.245,803.261-81.164,803.29-81.134z"/>
	<path fill="#542954" d="M1179.537,301.769l-0.128-1.158c-1.838-15.974-5.354-30.808-9.839-44.673
		c-1.742-8.237-3.104-14.506-4.316-19.718c-2.021-8.709-3.633-14.497-5.923-21.605v-9.506v-13.064h-4.663h-3.351
		c-4.272-11.046-9.14-23.615-13.511-33.363l-0.593-1.272c-3.782-8.063-9.28-18.583-13.327-26.515
		c-22.036-37.094-24.377-41.035-38.185-59.06c0.987,1.299,1.998,2.646,3.05,4.052l12.798,18.121c0.046,0.07,0.108,0.171,0.152,0.244
		c-5.732-7.196-10.46-15.141-16.378-22.202l-21.372-22.866c-4.039-4.302-5.47-6.858-5.487-6.878
		c0.092-0.044,0.193-0.086,0.275-0.123c1.949,1.464,6.017,4.896,12.386,11.935c-18.483-21.922-22.456-25.962-40.559-42.941
		c-26.079-22.412-46.666-40.109-85.723-62.6c-18.192-10.332-37.386-19.038-57.42-25.985c-2.206-0.766-4.43-1.499-6.653-2.221
		c-0.482-0.157-0.96-0.327-1.442-0.48l0.021,0.063c0.361,0.812,0.795,1.789,1.209,2.721c0.232,0.531,0.465,1.051,0.668,1.509
		c1.45,0.157,1.45,0.157,27.533,17.582c-2.346-0.763-5.628-1.371-8.09-1.476c2.527,1.613,5.817,3.676,9.308,5.848
		c3.437,2.138,7.063,4.381,10.365,6.415c6.34,3.908,11.451,7.031,11.551,7.097c-0.162,0.057-0.349,0.122-0.524,0.184
		c-1.043,0.368-2.267,0.796-3.227,1.131c2.346,1.465,5.878,2.801,8.588,3.39c-4.107,0.796-4.107,0.796-21.268-6.613
		c1.454-0.474,3.336-1.431,4.514-2.641c0.29-0.299,0.552-0.607,0.733-0.935c-0.466-0.402-0.879-0.754-1.312-1.076
		c-3.088-2.284-7.321-2.844-41.313-7.117c-0.48-0.06-0.942-0.118-1.431-0.181c-0.674,2.17-0.625,5.432,0.232,7.615
		c-0.018,0.031-0.04,0.068-0.053,0.098c0.048,0.067,0.119,0.136,0.167,0.205c0,0,0,0,0,0.002c-0.617,1.07-1.439,2.495-2.062,3.568
		c1.619,2.204,4.329,4.718,6.493,6.376c-0.154,1.318-0.352,3.078-0.504,4.395c6.925,2.241,6.925,2.241,23.44,25.868
		c-5.188,18.167,21.013,34.774,30.565,35.097c0.178-1.178,0.269-2.573,0.281-3.964c0.014-1.512-0.069-3.035-0.262-4.318
		c0.346-0.012,0.552-0.016,2.142,0.686c1.479,0.658,4.183,1.941,9.335,4.425c2.072,0.993,4.537,2.188,7.483,3.603
		c1.162,1.043,2.136,1.903,2.942,2.627c0.811,2.468,1.789,5.311,2.588,7.555c-0.557-0.28-0.615-0.317-12.845-11.26
		c-0.551-0.488-1.082-0.972-1.679-1.499c-3.1,12.705,11.825,15.843,14.061,25.719c0.092,0.404,0.2,0.798,0.245,1.225
		c-0.899,1.013-1.913,2.25-2.887,3.501c-0.806,1.038-1.584,2.079-2.228,3.006c2.813,6.294,5.954,13.375,1.701,28.449
		c-0.354,1.261-0.741,2.559-1.207,3.935c-0.844-0.196-1.883-0.437-2.839-0.658c-0.408-0.094-0.802-0.185-1.16-0.266
		c-0.084,1.242-0.354,2.698-0.751,4.11c-0.38,1.348-0.874,2.658-1.447,3.699c-1.223,0.128-2.626,0.496-3.985,0.989
		c-1.333,0.484-2.619,1.094-3.637,1.738c9.098,12.263,31.496,11.926,33.009,31.32c0.075,0.95,0.116,1.934,0.085,2.987
		c-10.086,4.526-22.258,2.488-31.784,8.752c-1.037,0.678-2.048,1.421-3.011,2.318c11.918,13.921,10.603,34.549,24.13,47.661
		c25.266-3.701,6.223,34.651,9.124,53.353c-2.194,2.443-3.809,4.659-5.582,8.727c-1.652,2.836-3.213,6.668-5.31,13.255
		c-3.169,9.948-6.618,19.811-10.005,29.69c-3.088,9.006-6.124,18.025-8.837,27.153c-5.288,17.728,4.089,35.033,4.886,52.584
		c0.268,5.796-0.398,11.611-2.833,17.478l31.84,57.978c7.683,2.827,14.271,7.408,20.773,12.132
		c5.397,3.917,10.742,7.934,16.604,11.113c5.661-6.438,25.855-17.933,43.072-26.727c12.77-6.525,23.9-11.56,26.232-11.938
		c4.271,6.05,4.927,8.354,6.057,16.41c10.904-5.729,10.904-5.729,16.502-5.638c0.575,1.935,1.906,4.434,1.906,6.446l-1.848,80.233
		c-0.686,11.067-6.229,27.106-7.343,30.202c-0.584,1.642-7.37,20.433-19.606,45.137c-12.94,26.125-31.979,58.848-56.236,84.916
		c-2.519,2.707-5.096,5.349-7.725,7.897h0.008l0,0v-0.003h0.016v-0.009l0.001-0.01h0.005c16.566-10.354,47.648-44.021,63.439-63.521
		c26.909-36.343,28.524-38.516,42.419-62.898c6.43-12.564,10.99-21.475,14.495-28.521c9.679-19.247,11.915-24.989,18.999-44.281
		c14.421-45.398,14.983-47.173,20.013-74.123c6.692-47.294,7.233-51.156,7.572-83.062
		C1181.301,335.054,1180.807,315.992,1179.537,301.769z M966.12,325.561c1.396-0.871,2.777-1.636,4.214-2.628
		C968.933,323.871,967.487,324.761,966.12,325.561z M1055.035,67.271c0.215-0.246,0.332-0.67,0.322-1.359
		c1.727,2.292,2.219,3.378,2.212,4.841c3.687,1.605,4.081,1.776,7.08,4.779c-0.536-1.616-1.524-4.613-1.179-6.533
		c0.181-0.994,0.726-1.685,1.896-1.734c0.869-0.039,2.067,0.269,3.73,1.096c1.936,0.958,11.63,7.519,14.686,12.479
		c1.818,2.95,2.747,5.062,3.119,6.602c1.043,4.272-2.326,3.936-3.704,3.626c-1.064-0.236-2.212-0.751-3.125-1.213
		c-0.326-0.162-0.632-0.321-0.883-0.458c-1.385,1.346-1.14,3.921-0.59,8.352c0.227,1.843,0.323,3.128,0.313,4.119
		c-0.016,1.427-0.267,2.229-0.732,3.042c-7.063,7.607-27.38-38.977-27.563-39.48C1052.652,66.863,1054.355,68.048,1055.035,67.271z
		 M996.648,133.411c0.93-0.746,1.956-1.315,3.021-1.817c3.342-1.567,7.104-2.389,9.684-5.321c1.311-1.491,1.919-2.71,2.146-4.104
		c0.235-1.447,0.055-3.084-0.212-5.419c0.735-0.458,1.467-0.563,2.186-0.528c1.591,0.08,3.161,0.924,4.759,0.746
		c7.912,8.535,10.305,11.117,21.609,14.717c8.163,2.592,12.662,4.029,20.4,13.175c0.02,0.028,1.047,2.071,0.812,4.404
		c-0.086,0.853-0.329,1.735-0.863,2.579c-1.089,1.727-2.845,2.496-4.559,3.328c-1.191,0.574-2.358,1.177-3.269,2.156
		c3.355,4.949,9.404,4.414,13.993,6.876c0.126-1.973-0.618-3.582-1.531-5.119c-0.936-1.579-2.048-3.088-2.581-4.836
		c1.762-2.284,0.719-4.805,0.37-7.271c0.413-1.143,0.423-2.296,0.283-3.277c0.084-0.196,0.175-0.382,0.292-0.579
		c0.043-0.021,0.048-0.021,0.048-0.023c-0.197-0.383-0.454-0.741-0.734-1.082c-2.213-2.666-6.696-4.153-7.066-7.651
		c-0.078-0.718,0-1.517,0.334-2.435c0.794,0.028,1.308,0.05,2.122,0.395c0.849,0.357,2.025,1.061,4.191,2.5
		c-1.174-2.235-2.865-3.828-4.764-5.155c-3.872-2.712-8.62-4.324-11.729-7.988c-0.51,0.696-0.698,0.958-1.304,1.319
		c-9.156,1.23-11.381-10.332-19.681-10.692c-4.583-6.24-5.635-7.83-4.889-10.953c1.225,0.607,2.237,1.592,3.376,2.35
		c0.768,0.505,1.586,0.912,2.574,1.028c0.296-0.37,0.564-0.961,0.692-1.419c1.398,1.193,3.17,2.894,4.647,3.973
		c7.151,5.202,16.556,5.295,23.702,10.51c6.344,4.626,8.311,12.94,14.721,17.522c2.688,1.929,2.912,2.088,7.004,4.418
		c1.097,4.73,5.249,7.471,7.479,11.463c0.137-0.463,0.424-1.046,0.69-1.448c0.043,0,0.043,0,2.813,0.354
		c0.142-0.218,0.338-0.517,0.492-0.74c-0.552-0.876-1.227-1.655-1.905-2.438c-0.873-1.005-1.742-2.004-2.389-3.174
		c0.211,0.203,0.485,0.479,0.698,0.687c0.237-0.033,0.551-0.07,0.796-0.101c-0.383-2.434-1.068-2.921-2.322-3.813
		c0.104-0.208,0.228-0.475,0.325-0.683c2.727-0.641,2.384-2.072,2.032-2.747c-0.112-0.21-0.219-0.357-0.241-0.377
		c-0.042-0.053-0.096-0.105-0.138-0.159c-4.181-5.135-10.48-7.896-14.648-13.042c0.037-0.217,0.109-0.509,0.149-0.73
		c1.082-0.145,2.174,0.291,3.251-0.07c-0.057-2.426-2.442-3.283-3.435-5.096c0.261,0.021,0.595,0.079,0.851,0.071
		c1.414-0.043,1.578-1.484,2.229-2.392c0.277-0.387,0.634-0.684,1.232-0.716c1.323-0.062,1.935,1.203,2.694,2.807
		c0.045,0.079,5.223,8.982,5.577,9.216c0.197-0.211,0.45-0.492,0.637-0.712c-0.213-0.958-0.379-1.56-0.926-2.396
		c0.755,1.037,1.972,2.738,4.023,5.585c-0.493-0.052-1.165-0.079-1.663-0.015c-0.134,0.771-0.201,1.251,0.328,1.95
		c0.188,0.186,0.354,0.391,0.532,0.583c0.23,0.224,0.498,0.466,0.847,0.753c0.497-0.064,1.121-0.323,1.536-0.595
		c3.369,1.148,7.12,9.453,7.15,9.533c-0.344-3.311,4.677-0.583,6.926-1.35c0.178-1.042,0.252-1.616-0.559-3.752
		c0.914,0.132,1.797,0.206,2.436-0.022c0.038-0.208,0.065-0.396,0.09-0.583c0.815-0.157,1.226-1.216,1.537-3.758
		c1.219,0.084,1.663-1.214,2.042-5.222c0.55,0.97,1.109,1.945,1.579,2.784c11.656,20.759,15.317,30.315,17.87,37.58
		c0.209,0.59,0.409,1.169,0.604,1.734c-0.738,1.458-2.374,1.874-3.654,2.7c-0.633,0.408-1.183,0.905-1.483,1.696
		c-0.504,1.303-0.503,2.752-0.248,4.455c0.155,1.021,0.399,2.131,0.686,3.348c-5.342,1.174-10.907,0.488-16.201,2.01
		c-3.022-4.546-5.126-4.376-6.514-2.889c-1.583,1.707-2.23,5.143-2.241,5.21c-0.22,1.422-0.271,1.85,1.902,6.803
		c0.156,0.357,0.324,0.732,0.504,1.142c0.637,1.438,1.432,3.198,2.415,5.372c0.255,0.564,0.512,1.136,0.798,1.76
		c-3.219,3.053-9.448,6.446-17.237-1.484c-1.03-1.052-2.082-2.28-3.165-3.753c-4.103-0.297-7.824,2.379-11.987,1.57
		c-3.45-0.666-4.567-1.731-6.983-4.609c-0.211-0.248-0.406-0.479-0.634-0.759c-0.359,0.175-0.575,0.45-0.741,0.759h-1.554v1.743
		c-2.19-3.774-0.627-8.301-2.308-12.185c0.98,0.678,0.98,0.678,1.991,4.129c0.365-1.128,0.708-2.195-0.811-4.315
		c-1.738-2.41-4.693-3.441-6.475-5.8c-1.854-2.459-0.206-5.354-0.973-7.948c-6.523-1.183-6.523-1.183-7.138-1.78
		c-4.156,5.207-5.558,6.963-14.619,11.204c-14.863,6.969-19.474,10.196-23.124,16.706c-0.665,1.186-1.306,2.498-1.962,3.943
		c-0.528,1.164-1.068,2.408-1.658,3.787c-5.088-0.696-8.919,4.089-14.039,3.204c-3.5-0.605-5.111-3.365-7.159-6.858
		c0.85-0.674,1.83-1.431,2.835-2.192c1.402-1.066,2.855-2.142,4.101-3.017c6.41-4.549,9.593-8.556,10.791-12.303
		c1.578-4.928-0.262-9.405-2.741-14.063c-3.747-7.023-2.486-9.606,4.529-23.978C1000.886,139.151,998.21,136.649,996.648,133.411z
		 M929.987-5.805c-3.696-3.81-4.202-9.503-7.865-13.327c-2.834-2.967-8.077-3.191-9.195-8.096c-0.457-1.975,1.058-2.103,2.827-1.661
		l6.438,4.566c2.224,3.234,5.6,8.262,5.475,8.666c-0.235,0.103-0.57,0.19-0.822,0.219c0.772,0.55,1.463,1.034,2.17,1.542
		C946.444-1.516,946.536-1.439,947.607-0.49c-0.003,0.006-0.009,0.01-0.011,0.018c-0.391,0.718-1.22,0.667-1.805,1.031
		c-0.215,1.606,3.996,2.617,6.69,2.034c0.605-0.129,1.133-0.337,1.515-0.636c1.071-0.834,1.531-2.242,1.839-3.743
		c0.502-2.436,0.627-5.122,2.309-6.111c0.547-0.315,1.233-0.474,2.168-0.373c0.383,0.756,1.056,1.695,1.272,2.512
		c0.363,1.397,0.392,2.05-1.48,5.356c-1.668,2.957-0.413,5.351,0.26,6.635c1.99,3.823,4.854,5.399,5.378,4.156
		c0.382-0.914-0.672-1.855,0.067-2.754c0.156-0.183,0.636-0.3,2.048,0.204c0.623,0.487,1.23,0.991,1.854,1.48
		c1.764,1.397,3.526,2.797,5.271,4.223c0.121,0.262,0.229,0.632,0.292,0.916c-0.092,0.103-0.219,0.25-0.312,0.351
		c-0.746-0.085-1.43-0.402-2.101-0.761c-1.498-0.805-2.934-1.832-4.841-1.142c-0.241,0.095-0.4,0.571-0.292,0.799
		c0.495,0.978,1.471,2.104,2.177,2.95c3.385,4.095,8.347,6.513,11.565,10.793c0.783,1.035,1.223,2.188,1.562,3.382
		c0.504,1.769,0.77,3.619,1.518,5.302c-2.524-1.394-4.129-1.901-5.163-1.758c-1.65,0.222-1.844,2.109-1.939,4.786
		c-0.01,0.309-0.024,0.604-0.044,0.888c-0.269,4.016-1.549,5.165-6.817,1.893c-0.281-0.174-0.563-0.351-0.866-0.55
		c-0.29,0.37-0.441,0.781-0.546,1.209c-0.373,1.555,0.063,3.386-1.466,4.534c-2.268-3.823-3.624-8.181-6.515-11.65
		c-0.064-0.174-0.13-0.369-0.197-0.551c2.05,0.594,2.921,2.751,4.715,3.679c0.586-0.555,0.314-1.318,0.484-1.983
		c0.015-0.055,0.013-0.11,0.035-0.164c0.636-0.075,0.744-0.093,1.986,0.866c-0.482-2.379-2.645-3.548-3.859-5.396
		c-0.103-0.154-0.211-0.301-0.298-0.467c0.216-0.09,0.502-0.214,0.705-0.315c1.057-0.698,1.609-1.398,1.847-2.483
		c0.084-0.392,0.125-0.839,0.134-1.354c0.003-0.212,0.003-0.433-0.007-0.672c-4.956-3.466-8.939-8.036-13.5-11.954
		c0.334-8.33-5.246-11.136-9.993-12.036C937.876,1.637,937.047,1.478,929.987-5.805z"/>
	<path fill="#542954" d="M596.201-67.83c2.371,0.076,8.165-1.11,8.416-1.161c0.912-0.189,2.005-0.847,2.903-1.114
		c0.953-0.292,1.96-0.37,2.919-0.654c0.497-0.15,1.155-0.372,1.643-0.526c-0.094-0.45-0.243-0.544-0.66-0.836
		c-2.346-1.039-7.632-0.771-16.641,0.836c0.208,0.48,0.191,0.786-0.089,1.647C594.365-68.67,594.111-67.903,596.201-67.83z"/>
	<path fill="#542954" d="M592.696-59.707c3.214,1.422,5.749,2.54,13.366-0.166c0.761-0.272,1.754-0.677,2.511-0.969
		c-1.107-2.454-1.107-2.454,4.437-5.393c-5.367,0.813-5.367,0.813-7.157,1.229c-0.029,0.558-0.04,0.72-1.592,1.487
		c-1.805,0.892-1.897,1.033-2.354,1.715c-0.387-0.127-0.387-0.127-0.928-0.74c0.049-0.464,0.25-1.106,0.541-1.472
		c1.247-1.512,2.833-2.692,4.103-4.178c0.082,0,0.2,0.007,0.274,0.027c0.071,0.116,0.071,0.116,0.042,0.375
		c0.042,0.039,0.08,0.089,0.113,0.127c1.133,0.014,3.265-1.092,3.666-1.439c-0.015-0.037-0.021-0.089-0.038-0.126
		c-0.508-0.091-1.063,0.167-1.536-0.199c-1.529,0.313-2.896,1.153-4.457,1.352c-0.007-0.043-0.018-0.089-0.018-0.13
		c-1.937-0.736-10.879,1.902-11.89,2.203c-0.024,0.003-1.747,1.127-1.391,1.762c0.175,0.296,0.803,0.44,1.308,0.547
		c0.935,0.213,1.234,0.297,1.328,0.693c0.031,0.127-0.609,1.109-0.974,0.867c-0.187-0.129-0.082-0.365-0.182-0.524
		c-0.369-0.073-0.611-0.119-3.244,1.013c0.037,0.087,0.086,0.195,0.117,0.287c-0.297,0.29-0.297,0.29-1.063,0.643
		C589.591-60.709,590.526-60.667,592.696-59.707z"/>
	<path fill="#542954" d="M411.326,19.371c1.97-2.045,3.776-4.246,5.889-6.157c3.207-2.886,5.844-4.67,6.843-5.336
		c-0.567-0.488,0.011-1.059-0.075-1.582c-0.434-0.549-2.443,1.133-2.462,1.149c-6.723,6.711-10.205,10.629-10.368,11.656
		C411.141,19.176,411.124,19.339,411.326,19.371z"/>
	<path fill="#542954" d="M634.303-57.737c2.191-0.405,2.712-0.506,3.072-0.139c0.01,0.015,0.021,0.031,0.034,0.037
		c1.021-0.646,3.145-2,2.333-2.237c-0.02-0.002-0.055-0.006-0.082-0.014c-0.732-0.085-2.313,0.314-2.327,0.321
		C637.323-59.765,636.124-59.135,634.303-57.737z"/>
	<path fill="#542954" d="M804.045-68.074c0.867,0.149,1.582-0.509,2.427-0.496c0.462,0.007,1.136,0.092,1.143,0.097
		c3.095,0.671,5.922,2.206,9.01,2.906c1.218,0.274,1.218,0.274,7.688,0.884c-10.566-5.254-12.264-6.535-12.631-6.952
		c-0.049-0.061-0.077-0.102-0.096-0.135c0.733-0.127,3.24,0.594,8.624,2.497c-0.724-0.834,1.476-0.552,2.038-1.169
		c0.002-0.001,0.009-0.004,0.009-0.006c-0.158-0.207-2.04-1.638-3.915-2.032c-0.311-0.065-0.626-0.11-0.929-0.107
		c-4.008,0.051-8.666-1.142-12.76-2.191c1.268-0.223,3.642-0.633,1.833-2.013c-0.327-0.25-1.347-0.863-3.105-1.569
		c-2.529-1.029-4.543-0.641-5.798-0.146c-0.878,0.345-1.394,0.743-1.396,0.753c-0.124,0.327-0.163,0.669-0.189,1.014
		c-0.297,0.301-0.539,0.676-0.901,0.897h-0.005c0.258,0.103,0.533,0.21,0.816,0.32c-0.043,0.35-0.114,0.7-0.289,1.026
		c1.136,0.819,2.538,0.979,3.769,1.549c-4.346-0.469-4.346-0.469-4.525-0.444c-0.809,0.114-1.048,0.952-1.652,1.322l-0.01,0.002
		h-0.003c3.549,1.384,9.632,3.745,9.632,3.745C803.193-68.238,803.683-68.134,804.045-68.074z"/>
	<path fill="#542954" d="M616.116-63.322c-1.885,0.652-3.641,1.587-5.43,2.45c-0.372,0.177-0.731,0.355-1.104,0.522
		c0.069,0.211,0.168,0.491,0.238,0.696c-0.362,0.678-0.845,1.285-1.214,1.965c0.056,0.19,0.134,0.454,0.204,0.641
		c0.612,0.109,0.914,0.15,2.215-0.077c0.059,0.017,0.114,0.035,0.178,0.047c-3.274,2.057-3.075,2.643-2.733,3.508
		c0.801,0.31,2.076,0.81,5.129-0.481c0.418-0.176,0.865-0.381,1.352-0.631c-0.219,0.193-0.467,0.488-0.619,0.74
		c0.59,0.319,0.59,0.319,1.787-0.069c-0.324,0.17-0.748,0.388-1.086,0.554c-0.012,0.009-0.033,0.017-0.044,0.024
		c-1.208,0.727-1.611,0.983-2.364,1.933c-0.372,0.464-0.814,1.082-1.491,2.027c1.607-0.893,3.214,0.546,4.819,0
		c1.771-0.593,3.141-1.691,4.408-2.917c1.159-1.12,2.237-2.34,3.437-3.404c0.401-0.186,0.808-0.364,1.215-0.549
		c0.195,0.225,0.422,0.37,1.335,0.937c-0.91,2.322-3.513,2.799-5.52,3.932c-1.228,0.694-2.234,1.636-2.473,3.404
		c0.152,0.11,0.335,0.31,0.519,0.356c1.893,0.519,3.807-0.327,5.699,0.124c3.492,0.83,6.425,3.091,9.907,3.946
		c0.554,0.134,2.146,0.375,3.465,0.353c7.487-0.134,7.247-5.209,7.233-5.264c-0.004-0.011-0.015-0.018-0.017-0.03
		c-0.563-1.997-5.372-1.889-8.266-1.821c-5.89,0.14-8.135-0.31-5.852-3.353c5.407,0.039,10.576,2.079,16.001,1.943
		c-0.016,0.128-0.043,0.279-0.078,0.442c-0.073,0.336-0.198,0.732-0.412,1.152c0.04,0.055,0.07,0.114,0.104,0.163
		c2.028,0.037,6.978-0.202,9.051-3.175c-0.379-0.229-0.379-0.229-1.334-0.095c-0.026-0.161-0.045-0.372-0.075-0.532
		c2.575-1.106,2.974-1.274,7.295-2.369c1.091-0.276,3.643-0.919,5.01-1.458c0.535-0.212,1.241-0.505,1.775-0.719
		c0.092-0.038,0.167-0.096,0.25-0.145c0.516-0.296,0.885-0.736,1.205-1.22c0.016-0.027,0.034-0.052,0.047-0.08
		c0.521-0.792,0.972-1.65,1.903-2.039c4.734-1.96,9.771-3.001,14.685-4.399c3.055-0.866,6.059-1.869,8.922-3.316
		c0.888-0.446,2.048-1.078,2.918-1.548c-0.737-0.408-1.426-0.764-2.101-1.096c-0.229-0.114-0.461-0.228-0.683-0.333
		c-2.968-1.396-5.523-2.116-8.958-2.582c-5.329-0.548-5.329-0.548-11.937,1.406c-1.403-1.063-4.019-1.728-13.672,0.607
		c0.08,0.178,0.176,0.432,0.248,0.619c-0.799,1.058-1.972,1.821-2.466,3.13c-0.54-0.137-0.54-0.137-0.158-3.469
		c-1.611-1.8-12.31,1.645-14.724,5.443c0.042,0.158,0.101,0.364,0.138,0.515c0.341,0.006,0.799-0.026,1.131-0.088
		c-0.184,0.084-0.419,0.189-0.598,0.275c-0.728,0.327-1.313,0.639-1.82,0.943c-4.568,2.734-0.985,4.497-0.936,4.511
		c0.204,0.061,0.429,0.091,0.651,0.12c0.016,0.002,0.03,0.006,0.043,0.007c0.898,0.107,1.947-0.007,2.956-0.214
		c0.665-0.031,1.333-0.039,2.002-0.049c-0.146,0.099-0.304,0.208-0.438,0.296c-0.179,0.219-0.412,0.505-0.593,0.723
		c0.355,0.298,0.87,0.667,1.308,0.818c-0.307,0.792-1.311,1.52-2.033,1.961c1.775-1.884-0.045-2.137-0.261-2.156
		c-1.31-0.139-3.173,0.79-3.869,1.142c0.128,0.064,0.301,0.144,0.429,0.21c-0.372,0.858-1.772,1.304-3.487,1.476
		c-1.846,0.186-4.054,0.053-5.773-0.242c-1.543-0.265-2.683-0.66-2.781-1.067c-0.037-0.163-0.01-0.402,0.058-0.665
		c-0.766,0.211-1.529,0.423-2.285,0.657c0.21-0.275,0.393-0.571,0.535-0.924c-1.224-0.761-1.224-0.761-1.543-1.215
		c-0.637,0.472-1.227,1.011-1.798,1.568c-0.392,0.634-0.745,1.312-1.137,1.941c-0.796,1.292-1.733,2.365-3.423,2.342
		c-0.262-0.004-0.54-0.028-0.844-0.088c-0.056-0.117-0.108-0.263-0.146-0.41c-0.055-0.186-0.096-0.378-0.104-0.537
		c-0.674-0.199-0.833-0.248-3.791,1.078c1.93-1.507,4.125-2.59,6.19-3.875c0.484-0.302,0.973-0.602,1.437-0.934
		c-0.471-0.685-0.943-1.253-1.595-1.617c-1.316-0.735-3.403-0.615-7.887,1.204c1.564-1.186,1.764-1.338,2.062-2.026
		C615.214-62.644,615.334-62.735,616.116-63.322z M658.637-63.236c0.757-0.298,0.868-0.055,0.916,0.042
		c-0.065,0.038-0.154,0.099-0.21,0.147c-1.253,0.86-1.797,1.127-1.738,0.847c0.022-0.124,0.19-0.353,0.279-0.47
		c-0.774,0.556-1.584,1.169-2.006,1.602c-0.139-0.014-0.279-0.027-0.418-0.041C656.327-61.887,657.753-62.889,658.637-63.236z"/>
	<path fill="#542954" d="M633.944-64.603c-1.226-0.494-2.315,1.822-2.127,2.583c0.117,0.471,1.638,0.928,3.562,1.184
		c0.475-0.22,1.06-0.512,1.83-0.905c-0.59-0.32-1.305-0.249-1.896-0.567c0.411-0.549,0.618-0.691,1.868-1.26
		c-0.044,0.13-0.101,0.306-0.14,0.43c0.722-0.203,0.722-0.203,2.063-0.938c-0.151-0.042-0.344-0.091-0.496-0.13
		c-0.112-0.4-0.018-0.761,0.11-1.119C635.838-63.871,635.727-63.886,633.944-64.603z"/>
	<path fill="#542954" d="M624.721-65.262c0.466-0.035,0.557,0.089,0.697,0.316c0.247,0.436,0.634,0.471,2.303-0.166
		c-0.062-0.074-0.062-0.074-0.237-0.128c-0.031-0.01-0.032-0.014-0.032-0.02h-0.011h-0.011c-0.043-0.02-0.083-0.05-0.121-0.083
		c0.083-0.451,1.065-0.739,1.23-0.544c0.171,0.195-0.112,0.577-0.443,1.019c-0.3,0.402-0.603,0.827-0.392,1.015
		c0.171,0.157,0.691,0.155,1.905-0.181c0.085-0.022,0.199-0.064,0.333-0.123c0.53-0.23,1.415-0.717,2.379-1.334
		c1.936-1.242,4.163-3.016,4.448-4.328c0.098-0.441-0.01-0.833-0.441-1.129c-0.146-0.098-0.373-0.194-0.536-0.261
		c-1.106-0.365-2.224-0.372-2.224-0.372c-0.025,0.006-1.849,0.655-3.438,1.791c-0.824,0.589-1.579,0.884-3.821,1.771
		c0.383,0.816,2.339,0.879,1.732,1.934C627.892-66.484,626.608-66.047,624.721-65.262z"/>
	<path fill="#542954" d="M687.502-64.98c-0.44,0.215-0.878,0.444-1.327,0.623c-0.041-0.132-0.079-0.268-0.115-0.382
		c-0.472,0.072-1.16,0.178-2.258,1.17c-0.132,0.12-0.269,0.243-0.413,0.39c0.082,0.176,0.188,0.422,0.272,0.603
		c0.901,0.125,1.836-0.021,2.72,0.295c0.021,0.211,0.039,0.491,0.044,0.694c-4.451,2.509-9.634,2.591-14.432,3.951
		c-0.085,0.024-0.171,0.056-0.26,0.083c-1.31,0.386-2.601,0.85-3.829,1.521c0.495,0.352,0.858,0.622,1.147,0.855
		c0.76,0.625,0.943,0.997,1.311,1.937c-0.104-0.019-0.168-0.012-0.832,0.384c-0.479,0.289-1.273,0.775-2.667,1.64
		c2.734,12.135,24.512,3.288,22.677,16.335c-0.403,2.83,0.023,5.654-0.011,8.485c-0.021,2.611-0.121,3.141-0.485,5.117
		c1.688-0.127,3.001-0.159,4.06-0.059c2.613,0.238,3.679,1.252,4.89,3.468c-0.13,0.08-0.27,0.16-0.381,0.23
		c0.021,0.117,0.047,0.212,0.074,0.307c-4.947-1.159-5.014-1.159-6.325-1.044c-0.241,0.936-0.241,0.936,0.392,2.851
		c-0.305,0.124-0.443,0.17-0.839-0.007c-0.29-0.125-0.708-0.359-1.442-0.774c-2.416,4.987,1.245,7.825,5.731,6.307
		c1.719-0.571,2.438-1.705,2.92-2.442c-1.409,0.063-1.992-0.005-2.298-1.021c0.412-0.067,0.834-0.16,1.268-0.307
		c0.106-0.04,0.174-0.087,0.274-0.127c1.06,0.311,1.244,0.436,2.048,1.003c0,0.024-0.014,0.998-0.055,2.175
		c-0.063,1.693-0.188,3.802-0.427,4.117c-3.03-1.064-5.372,0.188-7.05,2.488c-2.891,3.982-3.758,11.114-2.578,14.925
		c0.564,1.827,2.537,3.774,4.099,4.88c1.313,10.614,4.615,18.777,14.781,24.949c4.803,2.919,11.127,5.393,19.51,7.476
		c0.343-1.184,0.751-2.704,1.143-3.969c0.054-0.18,0.111-0.371,0.162-0.538c2.188-6.858,5.647-13.235,7.871-20.089
		c0.72-2.232,0.055-5.638,1.146-7.723c0.319-0.619,0.784-1.114,1.295-1.554c2.151-1.84,5.599-2.312,7.451-2.55
		c2.231-0.29,3.846-0.492,5.43-1.633c0.655-0.476,1.398-1.271,2.001-1.808c3.536-3.204,4.923-8.021,8.454-11.216
		c1.553-1.404,4.55-1.769,6.556-2.358c13.543-4.004,16.274-6.371,19.222-13.037c-0.045,0.003-0.076,0.005-0.123,0.005
		c0.238-0.357,0.467-0.726,0.681-1.115c0.064-0.111,0.13-0.214,0.19-0.329c-0.41-0.824-0.895-1.577-1.417-2.284
		c-0.277-0.373-0.551-0.732-0.841-1.069c-2.455-2.828-5.371-4.497-6.106-4.89c1.178-2.588-1.251-4.458-1.348-6.802
		c0.378-0.188,0.986-0.199,1.385-0.073c-1.06-4.486-1.078-4.699,1.206-7.746c0.097-0.129,0.172-0.232,0.278-0.374
		c-0.087-0.078-0.15-0.127-0.233-0.198c-2.908-2.504-3.173-2.424-4.799-1.779c0.095,0.964,0.095,0.964,3.088,3.175
		c-2.928,0.015-2.928,0.015-3.425-0.398c-0.033-0.627-0.033-0.627-6.897-7.748c0.107-0.162,0.248-0.382,0.359-0.547
		c1.81,0.988,3.192,2.665,5.287,3.173c-2.328-1.852-2.778-6.959-6.82-5.771c-3.202-1.839-3.754-5.55-5.8-8.197
		c-0.375,1.395,0.919,2.549,0.573,3.94c-0.989-1.757-3.088-2.599-3.826-4.567c-0.989-2.644-0.417-5.474-0.961-8.17
		c-0.043-0.188-0.084-0.446-0.121-0.635c-8.603-1.848-7.495,0.598-6.901,1.91c-1.061-0.949-1.061-0.949-1.767-1.251
		c-0.118,0.386-0.258,0.897-0.362,1.29c-0.509-0.074-1.165-0.367-1.587-0.659c0.161-0.089,0.382-0.21,0.546-0.296
		c-0.264-0.515-0.599-1.153-2.519-1.197c0.333,0.458,0.938,0.949,1.42,1.243c-0.571,0.224-0.571,0.224-4.376-1.346
		c0.19-0.119,0.444-0.278,0.638-0.402c-0.093-0.248-0.216-0.59-0.307-0.844c-7.974-2.826-13.9-2.803-18.18-2.467
		c-6.851,0.84-13.039,4.728-20.143,4.47h-0.047c-0.207-0.014-0.47-0.025-0.669-0.04c-0.079,0-0.099-0.004-0.12-0.004
		c-6.588-0.305-12.89,2.909-16.067,4.857C688.015-65.306,687.74-65.136,687.502-64.98z"/>
	<path fill="#542954" d="M898.41,22.943c-0.064-0.079-0.149-0.175-0.211-0.254c-1.003-1.158-2.955-2.862-3.927-2.544
		c-0.117,0.047-0.177,0.094-0.255,0.197c1.564,1.705,3.127,3.426,4.679,5.154C900.264,25.667,899.252,23.978,898.41,22.943z"/>
	<path fill="#542954" d="M954.218,77.952c-0.23-0.229-0.421-0.419-0.604-0.61c-0.875-0.919-1.529-1.879-5.339-7.445
		c-3.057-4.48-3.375-4.95-7.822-3.461c-5.375-5.031-5.375-5.031-20.046-12.993c-4.827-2.628-6.856-4.127-6.863-4.139
		c-0.431-0.539-0.482-1.55-0.646-2.229c-0.89-3.572-1.479-4.658-3.427-7.426c-2.688,0.123-5.103,2.648-7.995,0.888
		c-0.115-4.309-0.179-5.546-3.139-8.464c-0.307-0.301-0.616-0.606-0.988-0.952c0.14,0.305,0.331,0.709,0.474,1.009
		c0.028,0.138,0.048,0.26,0.069,0.382c0.214,1.281,0.009,1.979-1.768,3.651c-0.043,0.041-0.073,0.076-0.117,0.116
		c-2.532,2.422-2.771,3.849,0.359,8.208c-1.564-0.803-2.754-0.973-3.557-0.505c-0.188,1.122,0.857,2.113,1.182,2.395
		c0.333,0.286,1.031,0.198,1.385,0.451c2.838,2.037,4.149,6.023,8.237,6.452c-2.003,0.702-2.549,1.267-1.524,3.171
		c0.167,0.311,0.371,0.654,0.63,1.057c1.101-0.113,1.508-1.227,2.4-1.643c0.505,0.507,0.549,0.546,1.089,2.125
		c1.206,0.163,0.968-1.272,1.206-2.241c0.631,0.125,1.223,0.319,1.793,0.552c1.494,1.569,1.775,4.106,3.574,5.447
		c0.416-0.106,0.818-0.217,1.231-0.327c1.136-0.295,2.267-0.591,3.381-0.89c1.652,1.791,3.642,3.242,5.41,4.918
		c0.854,0.807,1.67,1.656,2.346,2.648c-0.611,0.169-1.247,0.33-1.866,0.496c-1.393,0.375-2.781,0.746-4.199,1.11
		c1.549,2.701,4.457,4.052,6.501,6.26c0.418,0.458,0.813,0.934,1.142,1.481c-0.307,0.181-0.571,0.337-0.822,0.488
		c-2.042,1.227-2.412,1.609-2.567,3.174c0.587,0.553,1.389,1.306,2.275,1.451c1.385,0.212,2.646-0.625,4.016-0.465
		c2.026,3.699,0.027,7.584,0.545,11.363C937.803,87.686,948.651,86.92,954.218,77.952z"/>
	<path fill="#542954" d="M891.777,43.27c0.077-0.999,0.163-2.034-0.628-3.607c-0.353-0.694-0.929-1.209-1.216-1.079
		c-0.433,0.413-0.311,1.129-0.824,1.487c-0.435,0.299-1.019,0.087-1.299-0.02c1.783,2.185,4.239,5.17,1.817,4.948
		c-0.165-0.02-0.35-0.047-0.476-0.076c1.901,2.419,3.161,3.588,4.521,4.151C891.751,46.347,891.622,45.157,891.777,43.27z"/>
	<path fill="#542954" d="M834.274,3.736c-2.643-4.134-12.061-4.579-12.995-4.492c-3.679,0.331-3.679,0.331-14.421,7.007
		c-2.739-3.849-3.836-3.937-8.445-4.302c0.007,0.314,0.007,0.734,0.007,1.047c-0.182,0.375-0.442,0.678-0.721,0.968
		c-0.694,0.705-1.556,1.27-1.956,2.224c-0.289,0.698,0.126,1.75,0.325,2.47c1.897,0.236,3.617-0.928,5.504-0.72
		c0.128,0.295,0.281,0.594,0.41,0.827c0.495-0.07,0.936-0.128,1.365-0.187c0.479,0.4,0.55,0.892,0.017,1.284
		c-1.132,0.833-2.596-0.309-3.713,0.605c-0.476,0.397,0.099,1.446,0.443,2.071c4.738-0.672,6.217-0.733,8.862,2.236
		c-1.562,0.309-2.031,0.405-0.868,2.332c15.438,2.753,22.401-1.973,28.101-9.916c-0.191-0.241-0.353-0.496-0.504-0.758
		C835.168,5.554,834.821,4.594,834.274,3.736z"/>
	<path fill="#542954" d="M917.772,76.941c0.137-0.999,0.261-1.859-1.259-3.826c-1.564-2.038-3.84-3.405-5.306-5.54
		c0.255-1.081,1.256-1.969,0.839-3.223c-0.776-2.389-5.407-6.076-10.325-4.708c-0.656,0.222-1.309,0.487-1.954,0.745
		c-1.012,0.409-2.021,0.821-3.049,1.18c0.593,1.267,1.096,2.345,1.416,3.252c0.65,1.826,0.56,2.958-1.003,3.539
		c-0.721,0.268-1.747,0.422-3.172,0.47c0.96,1.522,0.966,3.453,2.129,4.892c0.117,0.127,0.733,0.849,2.466,1.776
		c2.324,1.225,2.707,1.564,4.125,3.568c-1.139,2.05-2.415,4.377,0.349,8.085c0.018,0.019,3.154,1.383,5.964,0.383
		c3.907-1.388,5.499-6.204,9.979-6.746c-0.787-1.227-1.145-1.821-1.247-2.5C917.669,77.909,917.69,77.504,917.772,76.941z"/>
	<path fill="#542954" d="M521.473,344.916c-0.193-2.185,1.655-3.587,2.137-5.507c0.318-1.279-0.453-1.832-1.189-2.255
		c-0.01,0.058-0.023,0.138-0.035,0.19c-0.249,0.681-0.818,0.59-2.5-0.042c-3.256-1.235-4.703-1.247-5.253,1.921
		c0.958,0.534,1.333,0.923,2.175,2.655C517.697,343.711,518.466,345.293,521.473,344.916z"/>
	<path fill="#542954" d="M592.503,394.337c-0.643,0.377-1.4,0.721-2.883,0.53c-0.054,1.058-0.114,2.101-0.154,3.153
		c0.063,0,0.131,0,0.198,0.012h0.039c1.056,0.125,1.672,0.296,2.58,0.997c0.293,0.22,0.521,0.397,0.808,0.422
		c0.553,0.047,1.223-0.513,1.814-1.002c0.045-1.049,0.098-2.093,0.154-3.154c-0.846-0.883-1.288-1.258-1.846-1.249
		C592.963,394.09,592.894,394.115,592.503,394.337z"/>
	<path fill="#542954" d="M700.63,547.106c-5.73-15.402-22.615-23.707-25.896-40.661c-32.257-19.884-32.257-19.884-44.083-15.642
		c-15.027-10.835-25.251-26.487-38.831-38.778c0.813-1.411,1.904-3.3,2.72-4.71c-1.308-0.633-3.045-1.468-4.343-2.093
		c-0.457,1.59-1.059,3.715-1.52,5.304c-4.848-5.934-13.229-6.156-18.478-11.445c-0.476,2.951-2.682,6.613-4.772,8.756
		c-1.878-0.69-3.509-1.287-4.958-1.81c-0.48-0.17-0.925-0.329-1.363-0.487c-8.597-3.049-10.263-3.104-19.852-3.372
		c-1.588-8.236-9.792-11.24-13.865-17.525c-0.856,2.919-2.586,6.718-4.483,9.094c-1.14-3.033-2.212-7.244-2.772-10.431
		c-0.317,0.021-32.297,4.4-34.315,20.726c-2.663,1.575-5.874,4.279-7.899,6.619c-1.123-0.412-2.175-0.805-3.201-1.18
		c-0.795-0.293-1.561-0.573-2.302-0.844c-20.1-7.368-20.369-7.287-23.593-6.136c-16.564-8.789-20.1-34.891-7.148-52.685
		c0.138-1.563,0.287-3.132,0.437-4.699c-4.245-5.139-4.296-5.188-35.734-16.271v-1.604c7.81-13.832,10.53-29.801,18.158-43.699
		c-4.241-2.325-11.759-5.605-18.158-3.938c-1.162,0.299-2.28,0.778-3.34,1.441c-3.487,2.177-6.292,6.487-7.473,14.198
		c-0.799,0.284-1.388,0.493-2.127,0.701c-2.014,0.56-5.173,1.14-16.963,3.279c-0.875-0.981-1.67-2.046-2.426-3.144
		c-13.458-19.583-8.332-56.522,5.468-76.796c2.834-4.173,6.044-7.604,9.523-10.065c1.423-1.007,2.886-1.86,4.398-2.515
		c3.315-1.427,6.821-1.978,10.465-1.395c0.832,0.134,1.655,0.326,2.478,0.55c6.388,1.728,12.33,5.874,16.794,9.006
		c11.987-6.54,23.856,1.449,35.793,0.277c3.403,41.49,3.403,41.49,3.471,41.729c-2.494,1.813-5.742,4.321-8.141,6.26
		c24.863,5.852,20.819-24.908,19.494-35.012c-1.61-12.241-1.61-12.241,24.499-39.296c1.038,0.182,2.076,0.369,3.122,0.55
		c-0.391-0.155-0.789-0.316-1.199-0.458c-1.097-0.371-0.629-2.132,0.482-1.747c1.307,0.444,2.545,0.968,3.753,1.563
		c29.948-35.535,30.05-35.703,38.335-51.042c2.839-0.073,6.62-0.205,9.45-0.317c0.731-1.14,1.702-2.658,2.428-3.797
		c2.685-0.075,6.324,0.456,8.872,1.319c1.274-0.736,2.979-1.735,4.259-2.477c-0.975-1.095-2.276-2.541-3.258-3.632
		c3.619-7.719,7.723-16.463,36.192-19.371l-1.487,0.708c-1.979,2.436-3.784,6.405-4.42,9.486c3.353-0.049,7.882-1.143,10.87-2.673
		c39.289,21.801,37.72-13.521,36.305-24.866c11.844,0.95,11.844,0.95,16.331,1.843c0.355,1.313,0.818,3.046,1.173,4.35
		c-0.171,1.604-0.163,1.604-0.157,1.604c2.905-0.895,6.597-2.818,8.976-4.717c0.364,1.556,0.856,3.637,1.228,5.198
		c1.342,0.476,3.124,1.121,4.462,1.6c2.359-2.258,4.629-6.216,5.623-9.325c-1.213-0.654-2.829-1.517-4.037-2.164
		c2.547-7.08,2.547-7.08-15.366-15.284c1.084-2.675,3.087-6.041,4.914-8.271c-2.043,0.041-4.772,0.087-6.814,0.128
		c-6.759,7.505-10.96,17.086-19.072,23.507c-8.174-16.327-23.183-4.969-31.223,8.31c0.301-3.296,1.428-7.633,2.713-10.674
		c-1.36-0.079-3.173-0.19-4.533-0.265c2.918-1.31,6.513-3.787,8.86-5.963c-0.851-1.197-1.981-2.791-2.826-3.985
		c-8.013-1.356-10.713-1.812-23.315,3.751c1.807-2.494,5.557-5.032,8.583-5.634c1.931,0.116,1.931,0.116,1.931,0.116h0.005h0.01
		l0.009,0.008h0.009h0.012c1.015-1.287,2.366-2.991,3.39-4.275c52.77-5.114,52.77-5.114,63.021-11.437
		c0.522-3.402,1.054-6.778,1.591-10.12c-9.829-6.184-14.469-9.103-18.048-16.366c-3.195-6.486-5.546-16.438-9.995-35.276
		c-10.811,11.095-13.183,11.385-19.54,12.162c-3.691-4.06-5.069-5.577-0.806-13.841c-8.63-13.436-8.63-13.436-25.211-15.999
		c-3.074,4.5-5.412,7.919-7.271,10.611c-6.173,8.922-6.836,9.424-9.604,11.422c7.479,21.358-19.127,26.093-19.409,26.114
		c-4.285,14.563-4.285,14.563-13.003,21.683c-0.915-1.351-2.119-3.161-3.037-4.513c2.205-1.822,4.224-5.423,4.801-8.227
		c-1.052-1.203-2.446-2.795-3.495-3.994c1.596-2.686,3.825-6.205,5.625-8.754c-9.945-5.987-13.931-17.94-23.894-23.923
		c-0.93-5.512,0.976-10.851,0.959-16.315c3.254-3.238,3.344-3.31,56.66-27.873c-0.056,0.399-0.112,0.799-0.155,1.204
		c-6.597,5.61-6.798,5.745-11.796,9.121c0.638,1.298,1.489,3.036,2.127,4.339c2.722-0.301,6.304-1.312,8.778-2.492
		c0.159,0.095,0.339,0.188,0.504,0.284c2.52,1.399,6.014,2.678,8.755,3.106c0.515-6.04-2.194-11.948-0.754-18.023
		c0,1.342,0,3.146,0,4.489c4.728-4.863,12.572-5.026,16.563-10.995c1.254,0.542,2.925,1.255,4.174,1.795
		c-0.021,0.123-2.973,12.46-8.528,17.827c16.905,9.005,16.905,9.005,18.322,15.999c5.012,1.193,9.348,4,14.054,5.909
		c0.414-1.413,0.973-3.313,1.393-4.726c-0.687-1.235-1.612-2.868-2.309-4.101c2.633,1.147,5.915,3.291,7.979,5.287
		c2.197-1.761,5.102-4.132,7.259-5.936c-5.404-14.721-5.404-14.721-5.39-16.75c2.605,1.746,5.559,4.996,6.979,7.801
		c5.046-0.151,5.046-0.151,13.636-6.848c-3.172-6.111-9.385-9.701-12.851-15.563c0.896-1.057,2.106-2.479,3.001-3.535
		c-0.796-3.267-0.796-3.267-12.424-18.305c0.441-1.521,1.031-3.539,1.467-5.059c-0.34-0.152-34.185-14.479-40.586,10.063
		c1.037,0.941,2.41,2.208,3.445,3.156c-2.124,2.707-5.484,5.913-8.244,7.973c-1.324-0.364-3.087-0.845-4.413-1.209
		c0.735-1.201,1.712-2.799,2.454-3.996c-4.352-11.105-2.847-11.739,22.137-22.386c-2.971-2.518-4.327-3.66-8.573-3.601
		c-3.545,0.049-9.097,0.934-19.304,2.564c-0.721,1.257-1.683,2.925-2.412,4.181c1.102,0.833,2.563,1.946,3.658,2.79
		c-5.822,5.737-5.822,5.737-17.003,7.783c6.343-16.041,6.343-16.041,18.283-20.096c-1.137-0.889-2.64-2.083-3.766-2.976
		c-3.241,1.595-7.469,3.921-10.55,5.791c1.536-1.053,3.586-2.456,5.124-3.51c-0.728-1.207-1.705-2.813-2.424-4.02
		c1.469-2.832,3.646-6.517,5.57-9.07c-0.213-0.452-0.51-1.05-0.724-1.501c-3.458-1.136-7.76-2.547-25.163,5.957
		c1.331,0.993,3.104,2.318,4.437,3.3c2.012-0.432,4.694-1.077,6.74-1.327c-8.145,2.621-8.145,2.621-13.062,5.793
		c0.131,1.368,0.305,3.192,0.438,4.565c-9.479-0.729-10.242,1.083-13.07,7.821c-0.513-2.708-0.419-6.52,0.29-9.181
		c-1.102-0.808-2.571-1.884-3.669-2.692c1.239-0.548,2.897-1.285,4.132-1.834l2.842-1.408c-0.004,0-0.004-0.008-0.004-0.008v-0.001
		h-0.004v-0.01c-1.389,0.334-3.226,0.779-4.614,1.113c1.027-1.039,2.398-2.427,3.426-3.468c-2.298-2.311-6.12-4.661-9.149-5.863
		c8.83-7.524,18.979-13.222,28.059-20.402c-5.617-1.074-5.617-1.074-29.2,8.159c1.104-0.565,2.242-1.124,3.409-1.679
		c1.266-0.489,2.962-1.143,4.23-1.631c-18.692,6.049-48.017,24.605-60.106,31.241l-2.689,2.132
		c-4.734,2.805-0.002,0.001-4.683,2.894c-0.361,0.059-0.724,0.118,0,0.002c-0.672,0.339-0.446,0.223-0.125,0.061
		c-0.455,0.235-0.195,0.102,0.112-0.055c-0.703,0.494-0.597,0.459-0.287,0.272c-12.603,11.627-24.561,23.961-37.585,35.133
		c2.845-2.019,6.625-4.744,9.429-6.827c-19.646,19.26-19.646,19.26-19.942,20.533c-2.788,2.151-5.548,4.333-8.274,6.551
		c-3.926,5.619-7.663,10.973-11.256,16.118c-6.713,6.207-12.219,13.957-15.984,22.895c-64.328,92.176-64.738,93.171-68.372,102.086
		c-7.844,19.211-1.492,40.416-8.391,59.757c-1.251,3.51-2.206,6.953-2.938,10.293c-0.335,1.533-0.617,3.033-0.859,4.523
		c-0.894,5.521-1.183,10.708-1.094,15.412c0.086,4.62,0.535,8.771,1.11,12.305c1.28,7.812,3.194,12.577,3.249,12.659
		c0.526-5.963,1.004-11.383,1.445-16.396c0.266-3.015,0.518-5.871,0.758-8.567c0.606-6.854,1.13-12.713,1.583-17.728
		c0.065-0.741,0.133-1.494,0.198-2.201c2.437-26.769,2.807-27.862,4.133-31.733c1.086,1.081,2.537,2.536,3.622,3.623
		c-2.131,9.957-3.736,19.306-4.907,28.11c-0.066,0.498-0.136,1.003-0.2,1.497c-0.825,6.438-1.412,12.583-1.78,18.432
		c-0.139,2.242-0.246,4.435-0.325,6.589c-1.917,52.232,13.896,80.223,27.41,95.422c0.063,0.071,0.127,0.137,0.191,0.208
		c5.284,5.907,10.202,9.864,13.546,12.556c1.448-0.56,3.384-1.309,4.833-1.856c1.588,1.175,3.387,2.734,5.328,4.557
		c3.084,2.903,6.54,6.512,10.14,10.496c16.494,18.248,35.952,44.188,36.149,44.488c-0.188,3.672-0.342,7.35-0.469,11.031
		c10.748,5.284,15.211,17.981,26.598,22.503c-0.126,1.338-0.307,3.136-0.446,4.485c2.673,0.955,6.096,2.674,8.446,4.266
		c0.865-1.126,2.022-2.632,2.89-3.763c-0.708-1.266-1.638-2.938-2.342-4.202c2.025-1.955,5.336-4.024,8.028-4.838
		c1.316,2.447,3.386,5.549,5.166,7.681c2.822,12.419,4.68,20.602,5.365,26.915v1.078h0.106c1.031,11.446-2.111,16.751-10.853,31.438
		c-1.371,0.273-3.19,0.636-4.565,0.904c-0.786,8.842-3.555,17.451-3.172,26.438h0.007c0,0,0.004,0,0.004,0.005c0,0,0,0,0,0.004
		h0.009h0.009c0,0,0.005,0,0.005,0.003h0.005c2.595,1.704,5.709,4.572,7.637,7.009c-1.516,0.775-3.538,1.809-5.051,2.581
		c-3.658,11.848,0.44,19.355,0.48,19.424c12.533,21.409,35.444,35.312,43.383,60.038c0.174,0.533,0.174,0.533,42.397,34.604
		c10.687,8.624,14.922,19.964,16.732,32.322v32.101h1.809c0.974,22.059,4.692,42.96,31.384,54.192
		c-0.91-1.095-2.125-2.563-3.036-3.66c2.495,1.443,5.471,4.08,7.118,6.472c0.938-0.211,17.203,0.17,7.595-0.179
		c10.9,0.396-1.724-0.075,1.415,0.944c0.928,1.415,10.886,1.962,4.242,5.194c16.236,9.771,25.508,14.744,44.813,16.039
		c-17.675-5.657-17.467-2.26-22.181-11.112c-1.318-0.301-3.072-0.712-4.39-1.016c1.251-2.604,2.065-6.517,2.02-9.399
		c1.365,0.278,3.187,0.647,4.552,0.921c-2.234-1.546-5.74-2.925-8.432-3.298c2.975-1.289,7.333-2.16,10.578-2.266
		c0.199-1.483,0.466-3.453,0.661-4.938c14.794-1.23,14.915-1.317,21.029-5.973c-0.534-1.82-1.237-4.252-1.776-6.074
		c26.204-11.494,26.204-11.494,44.573-33.708c-1.817-14.989-1.817-14.989,48.967-28.584c4.32-7.485,10.265-13.882,14.421-21.467
		c1.56-4.172,2.835-4.215,4.107-4.252c1.061-27.366,23.245-43.83,34.127-66.129c5.504-11.261,3.018-18.631-0.425-28.822
		C763.413,581.539,735.974,552.859,700.63,547.106z M477.352,109.261c10.54-5.281,15.746-6.751,25.594-4.898
		c-1.029,2.15-2.771,5.85,0.481,7.261c0.613,0.266,1.384,0.46,2.386,0.54c-1.173,2.168-1.412,2.618-1.696,5.68
		c-0.008,0.088-0.024,0.149-0.033,0.231c-0.154,1.415-0.512,2.287-1.373,3.274c-0.371,0.424-0.973,0.888-1.39,1.273
		c0.104-2.372-0.732-3.406-2.562-3.681c-1.871-0.28-4.787,0.25-8.819,0.985c0.068-1.779-1.431-3.18-1.205-4.996
		c0.176-1.442,0.276-1.629,1.878-3.116c0.122-0.115,0.229-0.21,0.372-0.345c-0.125,0.011-0.244,0.043-0.369,0.055
		c-4.53,0.594-8.766,2.993-13.52,2.303c-1.481-0.483-2.299-1.11-3.494-2.664C474.941,110.478,476.175,109.853,477.352,109.261z
		 M482.92,141.022c-1.246,2.137-2.329,4.583-3.295,7.529c-0.406,1.237-0.799,2.549-1.167,3.984c-3.191-1.487-3.666,4.206-6.91,2.851
		c-0.161-3.558,1.638-8.487,4.208-13.109c1.169-2.107,2.5-4.146,3.887-5.966c1.898-2.482,3.886-4.562,5.699-5.806
		c-0.339-0.612-0.339-0.612-0.726-0.997c0-0.046,0.005-0.072,0.651-1.152c0.301-0.512,0.776-1.31,1.439-2.411
		c0.166-0.283,0.315-0.535,0.511-0.857c0.502,0.344,0.844,0.499,1.455,0.657c1.431,0.274,2.359,0.187,4.634-0.264
		c0.063-0.016,0.12-0.024,0.187-0.037c1.152-0.23,2.026-0.363,2.694-0.313c0.735,0.058,1.226,0.34,1.532,1
		c-0.213,0.174-0.488,0.409-0.708,0.579C490.544,131.92,486.164,135.46,482.92,141.022z M515.647,156.569
		c-5.729,4.451-12.057,4.931-20.827,5.59c0.618-0.945,1.663-2.542,3.404-3.891c1.006-0.781,2.242-1.479,3.772-1.912
		c1.688-0.475,3.094-0.598,4.824-0.627c1.687-0.032,3.368,0.081,5.046,0.191c1.462,0.092,2.918,0.186,4.375,0.176
		C516.069,156.236,515.83,156.433,515.647,156.569z M536.376,150.39c-3.396,5.788-11.137,3.577-16.26,2.114
		c-2.567-0.733-3.949-1.105-5.055-0.996c1.733-1.479,3.604-2.493,5.667-3.132c3.946-1.221,8.696-0.915,14.927,0.869
		c0.386,0.113,0.746,0.192,1.146,0.31C536.677,149.804,536.512,150.143,536.376,150.39z"/>
	<path fill="#542954" d="M486.685,293.685c1.088,2.539,1.593,3.351,2.783,3.838c0.59-0.988,1.157-1.923,1.529-3.255
		c1.822-6.444-4.812-9.566-11.223-12.595c-0.085,0.285-0.207,0.664-0.294,0.952c-1.119,4.316-0.636,6.679,1.767,8.729
		C484.269,288.571,485.282,290.434,486.685,293.685z"/>
	<path fill="#542954" d="M548.408,371.919c-0.831,7.713,11.793,6.515,14.706,4.247c0.214-0.167,0.482-0.425,0.645-0.649
		c0.072-0.096,0.146-0.245,0.21-0.353c-2.488-2.067-4.01-2.971-6.978-3.236C554.14,371.761,551.271,372.026,548.408,371.919z"/>
	<path fill="#542954" d="M508.423,329.078c0.033-0.057,0.083-0.134,0.12-0.19c-1.277-0.667-2.086-2.058-3.649-2.271
		c-0.345-0.034-0.571-0.034-0.967,0c-0.295,2.063-0.592,4.119-0.882,6.172C505.639,333.402,506.625,331.865,508.423,329.078z"/>
	<path fill="#542954" d="M475.32,295.779c-3.216,10.275-2.226,17.833,0.5,23.338c2.242,4.533,5.666,7.678,8.888,9.799
		c4.227,2.782,8.109,3.81,8.525,3.916c1.309-1.486,1.654-1.882,0.769-3.366c-1.784-2.949-1.189-5.675,1.223-5.595
		c4.922,0.164,4.922,0.164,5.087-0.043c0.088-0.109,0.212-0.243,0.281-0.365c0.684-1.176-1.819-4.488-1.854-4.511
		c-0.811-0.599-2.204-0.467-4.591-0.191c-1.067-3.995-2.746-7.781-4.04-11.702c3.016,0.372,3.881,1.585,4.388,2.314
		c0.902-4.741,0.535-5.235-3.01-9.939c-1.957,4.373-3.696,5.13-5.177,2.257c-0.694,5.118-0.694,5.118,3.137,16.298
		c-1.255,1.84-2.466,2.375-5.177,2.284c0.6-4.177,0.627-5.984-0.314-11.692c-0.963-5.855-0.615-7.811,2.074-11.655
		c-3.729,0.132-6.535-2.438-9.902-3.344C475.883,294.233,475.561,295.112,475.32,295.779z"/>
	<path fill="#542954" d="M507.983,370.211c7.215,0.298,9.896,1.217,11.515,6.082c4.242-6.649,5.258-6.47,22.294-3.528
		c0.115-1.349,0.229-2.696,0.349-4.045c0.064-0.74,0.127-1.484,0.195-2.231c-11.522-6.708-19.131-11.132-27.862-12.132
		c-0.806-0.048-1.527-0.07-2.197-0.059c-2.119,0.026-3.729,0.364-5.879,1.149c2.143,0.772,3.256,1.561,3.777,2.279
		c-0.037,0.792-0.003,1.447,0.181,1.848c-0.271,0.474-0.722,0.796-0.97,0.864c-0.301,0.079-0.725,0.029-1.038,0.041
		c-0.039,0.576-0.065,1.124-0.065,1.616c0,0.655,0.058,1.201,0.286,1.471c1.124,1.344,2.931,1.398,4.286,2.306
		c-0.449,0.304-0.867,0.512-1.277,0.672c-0.551-0.037-1.094-0.071-1.715-0.1c-0.878-0.037-1.682-0.083-2.416-0.145
		c-0.67-0.252-1.402-0.577-2.244-0.972c-1.439-0.671-2.72-1.187-4.063-1.471c-0.983-0.208-1.999-0.307-3.169-0.172
		C498.468,368.941,500.907,369.921,507.983,370.211z"/>
	<path fill="#542954" d="M469.867,314.258c0.528-2.339-0.707-4.495-2.754-4.789c-2.005-0.099-2.511,1.815-2.678,2.433
		c1.301,1.808,2.905,2.587,5.373,2.609C469.825,314.433,469.845,314.338,469.867,314.258z"/>
	<path fill="#542954" d="M438.129,319.686c-0.75,1.094-1.462,2.338-2.195,3.763c3.287-0.107,5.442,1.273,8.683,3.527
		c5.627,3.931,8.929,5.195,14.852-0.164c8.417,6.945,12.588,12.555,17.891,23.983c2.985-0.756,5.158-0.722,11.042,0.212
		c0.051,0.011,0.101,0.021,0.154,0.026c4.647,0.771,8.665,1.435,11.961,0.861c0.407-0.068,0.938-0.212,1.339-0.306
		c-0.523-1.186-1.182-2.252-1.918-3.255c-5.97-8.159-17.974-11.132-20.175-22.507c-21.228-10.687-21.228-10.687-28.587-11.804
		C444.268,313.806,440.928,315.613,438.129,319.686z"/>
</g>
<path fill="#542954" d="M994.613,215.935v-1.617h-0.568C962.307,126.151,877.942,63.105,778.843,63.105
	c-126.283,0-228.66,102.376-228.66,228.662c0,126.287,102.376,228.662,228.66,228.662c126.288,0,228.664-102.375,228.664-228.662
	C1007.507,265.185,1002.953,239.666,994.613,215.935z"/>
<g opacity="0.1">
	<circle fill="#9595A4" cx="778.843" cy="291.768" r="228.662"/>
</g>
<g>
	<path fill="#542954" d="M1003.538,260.313c0.231,1.656,0.465,3.275,0.663,4.705
		C1004.003,263.401,1003.775,261.845,1003.538,260.313z"/>
	<path fill="#542954" d="M819.213,79.737c0,0.002-0.005,0.009-0.009,0.012c-0.103,0.066-0.26-0.026-0.331,0.125
		c0.1,0.121,0.583,0.261,1.706,0.542c-0.705-0.232-0.896-0.311-0.923-0.397c0.068-0.087,0.211-0.048,0.274-0.151
		c-0.017-0.052-0.035-0.128-0.733-0.37c-0.098-0.036-0.229-0.079-0.331-0.113c0.138,0.057,0.14,0.063,0.148,0.089
		c-0.057,0.012-0.188-0.005-0.646-0.089c-0.414-0.08-0.42-0.077-0.438-0.063c0,0.002,0.501,0.188,0.895,0.277
		C819.182,79.682,819.199,79.722,819.213,79.737z"/>
	<path fill="#542954" d="M1004.566,268.368l-0.063-0.571c-0.906-7.868-2.638-15.177-4.848-22.007
		c-0.858-4.059-1.529-7.146-2.126-9.714c-0.996-4.29-1.79-7.142-2.918-10.644v-4.683v-6.437h-2.297h-1.65
		c-2.105-5.441-4.503-11.633-6.656-16.436l-0.292-0.627c-1.863-3.973-4.572-9.154-6.565-13.063
		c-10.856-18.273-12.01-20.215-18.812-29.095c0.486,0.64,0.984,1.304,1.503,1.996l6.304,8.927c0.023,0.034,0.055,0.084,0.076,0.12
		c-2.824-3.545-5.153-7.459-8.069-10.938l-10.528-11.265c-1.989-2.119-2.694-3.379-2.703-3.389c0.045-0.021,0.096-0.042,0.136-0.061
		c0.96,0.722,2.964,2.412,6.102,5.88c-9.105-10.8-11.063-12.79-19.98-21.154c-12.848-11.041-22.989-19.76-42.229-30.839
		c-8.963-5.09-18.418-9.379-28.287-12.801c-1.087-0.377-2.183-0.739-3.277-1.094c-0.238-0.077-0.474-0.161-0.711-0.237l0.01,0.032
		c0.179,0.4,0.392,0.881,0.596,1.341c0.115,0.261,0.229,0.517,0.33,0.743c0.714,0.077,0.714,0.077,13.563,8.661
		c-1.156-0.376-2.772-0.675-3.985-0.727c1.245,0.795,2.865,1.811,4.585,2.881c1.693,1.053,3.479,2.158,5.106,3.16
		c3.123,1.925,5.641,3.464,5.69,3.496c-0.08,0.028-0.172,0.06-0.259,0.091c-0.514,0.181-1.116,0.392-1.589,0.557
		c1.155,0.722,2.896,1.38,4.23,1.67c-2.023,0.392-2.023,0.392-10.478-3.258c0.717-0.233,1.644-0.705,2.224-1.301
		c0.144-0.147,0.271-0.299,0.361-0.46c-0.229-0.198-0.433-0.372-0.646-0.53c-1.521-1.125-3.606-1.401-20.352-3.506
		c-0.236-0.03-0.464-0.059-0.705-0.089c-0.331,1.069-0.308,2.676,0.115,3.751c-0.009,0.015-0.02,0.033-0.026,0.048
		c0.023,0.033,0.059,0.067,0.083,0.101c0,0,0,0,0,0.001c-0.305,0.527-0.71,1.229-1.017,1.757c0.798,1.086,2.133,2.325,3.199,3.142
		c-0.076,0.649-0.173,1.516-0.248,2.165c3.411,1.104,3.411,1.104,11.547,12.743c-2.556,8.95,10.352,17.131,15.059,17.29
		c0.087-0.58,0.132-1.268,0.138-1.953c0.007-0.745-0.034-1.495-0.129-2.127c0.171-0.006,0.272-0.008,1.055,0.338
		c0.729,0.324,2.062,0.956,4.6,2.18c1.021,0.489,2.234,1.078,3.686,1.775c0.573,0.514,1.053,0.938,1.45,1.294
		c0.399,1.216,0.882,2.616,1.274,3.722c-0.273-0.138-0.303-0.156-6.327-5.547c-0.271-0.24-0.533-0.479-0.827-0.738
		c-1.527,6.259,5.825,7.805,6.927,12.67c0.045,0.199,0.099,0.394,0.121,0.604c-0.443,0.499-0.943,1.108-1.423,1.725
		c-0.396,0.512-0.78,1.024-1.097,1.481c1.386,3.101,2.933,6.589,0.838,14.015c-0.175,0.621-0.365,1.261-0.595,1.938
		c-0.416-0.097-0.928-0.215-1.398-0.324c-0.201-0.046-0.396-0.091-0.572-0.131c-0.041,0.611-0.174,1.329-0.37,2.024
		c-0.187,0.664-0.43,1.31-0.713,1.822c-0.602,0.063-1.293,0.244-1.963,0.487c-0.656,0.238-1.29,0.539-1.791,0.856
		c4.481,6.041,15.516,5.875,16.261,15.429c0.037,0.469,0.058,0.953,0.042,1.472c-4.969,2.23-10.965,1.227-15.658,4.312
		c-0.511,0.334-1.009,0.7-1.482,1.143c5.871,6.857,5.223,17.021,11.887,23.479c12.446-1.824,3.065,17.07,4.495,26.283
		c-1.081,1.203-1.877,2.295-2.75,4.299c-0.814,1.397-1.583,3.285-2.616,6.529c-1.561,4.901-3.26,9.76-4.929,14.627
		c-1.521,4.437-3.017,8.881-4.354,13.377c-2.604,8.733,2.015,17.258,2.407,25.905c0.132,2.854-0.196,5.72-1.396,8.609l15.686,28.562
		c3.785,1.393,7.03,3.649,10.233,5.977c2.659,1.93,5.292,3.908,8.18,5.475c2.789-3.172,12.737-8.834,21.219-13.166
		c6.291-3.215,11.774-5.695,12.923-5.881c2.104,2.98,2.427,4.115,2.984,8.084c5.371-2.822,5.371-2.822,8.129-2.777
		c0.283,0.953,0.939,2.185,0.939,3.176l-0.91,39.525c-0.338,5.453-3.069,13.354-3.618,14.879c-0.287,0.809-3.63,10.066-9.658,22.236
		c-6.375,12.869-15.754,28.99-27.704,41.832c-1.241,1.334-2.51,2.635-3.806,3.891h0.004l0,0v-0.002h0.008v-0.004l0.001-0.004h0.002
		c8.161-5.102,23.473-21.688,31.253-31.293c13.256-17.904,14.052-18.975,20.896-30.986c3.168-6.19,5.414-10.58,7.141-14.051
		c4.769-9.482,5.87-12.311,9.359-21.814c7.104-22.364,7.382-23.239,9.859-36.516c3.297-23.299,3.563-25.201,3.73-40.919
		C1005.435,284.765,1005.191,275.375,1004.566,268.368z M899.429,280.089c0.688-0.43,1.368-0.807,2.076-1.295
		C900.815,279.257,900.103,279.694,899.429,280.089z M943.232,152.847c0.105-0.121,0.164-0.33,0.159-0.67
		c0.85,1.129,1.093,1.664,1.089,2.385c1.816,0.791,2.011,0.875,3.488,2.354c-0.265-0.796-0.751-2.272-0.58-3.219
		c0.089-0.489,0.357-0.83,0.934-0.854c0.429-0.019,1.019,0.133,1.838,0.54c0.953,0.472,5.729,3.704,7.234,6.147
		c0.896,1.453,1.354,2.494,1.537,3.253c0.514,2.104-1.146,1.938-1.825,1.786c-0.524-0.116-1.09-0.37-1.539-0.598
		c-0.161-0.08-0.312-0.158-0.436-0.226c-0.682,0.663-0.562,1.932-0.29,4.114c0.111,0.908,0.159,1.541,0.153,2.029
		c-0.008,0.703-0.131,1.099-0.36,1.498c-3.479,3.748-13.488-19.201-13.579-19.449C942.058,152.646,942.897,153.229,943.232,152.847z
		 M914.468,185.429c0.458-0.367,0.964-0.647,1.488-0.895c1.646-0.771,3.5-1.178,4.771-2.621c0.646-0.734,0.945-1.336,1.058-2.021
		c0.115-0.713,0.026-1.52-0.104-2.67c0.362-0.226,0.723-0.277,1.077-0.26c0.783,0.039,1.557,0.455,2.344,0.367
		c3.898,4.205,5.076,5.477,10.646,7.25c4.021,1.277,6.237,1.984,10.05,6.49c0.01,0.014,0.516,1.021,0.399,2.17
		c-0.042,0.42-0.161,0.854-0.425,1.271c-0.536,0.851-1.401,1.229-2.246,1.64c-0.586,0.283-1.161,0.58-1.609,1.063
		c1.653,2.438,4.633,2.174,6.893,3.387c0.063-0.972-0.304-1.765-0.754-2.521c-0.461-0.778-1.009-1.521-1.271-2.383
		c0.868-1.125,0.354-2.366,0.183-3.582c0.203-0.563,0.208-1.131,0.14-1.614c0.041-0.097,0.086-0.188,0.144-0.285
		c0.021-0.01,0.023-0.01,0.023-0.012c-0.097-0.188-0.224-0.365-0.362-0.533c-1.09-1.313-3.298-2.046-3.48-3.769
		c-0.038-0.354,0-0.748,0.164-1.2c0.392,0.014,0.645,0.024,1.046,0.194c0.418,0.176,0.997,0.523,2.065,1.232
		c-0.579-1.102-1.412-1.887-2.348-2.54c-1.907-1.336-4.246-2.13-5.778-3.935c-0.25,0.343-0.344,0.472-0.642,0.649
		c-4.511,0.605-5.606-5.09-9.695-5.268c-2.258-3.074-2.776-3.857-2.408-5.396c0.603,0.299,1.102,0.784,1.663,1.157
		c0.378,0.249,0.781,0.449,1.269,0.507c0.146-0.183,0.277-0.474,0.341-0.699c0.688,0.588,1.562,1.426,2.289,1.957
		c3.522,2.563,8.156,2.608,11.677,5.178c3.125,2.279,4.094,6.375,7.252,8.632c1.324,0.95,1.435,1.028,3.45,2.177
		c0.54,2.33,2.586,3.68,3.686,5.646c0.066-0.228,0.208-0.515,0.34-0.713c0.021,0,0.021,0,1.386,0.174
		c0.069-0.106,0.166-0.254,0.242-0.364c-0.271-0.431-0.604-0.815-0.938-1.201c-0.43-0.495-0.858-0.987-1.177-1.563
		c0.104,0.101,0.238,0.236,0.344,0.338c0.116-0.016,0.271-0.034,0.393-0.049c-0.188-1.199-0.526-1.439-1.145-1.879
		c0.052-0.103,0.112-0.233,0.16-0.336c1.344-0.315,1.175-1.021,1.001-1.354c-0.055-0.104-0.107-0.176-0.118-0.186
		c-0.021-0.026-0.048-0.052-0.068-0.078c-2.06-2.53-5.163-3.891-7.217-6.426c0.02-0.106,0.055-0.25,0.074-0.359
		c0.533-0.071,1.071,0.144,1.602-0.034c-0.027-1.195-1.203-1.618-1.691-2.511c0.128,0.011,0.293,0.039,0.418,0.035
		c0.697-0.021,0.778-0.731,1.099-1.179c0.137-0.19,0.313-0.337,0.607-0.353c0.651-0.03,0.952,0.593,1.327,1.383
		c0.021,0.039,2.572,4.425,2.747,4.54c0.098-0.104,0.222-0.242,0.313-0.351c-0.104-0.472-0.187-0.769-0.456-1.181
		c0.372,0.511,0.972,1.349,1.982,2.752c-0.243-0.026-0.574-0.039-0.819-0.008c-0.065,0.381-0.1,0.617,0.161,0.961
		c0.093,0.092,0.175,0.192,0.263,0.287c0.113,0.11,0.245,0.229,0.417,0.371c0.245-0.032,0.552-0.159,0.757-0.293
		c1.659,0.565,3.508,4.657,3.522,4.696c-0.169-1.631,2.304-0.287,3.412-0.664c0.087-0.514,0.124-0.797-0.275-1.85
		c0.45,0.065,0.885,0.102,1.2-0.011c0.019-0.103,0.032-0.194,0.044-0.287c0.401-0.077,0.604-0.599,0.757-1.851
		c0.601,0.041,0.819-0.599,1.006-2.573c0.271,0.478,0.547,0.959,0.778,1.372c5.742,10.227,7.546,14.934,8.804,18.513
		c0.103,0.29,0.201,0.576,0.298,0.854c-0.364,0.718-1.17,0.923-1.8,1.33c-0.313,0.201-0.583,0.446-0.731,0.836
		c-0.249,0.642-0.248,1.354-0.122,2.194c0.076,0.503,0.197,1.05,0.338,1.649c-2.632,0.578-5.374,0.24-7.981,0.99
		c-1.489-2.24-2.525-2.156-3.209-1.424c-0.779,0.842-1.099,2.533-1.104,2.566c-0.107,0.701-0.133,0.912,0.938,3.352
		c0.077,0.176,0.16,0.361,0.248,0.563c0.314,0.708,0.706,1.576,1.189,2.646c0.126,0.278,0.253,0.56,0.394,0.867
		c-1.586,1.504-4.654,3.176-8.491-0.731c-0.508-0.519-1.026-1.123-1.56-1.849c-2.021-0.146-3.854,1.172-5.905,0.773
		c-1.7-0.328-2.25-0.854-3.44-2.271c-0.104-0.121-0.2-0.235-0.313-0.373c-0.177,0.086-0.283,0.222-0.365,0.373h-0.765v0.859
		c-1.079-1.859-0.31-4.089-1.138-6.003c0.483,0.334,0.483,0.334,0.981,2.035c0.18-0.556,0.349-1.082-0.399-2.127
		c-0.856-1.187-2.313-1.695-3.189-2.856c-0.913-1.212-0.102-2.638-0.479-3.916c-3.213-0.582-3.213-0.582-3.516-0.877
		c-2.048,2.565-2.738,3.43-7.202,5.52c-7.322,3.434-9.594,5.023-11.392,8.23c-0.328,0.584-0.644,1.23-0.967,1.942
		c-0.261,0.573-0.526,1.187-0.816,1.866c-2.507-0.344-4.395,2.014-6.917,1.578c-1.724-0.299-2.518-1.658-3.526-3.379
		c0.419-0.332,0.901-0.705,1.396-1.08c0.691-0.525,1.407-1.056,2.021-1.486c3.157-2.24,4.726-4.215,5.315-6.061
		c0.777-2.428-0.128-4.634-1.351-6.928c-1.846-3.46-1.225-4.732,2.231-11.813C916.556,188.257,915.238,187.024,914.468,185.429z
		 M881.628,116.847c-1.821-1.877-2.069-4.682-3.875-6.565c-1.396-1.462-3.979-1.572-4.529-3.988
		c-0.226-0.973,0.521-1.036,1.393-0.819l3.171,2.25c1.096,1.594,2.759,4.07,2.697,4.27c-0.116,0.051-0.281,0.094-0.404,0.107
		c0.38,0.271,0.72,0.51,1.068,0.76c8.587,6.1,8.633,6.137,9.16,6.604c-0.002,0.003-0.005,0.005-0.006,0.009
		c-0.192,0.354-0.601,0.328-0.889,0.508c-0.106,0.791,1.969,1.289,3.296,1.002c0.298-0.063,0.558-0.166,0.746-0.313
		c0.528-0.411,0.754-1.104,0.906-1.844c0.247-1.2,0.309-2.523,1.138-3.011c0.269-0.155,0.606-0.233,1.067-0.184
		c0.188,0.372,0.521,0.835,0.627,1.237c0.179,0.688,0.193,1.01-0.729,2.639c-0.821,1.457-0.203,2.636,0.128,3.269
		c0.98,1.884,2.392,2.66,2.649,2.048c0.188-0.45-0.331-0.914,0.033-1.357c0.077-0.09,0.313-0.147,1.009,0.101
		c0.308,0.24,0.606,0.488,0.913,0.729c0.869,0.688,1.737,1.378,2.597,2.08c0.06,0.129,0.113,0.312,0.144,0.451
		c-0.045,0.051-0.107,0.123-0.153,0.173c-0.367-0.042-0.704-0.198-1.035-0.375c-0.737-0.396-1.444-0.902-2.385-0.563
		c-0.118,0.047-0.197,0.281-0.144,0.394c0.244,0.481,0.725,1.036,1.072,1.453c1.668,2.018,4.112,3.209,5.698,5.317
		c0.385,0.51,0.603,1.078,0.769,1.666c0.248,0.871,0.379,1.783,0.748,2.612c-1.244-0.687-2.034-0.937-2.544-0.866
		c-0.813,0.109-0.908,1.039-0.955,2.357c-0.005,0.152-0.013,0.298-0.021,0.438c-0.133,1.979-0.764,2.545-3.358,0.933
		c-0.14-0.086-0.277-0.173-0.428-0.271c-0.143,0.182-0.217,0.385-0.269,0.596c-0.184,0.766,0.031,1.668-0.722,2.233
		c-1.117-1.884-1.785-4.03-3.21-5.739c-0.031-0.086-0.063-0.182-0.097-0.271c1.01,0.293,1.438,1.355,2.322,1.813
		c0.289-0.273,0.155-0.649,0.239-0.977c0.007-0.027,0.006-0.055,0.017-0.081c0.313-0.037,0.367-0.046,0.979,0.427
		c-0.237-1.172-1.303-1.748-1.901-2.658c-0.05-0.076-0.104-0.148-0.146-0.23c0.106-0.044,0.248-0.105,0.348-0.155
		c0.521-0.344,0.793-0.688,0.909-1.224c0.042-0.192,0.063-0.413,0.066-0.667c0.001-0.104,0.001-0.213-0.003-0.331
		c-2.442-1.707-4.404-3.959-6.651-5.889c0.165-4.104-2.584-5.486-4.923-5.93C885.515,120.513,885.107,120.435,881.628,116.847z"/>
	<path fill="#542954" d="M717.195,86.291c1.168,0.037,4.021-0.547,4.146-0.572c0.449-0.093,0.988-0.417,1.431-0.549
		c0.47-0.144,0.966-0.182,1.438-0.322c0.245-0.074,0.569-0.183,0.81-0.259c-0.047-0.222-0.12-0.268-0.325-0.412
		c-1.155-0.512-3.76-0.38-8.198,0.412c0.103,0.236,0.095,0.387-0.044,0.811C716.289,85.877,716.164,86.255,717.195,86.291z"/>
	<path fill="#542954" d="M715.467,90.293c1.583,0.7,2.833,1.251,6.585-0.082c0.375-0.134,0.864-0.333,1.237-0.477
		c-0.546-1.209-0.546-1.209,2.185-2.657c-2.644,0.4-2.644,0.4-3.525,0.605c-0.015,0.275-0.02,0.355-0.784,0.733
		c-0.889,0.439-0.935,0.509-1.159,0.845c-0.19-0.063-0.19-0.063-0.457-0.365c0.024-0.229,0.123-0.545,0.267-0.725
		c0.614-0.745,1.396-1.326,2.021-2.058c0.041,0,0.099,0.003,0.136,0.013c0.035,0.057,0.035,0.057,0.021,0.185
		c0.021,0.019,0.039,0.044,0.056,0.063c0.558,0.007,1.608-0.538,1.806-0.709c-0.007-0.018-0.011-0.044-0.019-0.062
		c-0.25-0.045-0.523,0.082-0.757-0.098c-0.753,0.154-1.427,0.568-2.196,0.666c-0.003-0.021-0.008-0.044-0.008-0.064
		c-0.954-0.363-5.359,0.937-5.857,1.085c-0.012,0.002-0.86,0.555-0.686,0.868c0.087,0.146,0.396,0.217,0.645,0.27
		c0.461,0.105,0.608,0.146,0.654,0.341c0.016,0.063-0.3,0.547-0.479,0.427c-0.092-0.064-0.041-0.18-0.089-0.258
		c-0.183-0.036-0.302-0.059-1.599,0.499c0.018,0.043,0.042,0.096,0.058,0.141c-0.146,0.143-0.146,0.143-0.523,0.317
		C713.938,89.799,714.399,89.82,715.467,90.293z"/>
	<path fill="#542954" d="M626.118,129.249c0.971-1.008,1.86-2.092,2.901-3.033c1.58-1.422,2.879-2.301,3.371-2.629
		c-0.279-0.24,0.006-0.521-0.037-0.779c-0.213-0.271-1.203,0.559-1.213,0.566c-3.312,3.307-5.027,5.236-5.107,5.742
		C626.028,129.153,626.019,129.233,626.118,129.249z"/>
	<path fill="#542954" d="M735.964,91.263c1.08-0.199,1.336-0.249,1.514-0.068c0.005,0.007,0.011,0.015,0.017,0.018
		c0.503-0.318,1.55-0.985,1.149-1.102c-0.01-0.001-0.026-0.003-0.04-0.007c-0.361-0.042-1.14,0.155-1.146,0.158
		C737.452,90.264,736.862,90.574,735.964,91.263z"/>
	<path fill="#542954" d="M819.585,86.171c0.428,0.073,0.779-0.251,1.195-0.244c0.229,0.003,0.56,0.045,0.563,0.047
		c1.524,0.331,2.917,1.087,4.438,1.432c0.6,0.135,0.6,0.135,3.787,0.436c-5.206-2.589-6.042-3.22-6.223-3.425
		c-0.024-0.03-0.038-0.051-0.048-0.067c0.362-0.063,1.597,0.293,4.249,1.23c-0.356-0.411,0.728-0.272,1.004-0.576
		c0.001-0.001,0.005-0.002,0.005-0.003c-0.078-0.102-1.005-0.807-1.929-1.001c-0.153-0.032-0.309-0.054-0.458-0.053
		c-1.975,0.025-4.269-0.563-6.286-1.079c0.625-0.11,1.795-0.312,0.903-0.992c-0.161-0.123-0.663-0.425-1.53-0.773
		c-1.245-0.507-2.237-0.316-2.855-0.072c-0.433,0.17-0.687,0.366-0.688,0.371c-0.061,0.161-0.08,0.33-0.093,0.5
		c-0.146,0.148-0.266,0.333-0.444,0.442h-0.002c0.127,0.05,0.263,0.104,0.401,0.157c-0.021,0.173-0.056,0.345-0.142,0.506
		c0.56,0.403,1.25,0.482,1.856,0.763c-2.142-0.231-2.142-0.231-2.229-0.219c-0.398,0.056-0.517,0.469-0.814,0.651l-0.004,0.001
		h-0.002c1.748,0.682,4.745,1.845,4.745,1.845C819.166,86.09,819.406,86.141,819.585,86.171z"/>
	<path fill="#542954" d="M727.005,88.512c-0.929,0.321-1.793,0.782-2.675,1.207c-0.183,0.087-0.36,0.175-0.544,0.257
		c0.034,0.104,0.083,0.242,0.118,0.343c-0.179,0.334-0.417,0.633-0.599,0.968c0.027,0.094,0.065,0.224,0.101,0.316
		c0.302,0.053,0.45,0.074,1.091-0.038c0.029,0.008,0.057,0.017,0.088,0.023c-1.613,1.013-1.515,1.302-1.347,1.728
		c0.395,0.153,1.023,0.399,2.527-0.237c0.205-0.087,0.426-0.188,0.665-0.311c-0.107,0.095-0.229,0.241-0.305,0.365
		c0.291,0.157,0.291,0.157,0.881-0.034c-0.16,0.084-0.369,0.191-0.535,0.273c-0.007,0.004-0.017,0.008-0.021,0.012
		c-0.596,0.358-0.794,0.484-1.165,0.952c-0.184,0.229-0.401,0.533-0.734,0.999c0.792-0.44,1.583,0.269,2.374,0
		c0.873-0.292,1.547-0.833,2.172-1.437c0.57-0.552,1.102-1.153,1.692-1.677c0.198-0.091,0.397-0.179,0.599-0.27
		c0.096,0.111,0.208,0.182,0.657,0.461c-0.448,1.144-1.73,1.379-2.719,1.937c-0.604,0.342-1.101,0.806-1.219,1.677
		c0.075,0.054,0.165,0.152,0.256,0.175c0.933,0.256,1.875-0.161,2.808,0.061c1.721,0.409,3.165,1.523,4.881,1.944
		c0.272,0.066,1.057,0.185,1.707,0.174c3.688-0.066,3.57-2.566,3.563-2.593c-0.002-0.006-0.008-0.009-0.009-0.015
		c-0.276-0.984-2.646-0.93-4.071-0.897c-2.901,0.069-4.008-0.153-2.883-1.652c2.664,0.019,5.21,1.024,7.882,0.957
		c-0.007,0.063-0.021,0.138-0.038,0.218c-0.036,0.166-0.098,0.361-0.202,0.568c0.019,0.027,0.034,0.056,0.051,0.08
		c1,0.018,3.438-0.1,4.459-1.564c-0.187-0.113-0.187-0.113-0.657-0.047c-0.013-0.079-0.022-0.183-0.037-0.262
		c1.269-0.545,1.465-0.628,3.594-1.167c0.537-0.136,1.794-0.453,2.468-0.718c0.264-0.105,0.611-0.249,0.875-0.354
		c0.045-0.019,0.082-0.048,0.123-0.072c0.254-0.146,0.436-0.362,0.594-0.601c0.008-0.013,0.017-0.025,0.023-0.039
		c0.256-0.39,0.479-0.813,0.938-1.004c2.332-0.966,4.813-1.479,7.234-2.167c1.504-0.427,2.983-0.921,4.395-1.634
		c0.438-0.22,1.009-0.531,1.438-0.763c-0.362-0.201-0.702-0.376-1.034-0.54c-0.113-0.056-0.228-0.112-0.337-0.164
		c-1.462-0.688-2.721-1.042-4.413-1.272c-2.625-0.27-2.625-0.27-5.881,0.693c-0.69-0.524-1.979-0.851-6.734,0.299
		c0.039,0.088,0.086,0.213,0.122,0.305c-0.394,0.521-0.972,0.897-1.215,1.542c-0.266-0.068-0.266-0.068-0.078-1.709
		c-0.794-0.887-6.063,0.81-7.253,2.681c0.021,0.078,0.049,0.18,0.068,0.254c0.167,0.003,0.393-0.013,0.557-0.044
		c-0.091,0.042-0.207,0.094-0.295,0.136c-0.358,0.161-0.646,0.315-0.896,0.465c-2.251,1.347-0.485,2.215-0.461,2.222
		c0.101,0.03,0.211,0.045,0.321,0.059c0.007,0.001,0.015,0.003,0.021,0.004c0.442,0.052,0.959-0.004,1.457-0.106
		c0.327-0.015,0.656-0.019,0.985-0.024c-0.071,0.049-0.149,0.102-0.215,0.146c-0.089,0.108-0.203,0.249-0.292,0.356
		c0.175,0.147,0.428,0.328,0.644,0.403c-0.15,0.39-0.646,0.749-1.001,0.966c0.874-0.928-0.022-1.053-0.129-1.062
		c-0.646-0.069-1.563,0.389-1.906,0.562c0.063,0.032,0.148,0.071,0.212,0.104c-0.185,0.423-0.874,0.642-1.719,0.727
		c-0.909,0.092-1.997,0.026-2.844-0.119c-0.76-0.131-1.321-0.325-1.37-0.526c-0.019-0.08-0.005-0.198,0.028-0.327
		c-0.377,0.104-0.754,0.208-1.126,0.324c0.104-0.136,0.193-0.282,0.264-0.456c-0.603-0.375-0.603-0.375-0.76-0.599
		c-0.314,0.233-0.604,0.498-0.886,0.773c-0.192,0.312-0.368,0.646-0.56,0.956c-0.393,0.637-0.854,1.165-1.687,1.154
		c-0.13-0.002-0.267-0.014-0.416-0.043c-0.027-0.058-0.053-0.13-0.072-0.202c-0.026-0.092-0.047-0.187-0.051-0.265
		c-0.332-0.098-0.41-0.122-1.867,0.531c0.95-0.743,2.031-1.276,3.05-1.909c0.238-0.148,0.479-0.296,0.707-0.46
		c-0.232-0.337-0.465-0.617-0.785-0.796c-0.649-0.362-1.677-0.303-3.886,0.593c0.771-0.584,0.869-0.659,1.016-0.998
		C726.561,88.846,726.619,88.801,727.005,88.512z M747.952,88.554c0.372-0.147,0.428-0.027,0.451,0.02
		c-0.032,0.019-0.076,0.049-0.104,0.073c-0.617,0.424-0.886,0.555-0.856,0.417c0.011-0.061,0.094-0.174,0.138-0.232
		c-0.382,0.274-0.78,0.576-0.988,0.789c-0.068-0.007-0.138-0.013-0.206-0.02C746.815,89.219,747.517,88.725,747.952,88.554z"/>
	<path fill="#542954" d="M735.787,87.881c-0.604-0.244-1.141,0.897-1.048,1.272c0.058,0.232,0.807,0.457,1.755,0.583
		c0.233-0.108,0.521-0.252,0.901-0.446c-0.291-0.157-0.643-0.122-0.934-0.279c0.202-0.271,0.305-0.341,0.92-0.621
		c-0.021,0.064-0.05,0.151-0.068,0.212c0.355-0.1,0.355-0.1,1.017-0.462c-0.075-0.021-0.17-0.045-0.245-0.064
		c-0.056-0.197-0.009-0.375,0.055-0.551C736.721,88.241,736.666,88.234,735.787,87.881z"/>
	<path fill="#542954" d="M731.244,87.556c0.229-0.017,0.274,0.044,0.343,0.156c0.122,0.215,0.313,0.232,1.135-0.082
		c-0.03-0.036-0.03-0.036-0.117-0.063c-0.015-0.005-0.016-0.007-0.016-0.01h-0.005h-0.006c-0.021-0.009-0.041-0.025-0.06-0.041
		c0.041-0.222,0.525-0.364,0.606-0.268c0.084,0.096-0.056,0.284-0.219,0.502c-0.147,0.198-0.297,0.407-0.192,0.5
		c0.084,0.077,0.34,0.076,0.938-0.089c0.042-0.011,0.099-0.032,0.164-0.061c0.261-0.113,0.696-0.353,1.172-0.657
		c0.953-0.612,2.051-1.486,2.191-2.132c0.048-0.217-0.005-0.41-0.218-0.556c-0.072-0.049-0.184-0.096-0.264-0.129
		c-0.545-0.18-1.096-0.183-1.096-0.183c-0.013,0.003-0.911,0.322-1.693,0.882c-0.406,0.29-0.778,0.436-1.883,0.872
		c0.188,0.402,1.152,0.434,0.854,0.953C732.806,86.954,732.173,87.169,731.244,87.556z"/>
	<path fill="#542954" d="M762.172,87.695c-0.217,0.106-0.432,0.219-0.653,0.307c-0.021-0.065-0.039-0.132-0.057-0.188
		c-0.232,0.035-0.572,0.088-1.113,0.576c-0.064,0.059-0.132,0.12-0.203,0.192c0.04,0.087,0.093,0.208,0.135,0.297
		c0.443,0.062,0.904-0.01,1.34,0.145c0.01,0.104,0.019,0.242,0.021,0.342c-2.193,1.236-4.746,1.276-7.11,1.946
		c-0.042,0.012-0.084,0.028-0.127,0.041c-0.646,0.19-1.281,0.419-1.887,0.749c0.244,0.173,0.423,0.306,0.564,0.421
		c0.375,0.308,0.466,0.491,0.646,0.954c-0.052-0.009-0.083-0.006-0.41,0.189c-0.236,0.142-0.627,0.382-1.313,0.808
		c1.347,5.978,12.075,1.62,11.171,8.047c-0.198,1.394,0.012,2.785-0.005,4.18c-0.011,1.286-0.06,1.547-0.239,2.521
		c0.832-0.063,1.479-0.078,2-0.029c1.287,0.117,1.813,0.617,2.408,1.709c-0.063,0.039-0.132,0.078-0.188,0.113
		c0.011,0.058,0.023,0.104,0.037,0.151c-2.438-0.571-2.471-0.571-3.116-0.515c-0.118,0.461-0.118,0.461,0.193,1.404
		c-0.15,0.062-0.219,0.084-0.413-0.003c-0.144-0.062-0.35-0.177-0.711-0.382c-1.19,2.457,0.612,3.855,2.823,3.107
		c0.847-0.281,1.201-0.84,1.438-1.203c-0.694,0.031-0.981-0.002-1.132-0.503c0.203-0.033,0.411-0.079,0.624-0.151
		c0.053-0.02,0.086-0.043,0.136-0.063c0.521,0.153,0.612,0.215,1.009,0.494c0,0.012-0.007,0.491-0.027,1.071
		c-0.031,0.834-0.093,1.873-0.21,2.028c-1.493-0.524-2.646,0.093-3.473,1.226c-1.425,1.962-1.852,5.476-1.271,7.353
		c0.278,0.9,1.25,1.859,2.02,2.404c0.646,5.229,2.273,9.25,7.281,12.291c2.366,1.438,5.481,2.656,9.611,3.683
		c0.169-0.583,0.37-1.332,0.563-1.955c0.026-0.089,0.055-0.183,0.08-0.265c1.078-3.379,2.782-6.521,3.878-9.896
		c0.354-1.1,0.026-2.777,0.563-3.805c0.157-0.305,0.387-0.549,0.639-0.766c1.06-0.906,2.758-1.139,3.67-1.256
		c1.1-0.143,1.896-0.242,2.676-0.805c0.322-0.234,0.688-0.626,0.985-0.891c1.742-1.578,2.425-3.951,4.165-5.525
		c0.765-0.691,2.241-0.871,3.229-1.162c6.673-1.973,8.018-3.139,9.47-6.422c-0.021,0.001-0.037,0.002-0.06,0.002
		c0.116-0.176,0.229-0.357,0.335-0.549c0.031-0.055,0.063-0.105,0.094-0.162c-0.202-0.406-0.44-0.777-0.698-1.125
		c-0.137-0.184-0.271-0.361-0.414-0.527c-1.21-1.393-2.646-2.215-3.009-2.409c0.58-1.275-0.616-2.196-0.663-3.351
		c0.186-0.093,0.485-0.098,0.682-0.036c-0.522-2.21-0.531-2.315,0.594-3.816c0.048-0.064,0.085-0.115,0.138-0.184
		c-0.043-0.038-0.074-0.063-0.115-0.098c-1.433-1.233-1.563-1.194-2.364-0.876c0.047,0.475,0.047,0.475,1.521,1.564
		c-1.442,0.007-1.442,0.007-1.688-0.196c-0.016-0.309-0.016-0.309-3.397-3.817c0.054-0.08,0.122-0.188,0.177-0.27
		c0.892,0.487,1.573,1.313,2.604,1.563c-1.146-0.912-1.368-3.428-3.359-2.843c-1.578-0.906-1.85-2.734-2.857-4.038
		c-0.185,0.687,0.453,1.256,0.282,1.941c-0.487-0.866-1.521-1.28-1.885-2.25c-0.487-1.302-0.205-2.696-0.474-4.025
		c-0.021-0.092-0.041-0.219-0.06-0.313c-4.237-0.91-3.692,0.295-3.399,0.941c-0.522-0.467-0.522-0.467-0.871-0.616
		c-0.058,0.19-0.127,0.442-0.178,0.635c-0.251-0.036-0.574-0.18-0.782-0.324c0.08-0.044,0.188-0.104,0.27-0.146
		c-0.13-0.254-0.295-0.568-1.241-0.59c0.164,0.226,0.462,0.468,0.7,0.613c-0.282,0.11-0.282,0.11-2.156-0.663
		c0.094-0.059,0.219-0.137,0.313-0.198c-0.046-0.122-0.105-0.291-0.15-0.416c-3.929-1.392-6.848-1.381-8.956-1.216
		c-3.375,0.414-6.424,2.33-9.923,2.203h-0.023c-0.102-0.007-0.231-0.013-0.329-0.02c-0.039,0-0.049-0.002-0.06-0.002
		c-3.245-0.15-6.35,1.433-7.915,2.393C762.425,87.534,762.289,87.618,762.172,87.695z"/>
	<path fill="#542954" d="M866.073,131.009c-0.031-0.039-0.073-0.086-0.104-0.125c-0.494-0.57-1.456-1.41-1.935-1.254
		c-0.058,0.023-0.087,0.047-0.126,0.098c0.771,0.84,1.541,1.688,2.306,2.539C866.987,132.351,866.488,131.519,866.073,131.009z"/>
	<path fill="#542954" d="M893.566,158.108c-0.113-0.113-0.207-0.207-0.298-0.301c-0.431-0.453-0.753-0.926-2.63-3.668
		c-1.506-2.207-1.662-2.438-3.854-1.705c-2.647-2.479-2.647-2.479-9.875-6.4c-2.378-1.295-3.378-2.033-3.381-2.039
		c-0.212-0.266-0.238-0.764-0.318-1.098c-0.438-1.76-0.729-2.295-1.688-3.658c-1.324,0.061-2.514,1.305-3.938,0.438
		c-0.057-2.123-0.088-2.732-1.546-4.17c-0.151-0.148-0.304-0.299-0.487-0.469c0.069,0.15,0.164,0.35,0.233,0.497
		c0.015,0.067,0.023,0.128,0.034,0.188c0.105,0.631,0.005,0.975-0.871,1.799c-0.021,0.02-0.036,0.037-0.058,0.057
		c-1.247,1.193-1.364,1.896,0.178,4.044c-0.771-0.396-1.356-0.479-1.753-0.249c-0.092,0.553,0.423,1.041,0.583,1.18
		c0.164,0.141,0.508,0.098,0.682,0.223c1.398,1.003,2.044,2.967,4.059,3.178c-0.987,0.346-1.256,0.624-0.752,1.563
		c0.083,0.153,0.184,0.322,0.311,0.521c0.543-0.056,0.743-0.604,1.183-0.81c0.249,0.25,0.271,0.27,0.536,1.047
		c0.595,0.08,0.478-0.627,0.595-1.104c0.311,0.062,0.603,0.157,0.883,0.272c0.736,0.772,0.875,2.022,1.761,2.684
		c0.205-0.053,0.403-0.107,0.607-0.161c0.56-0.146,1.116-0.291,1.665-0.438c0.814,0.882,1.794,1.597,2.665,2.423
		c0.421,0.397,0.822,0.815,1.156,1.305c-0.302,0.083-0.614,0.162-0.92,0.244c-0.687,0.185-1.369,0.367-2.068,0.547
		c0.763,1.331,2.196,1.996,3.202,3.084c0.206,0.226,0.401,0.46,0.563,0.729c-0.15,0.089-0.281,0.166-0.405,0.24
		c-1.006,0.604-1.188,0.793-1.264,1.563c0.288,0.272,0.684,0.644,1.12,0.715c0.683,0.104,1.304-0.308,1.979-0.229
		c0.998,1.822,0.014,3.736,0.269,5.598C885.479,162.903,890.823,162.526,893.566,158.108z"/>
	<path fill="#542954" d="M862.805,141.022c0.038-0.492,0.08-1.002-0.31-1.777c-0.174-0.342-0.457-0.596-0.6-0.531
		c-0.212,0.203-0.152,0.557-0.405,0.732c-0.214,0.147-0.502,0.043-0.64-0.01c0.878,1.076,2.088,2.547,0.895,2.438
		c-0.081-0.01-0.172-0.023-0.233-0.037c0.937,1.191,1.557,1.768,2.227,2.045C862.792,142.538,862.729,141.952,862.805,141.022z"/>
	<path fill="#542954" d="M834.477,121.547c-1.302-2.036-5.941-2.256-6.401-2.213c-1.813,0.163-1.813,0.163-7.104,3.452
		c-1.35-1.896-1.89-1.939-4.16-2.119c0.003,0.154,0.003,0.361,0.003,0.516c-0.09,0.185-0.218,0.334-0.355,0.477
		c-0.342,0.348-0.766,0.626-0.964,1.096c-0.142,0.344,0.063,0.862,0.161,1.217c0.935,0.116,1.781-0.457,2.711-0.354
		c0.063,0.146,0.139,0.293,0.202,0.407c0.244-0.034,0.461-0.063,0.673-0.092c0.236,0.197,0.271,0.439,0.008,0.633
		c-0.558,0.41-1.278-0.152-1.829,0.298c-0.234,0.196,0.049,0.713,0.219,1.021c2.334-0.331,3.063-0.361,4.365,1.102
		c-0.769,0.152-1,0.199-0.427,1.148c7.604,1.356,11.035-0.972,13.843-4.885c-0.095-0.118-0.174-0.244-0.248-0.373
		C834.917,122.442,834.746,121.97,834.477,121.547z"/>
	<path fill="#542954" d="M875.611,157.61c0.067-0.492,0.129-0.916-0.619-1.885c-0.771-1.004-1.893-1.678-2.614-2.729
		c0.125-0.532,0.618-0.97,0.413-1.588c-0.383-1.177-2.664-2.993-5.087-2.319c-0.323,0.109-0.645,0.24-0.962,0.367
		c-0.499,0.201-0.996,0.404-1.502,0.581c0.292,0.624,0.539,1.155,0.697,1.603c0.32,0.899,0.275,1.457-0.494,1.743
		c-0.354,0.132-0.86,0.208-1.563,0.231c0.473,0.75,0.476,1.701,1.049,2.41c0.058,0.063,0.361,0.418,1.215,0.875
		c1.145,0.604,1.333,0.771,2.032,1.758c-0.562,1.01-1.189,2.156,0.172,3.982c0.008,0.01,1.554,0.682,2.938,0.189
		c1.925-0.684,2.709-3.057,4.916-3.323c-0.388-0.604-0.563-0.897-0.614-1.231C875.561,158.087,875.571,157.888,875.611,157.61z"/>
	<path fill="#542954" d="M680.38,289.624c-0.095-1.076,0.815-1.768,1.053-2.713c0.157-0.631-0.223-0.902-0.586-1.111
		c-0.005,0.029-0.012,0.068-0.017,0.094c-0.123,0.336-0.403,0.291-1.231-0.021c-1.604-0.608-2.317-0.614-2.589,0.946
		c0.473,0.264,0.657,0.455,1.072,1.309C678.52,289.03,678.899,289.81,680.38,289.624z"/>
	<path fill="#542954" d="M715.372,313.97c-0.316,0.187-0.689,0.355-1.42,0.262c-0.027,0.521-0.057,1.035-0.076,1.554
		c0.031,0,0.064,0,0.098,0.006h0.019c0.521,0.062,0.824,0.146,1.271,0.49c0.145,0.108,0.257,0.196,0.398,0.209
		c0.271,0.022,0.602-0.253,0.894-0.494c0.022-0.517,0.048-1.031,0.076-1.554c-0.417-0.436-0.635-0.62-0.91-0.616
		C715.599,313.849,715.565,313.86,715.372,313.97z"/>
	<path fill="#542954" d="M768.64,389.229c-2.823-7.588-11.142-11.679-12.758-20.031c-15.891-9.795-15.891-9.795-21.717-7.705
		c-7.403-5.338-12.439-13.049-19.13-19.104c0.401-0.695,0.938-1.625,1.34-2.32c-0.644-0.312-1.5-0.723-2.139-1.031
		c-0.226,0.783-0.522,1.83-0.749,2.613c-2.389-2.924-6.518-3.033-9.103-5.639c-0.234,1.454-1.321,3.258-2.352,4.313
		c-0.925-0.341-1.729-0.634-2.442-0.892c-0.236-0.084-0.455-0.162-0.672-0.24c-4.234-1.502-5.056-1.528-9.779-1.661
		c-0.782-4.058-4.824-5.537-6.83-8.634c-0.422,1.438-1.274,3.31-2.209,4.48c-0.562-1.494-1.09-3.568-1.366-5.139
		c-0.156,0.01-15.91,2.168-16.904,10.211c-1.312,0.775-2.894,2.107-3.892,3.26c-0.553-0.203-1.071-0.396-1.577-0.58
		c-0.392-0.145-0.769-0.283-1.134-0.416c-9.901-3.631-10.034-3.59-11.623-3.023c-8.159-4.329-9.901-17.188-3.521-25.954
		c0.068-0.771,0.142-1.543,0.215-2.314c-2.091-2.532-2.116-2.557-17.604-8.016v-0.791c3.848-6.813,5.188-14.681,8.945-21.527
		c-2.089-1.146-5.793-2.762-8.945-1.94c-0.572,0.147-1.123,0.384-1.646,0.711c-1.718,1.072-3.1,3.195-3.682,6.994
		c-0.394,0.14-0.684,0.242-1.048,0.345c-0.992,0.276-2.549,0.562-8.356,1.616c-0.432-0.483-0.823-1.008-1.195-1.549
		c-6.63-9.647-4.104-27.845,2.693-37.832c1.396-2.056,2.978-3.746,4.691-4.959c0.701-0.496,1.422-0.916,2.167-1.238
		c1.633-0.703,3.36-0.975,5.155-0.688c0.41,0.065,0.815,0.161,1.221,0.271c3.146,0.851,6.074,2.894,8.273,4.437
		c5.905-3.223,11.752,0.714,17.633,0.136c1.677,20.44,1.677,20.44,1.71,20.558c-1.229,0.894-2.829,2.129-4.011,3.084
		c12.248,2.883,10.256-12.271,9.604-17.248c-0.793-6.03-0.793-6.03,12.068-19.358c0.512,0.09,1.023,0.182,1.538,0.271
		c-0.192-0.076-0.389-0.156-0.591-0.226c-0.54-0.183-0.31-1.05,0.238-0.86c0.644,0.219,1.254,0.477,1.849,0.771
		c14.754-17.506,14.804-17.589,18.886-25.146c1.398-0.036,3.261-0.101,4.655-0.156c0.36-0.562,0.838-1.31,1.196-1.87
		c1.322-0.037,3.115,0.225,4.37,0.649c0.628-0.362,1.468-0.854,2.098-1.22c-0.479-0.539-1.121-1.252-1.604-1.789
		c1.783-3.803,3.805-8.11,17.829-9.543l-0.731,0.349c-0.976,1.2-1.864,3.155-2.178,4.673c1.651-0.023,3.883-0.563,5.354-1.316
		c19.355,10.74,18.582-6.66,17.885-12.25c5.835,0.469,5.835,0.469,8.046,0.908c0.175,0.646,0.403,1.5,0.577,2.143
		c-0.084,0.791-0.08,0.791-0.077,0.791c1.432-0.441,3.25-1.389,4.422-2.324c0.18,0.767,0.422,1.791,0.604,2.561
		c0.661,0.234,1.539,0.553,2.198,0.788c1.162-1.112,2.28-3.062,2.771-4.594c-0.598-0.322-1.395-0.747-1.989-1.065
		c1.255-3.488,1.255-3.488-7.57-7.529c0.534-1.318,1.521-2.977,2.421-4.075c-1.007,0.021-2.351,0.043-3.356,0.063
		c-3.33,3.697-5.399,8.418-9.396,11.58c-4.026-8.043-11.42-2.447-15.381,4.094c0.148-1.623,0.703-3.76,1.336-5.258
		c-0.67-0.039-1.563-0.094-2.233-0.131c1.438-0.646,3.209-1.865,4.365-2.938c-0.419-0.59-0.976-1.375-1.392-1.963
		c-3.947-0.668-5.277-0.893-11.486,1.848c0.89-1.229,2.738-2.479,4.229-2.775c0.951,0.058,0.951,0.058,0.951,0.058h0.003h0.004
		l0.005,0.004h0.004h0.006c0.5-0.634,1.166-1.474,1.67-2.106c25.996-2.519,25.996-2.519,31.046-5.634
		c0.258-1.676,0.519-3.339,0.784-4.985c-4.843-3.047-7.128-4.484-8.892-8.063c-1.573-3.195-2.731-8.098-4.924-17.378
		c-5.325,5.466-6.494,5.608-9.626,5.991c-1.818-2-2.497-2.747-0.396-6.818c-4.252-6.619-4.252-6.619-12.42-7.882
		c-1.515,2.217-2.666,3.901-3.582,5.228c-3.041,4.396-3.368,4.643-4.731,5.627c3.685,10.521-9.423,12.854-9.562,12.865
		c-2.111,7.174-2.111,7.174-6.406,10.682c-0.451-0.666-1.044-1.558-1.496-2.224c1.086-0.897,2.08-2.672,2.365-4.053
		c-0.519-0.593-1.205-1.377-1.722-1.968c0.786-1.323,1.884-3.057,2.771-4.313c-4.899-2.949-6.862-8.838-11.771-11.785
		c-0.458-2.716,0.48-5.346,0.473-8.037c1.603-1.596,1.646-1.631,27.912-13.731c-0.027,0.196-0.055,0.394-0.076,0.593
		c-3.25,2.764-3.349,2.83-5.812,4.493c0.314,0.64,0.734,1.496,1.048,2.138c1.341-0.148,3.105-0.646,4.325-1.228
		c0.078,0.047,0.166,0.093,0.248,0.14c1.241,0.689,2.963,1.319,4.313,1.53c0.254-2.976-1.081-5.886-0.371-8.879
		c0,0.661,0,1.55,0,2.211c2.329-2.396,6.193-2.476,8.16-5.416c0.617,0.267,1.44,0.618,2.056,0.884
		c-0.011,0.061-1.464,6.139-4.201,8.782c8.328,4.437,8.328,4.437,9.026,7.882c2.469,0.588,4.604,1.971,6.923,2.911
		c0.204-0.696,0.479-1.632,0.687-2.328c-0.339-0.608-0.795-1.413-1.138-2.021c1.297,0.565,2.914,1.621,3.932,2.604
		c1.082-0.867,2.513-2.035,3.576-2.924c-2.663-7.252-2.663-7.252-2.656-8.252c1.283,0.86,2.738,2.461,3.438,3.843
		c2.486-0.074,2.486-0.074,6.718-3.373c-1.563-3.011-4.623-4.779-6.331-7.667c0.441-0.521,1.038-1.221,1.479-1.741
		c-0.392-1.609-0.392-1.609-6.12-9.018c0.217-0.749,0.508-1.743,0.723-2.492c-0.168-0.075-16.841-7.133-19.994,4.957
		c0.511,0.464,1.188,1.088,1.697,1.555c-1.047,1.334-2.701,2.913-4.062,3.928c-0.652-0.18-1.521-0.416-2.174-0.596
		c0.362-0.592,0.844-1.379,1.209-1.969c-2.144-5.471-1.402-5.783,10.905-11.028c-1.464-1.24-2.132-1.803-4.224-1.774
		c-1.746,0.024-4.481,0.46-9.51,1.263c-0.354,0.619-0.829,1.441-1.188,2.06c0.543,0.41,1.263,0.959,1.803,1.374
		c-2.868,2.826-2.868,2.826-8.376,3.834c3.124-7.902,3.124-7.902,9.007-9.9c-0.56-0.438-1.301-1.026-1.855-1.466
		c-1.597,0.786-3.68,1.932-5.197,2.853c0.757-0.519,1.767-1.21,2.524-1.729c-0.358-0.595-0.84-1.386-1.194-1.98
		c0.724-1.395,1.796-3.211,2.744-4.469c-0.104-0.222-0.251-0.517-0.356-0.739c-1.703-0.56-3.822-1.255-12.396,2.934
		c0.656,0.489,1.529,1.142,2.187,1.626c0.99-0.213,2.313-0.531,3.319-0.654c-4.012,1.291-4.012,1.291-6.434,2.854
		c0.064,0.674,0.149,1.573,0.215,2.249c-4.669-0.359-5.045,0.534-6.438,3.853c-0.252-1.334-0.206-3.212,0.144-4.523
		c-0.543-0.398-1.267-0.928-1.808-1.326c0.61-0.27,1.428-0.633,2.035-0.904l1.4-0.693c-0.002,0-0.002-0.004-0.002-0.004v-0.001
		h-0.002v-0.005c-0.685,0.165-1.589,0.384-2.273,0.549c0.506-0.512,1.182-1.196,1.688-1.709c-1.132-1.138-3.015-2.296-4.507-2.888
		c4.35-3.707,9.35-6.514,13.822-10.051c-2.767-0.529-2.767-0.529-14.385,4.019c0.544-0.278,1.104-0.553,1.68-0.827
		c0.623-0.241,1.459-0.563,2.084-0.804c-9.209,2.98-23.654,12.122-29.61,15.391l-1.325,1.05c-2.332,1.382-0.001,0.001-2.307,1.426
		c-0.178,0.029-0.356,0.058,0,0.001c-0.331,0.167-0.22,0.11-0.062,0.03c-0.225,0.116-0.096,0.05,0.056-0.027
		c-0.347,0.243-0.295,0.226-0.142,0.134c-6.209,5.728-12.1,11.804-18.516,17.308c1.401-0.994,3.264-2.337,4.645-3.363
		c-9.678,9.488-9.678,9.488-9.824,10.115c-1.373,1.06-2.732,2.135-4.076,3.228c-1.934,2.768-3.774,5.405-5.545,7.94
		c-3.307,3.058-6.02,6.875-7.874,11.278c-31.69,45.409-31.893,45.899-33.683,50.291c-3.864,9.465-0.735,19.91-4.134,29.438
		c-0.616,1.729-1.087,3.426-1.447,5.071c-0.165,0.755-0.304,1.494-0.423,2.228c-0.44,2.72-0.583,5.275-0.539,7.593
		c0.043,2.276,0.264,4.321,0.547,6.062c0.631,3.849,1.573,6.196,1.601,6.236c0.259-2.938,0.494-5.607,0.712-8.077
		c0.131-1.485,0.255-2.893,0.373-4.221c0.299-3.377,0.557-6.263,0.78-8.733c0.032-0.365,0.065-0.736,0.098-1.084
		c1.2-13.188,1.383-13.726,2.036-15.634c0.535,0.533,1.25,1.25,1.784,1.786c-1.05,4.904-1.841,9.51-2.417,13.848
		c-0.033,0.245-0.067,0.493-0.099,0.737c-0.406,3.172-0.695,6.198-0.877,9.08c-0.068,1.104-0.121,2.185-0.16,3.246
		c-0.944,25.731,6.846,39.521,13.503,47.008c0.031,0.035,0.063,0.067,0.094,0.103c2.604,2.91,5.026,4.859,6.674,6.186
		c0.713-0.275,1.667-0.645,2.381-0.915c0.782,0.579,1.669,1.347,2.625,2.245c1.52,1.431,3.222,3.208,4.995,5.171
		c8.125,8.989,17.711,21.769,17.809,21.916c-0.093,1.81-0.169,3.621-0.231,5.435c5.295,2.604,7.494,8.858,13.104,11.086
		c-0.063,0.659-0.151,1.545-0.22,2.209c1.316,0.471,3.003,1.317,4.161,2.102c0.426-0.555,0.996-1.297,1.424-1.854
		c-0.349-0.623-0.808-1.447-1.154-2.07c0.998-0.963,2.629-1.982,3.955-2.383c0.648,1.205,1.668,2.733,2.545,3.783
		c1.391,6.118,2.306,10.149,2.644,13.26v0.531h0.052c0.508,5.639-1.04,8.252-5.347,15.487c-0.675,0.135-1.571,0.313-2.249,0.446
		c-0.387,4.355-1.751,8.597-1.563,13.023h0.003c0,0,0.003,0,0.003,0.002c0,0,0,0,0,0.002h0.004h0.005c0,0,0.002,0,0.002,0.002h0.003
		c1.278,0.84,2.813,2.252,3.762,3.453c-0.746,0.381-1.742,0.891-2.488,1.271c-1.802,5.836,0.217,9.535,0.237,9.568
		c6.174,10.547,17.46,17.396,21.371,29.577c0.086,0.263,0.086,0.263,20.887,17.047c5.265,4.248,7.352,9.834,8.243,15.923v15.813
		h0.891c0.479,10.867,2.312,21.164,15.461,26.697c-0.448-0.539-1.047-1.264-1.496-1.803c1.229,0.711,2.695,2.01,3.507,3.188
		c0.462-0.104,8.475,0.084,3.741-0.088c5.37,0.195-0.849-0.037,0.697,0.465c0.457,0.697,5.362,0.967,2.09,2.559
		c7.998,4.814,12.566,7.265,22.076,7.902c-8.707-2.787-8.604-1.113-10.927-5.475c-0.649-0.148-1.514-0.351-2.162-0.5
		c0.615-1.283,1.017-3.211,0.994-4.631c0.673,0.137,1.57,0.319,2.243,0.454c-1.102-0.762-2.828-1.44-4.154-1.625
		c1.465-0.635,3.612-1.063,5.211-1.116c0.099-0.73,0.229-1.701,0.326-2.433c7.288-0.606,7.348-0.649,10.359-2.942
		c-0.264-0.896-0.609-2.095-0.875-2.992c12.909-5.662,12.909-5.662,21.959-16.605c-0.896-7.385-0.896-7.385,24.122-14.082
		c2.128-3.688,5.057-6.838,7.104-10.575c0.769-2.056,1.396-2.076,2.023-2.095c0.522-13.481,11.451-21.592,16.813-32.577
		c2.711-5.547,1.486-9.179-0.21-14.199C799.569,406.192,786.051,392.063,768.64,389.229z M658.645,173.532
		c5.192-2.602,7.757-3.326,12.608-2.413c-0.507,1.06-1.365,2.882,0.237,3.577c0.302,0.131,0.682,0.227,1.176,0.266
		c-0.578,1.068-0.696,1.29-0.836,2.799c-0.004,0.043-0.012,0.073-0.017,0.113c-0.075,0.697-0.252,1.127-0.676,1.613
		c-0.183,0.209-0.479,0.438-0.685,0.627c0.051-1.168-0.361-1.678-1.262-1.813c-0.922-0.138-2.358,0.123-4.345,0.485
		c0.033-0.876-0.705-1.566-0.594-2.461c0.087-0.711,0.137-0.803,0.925-1.535c0.061-0.057,0.113-0.104,0.184-0.17
		c-0.062,0.006-0.12,0.021-0.182,0.027c-2.231,0.293-4.318,1.475-6.66,1.135c-0.729-0.238-1.133-0.547-1.721-1.313
		C657.457,174.132,658.065,173.823,658.645,173.532z M661.388,189.179c-0.614,1.053-1.147,2.258-1.623,3.709
		c-0.2,0.609-0.395,1.256-0.575,1.963c-1.572-0.732-1.806,2.072-3.404,1.404c-0.079-1.753,0.808-4.181,2.073-6.458
		c0.576-1.038,1.231-2.042,1.915-2.938c0.935-1.223,1.914-2.248,2.808-2.861c-0.167-0.301-0.167-0.301-0.357-0.49
		c0-0.023,0.002-0.035,0.32-0.568c0.148-0.252,0.383-0.645,0.709-1.188c0.082-0.139,0.155-0.264,0.252-0.422
		c0.247,0.17,0.416,0.245,0.717,0.324c0.705,0.135,1.162,0.092,2.283-0.131c0.031-0.008,0.059-0.012,0.092-0.019
		c0.567-0.112,0.998-0.179,1.327-0.153c0.362,0.028,0.604,0.168,0.755,0.492c-0.104,0.086-0.24,0.201-0.349,0.285
		C665.144,184.694,662.987,186.438,661.388,189.179z M677.51,196.838c-2.822,2.192-5.939,2.429-10.26,2.754
		c0.305-0.467,0.819-1.253,1.677-1.917c0.496-0.385,1.104-0.729,1.858-0.941c0.831-0.234,1.524-0.295,2.377-0.31
		c0.83-0.016,1.658,0.04,2.485,0.095c0.72,0.045,1.438,0.092,2.155,0.086C677.718,196.674,677.601,196.771,677.51,196.838z
		 M687.722,193.794c-1.673,2.852-5.485,1.762-8.01,1.041c-1.265-0.361-1.945-0.545-2.49-0.49c0.854-0.729,1.775-1.229,2.792-1.543
		c1.943-0.602,4.284-0.451,7.354,0.428c0.19,0.056,0.367,0.095,0.564,0.153C687.87,193.505,687.789,193.672,687.722,193.794z"/>
	<path fill="#542954" d="M663.242,264.386c0.536,1.25,0.785,1.65,1.371,1.891c0.291-0.487,0.57-0.948,0.754-1.604
		c0.897-3.175-2.371-4.713-5.529-6.205c-0.042,0.141-0.102,0.327-0.145,0.469c-0.552,2.127-0.313,3.291,0.87,4.301
		C662.053,261.866,662.552,262.784,663.242,264.386z"/>
	<path fill="#542954" d="M693.65,302.927c-0.409,3.799,5.81,3.209,7.244,2.092c0.106-0.082,0.238-0.209,0.318-0.319
		c0.036-0.048,0.072-0.121,0.104-0.175c-1.226-1.018-1.976-1.463-3.438-1.594C696.473,302.849,695.06,302.979,693.65,302.927z"/>
	<path fill="#542954" d="M673.951,281.821c0.017-0.028,0.041-0.065,0.06-0.094c-0.63-0.328-1.028-1.014-1.798-1.119
		c-0.17-0.017-0.281-0.017-0.477,0c-0.146,1.017-0.292,2.029-0.435,3.041C672.58,283.952,673.066,283.194,673.951,281.821z"/>
	<path fill="#542954" d="M657.644,265.417c-1.584,5.063-1.097,8.785,0.246,11.497c1.104,2.233,2.791,3.782,4.379,4.827
		c2.082,1.371,3.994,1.877,4.199,1.93c0.646-0.732,0.815-0.928,0.379-1.658c-0.879-1.453-0.586-2.796,0.603-2.756
		c2.425,0.08,2.425,0.08,2.506-0.021c0.044-0.055,0.104-0.12,0.139-0.18c0.337-0.58-0.896-2.211-0.913-2.223
		c-0.399-0.295-1.086-0.23-2.262-0.094c-0.525-1.969-1.353-3.834-1.99-5.766c1.486,0.184,1.912,0.781,2.162,1.141
		c0.444-2.336,0.264-2.58-1.482-4.896c-0.965,2.154-1.821,2.527-2.551,1.111c-0.342,2.521-0.342,2.521,1.545,8.029
		c-0.618,0.906-1.215,1.17-2.55,1.125c0.295-2.058,0.309-2.948-0.155-5.76c-0.475-2.885-0.303-3.848,1.021-5.742
		c-1.837,0.065-3.219-1.201-4.878-1.647C657.921,264.655,657.763,265.089,657.644,265.417z"/>
	<path fill="#542954" d="M673.735,302.085c3.554,0.146,4.875,0.6,5.673,2.996c2.09-3.275,2.59-3.188,10.982-1.738
		c0.057-0.664,0.113-1.328,0.172-1.992c0.031-0.365,0.063-0.731,0.096-1.1c-5.676-3.305-9.424-5.484-13.726-5.977
		c-0.396-0.023-0.752-0.034-1.083-0.029c-1.043,0.014-1.836,0.18-2.896,0.566c1.056,0.381,1.604,0.77,1.861,1.123
		c-0.019,0.391-0.002,0.713,0.089,0.91c-0.134,0.233-0.355,0.393-0.479,0.426c-0.147,0.039-0.356,0.015-0.511,0.021
		c-0.02,0.284-0.032,0.554-0.032,0.796c0,0.323,0.028,0.592,0.141,0.725c0.554,0.662,1.444,0.688,2.111,1.136
		c-0.221,0.149-0.427,0.252-0.629,0.331c-0.271-0.019-0.539-0.035-0.845-0.049c-0.433-0.019-0.828-0.041-1.19-0.071
		c-0.33-0.124-0.69-0.284-1.105-0.479c-0.709-0.33-1.34-0.584-2.001-0.724c-0.484-0.103-0.985-0.151-1.562-0.085
		C669.047,301.46,670.249,301.942,673.735,302.085z"/>
	<path fill="#542954" d="M654.957,274.521c0.261-1.152-0.348-2.215-1.356-2.359c-0.988-0.049-1.237,0.895-1.319,1.199
		c0.641,0.89,1.431,1.273,2.646,1.285C654.937,274.606,654.947,274.56,654.957,274.521z"/>
	<path fill="#542954" d="M639.323,277.194c-0.369,0.539-0.721,1.152-1.081,1.854c1.619-0.053,2.681,0.628,4.277,1.738
		c2.772,1.936,4.398,2.559,7.316-0.081c4.146,3.421,6.201,6.185,8.813,11.815c1.471-0.373,2.541-0.356,5.439,0.104
		c0.025,0.006,0.05,0.011,0.076,0.014c2.289,0.379,4.269,0.707,5.893,0.424c0.2-0.033,0.462-0.104,0.659-0.15
		c-0.258-0.584-0.582-1.109-0.944-1.604c-2.941-4.02-8.854-5.484-9.939-11.088c-10.457-5.264-10.457-5.264-14.083-5.814
		C642.347,274.298,640.701,275.188,639.323,277.194z"/>
</g>
</svg>
