<?xml version="1.0" encoding="utf-8"?>
<!-- Generator: Adobe Illustrator 15.0.2, SVG Export Plug-In . SVG Version: 6.00 Build 0)  -->
<!DOCTYPE svg PUBLIC "-//W3C//DTD SVG 1.1//EN" "http://www.w3.org/Graphics/SVG/1.1/DTD/svg11.dtd">
<svg version="1.1" id="Calque_1" xmlns="http://www.w3.org/2000/svg" xmlns:xlink="http://www.w3.org/1999/xlink" x="0px" y="0px"
	 width="139.982px" height="139.982px" viewBox="0 0 139.982 139.982" enable-background="new 0 0 139.982 139.982"
	 xml:space="preserve">
<g>
	<g>
		<g>
			<path fill="#006E12" d="M132.198,12.947c1.002,0,1.971,0.205,2.905,0.615c0.933,0.41,1.766,0.957,2.494,1.641
				s1.311,1.459,1.744,2.324c0.433,0.866,0.649,1.755,0.649,2.666v99.391c0,1.001-0.217,1.948-0.649,2.836
				c-0.434,0.89-1.016,1.676-1.744,2.359s-1.562,1.229-2.494,1.64c-0.935,0.411-1.903,0.616-2.905,0.616H7.442
				c-1.049,0-2.028-0.205-2.94-0.616c-0.912-0.41-1.698-0.956-2.358-1.64c-0.661-0.684-1.186-1.47-1.573-2.359
				c-0.387-0.888-0.581-1.835-0.581-2.836V20.193c0-2.051,0.694-3.771,2.084-5.161c1.39-1.39,3.179-2.085,5.367-2.085H132.198z
				 M130.489,117.464V23.758H9.356v93.706H130.489z"/>
		</g>
	</g>
	<g>
		<g>
			<g>
				<path fill="#006E12" d="M47.655,61.946l4.276-4.303c0.466-0.503,0.699-1.062,0.699-1.676c0-0.634-0.224-1.191-0.672-1.676
					c-0.224-0.225-0.479-0.387-0.769-0.489s-0.572-0.154-0.853-0.154c-0.298,0-0.597,0.057-0.895,0.168s-0.568,0.289-0.811,0.53
					l-4.305,4.246c0.633,0.467,1.235,0.979,1.803,1.537C46.7,60.689,47.208,61.294,47.655,61.946z M24.928,77.98l-4.304,4.302
					c-0.243,0.224-0.424,0.48-0.545,0.77c-0.122,0.288-0.182,0.59-0.182,0.907c0,0.633,0.242,1.192,0.727,1.677
					c0.465,0.465,1.024,0.697,1.676,0.697c0.634,0,1.184-0.232,1.65-0.697l4.305-4.303C26.932,80.402,25.823,79.285,24.928,77.98z
					 M51.931,82.282l-4.276-4.302c-0.447,0.652-0.955,1.258-1.524,1.816c-0.567,0.559-1.17,1.07-1.803,1.536l4.249,4.303
					c0.466,0.465,1.024,0.697,1.677,0.697c0.616,0,1.183-0.232,1.705-0.697c0.448-0.503,0.672-1.044,0.672-1.62
					c0-0.317-0.062-0.629-0.183-0.937S52.155,82.506,51.931,82.282z M23.182,53.802c-0.29-0.103-0.583-0.154-0.881-0.154
					c-0.317,0-0.619,0.052-0.908,0.154c-0.29,0.103-0.545,0.265-0.769,0.489c-0.485,0.521-0.727,1.099-0.727,1.731
					c0,0.634,0.242,1.192,0.727,1.677l4.304,4.246c0.895-1.304,2.004-2.421,3.327-3.354l-4.305-4.246
					C23.727,54.086,23.47,53.905,23.182,53.802z"/>
			</g>
		</g>
		<g>
			<path fill="#006E12" d="M46.956,74.489c0.615-1.396,0.922-2.896,0.922-4.498c0-1.601-0.307-3.105-0.922-4.512
				s-1.444-2.635-2.487-3.688c-1.044-1.052-2.274-1.881-3.69-2.486c-1.417-0.604-2.917-0.908-4.5-0.908
				c-1.603,0-3.107,0.304-4.514,0.908c-1.407,0.605-2.633,1.435-3.676,2.486c-1.043,1.053-1.869,2.281-2.473,3.688
				c-0.607,1.406-0.909,2.911-0.909,4.512c0,1.602,0.302,3.102,0.909,4.498c0.604,1.396,1.43,2.616,2.473,3.659
				c1.043,1.044,2.269,1.868,3.676,2.473c1.407,0.605,2.911,0.908,4.514,0.908c1.583,0,3.083-0.303,4.5-0.908
				c1.416-0.604,2.646-1.429,3.69-2.473C45.511,77.105,46.341,75.885,46.956,74.489z"/>
		</g>
		<circle fill="#006E12" cx="36.292" cy="69.963" r="6.73"/>
	</g>
	<g>
		<path fill="#006E12" d="M115.066,44.095c0-0.964-0.37-1.783-1.111-2.455c-0.742-0.672-1.595-1.008-2.559-1.008H79.607
			c-1.033,0-1.912,0.336-2.636,1.008s-1.086,1.491-1.086,2.455v16.486c0,0.931,0.362,1.775,1.086,2.533s1.603,1.137,2.636,1.137
			h31.789c0.482,0,0.947-0.103,1.396-0.311c0.447-0.207,0.835-0.482,1.163-0.826c0.327-0.345,0.595-0.732,0.801-1.164
			c0.207-0.43,0.311-0.887,0.311-1.369V44.095z M83.018,78.26c1,0,1.843-0.354,2.533-1.06c0.689-0.706,1.033-1.542,1.033-2.508
			c0-1.033-0.344-1.886-1.033-2.559c-0.69-0.672-1.533-1.007-2.533-1.007h-3.411c-1.033,0-1.887,0.335-2.559,1.007
			c-0.672,0.673-1.008,1.525-1.008,2.559c0,0.966,0.336,1.802,1.008,2.508s1.525,1.06,2.559,1.06H83.018z M83.018,88.804
			c1,0,1.843-0.345,2.533-1.034c0.689-0.689,1.033-1.532,1.033-2.533c0-0.964-0.344-1.8-1.033-2.507
			c-0.69-0.705-1.533-1.06-2.533-1.06h-3.411c-1.033,0-1.887,0.354-2.559,1.06c-0.672,0.707-1.008,1.543-1.008,2.507
			c0,1.001,0.336,1.844,1.008,2.533s1.525,1.034,2.559,1.034H83.018z M83.018,99.349c1,0,1.843-0.337,2.533-1.009
			c0.689-0.672,1.033-1.491,1.033-2.455c0-0.999-0.344-1.835-1.033-2.507c-0.69-0.672-1.533-1.008-2.533-1.008h-3.411
			c-1.033,0-1.887,0.336-2.559,1.008s-1.008,1.508-1.008,2.507c0,0.964,0.336,1.783,1.008,2.455s1.525,1.009,2.559,1.009H83.018z
			 M97.285,78.26c0.931,0,1.731-0.354,2.403-1.06c0.673-0.706,1.009-1.542,1.009-2.508c0-1.033-0.336-1.886-1.009-2.559
			c-0.672-0.672-1.473-1.007-2.403-1.007h-3.566c-1.034,0-1.888,0.335-2.559,1.007c-0.673,0.673-1.008,1.525-1.008,2.559
			c0,0.966,0.335,1.802,1.008,2.508c0.671,0.706,1.524,1.06,2.559,1.06H97.285z M97.285,88.804c0.931,0,1.731-0.345,2.403-1.034
			c0.673-0.689,1.009-1.532,1.009-2.533c0-0.964-0.336-1.8-1.009-2.507c-0.672-0.705-1.473-1.06-2.403-1.06h-3.566
			c-1.034,0-1.888,0.354-2.559,1.06c-0.673,0.707-1.008,1.543-1.008,2.507c0,1.001,0.335,1.844,1.008,2.533
			c0.671,0.689,1.524,1.034,2.559,1.034H97.285z M97.285,99.349c0.931,0,1.731-0.337,2.403-1.009
			c0.673-0.672,1.009-1.491,1.009-2.455c0-0.999-0.336-1.835-1.009-2.507c-0.672-0.672-1.473-1.008-2.403-1.008h-3.566
			c-1.034,0-1.888,0.336-2.559,1.008c-0.673,0.672-1.008,1.508-1.008,2.507c0,0.964,0.335,1.783,1.008,2.455
			c0.671,0.672,1.524,1.009,2.559,1.009H97.285z M111.396,78.26c0.964,0,1.801-0.354,2.507-1.06s1.06-1.542,1.06-2.508
			c0-1.033-0.354-1.886-1.06-2.559c-0.706-0.672-1.543-1.007-2.507-1.007h-3.566c-0.966,0-1.802,0.335-2.507,1.007
			c-0.707,0.673-1.06,1.525-1.06,2.559c0,0.966,0.353,1.802,1.06,2.508c0.705,0.706,1.541,1.06,2.507,1.06H111.396z M111.396,88.804
			c0.964,0,1.801-0.345,2.507-1.034s1.06-1.532,1.06-2.533c0-0.964-0.354-1.8-1.06-2.507c-0.706-0.705-1.543-1.06-2.507-1.06h-3.566
			c-0.966,0-1.802,0.354-2.507,1.06c-0.707,0.707-1.06,1.543-1.06,2.507c0,1.001,0.353,1.844,1.06,2.533
			c0.705,0.689,1.541,1.034,2.507,1.034H111.396z M111.396,99.349c0.964,0,1.801-0.337,2.507-1.009s1.06-1.491,1.06-2.455
			c0-0.999-0.354-1.835-1.06-2.507s-1.543-1.008-2.507-1.008h-3.566c-0.966,0-1.802,0.336-2.507,1.008
			c-0.707,0.672-1.06,1.508-1.06,2.507c0,0.964,0.353,1.783,1.06,2.455c0.705,0.672,1.541,1.009,2.507,1.009H111.396z"/>
	</g>
</g>
</svg>
