<?xml version="1.0" encoding="utf-8"?>
<!-- Generator: Adobe Illustrator 15.0.2, SVG Export Plug-In . SVG Version: 6.00 Build 0)  -->
<!DOCTYPE svg PUBLIC "-//W3C//DTD SVG 1.1//EN" "http://www.w3.org/Graphics/SVG/1.1/DTD/svg11.dtd">
<svg version="1.1" id="Calque_1" xmlns="http://www.w3.org/2000/svg" xmlns:xlink="http://www.w3.org/1999/xlink" x="0px" y="0px"
	 width="347px" height="200px" viewBox="0 0 347 200" enable-background="new 0 0 347 200" xml:space="preserve">
<g>
	<g>
		<path fill="#E8C6B0" d="M158.98,49.085c0,0-8.776-23.445-10.651-25.426c-1.884-1.982,0.627-8.123,8.766-8.123
			c8.157,0,9.305,5.822,15.163,5.822c5.838,0,9.406-2.91,15.243-2.91c5.857,0,12.324,2.497,12.324,4.271
			c0,1.771-10.751,18.348-10.751,26.367H158.98L158.98,49.085z"/>
		<path fill="#E8C6B0" d="M189.068,52.841h-30.091c-2.309,0-4.185,1.864-4.185,4.164c0,2.303,1.87,4.172,4.185,4.172h30.091
			c2.311,0,4.171-1.87,4.171-4.172C193.24,54.708,191.38,52.841,189.068,52.841z"/>
		<path fill="#E8C6B0" d="M158.98,65.139h30.091c0,0,23.506,26.162,29.877,36.58c6.372,10.424,12.117,30.744,12.117,42.625
			c0,11.879-1.985,14.695-1.985,22.303c0,7.611,5.856,6.879,5.856,11.047c0,4.17-3.561,3.961-5.953,3.961
			c-2.406,0-4.916-3.404-8.31-3.404c-3.387,0-15.927,6.215-47.17,6.215c-31.246,0-43.572-6.043-48.161-6.043
			c-4.594,0-6.269,3.123-8.251,3.123c-1.99,0-5.026-1.246-5.026-4.059c0-2.816,6.582-7.088,6.582-14.072
			c0-6.98-2.084-8.439-2.084-24.178c0-15.736,10.768-38.141,20.268-48.673C146.34,80.042,158.98,69.097,158.98,65.139z"/>
	</g>
	<g>
		<path fill="#9595A4" d="M175.493,154.979v-7.52l-4.916-4.908v12.58c-3.643-0.037-7.185-0.58-10.605-1.645
			c-3.423-1.064-6.813-2.637-10.147-4.732v8.826l0.003,0.004c3.461,1.471,6.929,2.58,10.376,3.311
			c3.442,0.736,6.877,1.133,10.318,1.199l0.059,14.77h4.916v-14.865c4.66-0.324,8.584-1.256,11.785-2.775l-5.774-5.758
			C179.819,154.16,177.823,154.672,175.493,154.979z"/>
		<path fill="#9595A4" d="M191.914,131.338c-3.503-2.941-8.978-4.984-16.421-6.131v-7.848v-13.102
			c3.019,0.137,5.959,0.574,8.821,1.322c0.777,0.211,1.539,0.436,2.3,0.682l4.702-4.697l1.387,1.371v-2.745
			c-1.282-0.411-2.568-0.779-3.872-1.109V99.08c-1.477-0.372-2.975-0.704-4.498-0.977c-2.838-0.51-5.805-0.822-8.851-0.955v-11.38
			l-2.187,2.177l2.187-2.177h-4.914v4.905V90.67v6.627c-3.019,0.202-5.702,0.69-8.071,1.427l0,0
			c-2.915,0.907-5.362,2.182-7.32,3.875c-2.549,2.189-4.182,4.975-4.904,8.326l0.002-0.006c-0.288,1.338-0.453,2.758-0.453,4.281
			c0,4.133,1.174,7.512,3.514,10.162l1.436,1.412c1.823,1.568,4.289,2.869,7.335,3.924l6.728-6.711
			c-3.199-0.695-5.611-1.711-7.184-3.049c-1.864-1.572-2.782-3.756-2.782-6.572c0-2.875,1-5.178,2.997-6.918
			c1.987-1.734,4.896-2.814,8.704-3.238v18.049v2.064c-0.613-0.104-1.177-0.209-1.74-0.336l-6.728,6.713
			c2.437,0.852,5.24,1.545,8.474,2.064v9.787l4.911,4.908V133.75c4.366,0.777,7.545,2.02,9.561,3.725
			c2.021,1.699,3.029,3.988,3.029,6.863c0,2.947-1.061,5.318-3.17,7.115c-0.933,0.795-2.081,1.457-3.407,2.008l5.774,5.756
			c1.626-0.77,3.068-1.67,4.316-2.74c3.729-3.184,5.582-7.547,5.582-13.068C197.176,138.305,195.425,134.283,191.914,131.338z"/>
		<path fill="#9595A4" d="M192.706,108.781v-5.846l-1.387-1.369l-4.705,4.695l0,0C188.68,106.939,190.712,107.775,192.706,108.781z"
			/>
	</g>
</g>
</svg>
