<?xml version="1.0" encoding="utf-8"?>
<!-- Generator: Adobe Illustrator 15.0.2, SVG Export Plug-In . SVG Version: 6.00 Build 0)  -->
<!DOCTYPE svg PUBLIC "-//W3C//DTD SVG 1.1//EN" "http://www.w3.org/Graphics/SVG/1.1/DTD/svg11.dtd">
<svg version="1.1" id="Calque_1" xmlns="http://www.w3.org/2000/svg" xmlns:xlink="http://www.w3.org/1999/xlink" x="0px" y="0px"
	 width="280px" height="365px" viewBox="0 0 280 365" enable-background="new 0 0 280 365" xml:space="preserve">
<g>
	<g>
		<path fill="#EACAB3" d="M204.525,144.079v-89.33h-73.515H57.496v89.33c0,0-17.493-14.567-17.493,10.102
			c0,24.672,26.716,33.313,26.716,33.313s7.109,29.776,12.293,35.923c5.19,6.149,41.241,7.675,41.241,27.851l10.758,1.542
			l10.758-1.542c0-20.176,36.054-21.701,41.241-27.851c5.187-6.146,12.293-35.923,12.293-35.923s26.722-8.642,26.722-33.313
			C222.024,129.512,204.525,144.079,204.525,144.079z"/>
		<path fill="#7D6251" d="M65.184,144.079V76.073c0,0,21.133,9.604,77.225,9.604l-4.995-9.604c0,0,13.066,4.228,28.433,4.228
			s28.817-4.228,28.817-4.228v68.005h9.22c0,0,3.457-9.607,10.755-14.215c7.301-4.612-5.38-1.922-5.38-27.666l7.65,3.077
			c0,0-6.108-14.215-6.108-29.201c0-14.982,29.197-21.132,29.197-46.489c0,0-7.685,8.452-25.359,8.452
			C196.965,38.037,184.545,0,131.011,0S75.559,22.667,75.559,22.667s-21.964-2.69-21.964,12.68c0,15.366-3.78,68.389-10.311,68.389
			l8.41-4.854c0,0,1.385,24.256-3.415,29.06l9.217,16.138H65.184z"/>
		<path fill="#7D6251" d="M55.577,149.965c2.578,1.385,4.8,3.432,6.479,5.958c0.859,1.254,1.489,2.69,1.935,4.212
			c0.214,0.764,0.316,1.57,0.374,2.373c0.02,0.451,0.038,0.762,0.007,1.254c-0.071,0.47,0.006,0.908-0.538,1.797
			c-0.252,0.474-1.167,0.946-1.749,0.857c-0.578-0.032-0.873-0.192-1.122-0.307c-0.483-0.249-0.787-0.479-1.091-0.69
			c-0.566-0.413-1.11-0.746-1.385-0.838c-0.228-0.028,0.032-0.223-0.332,0.112c-0.257,0.326-0.521,0.915-0.729,1.513
			c-0.8,2.511-1.19,5.395-1.849,8.216c-0.608-2.859-0.934-5.721-0.486-8.782c0.135-0.774,0.294-1.571,0.819-2.44
			c0.269-0.426,0.652-0.921,1.316-1.244c0.653-0.333,1.437-0.33,1.983-0.199c1.106,0.281,1.743,0.806,2.354,1.184
			c0.288,0.189,0.569,0.368,0.723,0.435c0.064,0.036,0.115,0.013-0.105-0.016c-0.221-0.057-0.783,0.24-0.841,0.407
			c-0.128,0.399,0.105-0.644,0.028-1.126c-0.016-0.617-0.099-1.228-0.204-1.848c-0.211-1.25-0.669-2.479-1.199-3.704
			C58.852,154.641,57.311,152.297,55.577,149.965z"/>
		<path fill="#7D6251" d="M211.229,149.965c-2.574,1.385-4.798,3.432-6.473,5.958c-0.863,1.254-1.496,2.69-1.938,4.212
			c-0.219,0.764-0.32,1.57-0.378,2.373c-0.016,0.451-0.032,0.762-0.006,1.254c0.073,0.47,0,0.908,0.536,1.797
			c0.257,0.474,1.171,0.946,1.753,0.857c0.579-0.032,0.87-0.192,1.123-0.307c0.482-0.249,0.786-0.479,1.09-0.69
			c0.563-0.413,1.113-0.746,1.382-0.838c0.229-0.028-0.032-0.223,0.336,0.112c0.259,0.326,0.521,0.915,0.732,1.513
			c0.799,2.511,1.184,5.395,1.842,8.216c0.607-2.859,0.938-5.721,0.486-8.782c-0.131-0.774-0.295-1.571-0.815-2.44
			c-0.272-0.426-0.656-0.921-1.314-1.244c-0.656-0.333-1.442-0.33-1.989-0.199c-1.106,0.281-1.739,0.806-2.351,1.184
			c-0.288,0.189-0.569,0.368-0.723,0.435c-0.067,0.036-0.112,0.013,0.105-0.016c0.221-0.057,0.783,0.24,0.838,0.407
			c0.131,0.399-0.103-0.644-0.026-1.126c0.014-0.617,0.103-1.228,0.205-1.848c0.212-1.25,0.672-2.479,1.196-3.704
			C207.957,154.641,209.501,152.297,211.229,149.965z"/>
		<path fill="#7D6251" d="M131.011,114.11c1.637,5.232,3.249,10.463,4.727,15.721l4.554,15.731l4.567,15.687
			c1.602,5.19,3.19,10.409,5.206,15.362l0.735,1.813l-1.855-0.07l-11.787-0.451c-3.928-0.25-7.854-0.422-11.778-0.781
			c3.925-0.361,7.851-0.534,11.778-0.783l11.787-0.451l-1.126,1.74c-2.41-5.04-4.183-10.249-5.842-15.488
			c-1.676-5.232-3.096-10.528-4.461-15.833c-1.362-5.305-2.533-10.652-3.633-16.018C132.737,124.936,131.804,119.537,131.011,114.11
			z"/>
		<path fill="#7D6251" d="M114.365,210.164c4.864-1.216,9.735-1.483,14.599-1.538c4.867,0.045,9.734,0.316,14.602,1.538
			c-4.867,1.216-9.734,1.493-14.602,1.539C124.101,211.645,119.229,211.373,114.365,210.164z"/>
		<path fill="#7D6251" d="M94.001,122.946c0,4.248,2.063,7.685,4.557,7.685c2.604,0,4.666-3.438,4.666-7.685
			c0-4.243-2.063-7.685-4.666-7.685C96.063,115.261,94.001,118.703,94.001,122.946z"/>
		<path fill="#7D6251" d="M158.549,122.946c0,4.248,2.063,7.685,4.557,7.685c2.604,0,4.662-3.438,4.662-7.685
			c0-4.243-2.059-7.685-4.662-7.685C160.611,115.261,158.549,118.703,158.549,122.946z"/>
	</g>
	<path fill="#F7F7F7" d="M141.769,310.571l18.535-58.612c-15.721-1.916-29.293,0.851-29.293,0.851s-13.61-2.772-29.364-0.842
		l18.606,58.604H141.769z"/>
	<path fill="#5A5A5A" d="M160.304,251.959l-18.535,58.612h-21.516l-18.606-58.604c-21.649,2.651-47.349,14.212-47.349,54.247
		c0,0,5.379,58.785,23.821,58.785s52.892,0,52.892,0s34.448,0,52.894,0c18.44,0,23.819-58.785,23.819-58.785
		C207.724,266.135,181.967,254.594,160.304,251.959z"/>
	<polygon fill="#5A5A5A" points="141.641,251.268 141.769,313.846 120.253,313.846 120.253,251.268 131.011,252.81 	"/>
</g>
</svg>
