<?xml version="1.0" encoding="utf-8"?>
<!-- Generator: Adobe Illustrator 15.0.2, SVG Export Plug-In . SVG Version: 6.00 Build 0)  -->
<!DOCTYPE svg PUBLIC "-//W3C//DTD SVG 1.1//EN" "http://www.w3.org/Graphics/SVG/1.1/DTD/svg11.dtd">
<svg version="1.1" id="Calque_1" xmlns="http://www.w3.org/2000/svg" xmlns:xlink="http://www.w3.org/1999/xlink" x="0px" y="0px"
	 width="369px" height="384px" viewBox="0 0 369 384" enable-background="new 0 0 369 384" xml:space="preserve">
<g>
	<g>
		<path fill="#E8C6B0" d="M158.579,100.821c0,0-15.668-41.854-19.016-45.39c-3.362-3.538,1.119-14.502,15.647-14.502
			c14.563,0,16.61,10.394,27.07,10.394c10.421,0,16.791-5.195,27.212-5.195c10.456,0,21.998,4.457,21.998,7.625
			c0,3.161-19.19,32.753-19.19,47.068H158.579L158.579,100.821z"/>
		<path fill="#E8C6B0" d="M212.29,107.525h-53.716c-4.124,0-7.472,3.328-7.472,7.434c0,4.11,3.338,7.448,7.472,7.448h53.716
			c4.124,0,7.447-3.338,7.447-7.448C219.742,110.858,216.419,107.525,212.29,107.525z"/>
		<path fill="#E8C6B0" d="M158.579,129.481h53.716c0,0,41.962,46.703,53.336,65.298c11.377,18.611,21.631,54.886,21.631,76.094
			c0,21.21-3.545,26.235-3.545,39.815c0,13.587,10.456,12.282,10.456,19.718c0,7.446-6.356,7.072-10.627,7.072
			c-4.296,0-8.776-6.074-14.833-6.074c-6.048,0-28.436,11.092-84.208,11.092c-55.779,0-77.783-10.787-85.976-10.787
			c-8.201,0-11.191,5.574-14.729,5.574c-3.554,0-8.973-2.223-8.973-7.245c0-5.024,11.751-12.654,11.751-25.121
			c0-12.457-3.721-15.063-3.721-43.159c0-28.096,19.221-68.088,36.18-86.892C136.015,156.084,158.579,136.546,158.579,129.481z"/>
	</g>
	<g>
		<path fill="#9595A4" d="M188.059,289.859v-13.425l-8.776-8.762v22.461c-6.504-0.069-12.826-1.041-18.932-2.936
			c-6.111-1.904-12.163-4.712-18.117-8.452v15.755l0.005,0.011c6.18,2.627,12.37,4.604,18.524,5.911
			c6.146,1.313,12.276,2.021,18.421,2.14l0.104,26.366h8.776V302.39c8.319-0.579,15.323-2.242,21.037-4.952l-10.308-10.278
			C195.78,288.396,192.216,289.309,188.059,289.859z"/>
		<path fill="#9595A4" d="M217.371,247.656c-6.252-5.252-16.026-8.898-29.313-10.945v-14.009v-23.388
			c5.389,0.245,10.637,1.025,15.745,2.36c1.39,0.374,2.749,0.776,4.108,1.218l8.396-8.388l2.473,2.448v-4.898
			c-2.288-0.734-4.584-1.391-6.911-1.98v-0.005c-2.637-0.662-5.311-1.256-8.029-1.743c-5.066-0.911-10.362-1.467-15.801-1.706
			v-20.315l-3.902,3.888l3.902-3.888h-8.771v8.756v-0.005v11.832c-5.39,0.36-10.18,1.232-14.411,2.548l0,0
			c-5.202,1.62-9.571,3.894-13.066,6.918c-4.55,3.907-7.465,8.879-8.757,14.862l0.005-0.01c-0.515,2.391-0.81,4.923-0.81,7.643
			c0,7.378,2.097,13.41,6.272,18.141l2.563,2.523c3.255,2.798,7.658,5.119,13.096,7.005l12.011-11.981
			c-5.713-1.242-10.018-3.059-12.825-5.444c-3.328-2.807-4.968-6.705-4.968-11.73c0-5.134,1.787-9.242,5.35-12.349
			c3.55-3.098,8.742-5.027,15.541-5.783v32.219v3.686c-1.095-0.186-2.101-0.372-3.107-0.598l-12.011,11.985
			c4.349,1.517,9.355,2.754,15.128,3.682v17.474l8.768,8.762v-24.478c7.792,1.389,13.467,3.606,17.065,6.65
			c3.607,3.033,5.409,7.122,5.409,12.252c0,5.261-1.896,9.492-5.659,12.702c-1.666,1.419-3.716,2.602-6.082,3.583l10.308,10.278
			c2.899-1.375,5.478-2.984,7.706-4.894c6.656-5.685,9.964-13.474,9.964-23.33C226.766,260.095,223.64,252.913,217.371,247.656z"/>
		<path fill="#9595A4" d="M218.785,207.389v-10.436l-2.474-2.444l-8.399,8.384l0,0C211.599,204.1,215.226,205.593,218.785,207.389z"
			/>
	</g>
</g>
</svg>
