<?xml version="1.0" encoding="utf-8"?>
<!-- Generator: Adobe Illustrator 15.0.2, SVG Export Plug-In . SVG Version: 6.00 Build 0)  -->
<!DOCTYPE svg PUBLIC "-//W3C//DTD SVG 1.1//EN" "http://www.w3.org/Graphics/SVG/1.1/DTD/svg11.dtd">
<svg version="1.1" id="Calque_1" xmlns="http://www.w3.org/2000/svg" xmlns:xlink="http://www.w3.org/1999/xlink" x="0px" y="0px"
	 width="150px" height="220px" viewBox="0 0 150 220" enable-background="new 0 0 150 220" xml:space="preserve">
<g>
	<path fill="#EACAB3" d="M113.893,87.843V34H69.581h-44.31v53.843c0,0-10.544-8.78-10.544,6.089
		c0,14.871,16.103,20.079,16.103,20.079s4.285,17.947,7.41,21.652c3.128,3.706,24.857,4.626,24.857,16.787l6.484,0.93l6.485-0.93
		c0-12.161,21.73-13.081,24.857-16.787c3.127-3.704,7.408-21.652,7.408-21.652s16.107-5.209,16.107-20.079
		C124.439,79.063,113.893,87.843,113.893,87.843z"/>
	<path fill="#7D6251" d="M29.905,87.843v-40.99c0,0,12.738,5.789,46.546,5.789l-3.01-5.789c0,0,7.875,2.548,17.139,2.548
		c9.262,0,17.367-2.548,17.367-2.548v40.99h5.559c0,0,2.084-5.791,6.482-8.568c4.4-2.78-3.244-1.159-3.244-16.676l4.611,1.854
		c0,0-3.682-8.568-3.682-17.601c0-9.03,17.6-12.737,17.6-28.021c0,0-4.633,5.094-15.285,5.094C109.334,23.927,101.85,1,69.582,1
		C37.314,1,36.158,14.663,36.158,14.663S22.92,13.041,22.92,22.305c0,9.262-2.279,41.221-6.215,41.221l5.069-2.926
		c0,0,0.835,14.621-2.059,17.516l5.556,9.727L29.905,87.843L29.905,87.843z"/>
	<path fill="#7D6251" d="M24.114,91.39c1.554,0.835,2.893,2.069,3.905,3.591c0.518,0.756,0.897,1.622,1.167,2.539
		c0.129,0.46,0.19,0.947,0.226,1.43c0.012,0.272,0.022,0.459,0.004,0.756c-0.043,0.283,0.003,0.547-0.324,1.083
		c-0.152,0.286-0.704,0.57-1.054,0.517c-0.349-0.02-0.526-0.116-0.676-0.185c-0.292-0.15-0.475-0.289-0.658-0.416
		c-0.341-0.249-0.669-0.45-0.835-0.505c-0.137-0.017,0.02-0.135-0.2,0.067c-0.155,0.196-0.314,0.551-0.439,0.912
		c-0.482,1.513-0.717,3.251-1.114,4.952c-0.366-1.723-0.563-3.448-0.293-5.293c0.082-0.466,0.177-0.947,0.494-1.471
		c0.163-0.257,0.393-0.555,0.793-0.75c0.394-0.201,0.866-0.199,1.195-0.12c0.667,0.17,1.05,0.486,1.418,0.714
		c0.174,0.114,0.343,0.222,0.436,0.262c0.039,0.022,0.069,0.008-0.063-0.01c-0.133-0.034-0.472,0.145-0.507,0.246
		c-0.077,0.24,0.063-0.388,0.017-0.679c-0.01-0.372-0.06-0.74-0.123-1.114c-0.127-0.753-0.403-1.494-0.723-2.233
		C26.088,94.209,25.16,92.796,24.114,91.39z"/>
	<path fill="#7D6251" d="M117.932,91.39c-1.551,0.835-2.891,2.069-3.9,3.591c-0.521,0.756-0.902,1.622-1.168,2.539
		c-0.133,0.46-0.193,0.947-0.229,1.43c-0.01,0.272-0.02,0.459-0.004,0.756c0.043,0.283,0,0.547,0.324,1.083
		c0.154,0.286,0.705,0.57,1.057,0.517c0.348-0.02,0.523-0.116,0.676-0.185c0.291-0.15,0.473-0.289,0.656-0.416
		c0.34-0.249,0.672-0.45,0.834-0.505c0.139-0.017-0.02-0.135,0.203,0.067c0.156,0.196,0.314,0.551,0.441,0.912
		c0.48,1.513,0.713,3.251,1.109,4.952c0.365-1.723,0.566-3.448,0.293-5.293c-0.08-0.466-0.178-0.947-0.492-1.471
		c-0.162-0.257-0.395-0.555-0.791-0.75c-0.395-0.201-0.869-0.199-1.199-0.12c-0.666,0.17-1.047,0.486-1.416,0.714
		c-0.174,0.114-0.344,0.222-0.438,0.262c-0.039,0.022-0.066,0.008,0.064-0.01c0.133-0.034,0.471,0.145,0.504,0.246
		c0.08,0.24-0.063-0.388-0.014-0.679c0.008-0.372,0.061-0.74,0.123-1.114c0.127-0.753,0.404-1.494,0.721-2.233
		C115.961,94.209,116.891,92.796,117.932,91.39z"/>
	<path fill="#7D6251" d="M69.582,69.779c0.987,3.154,1.958,6.307,2.849,9.476l2.745,9.481l2.752,9.456
		c0.967,3.128,1.922,6.274,3.139,9.259l0.441,1.093l-1.117-0.042l-7.104-0.272c-2.368-0.15-4.734-0.254-7.099-0.47
		c2.366-0.218,4.732-0.322,7.099-0.472l7.104-0.272l-0.678,1.049c-1.453-3.038-2.521-6.178-3.521-9.335
		c-1.011-3.154-1.867-6.346-2.689-9.543c-0.821-3.198-1.527-6.42-2.19-9.655C70.622,76.304,70.06,73.05,69.582,69.779z"/>
	<path fill="#7D6251" d="M59.548,127.675c2.932-0.732,5.868-0.894,8.799-0.927c2.934,0.027,5.867,0.189,8.801,0.927
		c-2.932,0.733-5.866,0.9-8.801,0.928C65.417,128.567,62.48,128.403,59.548,127.675z"/>
	<path fill="#7D6251" d="M47.274,75.104c0,2.561,1.244,4.632,2.747,4.632c1.569,0,2.813-2.072,2.813-4.632
		c0-2.557-1.244-4.632-2.813-4.632C48.517,70.473,47.274,72.547,47.274,75.104z"/>
	<path fill="#7D6251" d="M86.18,75.104c0,2.561,1.244,4.632,2.746,4.632c1.57,0,2.811-2.072,2.811-4.632
		c0-2.557-1.24-4.632-2.811-4.632C87.424,70.473,86.18,72.547,86.18,75.104z"/>
</g>
<path fill="#F7F7F7" d="M76.066,188.194l11.172-35.328c-9.477-1.154-17.656,0.514-17.656,0.514s-8.204-1.671-17.699-0.508
	l11.214,35.323h12.971v-0.001H76.066z"/>
<path fill="#980508" enable-background="new    " d="M87.238,152.866l-11.172,35.328H63.097l-11.214-35.323
	c-13.049,1.598-28.54,8.566-28.54,32.696c0,0,3.243,35.433,14.358,35.433s31.88,0,31.88,0s20.764,0,31.881,0
	c11.115,0,14.357-35.433,14.357-35.433C115.82,161.411,100.295,154.454,87.238,152.866z"/>
<polygon fill="#980508" enable-background="new    " points="75.988,152.45 76.066,190.168 63.097,190.168 63.097,152.45 
	69.582,153.38 "/>
</svg>
