<?xml version="1.0" encoding="utf-8"?>
<!-- Generator: Adobe Illustrator 15.0.2, SVG Export Plug-In . SVG Version: 6.00 Build 0)  -->
<!DOCTYPE svg PUBLIC "-//W3C//DTD SVG 1.1//EN" "http://www.w3.org/Graphics/SVG/1.1/DTD/svg11.dtd">
<svg version="1.1" id="Calque_1" xmlns="http://www.w3.org/2000/svg" xmlns:xlink="http://www.w3.org/1999/xlink" x="0px" y="0px"
	 width="139.982px" height="139.982px" viewBox="0 0 139.982 139.982" enable-background="new 0 0 139.982 139.982"
	 xml:space="preserve">
<g>
	<path fill="#006E12" d="M46.656,58.326v-17.5c0.063-4.876-0.006-23.33,23.333-23.33c23.338,0,23.27,18.522,23.332,23.33v17.5
		h17.505v-17.5c0,0-0.005-40.835-40.832-40.835c-40.827,0-40.839,40.835-40.839,40.835v17.5H46.656z"/>
	<path fill="#006E12" d="M115.095,58.326H24.886c-7.305,0-13.227,5.924-13.227,13.228v55.205c0,7.309,5.922,13.232,13.227,13.232
		h90.209c7.303,0,13.228-5.924,13.228-13.232V71.553C128.323,64.25,122.398,58.326,115.095,58.326z M75.237,100.177v17.186H64.75
		v-17.186c-3.118-1.818-5.243-5.162-5.243-9.033c0-5.786,4.695-10.487,10.487-10.487c5.792,0,10.488,4.701,10.488,10.487
		C80.481,95.015,78.356,98.359,75.237,100.177z"/>
</g>
</svg>
