<?xml version="1.0" encoding="utf-8"?>
<!-- Generator: Adobe Illustrator 15.0.2, SVG Export Plug-In . SVG Version: 6.00 Build 0)  -->
<!DOCTYPE svg PUBLIC "-//W3C//DTD SVG 1.1//EN" "http://www.w3.org/Graphics/SVG/1.1/DTD/svg11.dtd">
<svg version="1.1" id="Calque_1" xmlns="http://www.w3.org/2000/svg" xmlns:xlink="http://www.w3.org/1999/xlink" x="0px" y="0px"
	 width="339.957px" height="219.973px" viewBox="0 0 339.957 219.973" enable-background="new 0 0 339.957 219.973"
	 xml:space="preserve">
<g>
	<path fill="#EACAB3" d="M208.871,86.815V32.973h-44.312h-44.31v53.842c0,0-10.544-8.779-10.544,6.09
		c0,14.87,16.104,20.079,16.104,20.079s4.285,17.947,7.41,21.652c3.127,3.706,24.857,4.626,24.857,16.788l6.483,0.929l6.485-0.929
		c0-12.162,21.73-13.082,24.857-16.788c3.127-3.704,7.408-21.652,7.408-21.652s16.106-5.209,16.106-20.079
		C219.417,78.036,208.871,86.815,208.871,86.815z"/>
	<path fill="#7D6251" d="M124.883,86.815v-40.99c0,0,12.738,5.79,46.546,5.79l-3.01-5.79c0,0,7.875,2.549,17.139,2.549
		c9.262,0,17.367-2.549,17.367-2.549v40.99h5.558c0,0,2.085-5.791,6.483-8.567c4.4-2.78-3.245-1.158-3.245-16.676l4.611,1.854
		c0,0-3.682-8.568-3.682-17.601c0-9.03,17.6-12.737,17.6-28.021c0,0-4.632,5.094-15.284,5.094
		C204.311,22.9,196.828-0.027,164.561-0.027c-32.269,0-33.424,13.663-33.424,13.663s-13.239-1.622-13.239,7.643
		c0,9.262-2.278,41.221-6.214,41.221l5.069-2.926c0,0,0.835,14.622-2.059,17.517l5.555,9.726H124.883L124.883,86.815z"/>
	<path fill="#7D6251" d="M119.092,90.363c1.554,0.835,2.893,2.069,3.905,3.591c0.518,0.755,0.897,1.622,1.167,2.539
		c0.129,0.46,0.19,0.947,0.226,1.43c0.012,0.272,0.022,0.459,0.003,0.756c-0.043,0.283,0.003,0.547-0.324,1.083
		c-0.152,0.286-0.704,0.569-1.054,0.517c-0.349-0.02-0.526-0.117-0.676-0.185c-0.292-0.15-0.475-0.289-0.657-0.417
		c-0.342-0.249-0.67-0.45-0.835-0.504c-0.137-0.017,0.02-0.135-0.2,0.067c-0.155,0.195-0.314,0.55-0.439,0.912
		c-0.482,1.513-0.717,3.251-1.114,4.952c-0.366-1.722-0.563-3.448-0.292-5.292c0.082-0.466,0.177-0.948,0.493-1.471
		c0.164-0.257,0.394-0.556,0.793-0.75c0.394-0.201,0.866-0.2,1.195-0.121c0.667,0.169,1.05,0.486,1.418,0.713
		c0.174,0.114,0.343,0.222,0.437,0.263c0.039,0.022,0.069,0.007-0.063-0.011c-0.133-0.033-0.472,0.146-0.507,0.247
		c-0.077,0.24,0.063-0.388,0.017-0.679c-0.009-0.372-0.06-0.74-0.123-1.114c-0.127-0.753-0.403-1.494-0.723-2.232
		C121.066,93.182,120.138,91.769,119.092,90.363z"/>
	<path fill="#7D6251" d="M212.91,90.363c-1.55,0.835-2.891,2.069-3.9,3.591c-0.521,0.755-0.902,1.622-1.168,2.539
		c-0.133,0.46-0.193,0.947-0.229,1.43c-0.01,0.272-0.02,0.459-0.004,0.756c0.043,0.283,0,0.547,0.324,1.083
		c0.153,0.286,0.704,0.569,1.057,0.517c0.348-0.02,0.523-0.117,0.676-0.185c0.291-0.15,0.474-0.289,0.656-0.417
		c0.339-0.249,0.672-0.45,0.834-0.504c0.139-0.017-0.02-0.135,0.204,0.067c0.154,0.195,0.313,0.55,0.44,0.912
		c0.479,1.513,0.713,3.251,1.109,4.952c0.363-1.722,0.565-3.448,0.293-5.292c-0.08-0.466-0.179-0.948-0.493-1.471
		c-0.162-0.257-0.395-0.556-0.79-0.75c-0.396-0.201-0.869-0.2-1.199-0.121c-0.667,0.169-1.048,0.486-1.416,0.713
		c-0.174,0.114-0.345,0.222-0.438,0.263c-0.038,0.022-0.066,0.007,0.064-0.011c0.134-0.033,0.47,0.146,0.503,0.247
		c0.08,0.24-0.063-0.388-0.014-0.679c0.009-0.372,0.061-0.74,0.123-1.114c0.126-0.753,0.404-1.494,0.722-2.232
		C210.938,93.182,211.869,91.769,212.91,90.363z"/>
	<path fill="#7D6251" d="M164.561,68.752c0.986,3.155,1.958,6.307,2.849,9.476l2.745,9.481l2.752,9.456
		c0.967,3.128,1.922,6.274,3.139,9.259l0.441,1.093l-1.117-0.042l-7.104-0.271c-2.368-0.15-4.733-0.254-7.099-0.47
		c2.366-0.219,4.732-0.322,7.099-0.473l7.104-0.271l-0.678,1.048c-1.453-3.038-2.521-6.178-3.522-9.334
		c-1.009-3.154-1.865-6.347-2.688-9.543c-0.821-3.198-1.527-6.42-2.19-9.655C165.6,75.277,165.038,72.023,164.561,68.752z"/>
	<path fill="#7D6251" d="M154.526,126.648c2.932-0.732,5.868-0.893,8.799-0.926c2.934,0.026,5.867,0.188,8.802,0.926
		c-2.933,0.733-5.866,0.9-8.802,0.929C160.395,127.539,157.458,127.375,154.526,126.648z"/>
	<path fill="#7D6251" d="M142.252,74.077c0,2.561,1.244,4.632,2.748,4.632c1.568,0,2.813-2.072,2.813-4.632
		c0-2.557-1.244-4.632-2.813-4.632C143.495,69.446,142.252,71.52,142.252,74.077z"/>
	<path fill="#7D6251" d="M181.158,74.077c0,2.561,1.244,4.632,2.746,4.632c1.57,0,2.81-2.072,2.81-4.632
		c0-2.557-1.239-4.632-2.81-4.632C182.402,69.446,181.158,71.52,181.158,74.077z"/>
</g>
<path fill="#F7F7F7" d="M171.044,187.167l11.172-35.328c-9.477-1.154-17.655,0.514-17.655,0.514s-8.205-1.671-17.7-0.509
	l11.214,35.324h12.971v-0.001H171.044z"/>
<path fill="#BADC00" enable-background="new    " d="M182.216,151.839l-11.172,35.328h-12.968l-11.214-35.323
	c-13.049,1.598-28.541,8.566-28.541,32.695c0,0,3.244,35.434,14.359,35.434c11.115,0,31.879,0,31.879,0s20.764,0,31.881,0
	c11.115,0,14.356-35.434,14.356-35.434C210.799,160.384,195.273,153.428,182.216,151.839z"/>
<polygon fill="#BADC00" enable-background="new    " points="170.966,151.424 171.044,189.141 158.075,189.141 158.075,151.424 
	164.561,152.353 "/>
</svg>
