<?xml version="1.0" encoding="utf-8"?>
<!-- Generator: Adobe Illustrator 15.0.2, SVG Export Plug-In . SVG Version: 6.00 Build 0)  -->
<!DOCTYPE svg PUBLIC "-//W3C//DTD SVG 1.1//EN" "http://www.w3.org/Graphics/SVG/1.1/DTD/svg11.dtd">
<svg version="1.1" id="Calque_1" xmlns="http://www.w3.org/2000/svg" xmlns:xlink="http://www.w3.org/1999/xlink" x="0px" y="0px"
	 width="280px" height="175px" viewBox="0 0 280 175" enable-background="new 0 0 280 175" xml:space="preserve">
<g>
	<path fill="#EACAB3" d="M170.938,69.079V26.25h-35.249h-35.247v42.829c0,0-8.387-6.983-8.387,4.844
		c0,11.829,12.81,15.971,12.81,15.971s3.408,14.276,5.895,17.224c2.488,2.948,19.772,3.68,19.772,13.354l5.157,0.738l5.159-0.738
		c0-9.675,17.285-10.406,19.772-13.354c2.487-2.946,5.894-17.224,5.894-17.224s12.812-4.144,12.812-15.971
		C179.326,62.096,170.938,69.079,170.938,69.079z"/>
	<path fill="#7D6251" d="M104.129,69.079V36.474c0,0,10.132,4.605,37.025,4.605l-2.395-4.605c0,0,6.265,2.027,13.634,2.027
		c7.367,0,13.814-2.027,13.814-2.027v32.605h4.421c0,0,1.658-4.606,5.157-6.815c3.5-2.211-2.581-0.921-2.581-13.265l3.668,1.475
		c0,0-2.929-6.816-2.929-14.001c0-7.183,14-10.131,14-22.29c0,0-3.685,4.052-12.158,4.052C167.311,18.237,161.357,0,135.69,0
		c-25.668,0-26.587,10.868-26.587,10.868s-10.531-1.29-10.531,6.079c0,7.367-1.813,32.789-4.943,32.789l4.032-2.327
		c0,0,0.664,11.631-1.638,13.934l4.419,7.736H104.129L104.129,69.079z"/>
	<path fill="#7D6251" d="M99.522,71.901c1.236,0.664,2.301,1.646,3.106,2.856c0.412,0.601,0.714,1.29,0.929,2.02
		c0.103,0.366,0.151,0.753,0.18,1.138c0.009,0.216,0.018,0.365,0.003,0.601c-0.034,0.225,0.002,0.435-0.258,0.862
		c-0.121,0.228-0.56,0.453-0.838,0.411c-0.278-0.016-0.418-0.093-0.538-0.147c-0.232-0.119-0.377-0.229-0.523-0.331
		c-0.272-0.198-0.533-0.358-0.665-0.401c-0.109-0.014,0.016-0.107-0.159,0.054c-0.123,0.155-0.25,0.438-0.349,0.725
		c-0.383,1.204-0.57,2.586-0.886,3.939c-0.291-1.37-0.448-2.743-0.233-4.21c0.065-0.371,0.141-0.754,0.393-1.17
		c0.13-0.205,0.313-0.442,0.631-0.596c0.313-0.16,0.689-0.159,0.951-0.096c0.531,0.135,0.835,0.387,1.128,0.567
		c0.139,0.091,0.273,0.177,0.347,0.209c0.031,0.018,0.055,0.006-0.05-0.009c-0.106-0.026-0.375,0.116-0.403,0.196
		c-0.061,0.191,0.05-0.309,0.013-0.54c-0.007-0.296-0.047-0.589-0.098-0.886c-0.101-0.599-0.32-1.188-0.575-1.776
		C101.093,74.144,100.354,73.02,99.522,71.901z"/>
	<path fill="#7D6251" d="M174.15,71.901c-1.233,0.664-2.3,1.646-3.103,2.856c-0.414,0.601-0.718,1.29-0.93,2.02
		c-0.105,0.366-0.153,0.753-0.182,1.138c-0.008,0.216-0.016,0.365-0.003,0.601c0.034,0.225,0,0.435,0.258,0.862
		c0.122,0.228,0.561,0.453,0.841,0.411c0.276-0.016,0.416-0.093,0.537-0.147c0.231-0.119,0.377-0.229,0.522-0.331
		c0.27-0.198,0.534-0.358,0.663-0.401c0.11-0.014-0.016-0.107,0.162,0.054c0.123,0.155,0.249,0.438,0.351,0.725
		c0.382,1.204,0.567,2.586,0.883,3.939c0.289-1.37,0.449-2.743,0.232-4.21c-0.063-0.371-0.142-0.754-0.392-1.17
		c-0.129-0.205-0.314-0.442-0.629-0.596c-0.314-0.16-0.691-0.159-0.954-0.096c-0.53,0.135-0.833,0.387-1.126,0.567
		c-0.139,0.091-0.274,0.177-0.349,0.209c-0.03,0.018-0.053,0.006,0.051-0.009c0.106-0.026,0.374,0.116,0.4,0.196
		c0.063,0.191-0.05-0.309-0.011-0.54c0.007-0.296,0.048-0.589,0.098-0.886c0.101-0.599,0.321-1.188,0.574-1.776
		C172.582,74.144,173.322,73.02,174.15,71.901z"/>
	<path fill="#7D6251" d="M135.69,54.71c0.785,2.509,1.557,5.017,2.266,7.538l2.183,7.542l2.189,7.521
		c0.769,2.488,1.528,4.991,2.496,7.365l0.352,0.87l-0.889-0.034l-5.651-0.216c-1.884-0.119-3.765-0.202-5.647-0.374
		c1.882-0.174,3.764-0.256,5.647-0.376l5.651-0.216l-0.539,0.834c-1.156-2.417-2.006-4.914-2.802-7.425
		c-0.803-2.509-1.484-5.048-2.138-7.591c-0.653-2.544-1.215-5.107-1.742-7.68C136.518,59.901,136.07,57.313,135.69,54.71z"/>
	<path fill="#7D6251" d="M127.708,100.764c2.332-0.582,4.668-0.71,6.999-0.736c2.334,0.021,4.667,0.15,7.001,0.736
		c-2.333,0.584-4.667,0.717-7.001,0.739C132.377,101.474,130.041,101.343,127.708,100.764z"/>
	<path fill="#7D6251" d="M117.945,58.946c0,2.037,0.99,3.685,2.186,3.685c1.248,0,2.237-1.648,2.237-3.685
		c0-2.034-0.99-3.685-2.237-3.685C118.934,55.263,117.945,56.912,117.945,58.946z"/>
	<path fill="#7D6251" d="M148.893,58.946c0,2.037,0.99,3.685,2.185,3.685c1.249,0,2.235-1.648,2.235-3.685
		c0-2.034-0.986-3.685-2.235-3.685C149.883,55.263,148.893,56.912,148.893,58.946z"/>
</g>
<path fill="#F7F7F7" d="M140.848,148.904l8.887-28.102c-7.538-0.918-14.044,0.408-14.044,0.408s-6.526-1.329-14.079-0.404
	l8.92,28.099h10.318v-0.001H140.848z"/>
<path fill="#B6B6B7" enable-background="new    " d="M149.734,120.803l-8.887,28.102h-10.316l-8.92-28.098
	c-10.38,1.271-22.703,6.814-22.703,26.008c0,0,2.58,28.186,11.422,28.186c8.841,0,25.358,0,25.358,0s16.517,0,25.36,0
	c8.842,0,11.42-28.186,11.42-28.186C172.471,127.6,160.121,122.066,149.734,120.803z"/>
<polygon fill="#B6B6B7" enable-background="new    " points="140.785,120.473 140.848,150.475 130.532,150.475 130.532,120.473 
	135.69,121.211 "/>
</svg>
