<?xml version="1.0" encoding="utf-8"?>
<!-- Generator: Adobe Illustrator 15.0.2, SVG Export Plug-In . SVG Version: 6.00 Build 0)  -->
<!DOCTYPE svg PUBLIC "-//W3C//DTD SVG 1.1//EN" "http://www.w3.org/Graphics/SVG/1.1/DTD/svg11.dtd">
<svg version="1.1" id="Calque_1" xmlns="http://www.w3.org/2000/svg" xmlns:xlink="http://www.w3.org/1999/xlink" x="0px" y="0px"
	 width="139.982px" height="139.982px" viewBox="0 0 139.982 139.982" enable-background="new 0 0 139.982 139.982"
	 xml:space="preserve">
<g>
	<g>
		<path fill="#006E12" d="M87.834,108.743c-12.599,0-22.813-5.622-22.87-12.57c-0.003,2.653-0.006,4.976-0.006,4.976
			c0,6.978,10.24,12.627,22.875,12.627c12.637,0,22.876-5.649,22.876-12.627v-5.032C110.71,103.093,100.47,108.743,87.834,108.743z
			 M87.834,117.527c-12.599,0-22.813-5.622-22.87-12.57c-0.003,2.654-0.006,4.976-0.006,4.976c0,6.978,10.24,12.627,22.875,12.627
			c12.637,0,22.876-5.649,22.876-12.627V104.9C110.71,111.877,100.47,117.527,87.834,117.527z"/>
		<g>
			<path fill="#006E12" d="M117.115,102.886c-0.734,0-1.461-0.023-2.179-0.06c-0.031,0.217-0.022,0.443-0.065,0.66
				c0.148,0.44,0.231,0.918,0.231,1.413v2.962c0.663,0.034,1.332,0.058,2.013,0.058c12.636,0,22.876-5.65,22.876-12.628V90.26
				C139.991,97.236,129.751,102.886,117.115,102.886z"/>
			<path fill="#006E12" d="M117.115,94.102c-0.734,0-1.461-0.023-2.179-0.061c-0.031,0.218-0.022,0.444-0.065,0.661
				c0.148,0.443,0.231,0.918,0.231,1.413v2.962c0.663,0.034,1.332,0.058,2.013,0.058c12.636,0,22.876-5.651,22.876-12.628v-5.033
				C139.991,88.452,129.751,94.102,117.115,94.102z"/>
			<path fill="#006E12" d="M117.115,76.534c-12.599,0-22.813-5.622-22.87-12.57c-0.003,2.653-0.005,4.976-0.005,4.976
				c0,2.979,1.881,5.713,5.006,7.875c3.166,0.863,5.979,2.081,8.324,3.591c2.908,0.738,6.134,1.161,9.545,1.161
				c12.636,0,22.876-5.65,22.876-12.627v-5.033C139.991,70.884,129.751,76.534,117.115,76.534z"/>
			<path fill="#006E12" d="M117.115,85.318c-1.538,0-3.039-0.086-4.492-0.246c1.161,1.604,1.944,3.352,2.279,5.216
				c0.729,0.04,1.467,0.063,2.213,0.063c12.636,0,22.876-5.65,22.876-12.627V72.69C139.991,79.668,129.751,85.318,117.115,85.318z"
				/>
		</g>
		<path fill="#006E12" d="M117.115,47.527c-12.636,0-22.875,5.65-22.875,12.628c0,6.977,10.239,12.627,22.875,12.627
			s22.876-5.65,22.876-12.627C139.991,53.177,129.751,47.527,117.115,47.527z"/>
		<path fill="#006E12" d="M87.834,79.736c-12.636,0-22.875,5.65-22.875,12.627c0,6.978,10.24,12.628,22.875,12.628
			c12.637,0,22.876-5.65,22.876-12.628C110.71,85.386,100.47,79.736,87.834,79.736z"/>
		<g>
			<path fill="#006E12" d="M22.867,131.802c-12.599,0-22.813-5.622-22.87-12.57c-0.002,2.654-0.006,4.976-0.006,4.976
				c0,6.978,10.24,12.627,22.876,12.627s22.876-5.649,22.876-12.627v-5.032C45.743,126.151,35.503,131.802,22.867,131.802z"/>
			<path fill="#006E12" d="M22.867,102.795c-12.636,0-22.876,5.65-22.876,12.628s10.24,12.627,22.876,12.627
				s22.876-5.649,22.876-12.627S35.503,102.795,22.867,102.795z"/>
		</g>
	</g>
	<path fill="#006E12" d="M86.511,32.264c0-14.588,3.328-21.882,9.984-21.882c6.178,0,9.268,7.154,9.268,21.463
		c0,4.256-0.296,7.853-0.882,10.807c2.835-0.803,5.927-1.332,9.215-1.532c0.537-2.941,0.814-6.223,0.814-9.872
		c0-18.534-6.038-27.801-18.116-27.801c-3.108,0-5.839,0.598-8.19,1.794c-2.352,1.195-4.384,3.049-6.099,5.561
		c-3.308,4.981-4.962,12.236-4.962,21.762c0,4.464,0.398,8.341,1.195,11.629c0.798,3.288,2.014,6.128,3.647,8.52
		c1.551,2.277,3.41,3.988,5.57,5.144c0.432-2.563,1.576-4.943,3.318-7.059C88.101,47.905,86.511,41.733,86.511,32.264z"/>
	<path fill="#006E12" d="M66.173,79.197H0v8.251h59.377C60.578,84.273,62.938,81.464,66.173,79.197z"/>
	<path fill="#006E12" d="M37.367,52.712c3.148,4.623,7.572,6.936,13.272,6.936c5.938,0,10.642-2.451,14.11-7.354
		c1.674-2.392,2.949-5.331,3.826-8.818s1.314-7.563,1.314-12.227c0-18.534-5.979-27.801-17.936-27.801
		c-3.188,0-5.969,0.598-8.34,1.794c-2.372,1.195-4.395,3.049-6.068,5.561c-3.27,4.981-4.903,12.236-4.903,21.762
		c0,4.464,0.379,8.341,1.136,11.629C34.537,47.48,35.732,50.32,37.367,52.712z M51.476,10.383c6.298,0,9.447,7.154,9.447,21.463
		c0,13.911-3.249,20.866-9.746,20.866c-6.377,0-9.566-6.815-9.566-20.447C41.611,17.677,44.9,10.383,51.476,10.383z"/>
	<path fill="#006E12" d="M88.462,73.246c-0.461-1.393-0.704-2.834-0.704-4.307l0.002-1.938H0v8.37h73.941
		c4.096-1.368,8.811-2.135,13.91-2.135C88.056,73.236,88.258,73.243,88.462,73.246z"/>
	<path fill="#006E12" d="M6.636,16.719c0.877-0.398,1.754-0.826,2.631-1.285c0.876-0.458,1.713-0.967,2.51-1.524v45.14h8.85V3.148
		h-3.826c-0.559,0.398-1.206,0.837-1.943,1.315c-0.738,0.479-1.495,0.946-2.271,1.405c-0.777,0.458-1.516,0.877-2.213,1.255
		C9.676,7.503,9.107,7.811,8.669,8.051C8.23,8.25,7.623,8.519,6.845,8.858S5.252,9.535,4.394,9.874s-1.674,0.648-2.451,0.928
		c-0.777,0.278-1.365,0.478-1.764,0.597v7.474c1.275-0.279,2.432-0.598,3.467-0.956C4.683,17.556,5.679,17.158,6.636,16.719z"/>
</g>
</svg>
