<?xml version="1.0" encoding="utf-8"?>
<!-- Generator: Adobe Illustrator 15.0.2, SVG Export Plug-In . SVG Version: 6.00 Build 0)  -->
<!DOCTYPE svg PUBLIC "-//W3C//DTD SVG 1.1//EN" "http://www.w3.org/Graphics/SVG/1.1/DTD/svg11.dtd">
<svg version="1.1" id="Calque_1" xmlns="http://www.w3.org/2000/svg" xmlns:xlink="http://www.w3.org/1999/xlink" x="0px" y="0px"
	 width="92px" height="56px" viewBox="0 0 92 56" enable-background="new 0 0 92 56" xml:space="preserve">
<circle fill="#2AEDFF" cx="45.027" cy="27.002" r="16.53"/>
<path fill="#EEEBE8" d="M45.027,12.797c7.843,0,14.203,6.359,14.203,14.203c0,7.849-6.359,14.208-14.203,14.208
	c-7.844,0-14.203-6.358-14.203-14.208C30.824,19.156,37.183,12.797,45.027,12.797z"/>
<path fill="#2AEDFF" d="M45.027,14.761c6.762,0,12.236,5.481,12.236,12.239c0,6.758-5.474,12.241-12.236,12.241
	c-6.76,0-12.241-5.482-12.241-12.241C32.786,20.242,38.267,14.761,45.027,14.761z"/>
<path fill="#E8C6B0" d="M45.027,16.953c5.547,0,10.047,4.499,10.047,10.046c0,5.551-4.5,10.045-10.047,10.045S34.98,32.551,34.98,27
	C34.98,21.452,39.479,16.953,45.027,16.953z"/>
<rect x="39.733" y="31.047" transform="matrix(0.7071 0.7071 -0.7071 0.7071 39.5874 -26.9289)" fill="#2AEDFF" width="25.132" height="6.548"/>
<rect x="42.168" y="33.33" transform="matrix(0.7072 0.707 -0.707 0.7072 39.5061 -26.8978)" fill="#EEEBE8" width="20.116" height="1.833"/>
</svg>
