<?xml version="1.0" encoding="utf-8"?>
<!-- Generator: Adobe Illustrator 15.0.2, SVG Export Plug-In . SVG Version: 6.00 Build 0)  -->
<!DOCTYPE svg PUBLIC "-//W3C//DTD SVG 1.1//EN" "http://www.w3.org/Graphics/SVG/1.1/DTD/svg11.dtd">
<svg version="1.1" id="Calque_1" xmlns="http://www.w3.org/2000/svg" xmlns:xlink="http://www.w3.org/1999/xlink" x="0px" y="0px"
	 width="205px" height="205px" viewBox="0 0 205 205" enable-background="new 0 0 205 205" xml:space="preserve">
<path fill="#2AEDFF" d="M98.189,23.887c40.414,0,73.188,32.767,73.188,73.188c0,40.422-32.774,73.199-73.188,73.199
	c-40.421,0-73.188-32.777-73.188-73.199C25.001,56.654,57.768,23.887,98.189,23.887z"/>
<path fill="#EEEBE8" d="M98.188,34.178c34.737,0,62.898,28.161,62.898,62.897c0,34.747-28.161,62.907-62.898,62.907
	c-34.736,0-62.897-28.16-62.897-62.907C35.291,62.339,63.451,34.178,98.188,34.178z"/>
<path fill="#2AEDFF" d="M98.188,42.878c29.941,0,54.195,24.267,54.195,54.197c0,29.932-24.254,54.205-54.195,54.205
	c-29.934,0-54.204-24.273-54.204-54.205C43.984,67.145,68.254,42.878,98.188,42.878z"/>
<path fill="#E8C6B0" d="M98.189,52.584c24.569,0,44.498,19.922,44.498,44.491c0,24.579-19.929,44.491-44.498,44.491
	c-24.569,0-44.491-19.912-44.491-44.491C53.699,72.506,73.621,52.584,98.189,52.584z"/>
<polygon fill="#2AEDFF" points="159.492,179.103 80.794,100.4 101.299,79.896 180.001,158.607 "/>
<polygon fill="#EEEBE8" points="158.688,163.529 95.7,100.549 101.436,94.804 164.424,157.793 "/>
</svg>
