<?xml version="1.0" encoding="utf-8"?>
<!-- Generator: Adobe Illustrator 15.0.2, SVG Export Plug-In . SVG Version: 6.00 Build 0)  -->
<!DOCTYPE svg PUBLIC "-//W3C//DTD SVG 1.1//EN" "http://www.w3.org/Graphics/SVG/1.1/DTD/svg11.dtd">
<svg version="1.1" id="Calque_1" xmlns="http://www.w3.org/2000/svg" xmlns:xlink="http://www.w3.org/1999/xlink" x="0px" y="0px"
	 width="80px" height="80px" viewBox="0 0 80 80" enable-background="new 0 0 80 80" xml:space="preserve">
<g>
	<circle fill="#2AEDFF" cx="38.336" cy="38.298" r="28.298"/>
	<path fill="#EEEBE8" d="M38.336,13.98c13.428,0,24.316,10.886,24.316,24.314c0,13.438-10.887,24.323-24.316,24.323
		c-13.428,0-24.313-10.885-24.313-24.323C14.022,24.867,24.909,13.98,38.336,13.98z"/>
	<path fill="#2AEDFF" d="M38.336,17.342c11.576,0,20.949,9.384,20.949,20.953S49.912,59.25,38.336,59.25
		c-11.572,0-20.955-9.385-20.955-20.956C17.381,26.726,26.764,17.342,38.336,17.342z"/>
	<path fill="#E8C6B0" d="M38.336,21.095c9.497,0,17.201,7.702,17.201,17.198c0,9.503-7.704,17.196-17.201,17.196
		c-9.496,0-17.199-7.692-17.199-17.195C21.137,28.797,28.839,21.095,38.336,21.095z"/>
	
		<rect x="29.274" y="45.222" transform="matrix(0.7071 0.7071 -0.7071 0.7071 50.8145 -21.0243)" fill="#2AEDFF" width="43.023" height="11.208"/>
	
		<rect x="33.447" y="49.129" transform="matrix(0.7072 0.707 -0.707 0.7072 50.6773 -20.9768)" fill="#EEEBE8" width="34.437" height="3.137"/>
</g>
</svg>
