<?xml version="1.0" encoding="utf-8"?>
<!-- Generator: Adobe Illustrator 15.0.2, SVG Export Plug-In . SVG Version: 6.00 Build 0)  -->
<!DOCTYPE svg PUBLIC "-//W3C//DTD SVG 1.1//EN" "http://www.w3.org/Graphics/SVG/1.1/DTD/svg11.dtd">
<svg version="1.1" id="Calque_1" xmlns="http://www.w3.org/2000/svg" xmlns:xlink="http://www.w3.org/1999/xlink" x="0px" y="0px"
	 width="12px" height="12px" viewBox="3.042 2.986 12 12" enable-background="new 3.042 2.986 12 12" xml:space="preserve">
<g id="Calque_1_1_">
</g>
<g display="none">
	<polyline display="inline" fill="none" stroke="#42608C" stroke-miterlimit="10" points="450.756,551.547 446.219,547.01 
		441.682,551.547 437.145,547.01 432.613,551.547 428.073,547.01 423.536,551.547 419,547.01 414.463,551.547 	"/>
	<polyline display="inline" fill="none" stroke="#42608C" stroke-miterlimit="10" points="450.756,545.547 446.219,541.01 
		441.682,545.547 437.145,541.01 432.613,545.547 428.073,541.01 423.536,545.547 419,541.01 414.463,545.547 	"/>
	<polyline display="inline" fill="none" stroke="#42608C" stroke-miterlimit="10" points="450.756,539.547 446.219,535.01 
		441.682,539.547 437.145,535.01 432.613,539.547 428.073,535.01 423.536,539.547 419,535.01 414.463,539.547 	"/>
	<polyline display="inline" fill="none" stroke="#42608C" stroke-miterlimit="10" points="450.756,533.547 446.219,529.01 
		441.682,533.547 437.145,529.01 432.613,533.547 428.073,529.01 423.536,533.547 419,529.01 414.463,533.547 	"/>
</g>
<g opacity="0.04">
	
		<rect x="8.524" y="-5.079" transform="matrix(0.7071 0.7071 -0.7071 0.7071 9.0235 -3.7378)" fill="#2D2D2D" width="1" height="28.204"/>
</g>
<g opacity="0.04">
	
		<rect x="-0.939" y="-7.635" transform="matrix(0.7071 0.7071 -0.7071 0.7071 4.4447 2.2045)" fill="#2D2D2D" width="1" height="28.205"/>
</g>
<g opacity="0.04">
	
		<rect x="18.123" y="-2.698" transform="matrix(0.7071 0.7071 -0.7071 0.7071 13.5187 -9.8284)" fill="#2D2D2D" width="1" height="28.204"/>
</g>
</svg>
